<svg xmlns="http://www.w3.org/2000/svg" width="600" height="600" viewBox="0 0 600 600">
  <g>
    <rect x="0" y="0" width="600" height="600" fill="#0d0221" stroke="none" stroke-width="2"/>
    <line x1="300" y1="300" x2="700" y2="300" stroke="hsl(280, 100%, 60%)" stroke-width="1"/>
    <line x1="300" y1="300" x2="693.9231012048832" y2="369.45927106677215" stroke="hsl(283, 100%, 60%)" stroke-width="1"/>
    <line x1="300" y1="300" x2="675.8770483143634" y2="436.8080573302675" stroke="hsl(286, 100%, 60%)" stroke-width="1"/>
    <line x1="300" y1="300" x2="646.4101615137755" y2="500" stroke="hsl(289, 100%, 60%)" stroke-width="1"/>
    <line x1="300" y1="300" x2="606.4177772475912" y2="557.1150438746157" stroke="hsl(292, 100%, 60%)" stroke-width="1"/>
    <line x1="300" y1="300" x2="557.1150438746158" y2="606.4177772475912" stroke="hsl(295, 100%, 60%)" stroke-width="1"/>
    <line x1="300" y1="300" x2="500.00000000000006" y2="646.4101615137754" stroke="hsl(298, 100%, 60%)" stroke-width="1"/>
    <line x1="300" y1="300" x2="436.8080573302675" y2="675.8770483143633" stroke="hsl(301, 100%, 60%)" stroke-width="1"/>
    <line x1="300" y1="300" x2="369.45927106677215" y2="693.9231012048832" stroke="hsl(304, 100%, 60%)" stroke-width="1"/>
    <line x1="300" y1="300" x2="300" y2="700" stroke="hsl(307, 100%, 60%)" stroke-width="1"/>
    <line x1="300" y1="300" x2="230.54072893322788" y2="693.9231012048832" stroke="hsl(310, 100%, 60%)" stroke-width="1"/>
    <line x1="300" y1="300" x2="163.19194266973253" y2="675.8770483143634" stroke="hsl(313, 100%, 60%)" stroke-width="1"/>
    <line x1="300" y1="300" x2="100.00000000000009" y2="646.4101615137755" stroke="hsl(316, 100%, 60%)" stroke-width="1"/>
    <line x1="300" y1="300" x2="42.884956125384235" y2="606.4177772475912" stroke="hsl(319, 100%, 60%)" stroke-width="1"/>
    <line x1="300" y1="300" x2="-6.417777247591175" y2="557.1150438746158" stroke="hsl(322, 100%, 60%)" stroke-width="1"/>
    <line x1="300" y1="300" x2="-46.410161513775506" y2="500" stroke="hsl(325, 100%, 60%)" stroke-width="1"/>
    <line x1="300" y1="300" x2="-75.87704831436332" y2="436.80805733026756" stroke="hsl(328, 100%, 60%)" stroke-width="1"/>
    <line x1="300" y1="300" x2="-93.92310120488321" y2="369.4592710667721" stroke="hsl(331, 100%, 60%)" stroke-width="1"/>
    <line x1="300" y1="300" x2="-100" y2="300.00000000000006" stroke="hsl(334, 100%, 60%)" stroke-width="1"/>
    <line x1="300" y1="300" x2="-93.92310120488321" y2="230.5407289332278" stroke="hsl(337, 100%, 60%)" stroke-width="1"/>
    <line x1="300" y1="300" x2="-75.87704831436338" y2="163.19194266973253" stroke="hsl(340, 100%, 60%)" stroke-width="1"/>
    <line x1="300" y1="300" x2="-46.41016151377545" y2="99.99999999999994" stroke="hsl(343, 100%, 60%)" stroke-width="1"/>
    <line x1="300" y1="300" x2="-6.417777247591232" y2="42.88495612538429" stroke="hsl(346, 100%, 60%)" stroke-width="1"/>
    <line x1="300" y1="300" x2="42.884956125384235" y2="-6.417777247591175" stroke="hsl(349, 100%, 60%)" stroke-width="1"/>
    <line x1="300" y1="300" x2="99.99999999999983" y2="-46.41016151377539" stroke="hsl(352, 100%, 60%)" stroke-width="1"/>
    <line x1="300" y1="300" x2="163.19194266973224" y2="-75.87704831436326" stroke="hsl(355, 100%, 60%)" stroke-width="1"/>
    <line x1="300" y1="300" x2="230.54072893322785" y2="-93.92310120488321" stroke="hsl(358, 100%, 60%)" stroke-width="1"/>
    <line x1="300" y1="300" x2="299.99999999999994" y2="-100" stroke="hsl(361, 100%, 60%)" stroke-width="1"/>
    <line x1="300" y1="300" x2="369.459271066772" y2="-93.92310120488327" stroke="hsl(364, 100%, 60%)" stroke-width="1"/>
    <line x1="300" y1="300" x2="436.8080573302673" y2="-75.87704831436344" stroke="hsl(367, 100%, 60%)" stroke-width="1"/>
    <line x1="300" y1="300" x2="500.00000000000006" y2="-46.41016151377545" stroke="hsl(370, 100%, 60%)" stroke-width="1"/>
    <line x1="300" y1="300" x2="557.1150438746157" y2="-6.417777247591232" stroke="hsl(373, 100%, 60%)" stroke-width="1"/>
    <line x1="300" y1="300" x2="606.4177772475912" y2="42.88495612538418" stroke="hsl(376, 100%, 60%)" stroke-width="1"/>
    <line x1="300" y1="300" x2="646.4101615137754" y2="99.99999999999983" stroke="hsl(379, 100%, 60%)" stroke-width="1"/>
    <line x1="300" y1="300" x2="675.8770483143634" y2="163.19194266973255" stroke="hsl(382, 100%, 60%)" stroke-width="1"/>
    <line x1="300" y1="300" x2="693.9231012048831" y2="230.54072893322748" stroke="hsl(385, 100%, 60%)" stroke-width="1"/>
    <polygon points="350.00,300.00 325.00,343.30 275.00,343.30 250.00,300.00 275.00,256.70 325.00,256.70" fill="none" stroke="hsla(180, 100%, 50%, 0.8)" stroke-width="2"/>
    <polygon points="395.00,300.00 347.50,382.27 252.50,382.27 205.00,300.00 252.50,217.73 347.50,217.73" fill="none" stroke="hsla(195, 100%, 50%, 0.8)" stroke-width="2"/>
    <polygon points="440.00,300.00 370.00,421.24 230.00,421.24 160.00,300.00 230.00,178.76 370.00,178.76" fill="none" stroke="hsla(210, 100%, 50%, 0.8)" stroke-width="2"/>
    <polygon points="485.00,300.00 392.50,460.21 207.50,460.21 115.00,300.00 207.50,139.79 392.50,139.79" fill="none" stroke="hsla(225, 100%, 50%, 0.8)" stroke-width="2"/>
    <polygon points="530.00,300.00 415.00,499.19 185.00,499.19 70.00,300.00 185.00,100.81 415.00,100.81" fill="none" stroke="hsla(240, 100%, 50%, 0.8)" stroke-width="2"/>
    <polygon points="575.00,300.00 437.50,538.16 162.50,538.16 25.00,300.00 162.50,61.84 437.50,61.84" fill="none" stroke="hsla(255, 100%, 50%, 0.8)" stroke-width="2"/>
    <path d="M300.00,300.00 L320.00,300.00 L340.00,300.00 L360.00,300.00" fill="none" stroke="#ff2a6d" stroke-width="3"/>
    <path d="M300.00,300.00 L317.32,310.00 L334.64,320.00 L351.96,330.00" fill="none" stroke="#ff2a6d" stroke-width="3"/>
    <path d="M300.00,300.00 L310.00,317.32 L320.00,334.64 L330.00,351.96" fill="none" stroke="#ff2a6d" stroke-width="3"/>
    <path d="M300.00,300.00 L300.00,320.00 L300.00,340.00 L300.00,360.00" fill="none" stroke="#ff2a6d" stroke-width="3"/>
    <path d="M300.00,300.00 L290.00,317.32 L280.00,334.64 L270.00,351.96" fill="none" stroke="#ff2a6d" stroke-width="3"/>
    <path d="M300.00,300.00 L282.68,310.00 L265.36,320.00 L248.04,330.00" fill="none" stroke="#ff2a6d" stroke-width="3"/>
    <path d="M300.00,300.00 L280.00,300.00 L260.00,300.00 L240.00,300.00" fill="none" stroke="#ff2a6d" stroke-width="3"/>
    <path d="M300.00,300.00 L282.68,290.00 L265.36,280.00 L248.04,270.00" fill="none" stroke="#ff2a6d" stroke-width="3"/>
    <path d="M300.00,300.00 L290.00,282.68 L280.00,265.36 L270.00,248.04" fill="none" stroke="#ff2a6d" stroke-width="3"/>
    <path d="M300.00,300.00 L300.00,280.00 L300.00,260.00 L300.00,240.00" fill="none" stroke="#ff2a6d" stroke-width="3"/>
    <path d="M300.00,300.00 L310.00,282.68 L320.00,265.36 L330.00,248.04" fill="none" stroke="#ff2a6d" stroke-width="3"/>
    <path d="M300.00,300.00 L317.32,290.00 L334.64,280.00 L351.96,270.00" fill="none" stroke="#ff2a6d" stroke-width="3"/>
    <circle cx="500" cy="300" r="6" fill="#00fff9" stroke="#05ffa1" stroke-width="1"/>
    <circle cx="493.18516525781365" cy="351.76380902050414" r="6" fill="#ff2a6d" stroke="#d600ff" stroke-width="1"/>
    <circle cx="473.20508075688775" cy="400" r="6" fill="#00fff9" stroke="#05ffa1" stroke-width="1"/>
    <circle cx="441.4213562373095" cy="441.4213562373095" r="6" fill="#ff2a6d" stroke="#d600ff" stroke-width="1"/>
    <circle cx="400" cy="473.2050807568877" r="6" fill="#00fff9" stroke="#05ffa1" stroke-width="1"/>
    <circle cx="351.76380902050414" cy="493.18516525781365" r="6" fill="#ff2a6d" stroke="#d600ff" stroke-width="1"/>
    <circle cx="300" cy="500" r="6" fill="#00fff9" stroke="#05ffa1" stroke-width="1"/>
    <circle cx="248.23619097949583" cy="493.18516525781365" r="6" fill="#ff2a6d" stroke="#d600ff" stroke-width="1"/>
    <circle cx="200.00000000000006" cy="473.20508075688775" r="6" fill="#00fff9" stroke="#05ffa1" stroke-width="1"/>
    <circle cx="158.57864376269052" cy="441.4213562373095" r="6" fill="#ff2a6d" stroke="#d600ff" stroke-width="1"/>
    <circle cx="126.79491924311225" cy="400" r="6" fill="#00fff9" stroke="#05ffa1" stroke-width="1"/>
    <circle cx="106.81483474218635" cy="351.7638090205042" r="6" fill="#ff2a6d" stroke="#d600ff" stroke-width="1"/>
    <circle cx="100" cy="300" r="6" fill="#00fff9" stroke="#05ffa1" stroke-width="1"/>
    <circle cx="106.81483474218632" cy="248.23619097949592" r="6" fill="#ff2a6d" stroke="#d600ff" stroke-width="1"/>
    <circle cx="126.79491924311228" cy="199.99999999999997" r="6" fill="#00fff9" stroke="#05ffa1" stroke-width="1"/>
    <circle cx="158.57864376269046" cy="158.57864376269052" r="6" fill="#ff2a6d" stroke="#d600ff" stroke-width="1"/>
    <circle cx="199.99999999999991" cy="126.7949192431123" r="6" fill="#00fff9" stroke="#05ffa1" stroke-width="1"/>
    <circle cx="248.23619097949586" cy="106.81483474218635" r="6" fill="#ff2a6d" stroke="#d600ff" stroke-width="1"/>
    <circle cx="299.99999999999994" cy="100" r="6" fill="#00fff9" stroke="#05ffa1" stroke-width="1"/>
    <circle cx="351.76380902050425" cy="106.81483474218635" r="6" fill="#ff2a6d" stroke="#d600ff" stroke-width="1"/>
    <circle cx="400" cy="126.79491924311228" r="6" fill="#00fff9" stroke="#05ffa1" stroke-width="1"/>
    <circle cx="441.4213562373095" cy="158.57864376269046" r="6" fill="#ff2a6d" stroke="#d600ff" stroke-width="1"/>
    <circle cx="473.2050807568877" cy="199.99999999999991" r="6" fill="#00fff9" stroke="#05ffa1" stroke-width="1"/>
    <circle cx="493.18516525781365" cy="248.23619097949586" r="6" fill="#ff2a6d" stroke="#d600ff" stroke-width="1"/>
    <circle cx="300" cy="300" r="270" fill="none" stroke="hsla(300, 100%, 60%, 0.3)" stroke-width="2"/>
    <circle cx="300" cy="300" r="278" fill="none" stroke="hsla(280, 100%, 60%, 0.21999999999999997)" stroke-width="2"/>
    <circle cx="300" cy="300" r="286" fill="none" stroke="hsla(260, 100%, 60%, 0.13999999999999999)" stroke-width="2"/>
    <circle cx="300" cy="300" r="30" fill="none" stroke="hsla(180, 100%, 60%, 0.5)" stroke-width="3"/>
    <circle cx="300" cy="300" r="25" fill="none" stroke="hsla(180, 100%, 70%, 0.65)" stroke-width="2.5"/>
    <circle cx="300" cy="300" r="20" fill="none" stroke="hsla(180, 100%, 80%, 0.8)" stroke-width="2"/>
    <circle cx="300" cy="300" r="15" fill="#00fff9" stroke="hsla(180, 100%, 90%, 0.95)" stroke-width="1.5"/>
  </g>
</svg>