<svg xmlns="http://www.w3.org/2000/svg" width="400" height="400" viewBox="0 0 400 400">
  <polygon points="200.00,60.00 120.00,40.00 280.00,30.00" fill="hsla(0, 60%, 70%, 0.7)" stroke="white" stroke-width="1"/>
  <polygon points="50.00,80.00 120.00,40.00 100.00,180.00" fill="hsla(12, 60%, 70%, 0.7)" stroke="white" stroke-width="1"/>
  <polygon points="40.00,150.00 50.00,80.00 100.00,180.00" fill="hsla(24, 60%, 70%, 0.7)" stroke="white" stroke-width="1"/>
  <polygon points="120.00,40.00 200.00,60.00 180.00,140.00" fill="hsla(36, 60%, 70%, 0.7)" stroke="white" stroke-width="1"/>
  <polygon points="100.00,180.00 120.00,40.00 180.00,140.00" fill="hsla(48, 60%, 70%, 0.7)" stroke="white" stroke-width="1"/>
  <polygon points="200.00,60.00 280.00,30.00 260.00,160.00" fill="hsla(60, 60%, 70%, 0.7)" stroke="white" stroke-width="1"/>
  <polygon points="180.00,140.00 200.00,60.00 260.00,160.00" fill="hsla(72, 60%, 70%, 0.7)" stroke="white" stroke-width="1"/>
  <polygon points="280.00,30.00 350.00,70.00 340.00,130.00" fill="hsla(84, 60%, 70%, 0.7)" stroke="white" stroke-width="1"/>
  <polygon points="260.00,160.00 280.00,30.00 340.00,130.00" fill="hsla(96, 60%, 70%, 0.7)" stroke="white" stroke-width="1"/>
  <polygon points="40.00,150.00 100.00,180.00 60.00,240.00" fill="hsla(108, 60%, 70%, 0.7)" stroke="white" stroke-width="1"/>
  <polygon points="60.00,240.00 100.00,180.00 140.00,280.00" fill="hsla(120, 60%, 70%, 0.7)" stroke="white" stroke-width="1"/>
  <polygon points="100.00,180.00 180.00,140.00 220.00,220.00" fill="hsla(132, 60%, 70%, 0.7)" stroke="white" stroke-width="1"/>
  <polygon points="140.00,280.00 100.00,180.00 220.00,220.00" fill="hsla(144, 60%, 70%, 0.7)" stroke="white" stroke-width="1"/>
  <polygon points="180.00,140.00 260.00,160.00 220.00,220.00" fill="hsla(156, 60%, 70%, 0.7)" stroke="white" stroke-width="1"/>
  <polygon points="220.00,220.00 260.00,160.00 300.00,260.00" fill="hsla(168, 60%, 70%, 0.7)" stroke="white" stroke-width="1"/>
  <polygon points="340.00,130.00 350.00,70.00 370.00,200.00" fill="hsla(180, 60%, 70%, 0.7)" stroke="white" stroke-width="1"/>
  <polygon points="260.00,160.00 340.00,130.00 370.00,200.00" fill="hsla(192, 60%, 70%, 0.7)" stroke="white" stroke-width="1"/>
  <polygon points="300.00,260.00 260.00,160.00 370.00,200.00" fill="hsla(204, 60%, 70%, 0.7)" stroke="white" stroke-width="1"/>
  <polygon points="40.00,150.00 60.00,240.00 30.00,320.00" fill="hsla(216, 60%, 70%, 0.7)" stroke="white" stroke-width="1"/>
  <polygon points="60.00,240.00 140.00,280.00 30.00,320.00" fill="hsla(228, 60%, 70%, 0.7)" stroke="white" stroke-width="1"/>
  <polygon points="30.00,320.00 140.00,280.00 110.00,360.00" fill="hsla(240, 60%, 70%, 0.7)" stroke="white" stroke-width="1"/>
  <polygon points="140.00,280.00 220.00,220.00 190.00,340.00" fill="hsla(252, 60%, 70%, 0.7)" stroke="white" stroke-width="1"/>
  <polygon points="220.00,220.00 300.00,260.00 190.00,340.00" fill="hsla(264, 60%, 70%, 0.7)" stroke="white" stroke-width="1"/>
  <polygon points="110.00,360.00 140.00,280.00 190.00,340.00" fill="hsla(276, 60%, 70%, 0.7)" stroke="white" stroke-width="1"/>
  <polygon points="190.00,340.00 300.00,260.00 270.00,380.00" fill="hsla(288, 60%, 70%, 0.7)" stroke="white" stroke-width="1"/>
  <polygon points="110.00,360.00 190.00,340.00 270.00,380.00" fill="hsla(300, 60%, 70%, 0.7)" stroke="white" stroke-width="1"/>
  <polygon points="300.00,260.00 370.00,200.00 350.00,330.00" fill="hsla(312, 60%, 70%, 0.7)" stroke="white" stroke-width="1"/>
  <polygon points="270.00,380.00 300.00,260.00 350.00,330.00" fill="hsla(324, 60%, 70%, 0.7)" stroke="white" stroke-width="1"/>
</svg>