<svg xmlns="http://www.w3.org/2000/svg" width="500" height="500" viewBox="0 0 500 500">
  <path d="M25.00,25.00 L21.49,26.91 L18.98,30.03 L17.61,33.79 L17.13,37.76 L17.26,41.76 L17.84,45.71 L18.75,49.61 L19.98,53.41 L21.52,57.11 L23.37,60.65 L25.56,64.00 L28.10,67.09 L31.00,69.84 L34.23,72.21 L37.74,74.13 L41.45,75.61 L45.31,76.68 L49.24,77.41 L53.21,77.88 L57.20,78.17 L61.20,78.34 L65.20,78.43 L69.20,78.49 L73.20,78.51 L77.20,78.53 L81.20,78.53 L85.20,78.54 L89.20,78.54 L93.20,78.54 L97.20,78.54 L101.20,78.54 L105.20,78.54 L109.20,78.54 L113.20,78.54 L117.20,78.54 L121.20,78.54 L125.20,78.54 L129.20,78.54 L133.20,78.54 L137.20,78.54 L141.20,78.54 L145.20,78.54 L149.20,78.54 L153.20,78.54 L157.20,78.54 L161.20,78.54 L165.20,78.54 L169.20,78.54 L173.20,78.54" fill="none" stroke="hsla(200, 60%, 50%, 0.6)" stroke-width="1"/>
  <path d="M75.00,25.00 L77.84,22.18 L81.12,19.89 L84.63,17.98 L88.24,16.26 L91.86,14.55 L95.41,12.71 L98.83,10.64 L102.04,8.25 L104.95,5.50 L107.47,2.40 L109.53,-1.03 L111.09,-4.71 L112.13,-8.57 L112.66,-12.54 L112.71,-16.54 L112.29,-20.52 L111.44,-24.43 L110.17,-28.22 L108.50,-31.85 L106.44,-35.28 L104.00,-38.45 L101.22,-41.32 L98.12,-43.85 L94.75,-46.02 L91.18,-47.81 L87.44,-49.24 L83.60,-50.34 L79.68,-51.14 L75.71,-51.66 L71.72,-51.94 L67.72,-52.01 L63.72,-51.86 L59.74,-51.52 L55.78,-50.98 L51.85,-50.24 L47.96,-49.29 L44.14,-48.10 L40.41,-46.67 L36.78,-44.97 L33.31,-42.99 L30.03,-40.71 L26.98,-38.12 L24.21,-35.23 L21.77,-32.06 L19.67,-28.66 L17.92,-25.06 L16.50,-21.32 L15.38,-17.48 L14.52,-13.57" fill="none" stroke="hsla(201.5, 60%, 50%, 0.6)" stroke-width="1"/>
  <path d="M125.00,25.00 L121.05,24.37 L117.58,22.38 L115.04,19.29 L113.58,15.57 L113.02,11.60 L113.04,7.60 L113.35,3.62 L113.73,-0.36 L114.04,-4.35 L114.18,-8.35 L114.08,-12.35 L113.70,-16.33 L113.01,-20.27 L111.99,-24.14 L110.63,-27.90 L108.92,-31.51 L106.84,-34.94 L104.42,-38.12 L101.65,-41.01 L98.58,-43.57 L95.24,-45.77 L91.69,-47.60 L87.97,-49.08 L84.13,-50.21 L80.22,-51.05 L76.26,-51.60 L72.27,-51.92 L68.27,-52.01 L64.27,-51.89 L60.29,-51.58 L56.32,-51.07 L52.38,-50.36 L48.49,-49.43 L44.66,-48.28 L40.91,-46.88 L37.27,-45.22 L33.78,-43.28 L30.46,-41.04 L27.38,-38.49 L24.57,-35.64 L22.08,-32.51 L19.93,-29.14 L18.14,-25.56 L16.68,-21.84 L15.52,-18.01 L14.63,-14.11 L13.95,-10.17 L13.46,-6.20 L13.11,-2.21" fill="none" stroke="hsla(203, 60%, 50%, 0.6)" stroke-width="1"/>
  <path d="M175.00,25.00 L173.58,21.26 L172.46,17.42 L171.60,13.52 L170.95,9.57 L170.48,5.60 L170.15,1.61 L169.94,-2.39 L169.84,-6.38 L169.83,-10.38 L169.91,-14.38 L170.08,-18.38 L170.33,-22.37 L170.68,-26.36 L171.13,-30.33 L171.68,-34.29 L172.36,-38.23 L173.18,-42.15 L174.16,-46.03 L175.33,-49.85 L176.72,-53.61 L178.35,-57.26 L180.27,-60.77 L182.50,-64.08 L185.07,-67.15 L187.99,-69.88 L191.23,-72.23 L194.74,-74.15 L198.46,-75.62 L202.32,-76.69 L206.25,-77.41 L210.22,-77.88 L214.21,-78.17 L218.21,-78.34 L222.21,-78.43 L226.21,-78.49 L230.21,-78.51 L234.21,-78.53 L238.21,-78.53 L242.21,-78.54 L246.21,-78.54 L250.21,-78.54 L254.21,-78.54 L258.21,-78.54 L262.21,-78.54 L266.21,-78.54 L270.21,-78.54 L274.21,-78.54 L278.21,-78.54 L282.21,-78.54" fill="none" stroke="hsla(204.5, 60%, 50%, 0.6)" stroke-width="1"/>
  <path d="M225.00,25.00 L227.51,28.12 L229.54,31.56 L230.81,35.35 L230.98,39.35 L229.82,43.18 L227.37,46.34 L224.02,48.53 L220.22,49.76 L216.24,50.23 L212.25,50.15 L208.28,49.65 L204.36,48.81 L200.53,47.68 L196.79,46.25 L193.18,44.53 L189.73,42.51 L186.48,40.18 L183.48,37.53 L180.77,34.59 L178.39,31.37 L176.36,27.93 L174.68,24.30 L173.33,20.53 L172.27,16.68 L171.45,12.76 L170.84,8.81 L170.40,4.83 L170.10,0.84 L169.91,-3.15 L169.83,-7.15 L169.84,-11.15 L169.93,-15.15 L170.12,-19.15 L170.39,-23.14 L170.76,-27.12 L171.22,-31.09 L171.80,-35.05 L172.51,-38.99 L173.36,-42.90 L174.37,-46.77 L175.58,-50.58 L177.01,-54.32 L178.69,-57.94 L180.67,-61.42 L182.97,-64.69 L185.61,-67.70 L188.59,-70.37 L191.89,-72.63 L195.44,-74.46" fill="none" stroke="hsla(206, 60%, 50%, 0.6)" stroke-width="1"/>
  <path d="M275.00,25.00 L272.07,27.72 L269.41,30.71 L266.81,33.75 L264.14,36.73 L261.31,39.55 L258.26,42.15 L255.00,44.46 L251.54,46.46 L247.90,48.13 L244.13,49.47 L240.26,50.49 L236.33,51.23 L232.36,51.72 L228.37,51.97 L224.37,52.01 L220.37,51.84 L216.39,51.48 L212.43,50.91 L208.50,50.15 L204.63,49.17 L200.81,47.96 L197.09,46.50 L193.48,44.77 L190.03,42.76 L186.76,40.44 L183.74,37.82 L181.01,34.90 L178.60,31.71 L176.54,28.28 L174.83,24.66 L173.45,20.91 L172.36,17.06 L171.52,13.15 L170.90,9.20 L170.44,5.22 L170.12,1.24 L169.93,-2.76 L169.83,-6.76 L169.83,-10.76 L169.92,-14.76 L170.10,-18.75 L170.36,-22.74 L170.72,-26.73 L171.17,-30.70 L171.74,-34.66 L172.43,-38.60 L173.27,-42.51 L174.26,-46.39 L175.45,-50.21" fill="none" stroke="hsla(207.5, 60%, 50%, 0.6)" stroke-width="1"/>
  <path d="M325.00,25.00 L326.50,28.71 L327.61,32.55 L328.57,36.43 L329.52,40.32 L330.53,44.19 L331.67,48.02 L332.99,51.80 L334.52,55.50 L336.31,59.07 L338.40,62.49 L340.81,65.68 L343.56,68.58 L346.64,71.13 L350.03,73.26 L353.66,74.94 L357.45,76.20 L361.35,77.09 L365.31,77.68 L369.29,78.05 L373.29,78.27 L377.28,78.39 L381.28,78.46 L385.28,78.50 L389.28,78.52 L393.28,78.53 L397.28,78.54 L401.28,78.54 L405.28,78.54 L409.28,78.54 L413.28,78.54 L417.28,78.54 L421.28,78.54 L425.28,78.54 L429.28,78.54 L433.28,78.54 L437.28,78.54 L441.28,78.54 L445.28,78.54 L449.28,78.54 L453.28,78.54 L457.28,78.54 L461.28,78.54 L465.28,78.54 L469.28,78.54 L473.28,78.54 L477.28,78.54 L481.28,78.54 L485.28,78.54 L489.28,78.54" fill="none" stroke="hsla(209, 60%, 50%, 0.6)" stroke-width="1"/>
  <path d="M375.00,25.00 L376.77,21.42 L379.40,18.40 L382.64,16.05 L386.26,14.34 L390.07,13.14 L393.97,12.25 L397.90,11.49 L401.82,10.71 L405.70,9.73 L409.49,8.45 L413.12,6.77 L416.49,4.61 L419.49,1.97 L422.02,-1.13 L424.01,-4.60 L425.41,-8.35 L426.22,-12.26 L426.47,-16.26 L426.21,-20.25 L425.47,-24.18 L424.28,-28.00 L422.66,-31.66 L420.64,-35.11 L418.24,-38.30 L415.47,-41.20 L412.39,-43.75 L409.04,-45.93 L405.48,-47.74 L401.75,-49.19 L397.90,-50.30 L393.99,-51.11 L390.02,-51.64 L386.03,-51.94 L382.03,-52.01 L378.04,-51.87 L374.05,-51.54 L370.09,-51.01 L366.15,-50.27 L362.27,-49.33 L358.44,-48.15 L354.70,-46.73 L351.08,-45.04 L347.60,-43.07 L344.31,-40.80 L341.25,-38.22 L338.47,-35.34 L336.01,-32.19 L333.90,-28.79 L332.14,-25.20" fill="none" stroke="hsla(210.5, 60%, 50%, 0.6)" stroke-width="1"/>
  <path d="M425.00,25.00 L423.78,21.19 L423.56,17.20 L424.00,13.22 L424.80,9.30 L425.73,5.41 L426.60,1.51 L427.31,-2.43 L427.79,-6.40 L427.97,-10.40 L427.85,-14.39 L427.38,-18.37 L426.57,-22.29 L425.41,-26.11 L423.89,-29.81 L422.00,-33.34 L419.74,-36.64 L417.14,-39.68 L414.21,-42.40 L410.99,-44.78 L407.53,-46.79 L403.88,-48.43 L400.10,-49.72 L396.22,-50.69 L392.28,-51.37 L388.30,-51.80 L384.31,-51.99 L380.31,-51.97 L376.31,-51.75 L372.33,-51.33 L368.38,-50.72 L364.47,-49.89 L360.61,-48.85 L356.82,-47.57 L353.12,-46.03 L349.55,-44.23 L346.15,-42.13 L342.95,-39.72 L340.01,-37.01 L337.37,-34.01 L335.06,-30.75 L333.10,-27.26 L331.48,-23.60 L330.19,-19.81 L329.18,-15.94 L328.40,-12.02 L327.83,-8.06 L327.41,-4.08 L327.13,-0.09 L326.97,3.90" fill="none" stroke="hsla(212, 60%, 50%, 0.6)" stroke-width="1"/>
  <path d="M475.00,25.00 L478.66,23.39 L481.36,20.44 L482.96,16.77 L483.73,12.85 L484.00,8.86 L484.04,4.86 L483.99,0.86 L483.93,-3.14 L483.92,-7.14 L483.96,-11.14 L484.07,-15.14 L484.27,-19.14 L484.54,-23.13 L484.91,-27.11 L485.38,-31.08 L485.96,-35.04 L486.66,-38.98 L487.51,-42.89 L488.53,-46.76 L489.73,-50.57 L491.16,-54.31 L492.85,-57.93 L494.82,-61.41 L497.12,-64.69 L499.76,-67.69 L502.74,-70.36 L506.03,-72.63 L509.59,-74.46 L513.34,-75.85 L517.21,-76.85 L521.16,-77.52 L525.13,-77.95 L529.13,-78.21 L533.12,-78.36 L537.12,-78.45 L541.12,-78.49 L545.12,-78.52 L549.12,-78.53 L553.12,-78.53 L557.12,-78.54 L561.12,-78.54 L565.12,-78.54 L569.12,-78.54 L573.12,-78.54 L577.12,-78.54 L581.12,-78.54 L585.12,-78.54 L589.12,-78.54 L593.12,-78.54" fill="none" stroke="hsla(213.5, 60%, 50%, 0.6)" stroke-width="1"/>
  <path d="M25.00,75.00 L28.91,75.85 L32.84,76.58 L36.80,77.18 L40.77,77.64 L44.76,77.97 L48.75,78.19 L52.75,78.34 L56.75,78.43 L60.75,78.48 L64.75,78.51 L68.75,78.52 L72.75,78.53 L76.75,78.54 L80.75,78.54 L84.75,78.54 L88.75,78.54 L92.75,78.54 L96.75,78.54 L100.75,78.54 L104.75,78.54 L108.75,78.54 L112.75,78.54 L116.75,78.54 L120.75,78.54 L124.75,78.54 L128.75,78.54 L132.75,78.54 L136.75,78.54 L140.75,78.54 L144.75,78.54 L148.75,78.54 L152.75,78.54 L156.75,78.54 L160.75,78.54 L164.75,78.54 L168.75,78.54 L172.75,78.54 L176.75,78.54 L180.75,78.54 L184.75,78.54 L188.75,78.54 L192.75,78.54 L196.75,78.54 L200.75,78.54 L204.75,78.54 L208.75,78.54 L212.75,78.54 L216.75,78.54 L220.75,78.54" fill="none" stroke="hsla(215, 60%, 50%, 0.6)" stroke-width="1"/>
  <path d="M75.00,75.00 L78.61,76.72 L82.51,77.62 L86.48,78.08 L90.48,78.31 L94.47,78.42 L98.47,78.48 L102.47,78.51 L106.47,78.52 L110.47,78.53 L114.47,78.53 L118.47,78.54 L122.47,78.54 L126.47,78.54 L130.47,78.54 L134.47,78.54 L138.47,78.54 L142.47,78.54 L146.47,78.54 L150.47,78.54 L154.47,78.54 L158.47,78.54 L162.47,78.54 L166.47,78.54 L170.47,78.54 L174.47,78.54 L178.47,78.54 L182.47,78.54 L186.47,78.54 L190.47,78.54 L194.47,78.54 L198.47,78.54 L202.47,78.54 L206.47,78.54 L210.47,78.53 L214.47,78.53 L218.47,78.53 L222.47,78.52 L226.47,78.51 L230.47,78.50 L234.47,78.48 L238.47,78.45 L242.47,78.41 L246.47,78.34 L250.47,78.24 L254.47,78.10 L258.46,77.89 L262.45,77.60 L266.43,77.19 L270.39,76.64" fill="none" stroke="hsla(216.5, 60%, 50%, 0.6)" stroke-width="1"/>
  <path d="M125.00,75.00 L128.86,76.05 L132.80,76.72 L136.78,77.14 L140.77,77.42 L144.77,77.60 L148.77,77.72 L152.76,77.78 L156.76,77.82 L160.76,77.82 L164.76,77.79 L168.76,77.74 L172.76,77.64 L176.76,77.50 L180.76,77.30 L184.75,77.02 L188.73,76.62 L192.68,76.05 L196.60,75.24 L200.43,74.07 L204.07,72.42 L207.33,70.09 L209.84,66.98 L211.09,63.18 L210.67,59.20 L208.72,55.71 L205.83,52.95 L202.52,50.71 L199.05,48.71 L195.57,46.74 L192.15,44.67 L188.85,42.41 L185.73,39.91 L182.84,37.14 L180.23,34.11 L177.95,30.82 L176.00,27.33 L174.40,23.66 L173.11,19.87 L172.10,16.00 L171.33,12.08 L170.75,8.12 L170.34,4.14 L170.06,0.15 L169.89,-3.84 L169.82,-7.84 L169.85,-11.84 L169.96,-15.84 L170.16,-19.84 L170.45,-23.83" fill="none" stroke="hsla(218, 60%, 50%, 0.6)" stroke-width="1"/>
  <path d="M175.00,75.00 L178.95,74.38 L182.85,73.50 L186.66,72.27 L190.28,70.58 L193.55,68.27 L196.18,65.26 L197.77,61.59 L197.98,57.59 L196.82,53.77 L194.69,50.38 L192.05,47.37 L189.21,44.56 L186.35,41.76 L183.60,38.86 L181.03,35.78 L178.73,32.52 L176.71,29.06 L175.02,25.44 L173.62,21.69 L172.51,17.85 L171.65,13.94 L170.99,10.00 L170.51,6.02 L170.17,2.04 L169.96,-1.96 L169.84,-5.95 L169.82,-9.95 L169.90,-13.95 L170.05,-17.95 L170.30,-21.94 L170.64,-25.93 L171.07,-29.90 L171.62,-33.87 L172.28,-37.81 L173.09,-41.73 L174.05,-45.61 L175.20,-49.44 L176.56,-53.21 L178.16,-56.87 L180.05,-60.40 L182.25,-63.74 L184.78,-66.83 L187.66,-69.61 L190.87,-72.00 L194.35,-73.96 L198.05,-75.48 L201.90,-76.59 L205.82,-77.35 L209.79,-77.84" fill="none" stroke="hsla(219.5, 60%, 50%, 0.6)" stroke-width="1"/>
  <path d="M225.00,75.00 L228.63,73.32 L231.82,70.90 L234.13,67.64 L234.97,63.73 L233.93,59.86 L231.29,56.86 L227.80,54.90 L224.00,53.66 L220.10,52.78 L216.18,52.01 L212.25,51.22 L208.36,50.32 L204.50,49.26 L200.70,48.00 L196.99,46.51 L193.39,44.76 L189.95,42.73 L186.69,40.40 L183.68,37.77 L180.96,34.84 L178.56,31.64 L176.50,28.21 L174.80,24.59 L173.42,20.84 L172.34,16.99 L171.51,13.07 L170.89,9.12 L170.43,5.15 L170.12,1.16 L169.92,-2.84 L169.83,-6.83 L169.83,-10.83 L169.92,-14.83 L170.10,-18.83 L170.37,-22.82 L170.72,-26.80 L171.18,-30.78 L171.75,-34.74 L172.45,-38.68 L173.28,-42.59 L174.29,-46.46 L175.48,-50.28 L176.89,-54.02 L178.55,-57.66 L180.50,-61.15 L182.77,-64.44 L185.39,-67.47 L188.34,-70.17 L191.61,-72.47" fill="none" stroke="hsla(221, 60%, 50%, 0.6)" stroke-width="1"/>
  <path d="M275.00,75.00 L278.80,73.77 L282.51,72.25 L286.08,70.45 L289.51,68.40 L292.81,66.14 L296.03,63.76 L299.21,61.34 L302.46,59.00 L305.86,56.89 L309.48,55.20 L313.35,54.16 L317.34,53.97 L321.27,54.72 L324.94,56.31 L328.29,58.49 L331.39,61.02 L334.38,63.68 L337.37,66.33 L340.48,68.85 L343.77,71.13 L347.24,73.11 L350.90,74.74 L354.69,76.00 L358.59,76.91 L362.54,77.55 L366.52,77.96 L370.51,78.21 L374.51,78.36 L378.50,78.44 L382.50,78.49 L386.50,78.51 L390.50,78.53 L394.50,78.53 L398.50,78.54 L402.50,78.54 L406.50,78.54 L410.50,78.54 L414.50,78.54 L418.50,78.54 L422.50,78.54 L426.50,78.54 L430.50,78.54 L434.50,78.54 L438.50,78.54 L442.50,78.54 L446.50,78.54 L450.50,78.54 L454.50,78.54 L458.50,78.54" fill="none" stroke="hsla(222.5, 60%, 50%, 0.6)" stroke-width="1"/>
  <path d="M325.00,75.00 L328.98,75.38 L332.95,75.84 L336.92,76.34 L340.89,76.82 L344.87,77.26 L348.85,77.63 L352.84,77.92 L356.84,78.14 L360.83,78.29 L364.83,78.39 L368.83,78.45 L372.83,78.49 L376.83,78.51 L380.83,78.53 L384.83,78.53 L388.83,78.54 L392.83,78.54 L396.83,78.54 L400.83,78.54 L404.83,78.54 L408.83,78.54 L412.83,78.54 L416.83,78.54 L420.83,78.54 L424.83,78.54 L428.83,78.54 L432.83,78.54 L436.83,78.54 L440.83,78.54 L444.83,78.54 L448.83,78.54 L452.83,78.54 L456.83,78.54 L460.83,78.54 L464.83,78.54 L468.83,78.54 L472.83,78.54 L476.83,78.54 L480.83,78.54 L484.83,78.54 L488.83,78.54 L492.83,78.54 L496.83,78.54 L500.83,78.54 L504.83,78.54 L508.83,78.54 L512.83,78.54 L516.83,78.54 L520.83,78.54" fill="none" stroke="hsla(224, 60%, 50%, 0.6)" stroke-width="1"/>
  <path d="M375.00,75.00 L378.66,76.62 L382.55,77.54 L386.52,78.03 L390.51,78.28 L394.51,78.41 L398.51,78.48 L402.51,78.51 L406.51,78.52 L410.51,78.53 L414.51,78.54 L418.51,78.54 L422.51,78.54 L426.51,78.54 L430.51,78.54 L434.51,78.54 L438.51,78.54 L442.51,78.54 L446.51,78.54 L450.51,78.54 L454.51,78.54 L458.51,78.54 L462.51,78.54 L466.51,78.54 L470.51,78.54 L474.51,78.54 L478.51,78.54 L482.51,78.54 L486.51,78.54 L490.51,78.54 L494.51,78.54 L498.51,78.54 L502.51,78.54 L506.51,78.54 L510.51,78.54 L514.51,78.54 L518.51,78.54 L522.51,78.54 L526.51,78.54 L530.51,78.54 L534.51,78.54 L538.51,78.54 L542.51,78.54 L546.51,78.54 L550.51,78.53 L554.51,78.53 L558.51,78.52 L562.51,78.52 L566.51,78.51 L570.51,78.49" fill="none" stroke="hsla(225.5, 60%, 50%, 0.6)" stroke-width="1"/>
  <path d="M425.00,75.00 L428.75,76.39 L432.67,77.20 L436.64,77.67 L440.63,77.95 L444.63,78.12 L448.63,78.23 L452.63,78.29 L456.63,78.34 L460.63,78.37 L464.63,78.39 L468.63,78.40 L472.63,78.40 L476.63,78.40 L480.63,78.39 L484.63,78.38 L488.62,78.36 L492.62,78.32 L496.62,78.28 L500.62,78.21 L504.62,78.12 L508.62,77.99 L512.62,77.81 L516.61,77.54 L520.59,77.14 L524.54,76.56 L528.45,75.69 L532.24,74.41 L535.77,72.54 L538.77,69.89 L540.75,66.41 L541.09,62.43 L539.57,58.72 L536.69,55.95 L533.16,54.06 L529.40,52.69 L525.57,51.55 L521.73,50.43 L517.92,49.23 L514.16,47.86 L510.48,46.29 L506.92,44.47 L503.51,42.38 L500.30,39.99 L497.34,37.30 L494.67,34.32 L492.33,31.07 L490.34,27.60 L488.70,23.96 L487.38,20.18" fill="none" stroke="hsla(227, 60%, 50%, 0.6)" stroke-width="1"/>
  <path d="M475.00,75.00 L479.00,74.87 L482.99,74.58 L486.96,74.12 L490.90,73.44 L494.78,72.47 L498.55,71.11 L502.09,69.25 L505.22,66.76 L507.64,63.58 L508.97,59.81 L508.95,55.81 L507.70,52.01 L505.61,48.59 L503.11,45.48 L500.45,42.48 L497.82,39.47 L495.33,36.34 L493.06,33.05 L491.05,29.59 L489.34,25.97 L487.93,22.23 L486.79,18.40 L485.91,14.50 L485.23,10.55 L484.73,6.58 L484.37,2.60 L484.14,-1.39 L484.01,-5.39 L483.98,-9.39 L484.04,-13.39 L484.19,-17.39 L484.42,-21.38 L484.74,-25.37 L485.16,-29.35 L485.69,-33.31 L486.34,-37.26 L487.12,-41.18 L488.06,-45.07 L489.18,-48.91 L490.51,-52.68 L492.08,-56.36 L493.92,-59.91 L496.08,-63.28 L498.56,-66.41 L501.39,-69.24 L504.56,-71.69 L508.01,-73.71 L511.68,-75.29 L515.51,-76.46" fill="none" stroke="hsla(228.5, 60%, 50%, 0.6)" stroke-width="1"/>
  <path d="M25.00,125.00 L22.01,122.34 L20.15,118.80 L19.33,114.89 L19.32,110.89 L19.89,106.93 L20.93,103.06 L22.36,99.33 L24.19,95.77 L26.39,92.43 L28.98,89.38 L31.93,86.68 L35.21,84.40 L38.77,82.57 L42.52,81.18 L46.40,80.19 L50.34,79.53 L54.32,79.11 L58.31,78.86 L62.31,78.71 L66.31,78.63 L70.31,78.59 L74.31,78.56 L78.31,78.55 L82.31,78.55 L86.31,78.54 L90.31,78.54 L94.31,78.54 L98.31,78.54 L102.31,78.54 L106.31,78.54 L110.31,78.54 L114.31,78.54 L118.31,78.54 L122.31,78.54 L126.31,78.54 L130.31,78.54 L134.31,78.54 L138.31,78.54 L142.31,78.54 L146.31,78.54 L150.31,78.54 L154.31,78.54 L158.31,78.54 L162.31,78.54 L166.31,78.54 L170.31,78.54 L174.31,78.54 L178.31,78.54 L182.31,78.54" fill="none" stroke="hsla(230, 60%, 50%, 0.6)" stroke-width="1"/>
  <path d="M75.00,125.00 L76.22,128.81 L78.43,132.14 L81.32,134.91 L84.58,137.22 L88.03,139.25 L91.54,141.17 L95.02,143.14 L98.39,145.29 L101.58,147.71 L104.49,150.45 L107.06,153.52 L109.19,156.90 L110.85,160.54 L112.00,164.38 L112.65,168.32 L112.82,172.32 L112.53,176.31 L111.80,180.24 L110.66,184.07 L109.11,187.76 L107.17,191.26 L104.85,194.52 L102.18,197.49 L99.18,200.14 L95.89,202.43 L92.38,204.34 L88.69,205.89 L84.88,207.09 L80.98,207.98 L77.03,208.59 L73.04,208.95 L69.04,209.09 L65.04,209.01 L61.05,208.74 L57.08,208.26 L53.14,207.59 L49.24,206.71 L45.39,205.60 L41.63,204.25 L37.97,202.64 L34.44,200.76 L31.09,198.57 L27.96,196.09 L25.09,193.29 L22.54,190.22 L20.32,186.89 L18.46,183.35 L16.93,179.65 L15.72,175.83" fill="none" stroke="hsla(231.5, 60%, 50%, 0.6)" stroke-width="1"/>
  <path d="M125.00,125.00 L121.03,124.49 L117.08,125.10 L113.52,126.93 L110.79,129.85 L109.17,133.51 L108.64,137.47 L108.93,141.46 L109.71,145.39 L110.70,149.26 L111.70,153.13 L112.59,157.03 L113.26,160.98 L113.67,164.96 L113.76,168.96 L113.52,172.95 L112.94,176.91 L112.01,180.80 L110.72,184.58 L109.06,188.22 L107.04,191.67 L104.65,194.88 L101.92,197.81 L98.88,200.41 L95.57,202.65 L92.03,204.52 L88.33,206.03 L84.50,207.20 L80.60,208.06 L76.64,208.64 L72.65,208.98 L68.66,209.09 L64.66,208.99 L60.67,208.70 L56.70,208.21 L52.76,207.51 L48.86,206.61 L45.03,205.48 L41.27,204.11 L37.62,202.47 L34.11,200.56 L30.77,198.35 L27.67,195.83 L24.83,193.01 L22.31,189.90 L20.12,186.55 L18.29,182.99 L16.80,179.28 L15.62,175.46 L14.70,171.57" fill="none" stroke="hsla(233, 60%, 50%, 0.6)" stroke-width="1"/>
  <path d="M175.00,125.00 L174.23,128.92 L173.37,132.83 L172.54,136.75 L171.80,140.68 L171.18,144.63 L170.69,148.60 L170.31,152.58 L170.05,156.57 L169.89,160.57 L169.82,164.57 L169.84,168.57 L169.94,172.57 L170.14,176.56 L170.42,180.55 L170.79,184.53 L171.27,188.51 L171.86,192.46 L172.57,196.40 L173.44,200.30 L174.47,204.17 L175.69,207.98 L177.14,211.70 L178.85,215.32 L180.85,218.78 L183.18,222.04 L185.85,225.02 L188.85,227.65 L192.17,229.88 L195.75,231.68 L199.51,233.03 L203.40,234.00 L207.34,234.65 L211.32,235.06 L215.31,235.31 L219.31,235.45 L223.31,235.53 L227.31,235.57 L231.31,235.60 L235.31,235.61 L239.31,235.61 L243.31,235.62 L247.31,235.62 L251.31,235.62 L255.31,235.62 L259.31,235.62 L263.31,235.62 L267.31,235.62 L271.31,235.62 L275.31,235.62" fill="none" stroke="hsla(234.5, 60%, 50%, 0.6)" stroke-width="1"/>
  <path d="M225.00,125.00 L225.83,121.09 L225.51,117.10 L223.87,113.45 L221.05,110.62 L217.47,108.84 L213.55,108.03 L209.55,107.96 L205.58,108.43 L201.68,109.32 L197.88,110.57 L194.20,112.15 L190.69,114.05 L187.36,116.28 L184.28,118.83 L181.48,121.69 L179.00,124.83 L176.88,128.22 L175.10,131.80 L173.66,135.53 L172.53,139.37 L171.65,143.27 L170.99,147.22 L170.51,151.19 L170.17,155.17 L169.95,159.17 L169.84,163.17 L169.83,167.17 L169.90,171.16 L170.06,175.16 L170.31,179.15 L170.65,183.14 L171.09,187.11 L171.64,191.08 L172.31,195.02 L173.12,198.94 L174.08,202.82 L175.24,206.65 L176.60,210.41 L178.22,214.07 L180.11,217.59 L182.32,220.92 L184.87,224.01 L187.76,226.77 L190.98,229.15 L194.47,231.10 L198.18,232.60 L202.03,233.70 L205.95,234.45 L209.92,234.94" fill="none" stroke="hsla(236, 60%, 50%, 0.6)" stroke-width="1"/>
  <path d="M275.00,125.00 L271.33,123.41 L267.96,121.25 L264.75,118.86 L261.56,116.46 L258.28,114.16 L254.87,112.07 L251.32,110.23 L247.63,108.68 L243.83,107.43 L239.95,106.46 L236.01,105.77 L232.04,105.31 L228.04,105.09 L224.04,105.07 L220.05,105.26 L216.07,105.64 L212.11,106.22 L208.19,107.00 L204.31,108.00 L200.51,109.23 L196.79,110.71 L193.19,112.46 L189.75,114.50 L186.51,116.84 L183.51,119.49 L180.80,122.43 L178.42,125.64 L176.39,129.09 L174.70,132.72 L173.35,136.48 L172.28,140.34 L171.46,144.25 L170.85,148.20 L170.41,152.18 L170.10,156.17 L169.91,160.16 L169.83,164.16 L169.84,168.16 L169.93,172.16 L170.11,176.16 L170.39,180.15 L170.75,184.13 L171.21,188.10 L171.79,192.06 L172.50,196.00 L173.34,199.91 L174.35,203.78 L175.56,207.59 L176.98,211.33" fill="none" stroke="hsla(237.5, 60%, 50%, 0.6)" stroke-width="1"/>
  <path d="M325.00,125.00 L326.88,121.47 L328.34,117.74 L329.63,113.96 L330.91,110.17 L332.28,106.41 L333.81,102.71 L335.56,99.12 L337.57,95.66 L339.89,92.40 L342.54,89.41 L345.53,86.74 L348.82,84.48 L352.38,82.65 L356.13,81.25 L360.00,80.25 L363.94,79.57 L367.92,79.14 L371.91,78.87 L375.91,78.72 L379.91,78.63 L383.91,78.59 L387.91,78.56 L391.91,78.55 L395.91,78.55 L399.91,78.54 L403.91,78.54 L407.91,78.54 L411.91,78.54 L415.91,78.54 L419.91,78.54 L423.91,78.54 L427.91,78.54 L431.91,78.54 L435.91,78.54 L439.91,78.54 L443.91,78.54 L447.91,78.54 L451.91,78.54 L455.91,78.54 L459.91,78.54 L463.91,78.54 L467.91,78.54 L471.91,78.54 L475.91,78.54 L479.91,78.54 L483.91,78.54 L487.91,78.54 L491.91,78.54 L495.91,78.54" fill="none" stroke="hsla(239, 60%, 50%, 0.6)" stroke-width="1"/>
  <path d="M375.00,125.00 L375.04,129.00 L376.13,132.85 L378.21,136.27 L381.06,139.07 L384.44,141.20 L388.14,142.74 L391.98,143.85 L395.88,144.72 L399.80,145.53 L403.70,146.44 L407.53,147.58 L411.24,149.07 L414.75,151.00 L417.95,153.40 L420.74,156.26 L423.02,159.55 L424.74,163.16 L425.87,166.99 L426.43,170.96 L426.46,174.96 L425.99,178.93 L425.06,182.82 L423.69,186.58 L421.90,190.16 L419.72,193.51 L417.17,196.59 L414.27,199.35 L411.08,201.75 L407.63,203.79 L403.99,205.45 L400.21,206.76 L396.34,207.74 L392.40,208.43 L388.42,208.87 L384.43,209.07 L380.43,209.06 L376.43,208.84 L372.45,208.43 L368.50,207.82 L364.58,207.00 L360.72,205.96 L356.93,204.69 L353.23,203.16 L349.66,201.36 L346.25,199.27 L343.05,196.88 L340.09,194.18 L337.44,191.19 L335.12,187.93" fill="none" stroke="hsla(240.5, 60%, 50%, 0.6)" stroke-width="1"/>
  <path d="M425.00,125.00 L422.44,128.08 L421.04,131.82 L420.74,135.81 L421.28,139.77 L422.30,143.64 L423.54,147.45 L424.79,151.24 L425.92,155.08 L426.83,158.98 L427.47,162.93 L427.78,166.91 L427.76,170.91 L427.38,174.89 L426.65,178.83 L425.55,182.67 L424.09,186.40 L422.25,189.95 L420.05,193.29 L417.50,196.37 L414.61,199.14 L411.43,201.56 L408.00,203.62 L404.37,205.31 L400.60,206.65 L396.73,207.66 L392.80,208.38 L388.82,208.84 L384.83,209.06 L380.83,209.07 L376.84,208.87 L372.85,208.48 L368.90,207.89 L364.98,207.09 L361.11,206.08 L357.31,204.83 L353.60,203.33 L350.01,201.56 L346.59,199.50 L343.36,197.14 L340.38,194.47 L337.69,191.50 L335.34,188.27 L333.33,184.81 L331.67,181.17 L330.34,177.40 L329.29,173.54 L328.49,169.62 L327.89,165.66 L327.46,161.69" fill="none" stroke="hsla(242, 60%, 50%, 0.6)" stroke-width="1"/>
  <path d="M475.00,125.00 L478.72,126.48 L481.60,129.25 L483.42,132.81 L484.33,136.71 L484.64,140.69 L484.62,144.69 L484.46,148.69 L484.27,152.69 L484.10,156.68 L483.99,160.68 L483.95,164.68 L483.99,168.68 L484.10,172.68 L484.30,176.67 L484.58,180.66 L484.96,184.65 L485.44,188.62 L486.03,192.57 L486.75,196.51 L487.62,200.41 L488.66,204.28 L489.89,208.08 L491.34,211.81 L493.06,215.42 L495.07,218.88 L497.41,222.13 L500.09,225.10 L503.10,227.72 L506.43,229.94 L510.01,231.72 L513.78,233.06 L517.67,234.02 L521.61,234.66 L525.59,235.07 L529.59,235.31 L533.58,235.45 L537.58,235.53 L541.58,235.58 L545.58,235.60 L549.58,235.61 L553.58,235.61 L557.58,235.62 L561.58,235.62 L565.58,235.62 L569.58,235.62 L573.58,235.62 L577.58,235.62 L581.58,235.62 L585.58,235.62" fill="none" stroke="hsla(243.5, 60%, 50%, 0.6)" stroke-width="1"/>
  <path d="M25.00,175.00 L21.20,173.74 L18.14,171.17 L15.98,167.80 L14.58,164.06 L13.71,160.15 L13.20,156.18 L12.93,152.19 L12.82,148.19 L12.83,144.19 L12.94,140.20 L13.16,136.20 L13.46,132.21 L13.87,128.23 L14.38,124.27 L15.01,120.32 L15.78,116.39 L16.70,112.50 L17.79,108.65 L19.09,104.87 L20.63,101.17 L22.44,97.61 L24.55,94.21 L26.99,91.04 L29.78,88.18 L32.90,85.68 L36.32,83.60 L39.97,81.96 L43.78,80.75 L47.69,79.90 L51.65,79.35 L55.64,79.00 L59.63,78.79 L63.63,78.67 L67.63,78.61 L71.63,78.58 L75.63,78.56 L79.63,78.55 L83.63,78.54 L87.63,78.54 L91.63,78.54 L95.63,78.54 L99.63,78.54 L103.63,78.54 L107.63,78.54 L111.63,78.54 L115.63,78.54 L119.63,78.54 L123.63,78.54 L127.63,78.54" fill="none" stroke="hsla(245, 60%, 50%, 0.6)" stroke-width="1"/>
  <path d="M75.00,175.00 L78.66,176.61 L82.22,178.43 L85.57,180.62 L88.53,183.32 L90.84,186.58 L92.22,190.34 L92.41,194.33 L91.34,198.19 L89.16,201.54 L86.18,204.20 L82.68,206.15 L78.91,207.48 L75.00,208.32 L71.03,208.77 L67.03,208.91 L63.03,208.80 L59.04,208.47 L55.08,207.92 L51.16,207.15 L47.28,206.16 L43.47,204.94 L39.75,203.46 L36.15,201.72 L32.71,199.68 L29.46,197.35 L26.46,194.70 L23.75,191.76 L21.37,188.55 L19.33,185.11 L17.64,181.48 L16.28,177.72 L15.21,173.87 L14.39,169.95 L13.78,166.00 L13.33,162.02 L13.03,158.03 L12.84,154.04 L12.75,150.04 L12.76,146.04 L12.85,142.04 L13.03,138.04 L13.30,134.05 L13.67,130.07 L14.13,126.10 L14.71,122.14 L15.41,118.20 L16.25,114.29 L17.26,110.42 L18.46,106.61" fill="none" stroke="hsla(246.5, 60%, 50%, 0.6)" stroke-width="1"/>
  <path d="M125.00,175.00 L121.29,176.48 L118.16,178.98 L115.53,182.00 L113.16,185.21 L110.83,188.47 L108.40,191.65 L105.80,194.68 L102.96,197.50 L99.87,200.05 L96.56,202.28 L93.04,204.18 L89.35,205.74 L85.54,206.96 L81.65,207.88 L77.70,208.53 L73.72,208.92 L69.73,209.09 L65.73,209.04 L61.73,208.80 L57.76,208.36 L53.81,207.72 L49.90,206.87 L46.04,205.80 L42.26,204.50 L38.58,202.94 L35.03,201.10 L31.64,198.97 L28.47,196.53 L25.56,193.79 L22.95,190.76 L20.67,187.47 L18.75,183.96 L17.17,180.29 L15.91,176.49 L14.92,172.61 L14.18,168.68 L13.62,164.72 L13.22,160.74 L12.95,156.75 L12.80,152.76 L12.74,148.76 L12.78,144.76 L12.90,140.76 L13.11,136.76 L13.41,132.77 L13.80,128.79 L14.30,124.83 L14.92,120.87 L15.66,116.94" fill="none" stroke="hsla(248, 60%, 50%, 0.6)" stroke-width="1"/>
  <path d="M175.00,175.00 L173.11,178.52 L172.20,182.42 L171.94,186.41 L172.09,190.41 L172.53,194.38 L173.20,198.33 L174.07,202.23 L175.15,206.08 L176.46,209.86 L178.02,213.54 L179.86,217.09 L182.02,220.46 L184.52,223.59 L187.36,226.41 L190.53,228.84 L193.99,230.85 L197.67,232.42 L201.50,233.57 L205.42,234.36 L209.39,234.88 L213.37,235.20 L217.37,235.39 L221.37,235.50 L225.37,235.56 L229.37,235.59 L233.37,235.60 L237.37,235.61 L241.37,235.62 L245.37,235.62 L249.37,235.62 L253.37,235.62 L257.37,235.62 L261.37,235.62 L265.37,235.62 L269.37,235.62 L273.37,235.62 L277.37,235.62 L281.37,235.62 L285.37,235.62 L289.37,235.62 L293.37,235.62 L297.37,235.62 L301.37,235.62 L305.37,235.62 L309.37,235.62 L313.37,235.62 L317.37,235.62 L321.37,235.62 L325.37,235.62" fill="none" stroke="hsla(249.5, 60%, 50%, 0.6)" stroke-width="1"/>
  <path d="M225.00,175.00 L228.45,172.97 L232.17,171.50 L236.02,170.42 L239.92,169.54 L243.83,168.68 L247.70,167.69 L251.50,166.43 L255.16,164.81 L258.58,162.74 L261.67,160.20 L264.33,157.21 L266.46,153.83 L268.03,150.15 L269.01,146.27 L269.44,142.29 L269.34,138.30 L268.75,134.34 L267.71,130.48 L266.25,126.75 L264.37,123.22 L262.10,119.93 L259.47,116.92 L256.50,114.24 L253.24,111.92 L249.75,109.97 L246.07,108.39 L242.27,107.15 L238.37,106.24 L234.42,105.61 L230.44,105.23 L226.44,105.07 L222.44,105.13 L218.45,105.39 L214.48,105.85 L210.53,106.51 L206.63,107.37 L202.78,108.46 L199.01,109.79 L195.33,111.38 L191.79,113.24 L188.43,115.40 L185.28,117.86 L182.39,120.63 L179.81,123.69 L177.57,127.00 L175.67,130.52 L174.12,134.21 L172.89,138.02 L171.93,141.90" fill="none" stroke="hsla(251, 60%, 50%, 0.6)" stroke-width="1"/>
  <path d="M275.00,175.00 L272.87,171.61 L271.74,167.78 L271.31,163.80 L271.29,159.80 L271.42,155.80 L271.52,151.80 L271.49,147.80 L271.26,143.81 L270.76,139.84 L269.96,135.92 L268.85,132.08 L267.39,128.35 L265.59,124.78 L263.43,121.41 L260.93,118.30 L258.09,115.48 L254.95,113.00 L251.56,110.88 L247.96,109.12 L244.22,107.73 L240.36,106.66 L236.44,105.89 L232.47,105.39 L228.48,105.12 L224.48,105.08 L220.48,105.24 L216.50,105.59 L212.54,106.15 L208.61,106.91 L204.73,107.88 L200.91,109.08 L197.19,110.54 L193.57,112.26 L190.11,114.26 L186.85,116.57 L183.82,119.19 L181.08,122.10 L178.66,125.29 L176.59,128.71 L174.87,132.32 L173.48,136.07 L172.38,139.92 L171.54,143.83 L170.91,147.78 L170.45,151.75 L170.13,155.74 L169.93,159.73 L169.83,163.73 L169.83,167.73" fill="none" stroke="hsla(252.5, 60%, 50%, 0.6)" stroke-width="1"/>
  <path d="M325.00,175.00 L326.20,171.18 L326.73,167.22 L326.89,163.22 L326.89,159.22 L326.85,155.22 L326.83,151.22 L326.85,147.22 L326.95,143.22 L327.11,139.23 L327.36,135.24 L327.70,131.25 L328.14,127.27 L328.68,123.31 L329.34,119.37 L330.14,115.45 L331.10,111.56 L332.24,107.73 L333.60,103.97 L335.20,100.30 L337.08,96.77 L339.27,93.42 L341.79,90.32 L344.67,87.54 L347.86,85.13 L351.34,83.16 L355.04,81.63 L358.88,80.51 L362.81,79.74 L366.77,79.25 L370.76,78.94 L374.76,78.76 L378.76,78.65 L382.76,78.60 L386.76,78.57 L390.76,78.55 L394.76,78.55 L398.76,78.54 L402.76,78.54 L406.76,78.54 L410.76,78.54 L414.76,78.54 L418.76,78.54 L422.76,78.54 L426.76,78.54 L430.76,78.54 L434.76,78.54 L438.76,78.54 L442.76,78.54 L446.76,78.54" fill="none" stroke="hsla(254, 60%, 50%, 0.6)" stroke-width="1"/>
  <path d="M375.00,175.00 L377.89,177.77 L380.73,180.58 L383.40,183.56 L385.71,186.83 L387.41,190.45 L388.19,194.37 L387.73,198.34 L385.91,201.91 L382.97,204.62 L379.35,206.32 L375.44,207.16 L371.44,207.34 L367.45,207.04 L363.51,206.38 L359.63,205.40 L355.84,204.13 L352.16,202.56 L348.61,200.70 L345.25,198.53 L342.11,196.05 L339.25,193.27 L336.69,190.19 L334.47,186.86 L332.61,183.32 L331.09,179.62 L329.88,175.81 L328.94,171.92 L328.22,167.98 L327.70,164.02 L327.32,160.04 L327.08,156.04 L326.94,152.05 L326.90,148.05 L326.95,144.05 L327.09,140.05 L327.31,136.06 L327.63,132.07 L328.04,128.09 L328.56,124.12 L329.20,120.17 L329.97,116.25 L330.89,112.36 L331.99,108.51 L333.30,104.73 L334.85,101.04 L336.67,97.48 L338.79,94.09 L341.25,90.93 L344.05,88.08" fill="none" stroke="hsla(255.5, 60%, 50%, 0.6)" stroke-width="1"/>
  <path d="M425.00,175.00 L424.94,179.00 L424.28,182.94 L423.08,186.76 L421.39,190.39 L419.25,193.77 L416.71,196.85 L413.81,199.61 L410.60,201.99 L407.14,204.00 L403.48,205.62 L399.69,206.89 L395.80,207.84 L391.86,208.50 L387.88,208.91 L383.88,209.08 L379.88,209.04 L375.89,208.80 L371.91,208.36 L367.96,207.72 L364.06,206.87 L360.20,205.80 L356.42,204.50 L352.74,202.94 L349.18,201.10 L345.80,198.97 L342.63,196.53 L339.71,193.79 L337.10,190.76 L334.83,187.47 L332.91,183.96 L331.33,180.28 L330.07,176.49 L329.08,172.61 L328.33,168.68 L327.78,164.72 L327.38,160.74 L327.11,156.75 L326.96,152.75 L326.90,148.75 L326.94,144.75 L327.06,140.75 L327.27,136.76 L327.57,132.77 L327.96,128.79 L328.46,124.82 L329.08,120.87 L329.82,116.94 L330.72,113.04 L331.79,109.19" fill="none" stroke="hsla(257, 60%, 50%, 0.6)" stroke-width="1"/>
  <path d="M475.00,175.00 L478.62,176.71 L481.25,179.73 L482.98,183.33 L484.18,187.15 L485.15,191.03 L486.05,194.92 L486.99,198.81 L488.03,202.67 L489.23,206.49 L490.61,210.24 L492.23,213.90 L494.13,217.42 L496.33,220.77 L498.86,223.86 L501.74,226.64 L504.94,229.04 L508.42,231.01 L512.12,232.53 L515.96,233.65 L519.88,234.42 L523.85,234.92 L527.84,235.22 L531.84,235.40 L535.84,235.50 L539.83,235.56 L543.83,235.59 L547.83,235.60 L551.83,235.61 L555.83,235.62 L559.83,235.62 L563.83,235.62 L567.83,235.62 L571.83,235.62 L575.83,235.62 L579.83,235.62 L583.83,235.62 L587.83,235.62 L591.83,235.62 L595.83,235.62 L599.83,235.62 L603.83,235.62 L607.83,235.62 L611.83,235.62 L615.83,235.62 L619.83,235.62 L623.83,235.62 L627.83,235.62 L631.83,235.62 L635.83,235.62" fill="none" stroke="hsla(258.5, 60%, 50%, 0.6)" stroke-width="1"/>
  <path d="M25.00,225.00 L28.22,222.63 L30.82,219.59 L32.47,215.94 L32.93,211.97 L32.21,208.04 L30.62,204.36 L28.56,200.94 L26.30,197.64 L24.03,194.34 L21.89,190.96 L19.96,187.46 L18.28,183.83 L16.86,180.09 L15.71,176.26 L14.80,172.36 L14.09,168.43 L13.57,164.46 L13.19,160.48 L12.93,156.49 L12.79,152.49 L12.74,148.49 L12.78,144.49 L12.91,140.49 L13.13,136.50 L13.43,132.51 L13.83,128.53 L14.34,124.56 L14.96,120.61 L15.72,116.68 L16.62,112.79 L17.70,108.93 L18.99,105.15 L20.50,101.45 L22.29,97.87 L24.38,94.46 L26.80,91.27 L29.56,88.38 L32.66,85.85 L36.06,83.74 L39.69,82.07 L43.50,80.83 L47.40,79.95 L51.36,79.38 L55.34,79.02 L59.34,78.80 L63.33,78.68 L67.33,78.61 L71.33,78.58 L75.33,78.56" fill="none" stroke="hsla(260, 60%, 50%, 0.6)" stroke-width="1"/>
  <path d="M75.00,225.00 L75.99,221.12 L75.10,217.22 L72.58,214.12 L69.15,212.06 L65.38,210.73 L61.50,209.76 L57.59,208.91 L53.68,208.04 L49.80,207.06 L45.97,205.91 L42.21,204.56 L38.54,202.97 L34.99,201.12 L31.62,198.98 L28.45,196.53 L25.54,193.79 L22.93,190.75 L20.66,187.46 L18.74,183.95 L17.16,180.27 L15.90,176.48 L14.92,172.60 L14.17,168.67 L13.62,164.71 L13.22,160.73 L12.95,156.74 L12.80,152.74 L12.74,148.74 L12.78,144.74 L12.90,140.74 L13.11,136.75 L13.41,132.76 L13.80,128.78 L14.30,124.81 L14.92,120.86 L15.66,116.93 L16.56,113.03 L17.63,109.18 L18.90,105.38 L20.40,101.68 L22.17,98.09 L24.24,94.67 L26.64,91.46 L29.38,88.55 L32.46,86.00 L35.84,83.86 L39.46,82.16 L43.25,80.89 L47.15,80.00" fill="none" stroke="hsla(261.5, 60%, 50%, 0.6)" stroke-width="1"/>
  <path d="M125.00,225.00 L127.81,222.15 L130.22,218.96 L132.20,215.49 L133.74,211.80 L134.83,207.94 L135.42,203.99 L135.47,199.99 L134.87,196.03 L133.50,192.28 L131.22,188.99 L128.03,186.58 L124.18,185.49 L120.19,185.88 L116.51,187.45 L113.21,189.71 L110.15,192.28 L107.15,194.92 L104.09,197.49 L100.89,199.90 L97.52,202.06 L93.99,203.93 L90.31,205.50 L86.51,206.76 L82.63,207.72 L78.69,208.42 L74.71,208.86 L70.72,209.07 L66.72,209.08 L62.73,208.88 L58.74,208.49 L54.79,207.90 L50.87,207.10 L47.00,206.09 L43.20,204.85 L39.49,203.35 L35.90,201.58 L32.47,199.53 L29.24,197.17 L26.26,194.50 L23.57,191.54 L21.21,188.31 L19.20,184.85 L17.53,181.21 L16.20,177.44 L15.15,173.58 L14.34,169.67 L13.74,165.71 L13.31,161.74 L13.01,157.75" fill="none" stroke="hsla(263, 60%, 50%, 0.6)" stroke-width="1"/>
  <path d="M175.00,225.00 L178.58,226.79 L182.16,228.57 L185.80,230.22 L189.54,231.66 L193.36,232.84 L197.25,233.76 L201.19,234.43 L205.17,234.89 L209.16,235.19 L213.15,235.38 L217.15,235.49 L221.15,235.55 L225.15,235.58 L229.15,235.60 L233.15,235.61 L237.15,235.61 L241.15,235.62 L245.15,235.62 L249.15,235.62 L253.15,235.62 L257.15,235.62 L261.15,235.62 L265.15,235.62 L269.15,235.62 L273.15,235.62 L277.15,235.62 L281.15,235.62 L285.15,235.62 L289.15,235.62 L293.15,235.62 L297.15,235.62 L301.15,235.62 L305.15,235.62 L309.15,235.62 L313.15,235.62 L317.15,235.62 L321.15,235.62 L325.15,235.62 L329.15,235.62 L333.15,235.62 L337.15,235.62 L341.15,235.62 L345.15,235.62 L349.15,235.62 L353.15,235.62 L357.15,235.62 L361.15,235.62 L365.15,235.62 L369.15,235.62" fill="none" stroke="hsla(264.5, 60%, 50%, 0.6)" stroke-width="1"/>
  <path d="M225.00,225.00 L226.09,228.85 L228.78,231.81 L232.34,233.63 L236.22,234.62 L240.19,235.12 L244.18,235.37 L248.18,235.49 L252.18,235.55 L256.18,235.59 L260.18,235.60 L264.18,235.61 L268.18,235.61 L272.18,235.62 L276.18,235.62 L280.18,235.62 L284.18,235.62 L288.18,235.62 L292.18,235.62 L296.18,235.62 L300.18,235.62 L304.18,235.62 L308.18,235.62 L312.18,235.62 L316.18,235.62 L320.18,235.62 L324.18,235.62 L328.18,235.62 L332.18,235.62 L336.18,235.62 L340.18,235.62 L344.18,235.62 L348.18,235.62 L352.18,235.62 L356.18,235.62 L360.18,235.62 L364.18,235.62 L368.18,235.62 L372.18,235.61 L376.18,235.61 L380.18,235.61 L384.18,235.60 L388.18,235.59 L392.18,235.58 L396.18,235.56 L400.17,235.53 L404.17,235.49 L408.17,235.43 L412.17,235.33 L416.17,235.20" fill="none" stroke="hsla(266, 60%, 50%, 0.6)" stroke-width="1"/>
  <path d="M275.00,225.00 L277.38,228.22 L280.63,230.55 L284.32,232.09 L288.20,233.07 L292.15,233.71 L296.12,234.12 L300.12,234.38 L304.11,234.55 L308.11,234.66 L312.11,234.72 L316.11,234.74 L320.11,234.72 L324.11,234.67 L328.11,234.57 L332.11,234.43 L336.10,234.22 L340.09,233.92 L344.07,233.49 L348.02,232.90 L351.93,232.05 L355.74,230.83 L359.35,229.12 L362.56,226.73 L365.00,223.55 L366.16,219.73 L365.67,215.76 L363.70,212.27 L360.85,209.47 L357.59,207.15 L354.19,205.04 L350.79,202.94 L347.45,200.73 L344.26,198.31 L341.27,195.66 L338.54,192.74 L336.10,189.57 L333.99,186.17 L332.23,182.58 L330.79,178.85 L329.65,175.01 L328.76,171.11 L328.10,167.17 L327.61,163.20 L327.26,159.21 L327.04,155.22 L326.92,151.22 L326.90,147.22 L326.97,143.22 L327.13,139.23" fill="none" stroke="hsla(267.5, 60%, 50%, 0.6)" stroke-width="1"/>
  <path d="M325.00,225.00 L328.84,223.88 L332.49,222.23 L335.80,219.99 L338.55,217.09 L340.49,213.59 L341.37,209.69 L341.21,205.69 L340.21,201.82 L338.70,198.11 L336.97,194.51 L335.20,190.92 L333.53,187.28 L332.04,183.57 L330.75,179.79 L329.69,175.93 L328.84,172.02 L328.17,168.08 L327.67,164.11 L327.31,160.12 L327.07,156.13 L326.94,152.13 L326.90,148.13 L326.95,144.13 L327.08,140.14 L327.31,136.14 L327.62,132.16 L328.03,128.18 L328.55,124.21 L329.18,120.26 L329.95,116.33 L330.87,112.44 L331.97,108.60 L333.27,104.81 L334.81,101.12 L336.62,97.56 L338.74,94.16 L341.19,91.00 L343.98,88.14 L347.11,85.64 L350.53,83.57 L354.18,81.94 L358.00,80.73 L361.91,79.89 L365.87,79.34 L369.85,78.99 L373.85,78.79 L377.85,78.67 L381.85,78.61 L385.85,78.57" fill="none" stroke="hsla(269, 60%, 50%, 0.6)" stroke-width="1"/>
  <path d="M375.00,225.00 L376.29,221.21 L375.81,217.24 L373.69,213.85 L370.58,211.33 L367.06,209.45 L363.38,207.87 L359.67,206.37 L355.99,204.81 L352.38,203.08 L348.88,201.14 L345.55,198.94 L342.41,196.45 L339.53,193.67 L336.95,190.62 L334.71,187.31 L332.81,183.79 L331.25,180.10 L330.01,176.30 L329.04,172.42 L328.30,168.49 L327.75,164.53 L327.36,160.54 L327.10,156.55 L326.95,152.56 L326.90,148.56 L326.94,144.56 L327.07,140.56 L327.28,136.56 L327.58,132.58 L327.98,128.60 L328.49,124.63 L329.11,120.68 L329.86,116.75 L330.77,112.85 L331.84,109.00 L333.12,105.21 L334.64,101.51 L336.42,97.93 L338.50,94.51 L340.91,91.32 L343.67,88.42 L346.77,85.89 L350.16,83.77 L353.79,82.09 L357.59,80.84 L361.49,79.97 L365.45,79.39 L369.43,79.02 L373.43,78.81" fill="none" stroke="hsla(270.5, 60%, 50%, 0.6)" stroke-width="1"/>
  <path d="M425.00,225.00 L426.96,221.52 L427.82,217.61 L427.35,213.64 L425.48,210.10 L422.44,207.50 L418.71,206.06 L414.73,205.65 L410.73,205.91 L406.78,206.51 L402.84,207.21 L398.90,207.89 L394.94,208.45 L390.96,208.87 L386.97,209.11 L382.97,209.17 L378.97,209.05 L374.98,208.74 L371.01,208.25 L367.07,207.55 L363.18,206.65 L359.34,205.53 L355.58,204.17 L351.92,202.55 L348.40,200.64 L345.06,198.44 L341.94,195.94 L339.10,193.13 L336.56,190.03 L334.37,186.69 L332.52,183.14 L331.02,179.43 L329.82,175.62 L328.89,171.73 L328.19,167.79 L327.67,163.82 L327.31,159.84 L327.07,155.85 L326.94,151.85 L326.90,147.85 L326.96,143.85 L327.10,139.85 L327.33,135.86 L327.65,131.87 L328.07,127.89 L328.59,123.93 L329.23,119.98 L330.01,116.05 L330.94,112.16 L332.05,108.32" fill="none" stroke="hsla(272, 60%, 50%, 0.6)" stroke-width="1"/>
  <path d="M475.00,225.00 L478.98,225.40 L482.90,226.18 L486.76,227.26 L490.55,228.51 L494.33,229.83 L498.12,231.10 L501.96,232.25 L505.84,233.21 L509.76,233.98 L513.72,234.55 L517.70,234.95 L521.69,235.22 L525.69,235.39 L529.69,235.49 L533.69,235.55 L537.69,235.58 L541.69,235.60 L545.69,235.61 L549.69,235.61 L553.69,235.62 L557.69,235.62 L561.69,235.62 L565.69,235.62 L569.69,235.62 L573.69,235.62 L577.69,235.62 L581.69,235.62 L585.69,235.62 L589.69,235.62 L593.69,235.62 L597.69,235.62 L601.69,235.62 L605.69,235.62 L609.69,235.62 L613.69,235.62 L617.69,235.62 L621.69,235.62 L625.69,235.62 L629.69,235.62 L633.69,235.62 L637.69,235.62 L641.69,235.62 L645.69,235.62 L649.69,235.62 L653.69,235.62 L657.69,235.62 L661.69,235.62 L665.69,235.62 L669.69,235.62" fill="none" stroke="hsla(273.5, 60%, 50%, 0.6)" stroke-width="1"/>
  <path d="M25.00,275.00 L22.86,278.38 L20.87,281.85 L19.08,285.43 L17.55,289.12 L16.27,292.91 L15.25,296.78 L14.44,300.70 L13.83,304.65 L13.37,308.62 L13.05,312.61 L12.85,316.61 L12.75,320.60 L12.75,324.60 L12.83,328.60 L13.00,332.60 L13.26,336.59 L13.61,340.58 L14.05,344.55 L14.61,348.51 L15.29,352.45 L16.12,356.37 L17.10,360.25 L18.27,364.07 L19.66,367.82 L21.30,371.47 L23.22,374.98 L25.46,378.29 L28.04,381.35 L30.96,384.08 L34.20,386.42 L37.72,388.33 L41.44,389.80 L45.30,390.86 L49.23,391.58 L53.20,392.05 L57.19,392.33 L61.19,392.50 L65.19,392.59 L69.19,392.65 L73.19,392.67 L77.19,392.69 L81.19,392.69 L85.19,392.70 L89.19,392.70 L93.19,392.70 L97.19,392.70 L101.19,392.70 L105.19,392.70 L109.19,392.70" fill="none" stroke="hsla(275, 60%, 50%, 0.6)" stroke-width="1"/>
  <path d="M75.00,275.00 L73.93,271.15 L71.57,267.92 L68.28,265.65 L64.50,264.33 L60.53,263.78 L56.53,263.79 L52.56,264.21 L48.63,264.97 L44.77,266.02 L41.00,267.36 L37.34,268.98 L33.83,270.90 L30.51,273.12 L27.42,275.66 L24.60,278.50 L22.11,281.63 L19.95,285.00 L18.15,288.57 L16.69,292.29 L15.53,296.12 L14.63,300.02 L13.96,303.96 L13.46,307.93 L13.11,311.92 L12.89,315.91 L12.77,319.91 L12.74,323.91 L12.81,327.91 L12.96,331.90 L13.20,335.90 L13.54,339.88 L13.97,343.86 L14.51,347.82 L15.17,351.77 L15.96,355.69 L16.92,359.57 L18.05,363.41 L19.40,367.17 L20.99,370.84 L22.86,374.38 L25.04,377.73 L27.56,380.84 L30.43,383.63 L33.62,386.05 L37.09,388.03 L40.78,389.57 L44.62,390.70 L48.54,391.48 L52.51,391.98" fill="none" stroke="hsla(276.5, 60%, 50%, 0.6)" stroke-width="1"/>
  <path d="M125.00,275.00 L121.45,276.84 L117.48,277.34 L113.54,276.65 L109.81,275.19 L106.27,273.34 L102.79,271.36 L99.28,269.44 L95.70,267.67 L92.01,266.12 L88.22,264.83 L84.35,263.81 L80.43,263.04 L76.46,262.51 L72.47,262.22 L68.48,262.13 L64.48,262.24 L60.49,262.55 L56.52,263.05 L52.58,263.76 L48.69,264.67 L44.86,265.81 L41.10,267.20 L37.46,268.84 L33.95,270.77 L30.63,273.00 L27.53,275.53 L24.71,278.36 L22.20,281.48 L20.04,284.84 L18.22,288.41 L16.74,292.13 L15.57,295.95 L14.67,299.85 L13.98,303.79 L13.48,307.76 L13.12,311.74 L12.89,315.73 L12.77,319.73 L12.74,323.73 L12.81,327.73 L12.96,331.73 L13.19,335.72 L13.52,339.71 L13.95,343.68 L14.48,347.65 L15.13,351.60 L15.92,355.52 L16.87,359.40 L18.00,363.24" fill="none" stroke="hsla(278, 60%, 50%, 0.6)" stroke-width="1"/>
  <path d="M175.00,275.00 L175.04,271.00 L175.58,267.04 L176.51,263.15 L177.79,259.36 L179.40,255.70 L181.35,252.21 L183.67,248.94 L186.34,245.97 L189.36,243.35 L192.71,241.15 L196.30,239.40 L200.08,238.08 L203.97,237.15 L207.92,236.53 L211.90,236.14 L215.90,235.91 L219.89,235.77 L223.89,235.70 L227.89,235.66 L231.89,235.64 L235.89,235.63 L239.89,235.62 L243.89,235.62 L247.89,235.62 L251.89,235.62 L255.89,235.62 L259.89,235.62 L263.89,235.62 L267.89,235.62 L271.89,235.62 L275.89,235.62 L279.89,235.62 L283.89,235.62 L287.89,235.62 L291.89,235.62 L295.89,235.62 L299.89,235.62 L303.89,235.62 L307.89,235.62 L311.89,235.62 L315.89,235.62 L319.89,235.62 L323.89,235.62 L327.89,235.62 L331.89,235.62 L335.89,235.62 L339.89,235.62 L343.89,235.62 L347.89,235.62" fill="none" stroke="hsla(279.5, 60%, 50%, 0.6)" stroke-width="1"/>
  <path d="M225.00,275.00 L223.59,278.74 L223.28,282.73 L224.14,286.64 L226.06,290.14 L228.81,293.05 L232.11,295.32 L235.70,297.08 L239.44,298.50 L243.23,299.77 L247.02,301.06 L250.74,302.51 L254.35,304.24 L257.76,306.33 L260.88,308.83 L263.62,311.75 L265.90,315.04 L267.65,318.64 L268.85,322.45 L269.51,326.40 L269.65,330.39 L269.31,334.38 L268.52,338.30 L267.31,342.11 L265.67,345.76 L263.65,349.21 L261.24,352.41 L258.48,355.30 L255.40,357.86 L252.06,360.05 L248.49,361.86 L244.77,363.32 L240.93,364.44 L237.01,365.25 L233.05,365.79 L229.06,366.09 L225.06,366.17 L221.06,366.04 L217.07,365.71 L213.11,365.18 L209.18,364.45 L205.29,363.51 L201.46,362.34 L197.72,360.93 L194.09,359.25 L190.61,357.28 L187.31,355.02 L184.24,352.45 L181.46,349.58 L178.99,346.43" fill="none" stroke="hsla(281, 60%, 50%, 0.6)" stroke-width="1"/>
  <path d="M275.00,275.00 L271.00,275.00 L267.12,275.96 L263.65,277.96 L261.00,280.95 L259.48,284.66 L259.18,288.64 L259.87,292.58 L261.19,296.36 L262.84,300.01 L264.57,303.61 L266.24,307.25 L267.72,310.96 L268.94,314.77 L269.84,318.67 L270.38,322.63 L270.55,326.63 L270.35,330.62 L269.78,334.58 L268.83,338.47 L267.50,342.24 L265.80,345.86 L263.73,349.28 L261.29,352.46 L258.51,355.33 L255.42,357.88 L252.07,360.06 L248.51,361.87 L244.78,363.32 L240.94,364.44 L237.02,365.25 L233.06,365.79 L229.07,366.09 L225.07,366.17 L221.07,366.04 L217.09,365.71 L213.12,365.18 L209.19,364.46 L205.30,363.52 L201.47,362.35 L197.73,360.93 L194.10,359.25 L190.62,357.29 L187.32,355.03 L184.25,352.46 L181.47,349.59 L179.00,346.44 L176.88,343.05 L175.10,339.46 L173.67,335.73" fill="none" stroke="hsla(282.5, 60%, 50%, 0.6)" stroke-width="1"/>
  <path d="M325.00,275.00 L327.30,278.27 L328.64,282.04 L329.17,286.01 L329.17,290.01 L328.87,293.99 L328.45,297.97 L328.02,301.95 L327.63,305.93 L327.31,309.92 L327.08,313.91 L326.94,317.91 L326.89,321.91 L326.92,325.91 L327.03,329.91 L327.23,333.90 L327.52,337.89 L327.90,341.87 L328.38,345.84 L328.98,349.80 L329.70,353.73 L330.58,357.64 L331.62,361.50 L332.86,365.30 L334.32,369.02 L336.05,372.63 L338.07,376.08 L340.42,379.32 L343.11,382.28 L346.14,384.89 L349.48,387.09 L353.07,388.86 L356.84,390.19 L360.73,391.13 L364.68,391.76 L368.66,392.16 L372.65,392.40 L376.65,392.54 L380.65,392.61 L384.65,392.66 L388.65,392.68 L392.65,392.69 L396.65,392.69 L400.65,392.70 L404.65,392.70 L408.65,392.70 L412.65,392.70 L416.65,392.70 L420.65,392.70 L424.65,392.70" fill="none" stroke="hsla(284, 60%, 50%, 0.6)" stroke-width="1"/>
  <path d="M375.00,275.00 L372.96,271.56 L369.84,269.05 L366.09,267.67 L362.11,267.28 L358.13,267.67 L354.25,268.65 L350.52,270.10 L346.98,271.96 L343.66,274.20 L340.61,276.79 L337.87,279.70 L335.47,282.90 L333.43,286.34 L331.74,289.97 L330.39,293.73 L329.33,297.59 L328.52,301.51 L327.91,305.46 L327.47,309.44 L327.17,313.42 L326.99,317.42 L326.91,321.42 L326.92,325.42 L327.02,329.42 L327.20,333.41 L327.48,337.40 L327.85,341.39 L328.32,345.36 L328.90,349.32 L329.61,353.25 L330.46,357.16 L331.48,361.03 L332.69,364.84 L334.13,368.57 L335.82,372.20 L337.81,375.67 L340.12,378.94 L342.76,381.94 L345.75,384.59 L349.06,386.85 L352.62,388.67 L356.38,390.05 L360.25,391.03 L364.20,391.70 L368.17,392.12 L372.17,392.38 L376.16,392.53 L380.16,392.61 L384.16,392.65" fill="none" stroke="hsla(285.5, 60%, 50%, 0.6)" stroke-width="1"/>
  <path d="M425.00,275.00 L421.34,273.39 L417.79,271.55 L414.25,269.68 L410.65,267.93 L406.97,266.37 L403.20,265.05 L399.34,263.98 L395.42,263.17 L391.46,262.60 L387.48,262.26 L383.48,262.13 L379.48,262.20 L375.49,262.47 L371.52,262.93 L367.57,263.59 L363.67,264.46 L359.82,265.55 L356.05,266.88 L352.38,268.47 L348.84,270.34 L345.47,272.50 L342.33,274.97 L339.44,277.74 L336.86,280.80 L334.62,284.11 L332.74,287.64 L331.19,291.33 L329.96,295.13 L329.00,299.02 L328.27,302.95 L327.73,306.91 L327.35,310.90 L327.09,314.89 L326.95,318.89 L326.90,322.88 L326.94,326.88 L327.08,330.88 L327.29,334.88 L327.60,338.86 L328.01,342.84 L328.52,346.81 L329.14,350.76 L329.90,354.69 L330.82,358.58 L331.90,362.43 L333.19,366.22 L334.72,369.92 L336.52,373.49 L338.61,376.90" fill="none" stroke="hsla(287, 60%, 50%, 0.6)" stroke-width="1"/>
  <path d="M475.00,275.00 L478.78,273.69 L481.96,271.26 L484.53,268.19 L486.69,264.83 L488.66,261.35 L490.63,257.87 L492.72,254.45 L495.00,251.17 L497.55,248.09 L500.40,245.28 L503.55,242.81 L506.97,240.75 L510.62,239.11 L514.43,237.89 L518.34,237.03 L522.30,236.46 L526.28,236.10 L530.27,235.88 L534.27,235.76 L538.27,235.69 L542.27,235.66 L546.27,235.64 L550.27,235.63 L554.27,235.62 L558.27,235.62 L562.27,235.62 L566.27,235.62 L570.27,235.62 L574.27,235.62 L578.27,235.62 L582.27,235.62 L586.27,235.62 L590.27,235.62 L594.27,235.62 L598.27,235.62 L602.27,235.62 L606.27,235.62 L610.27,235.62 L614.27,235.62 L618.27,235.62 L622.27,235.62 L626.27,235.62 L630.27,235.62 L634.27,235.62 L638.27,235.62 L642.27,235.62 L646.27,235.62 L650.27,235.62 L654.27,235.62" fill="none" stroke="hsla(288.5, 60%, 50%, 0.6)" stroke-width="1"/>
  <path d="M25.00,325.00 L21.08,325.79 L17.87,328.18 L15.81,331.61 L14.76,335.47 L14.39,339.45 L14.43,343.45 L14.75,347.44 L15.29,351.40 L16.00,355.34 L16.91,359.24 L18.00,363.08 L19.32,366.86 L20.88,370.54 L22.72,374.09 L24.87,377.47 L27.36,380.60 L30.19,383.42 L33.36,385.87 L36.81,387.89 L40.49,389.47 L44.31,390.62 L48.23,391.43 L52.20,391.95 L56.19,392.28 L60.18,392.47 L64.18,392.58 L68.18,392.64 L72.18,392.67 L76.18,392.68 L80.18,392.69 L84.18,392.70 L88.18,392.70 L92.18,392.70 L96.18,392.70 L100.18,392.70 L104.18,392.70 L108.18,392.70 L112.18,392.70 L116.18,392.70 L120.18,392.70 L124.18,392.70 L128.18,392.70 L132.18,392.70 L136.18,392.70 L140.18,392.70 L144.18,392.70 L148.18,392.70 L152.18,392.70 L156.18,392.70" fill="none" stroke="hsla(290, 60%, 50%, 0.6)" stroke-width="1"/>
  <path d="M75.00,325.00 L78.95,324.35 L82.91,323.83 L86.87,323.27 L90.80,322.52 L94.65,321.44 L98.36,319.93 L101.82,317.92 L104.92,315.39 L107.54,312.37 L109.60,308.94 L111.04,305.21 L111.87,301.30 L112.13,297.31 L111.84,293.32 L111.07,289.39 L109.83,285.59 L108.17,281.95 L106.10,278.53 L103.64,275.38 L100.82,272.53 L97.70,270.04 L94.31,267.91 L90.71,266.16 L86.96,264.77 L83.11,263.71 L79.18,262.95 L75.21,262.45 L71.22,262.20 L67.22,262.16 L63.22,262.33 L59.24,262.69 L55.28,263.26 L51.35,264.03 L47.48,265.01 L43.67,266.22 L39.94,267.69 L36.34,269.42 L32.89,271.44 L29.63,273.76 L26.61,276.39 L23.88,279.32 L21.48,282.51 L19.43,285.95 L17.72,289.56 L16.35,293.32 L15.26,297.17 L14.43,301.08 L13.81,305.03 L13.35,309.01" fill="none" stroke="hsla(291.5, 60%, 50%, 0.6)" stroke-width="1"/>
  <path d="M125.00,325.00 L121.55,322.98 L119.04,319.86 L117.45,316.19 L116.50,312.30 L115.87,308.35 L115.34,304.39 L114.77,300.43 L114.04,296.50 L113.08,292.61 L111.85,288.81 L110.31,285.11 L108.45,281.58 L106.24,278.24 L103.70,275.15 L100.83,272.37 L97.67,269.91 L94.26,267.82 L90.65,266.10 L86.89,264.72 L83.03,263.68 L79.10,262.93 L75.13,262.44 L71.14,262.19 L67.14,262.16 L63.14,262.33 L59.16,262.70 L55.20,263.27 L51.28,264.04 L47.40,265.03 L43.59,266.25 L39.87,267.72 L36.27,269.46 L32.82,271.48 L29.57,273.81 L26.56,276.44 L23.83,279.38 L21.44,282.58 L19.39,286.01 L17.69,289.64 L16.32,293.39 L15.24,297.25 L14.42,301.16 L13.80,305.11 L13.34,309.09 L13.03,313.07 L12.84,317.07 L12.75,321.07 L12.75,325.07 L12.85,329.07" fill="none" stroke="hsla(293, 60%, 50%, 0.6)" stroke-width="1"/>
  <path d="M175.00,325.00 L172.80,321.66 L171.43,317.90 L170.62,313.98 L170.18,310.01 L169.98,306.01 L169.93,302.01 L170.01,298.01 L170.20,294.02 L170.49,290.03 L170.87,286.05 L171.36,282.08 L171.97,278.12 L172.71,274.19 L173.60,270.29 L174.66,266.44 L175.91,262.64 L177.40,258.93 L179.16,255.33 L181.21,251.90 L183.60,248.69 L186.32,245.76 L189.38,243.19 L192.75,241.03 L196.36,239.31 L200.15,238.02 L204.05,237.11 L208.00,236.51 L211.98,236.13 L215.98,235.90 L219.97,235.77 L223.97,235.70 L227.97,235.66 L231.97,235.64 L235.97,235.63 L239.97,235.62 L243.97,235.62 L247.97,235.62 L251.97,235.62 L255.97,235.62 L259.97,235.62 L263.97,235.62 L267.97,235.62 L271.97,235.62 L275.97,235.62 L279.97,235.62 L283.97,235.62 L287.97,235.62 L291.97,235.62 L295.97,235.62" fill="none" stroke="hsla(294.5, 60%, 50%, 0.6)" stroke-width="1"/>
  <path d="M225.00,325.00 L228.84,326.12 L232.73,327.06 L236.63,327.92 L240.52,328.86 L244.34,330.04 L248.02,331.62 L251.41,333.74 L254.30,336.50 L256.44,339.89 L257.58,343.72 L257.62,347.72 L256.59,351.58 L254.64,355.08 L251.99,358.07 L248.82,360.52 L245.31,362.43 L241.57,363.86 L237.71,364.89 L233.77,365.58 L229.79,365.98 L225.79,366.13 L221.79,366.05 L217.80,365.77 L213.83,365.29 L209.89,364.60 L205.99,363.70 L202.15,362.57 L198.39,361.20 L194.74,359.57 L191.23,357.66 L187.89,355.45 L184.78,352.94 L181.94,350.12 L179.41,347.02 L177.23,343.67 L175.39,340.12 L173.90,336.41 L172.71,332.59 L171.79,328.70 L171.10,324.76 L170.58,320.79 L170.22,316.81 L169.98,312.81 L169.85,308.81 L169.82,304.82 L169.88,300.82 L170.02,296.82 L170.26,292.82 L170.58,288.84" fill="none" stroke="hsla(296, 60%, 50%, 0.6)" stroke-width="1"/>
  <path d="M275.00,325.00 L273.50,328.71 L272.17,332.48 L270.82,336.24 L269.32,339.96 L267.61,343.57 L265.63,347.04 L263.34,350.32 L260.74,353.36 L257.83,356.11 L254.65,358.53 L251.22,360.59 L247.60,362.30 L243.84,363.65 L239.97,364.68 L236.04,365.42 L232.07,365.89 L228.07,366.13 L224.07,366.16 L220.08,365.98 L216.10,365.60 L212.14,365.02 L208.21,364.24 L204.34,363.25 L200.53,362.02 L196.82,360.54 L193.22,358.79 L189.78,356.76 L186.53,354.42 L183.53,351.77 L180.82,348.83 L178.44,345.62 L176.40,342.17 L174.72,338.55 L173.36,334.79 L172.29,330.93 L171.47,327.02 L170.86,323.06 L170.41,319.09 L170.10,315.10 L169.92,311.10 L169.83,307.10 L169.84,303.10 L169.93,299.11 L170.11,295.11 L170.38,291.12 L170.75,287.14 L171.21,283.16 L171.79,279.20 L172.49,275.27" fill="none" stroke="hsla(297.5, 60%, 50%, 0.6)" stroke-width="1"/>
  <path d="M325.00,325.00 L325.99,328.87 L326.63,332.82 L327.14,336.79 L327.62,340.76 L328.14,344.73 L328.74,348.68 L329.45,352.62 L330.29,356.53 L331.29,360.40 L332.47,364.22 L333.87,367.97 L335.52,371.62 L337.46,375.12 L339.71,378.42 L342.30,381.47 L345.24,384.18 L348.49,386.51 L352.02,388.40 L355.75,389.85 L359.61,390.89 L363.54,391.61 L367.52,392.06 L371.51,392.34 L375.51,392.51 L379.50,392.60 L383.50,392.65 L387.50,392.67 L391.50,392.69 L395.50,392.69 L399.50,392.70 L403.50,392.70 L407.50,392.70 L411.50,392.70 L415.50,392.70 L419.50,392.70 L423.50,392.70 L427.50,392.70 L431.50,392.70 L435.50,392.70 L439.50,392.70 L443.50,392.70 L447.50,392.70 L451.50,392.70 L455.50,392.70 L459.50,392.70 L463.50,392.70 L467.50,392.70 L471.50,392.70 L475.50,392.70" fill="none" stroke="hsla(299, 60%, 50%, 0.6)" stroke-width="1"/>
  <path d="M375.00,325.00 L378.46,322.99 L382.22,321.63 L386.13,320.81 L390.11,320.37 L394.10,320.15 L398.10,319.96 L402.09,319.64 L406.04,319.05 L409.92,318.06 L413.62,316.55 L417.03,314.46 L420.02,311.80 L422.44,308.61 L424.21,305.03 L425.31,301.18 L425.77,297.21 L425.62,293.21 L424.94,289.27 L423.75,285.45 L422.12,281.80 L420.05,278.38 L417.59,275.22 L414.77,272.39 L411.63,269.90 L408.23,267.80 L404.63,266.06 L400.87,264.69 L397.01,263.65 L393.08,262.91 L389.11,262.43 L385.11,262.19 L381.11,262.17 L377.12,262.35 L373.14,262.73 L369.18,263.30 L365.25,264.08 L361.38,265.08 L357.57,266.31 L353.86,267.79 L350.26,269.54 L346.82,271.58 L343.58,273.93 L340.58,276.57 L337.87,279.52 L335.49,282.73 L333.46,286.18 L331.78,289.81 L330.42,293.57 L329.36,297.43" fill="none" stroke="hsla(300.5, 60%, 50%, 0.6)" stroke-width="1"/>
  <path d="M425.00,325.00 L425.74,321.07 L426.54,317.15 L427.25,313.21 L427.76,309.25 L428.02,305.25 L427.99,301.25 L427.63,297.27 L426.94,293.33 L425.91,289.47 L424.51,285.72 L422.76,282.12 L420.64,278.73 L418.16,275.59 L415.35,272.74 L412.24,270.23 L408.86,268.09 L405.28,266.31 L401.54,264.89 L397.69,263.80 L393.77,263.01 L389.80,262.49 L385.81,262.21 L381.81,262.15 L377.81,262.30 L373.83,262.64 L369.87,263.19 L365.94,263.93 L362.05,264.89 L358.23,266.08 L354.50,267.52 L350.88,269.22 L347.41,271.21 L344.13,273.50 L341.09,276.09 L338.32,278.98 L335.89,282.15 L333.79,285.56 L332.05,289.16 L330.64,292.91 L329.53,296.75 L328.67,300.66 L328.02,304.60 L327.55,308.58 L327.23,312.56 L327.02,316.56 L326.92,320.56 L326.91,324.56 L326.99,328.55 L327.16,332.55" fill="none" stroke="hsla(302, 60%, 50%, 0.6)" stroke-width="1"/>
  <path d="M475.00,325.00 L478.58,323.22 L481.05,320.08 L482.44,316.32 L483.14,312.39 L483.50,308.40 L483.72,304.41 L483.91,300.41 L484.13,296.42 L484.40,292.43 L484.75,288.44 L485.19,284.47 L485.74,280.50 L486.40,276.56 L487.20,272.64 L488.15,268.76 L489.29,264.92 L490.63,261.15 L492.23,257.48 L494.10,253.95 L496.28,250.60 L498.79,247.49 L501.66,244.69 L504.85,242.28 L508.32,240.29 L512.01,238.75 L515.85,237.62 L519.77,236.84 L523.74,236.34 L527.72,236.02 L531.72,235.84 L535.72,235.74 L539.72,235.68 L543.72,235.65 L547.72,235.63 L551.72,235.63 L555.72,235.62 L559.72,235.62 L563.72,235.62 L567.72,235.62 L571.72,235.62 L575.72,235.62 L579.72,235.62 L583.72,235.62 L587.72,235.62 L591.72,235.62 L595.72,235.62 L599.72,235.62 L603.72,235.62 L607.72,235.62" fill="none" stroke="hsla(303.5, 60%, 50%, 0.6)" stroke-width="1"/>
  <path d="M25.00,375.00 L27.01,378.46 L29.47,381.61 L32.35,384.39 L35.59,386.74 L39.12,388.61 L42.86,390.03 L46.73,391.03 L50.68,391.70 L54.66,392.13 L58.65,392.38 L62.64,392.53 L66.64,392.61 L70.64,392.65 L74.64,392.68 L78.64,392.69 L82.64,392.69 L86.64,392.70 L90.64,392.70 L94.64,392.70 L98.64,392.70 L102.64,392.70 L106.64,392.70 L110.64,392.70 L114.64,392.70 L118.64,392.70 L122.64,392.70 L126.64,392.70 L130.64,392.70 L134.64,392.70 L138.64,392.70 L142.64,392.70 L146.64,392.70 L150.64,392.70 L154.64,392.70 L158.64,392.70 L162.64,392.70 L166.64,392.70 L170.64,392.70 L174.64,392.70 L178.64,392.70 L182.64,392.70 L186.64,392.70 L190.64,392.70 L194.64,392.70 L198.64,392.70 L202.64,392.70 L206.64,392.70 L210.64,392.70 L214.64,392.70" fill="none" stroke="hsla(305, 60%, 50%, 0.6)" stroke-width="1"/>
  <path d="M75.00,375.00 L72.74,378.30 L71.93,382.22 L73.02,386.07 L75.73,389.01 L79.31,390.79 L83.19,391.74 L87.17,392.22 L91.16,392.46 L95.16,392.57 L99.16,392.63 L103.16,392.66 L107.16,392.68 L111.16,392.69 L115.16,392.69 L119.16,392.69 L123.16,392.70 L127.16,392.70 L131.16,392.70 L135.16,392.70 L139.16,392.70 L143.16,392.70 L147.16,392.70 L151.16,392.70 L155.16,392.70 L159.16,392.70 L163.16,392.70 L167.16,392.70 L171.16,392.70 L175.16,392.70 L179.16,392.70 L183.16,392.70 L187.16,392.70 L191.16,392.70 L195.16,392.70 L199.16,392.70 L203.16,392.70 L207.16,392.69 L211.16,392.69 L215.16,392.69 L219.16,392.68 L223.16,392.68 L227.16,392.67 L231.16,392.65 L235.16,392.62 L239.16,392.59 L243.16,392.53 L247.15,392.45 L251.15,392.32 L255.15,392.14" fill="none" stroke="hsla(306.5, 60%, 50%, 0.6)" stroke-width="1"/>
  <path d="M125.00,375.00 L126.06,378.86 L128.22,382.22 L131.25,384.84 L134.79,386.71 L138.58,387.98 L142.49,388.83 L146.45,389.39 L150.43,389.74 L154.43,389.93 L158.43,390.01 L162.43,389.97 L166.42,389.83 L170.41,389.56 L174.39,389.14 L178.35,388.54 L182.25,387.68 L186.07,386.49 L189.71,384.83 L193.02,382.58 L195.71,379.63 L197.41,376.00 L197.74,372.02 L196.70,368.15 L194.65,364.72 L192.05,361.68 L189.24,358.84 L186.39,356.02 L183.65,353.11 L181.09,350.04 L178.78,346.77 L176.76,343.32 L175.05,339.70 L173.65,335.96 L172.54,332.11 L171.67,328.21 L171.01,324.26 L170.52,320.29 L170.18,316.31 L169.96,312.32 L169.84,308.32 L169.82,304.32 L169.89,300.32 L170.05,296.32 L170.29,292.33 L170.63,288.34 L171.06,284.37 L171.60,280.40 L172.26,276.46 L173.06,272.54" fill="none" stroke="hsla(308, 60%, 50%, 0.6)" stroke-width="1"/>
  <path d="M175.00,375.00 L177.89,372.23 L180.01,368.84 L181.17,365.01 L181.33,361.02 L180.68,357.07 L179.51,353.25 L178.09,349.51 L176.61,345.79 L175.21,342.04 L173.95,338.25 L172.87,334.39 L171.99,330.49 L171.28,326.56 L170.74,322.59 L170.34,318.61 L170.06,314.62 L169.89,310.63 L169.82,306.63 L169.84,302.63 L169.95,298.63 L170.14,294.63 L170.42,290.64 L170.80,286.66 L171.27,282.69 L171.86,278.73 L172.58,274.80 L173.45,270.89 L174.48,267.03 L175.71,263.22 L177.16,259.49 L178.87,255.88 L180.88,252.42 L183.21,249.17 L185.88,246.19 L188.89,243.56 L192.21,241.33 L195.79,239.55 L199.56,238.19 L203.44,237.23 L207.39,236.59 L211.37,236.18 L215.36,235.93 L219.36,235.79 L223.36,235.71 L227.35,235.66 L231.35,235.64 L235.35,235.63 L239.35,235.63 L243.35,235.62" fill="none" stroke="hsla(309.5, 60%, 50%, 0.6)" stroke-width="1"/>
  <path d="M225.00,375.00 L222.88,371.61 L219.70,369.18 L216.08,367.49 L212.30,366.17 L208.48,364.98 L204.67,363.76 L200.90,362.42 L197.21,360.89 L193.62,359.12 L190.17,357.09 L186.91,354.77 L183.89,352.16 L181.14,349.25 L178.72,346.06 L176.64,342.65 L174.92,339.04 L173.52,335.29 L172.41,331.45 L171.57,327.54 L170.93,323.59 L170.46,319.62 L170.14,315.63 L169.93,311.63 L169.84,307.64 L169.83,303.64 L169.91,299.64 L170.08,295.64 L170.34,291.65 L170.69,287.66 L171.14,283.69 L171.70,279.73 L172.39,275.79 L173.21,271.87 L174.20,268.00 L175.38,264.17 L176.77,260.42 L178.41,256.78 L180.34,253.27 L182.59,249.96 L185.17,246.91 L188.10,244.19 L191.35,241.85 L194.87,239.95 L198.59,238.50 L202.45,237.44 L206.39,236.72 L210.36,236.26 L214.35,235.98 L218.35,235.81" fill="none" stroke="hsla(311, 60%, 50%, 0.6)" stroke-width="1"/>
  <path d="M275.00,375.00 L275.14,371.00 L274.00,367.17 L271.62,363.96 L268.25,361.79 L264.38,360.80 L260.38,360.80 L256.42,361.40 L252.52,362.29 L248.64,363.26 L244.75,364.17 L240.82,364.95 L236.87,365.55 L232.89,365.97 L228.90,366.19 L224.90,366.22 L220.90,366.06 L216.92,365.71 L212.95,365.17 L209.02,364.43 L205.14,363.48 L201.32,362.30 L197.58,360.87 L193.95,359.18 L190.47,357.20 L187.19,354.93 L184.13,352.35 L181.36,349.46 L178.90,346.30 L176.79,342.91 L175.04,339.31 L173.61,335.57 L172.49,331.74 L171.62,327.83 L170.97,323.88 L170.49,319.91 L170.16,315.93 L169.95,311.93 L169.84,307.93 L169.83,303.93 L169.90,299.93 L170.07,295.94 L170.32,291.95 L170.66,287.96 L171.11,283.99 L171.66,280.02 L172.33,276.08 L173.15,272.16 L174.12,268.29 L175.28,264.46" fill="none" stroke="hsla(312.5, 60%, 50%, 0.6)" stroke-width="1"/>
  <path d="M325.00,375.00 L328.57,376.81 L331.96,378.92 L335.27,381.17 L338.60,383.39 L342.02,385.47 L345.57,387.31 L349.26,388.86 L353.06,390.08 L356.96,391.00 L360.91,391.64 L364.88,392.07 L368.87,392.34 L372.87,392.50 L376.87,392.59 L380.87,392.64 L384.87,392.67 L388.87,392.68 L392.87,392.69 L396.87,392.70 L400.87,392.70 L404.87,392.70 L408.87,392.70 L412.87,392.70 L416.87,392.70 L420.87,392.70 L424.87,392.70 L428.87,392.70 L432.87,392.70 L436.87,392.70 L440.87,392.70 L444.87,392.70 L448.87,392.70 L452.87,392.70 L456.87,392.70 L460.87,392.70 L464.87,392.70 L468.87,392.70 L472.87,392.70 L476.87,392.70 L480.87,392.70 L484.87,392.70 L488.87,392.70 L492.87,392.70 L496.87,392.70 L500.87,392.70 L504.87,392.70 L508.87,392.70 L512.87,392.70 L516.87,392.70" fill="none" stroke="hsla(314, 60%, 50%, 0.6)" stroke-width="1"/>
  <path d="M375.00,375.00 L373.18,378.56 L372.98,382.56 L374.55,386.24 L377.45,388.98 L381.06,390.71 L384.95,391.67 L388.91,392.18 L392.91,392.44 L396.90,392.57 L400.90,392.63 L404.90,392.67 L408.90,392.68 L412.90,392.69 L416.90,392.69 L420.90,392.70 L424.90,392.70 L428.90,392.70 L432.90,392.70 L436.90,392.70 L440.90,392.70 L444.90,392.70 L448.90,392.70 L452.90,392.70 L456.90,392.70 L460.90,392.70 L464.90,392.70 L468.90,392.70 L472.90,392.70 L476.90,392.70 L480.90,392.70 L484.90,392.70 L488.90,392.70 L492.90,392.70 L496.90,392.70 L500.90,392.70 L504.90,392.70 L508.90,392.70 L512.90,392.70 L516.90,392.70 L520.90,392.70 L524.90,392.70 L528.90,392.70 L532.90,392.70 L536.90,392.70 L540.90,392.70 L544.90,392.69 L548.90,392.69 L552.90,392.69 L556.90,392.68" fill="none" stroke="hsla(315.5, 60%, 50%, 0.6)" stroke-width="1"/>
  <path d="M425.00,375.00 L424.33,378.94 L425.10,382.87 L427.33,386.19 L430.57,388.54 L434.29,390.02 L438.18,390.92 L442.15,391.47 L446.13,391.81 L450.13,392.02 L454.12,392.16 L458.12,392.25 L462.12,392.31 L466.12,392.35 L470.12,392.36 L474.12,392.37 L478.12,392.36 L482.12,392.33 L486.12,392.30 L490.12,392.24 L494.12,392.15 L498.12,392.03 L502.12,391.85 L506.11,391.61 L510.09,391.26 L514.06,390.75 L517.99,390.02 L521.85,388.94 L525.53,387.39 L528.86,385.17 L531.46,382.13 L532.79,378.36 L532.37,374.38 L530.30,370.96 L527.22,368.40 L523.71,366.48 L520.05,364.87 L516.36,363.35 L512.69,361.75 L509.09,360.00 L505.61,358.02 L502.30,355.79 L499.19,353.27 L496.34,350.46 L493.79,347.38 L491.58,344.04 L489.72,340.51 L488.19,336.81 L486.98,333.00 L486.04,329.11" fill="none" stroke="hsla(317, 60%, 50%, 0.6)" stroke-width="1"/>
  <path d="M475.00,375.00 L478.95,374.35 L482.71,372.99 L486.12,370.90 L488.97,368.10 L491.03,364.67 L492.14,360.83 L492.35,356.83 L491.87,352.86 L490.95,348.97 L489.84,345.12 L488.70,341.29 L487.63,337.43 L486.69,333.55 L485.90,329.63 L485.27,325.68 L484.78,321.71 L484.41,317.72 L484.17,313.73 L484.02,309.73 L483.98,305.73 L484.02,301.73 L484.14,297.74 L484.35,293.74 L484.66,289.75 L485.05,285.77 L485.55,281.80 L486.17,277.85 L486.92,273.92 L487.82,270.03 L488.89,266.17 L490.17,262.38 L491.68,258.68 L493.45,255.09 L495.53,251.67 L497.93,248.48 L500.68,245.57 L503.77,243.02 L507.15,240.89 L510.78,239.21 L514.58,237.95 L518.48,237.06 L522.43,236.48 L526.42,236.11 L530.41,235.89 L534.41,235.76 L538.41,235.69 L542.41,235.66 L546.41,235.64 L550.41,235.63" fill="none" stroke="hsla(318.5, 60%, 50%, 0.6)" stroke-width="1"/>
  <path d="M25.00,425.00 L24.04,421.12 L24.07,417.12 L24.88,413.20 L26.35,409.48 L28.37,406.03 L30.89,402.92 L33.85,400.23 L37.17,398.00 L40.77,396.26 L44.56,394.98 L48.46,394.10 L52.42,393.52 L56.40,393.16 L60.40,392.95 L64.40,392.83 L68.40,392.77 L72.40,392.73 L76.40,392.72 L80.40,392.71 L84.40,392.70 L88.40,392.70 L92.40,392.70 L96.40,392.70 L100.40,392.70 L104.40,392.70 L108.40,392.70 L112.40,392.70 L116.40,392.70 L120.40,392.70 L124.40,392.70 L128.40,392.70 L132.40,392.70 L136.40,392.70 L140.40,392.70 L144.40,392.70 L148.40,392.70 L152.40,392.70 L156.40,392.70 L160.40,392.70 L164.40,392.70 L168.40,392.70 L172.40,392.70 L176.40,392.70 L180.40,392.70 L184.40,392.70 L188.40,392.70 L192.40,392.70 L196.40,392.70 L200.40,392.70" fill="none" stroke="hsla(320, 60%, 50%, 0.6)" stroke-width="1"/>
  <path d="M75.00,425.00 L71.77,427.36 L69.09,430.33 L67.20,433.85 L66.31,437.75 L66.58,441.75 L67.99,445.49 L70.36,448.71 L73.41,451.29 L76.88,453.30 L80.56,454.87 L84.33,456.19 L88.12,457.46 L91.88,458.83 L95.55,460.41 L99.07,462.33 L102.34,464.63 L105.27,467.35 L107.78,470.46 L109.79,473.92 L111.26,477.64 L112.18,481.54 L112.57,485.52 L112.46,489.52 L111.89,493.47 L110.88,497.34 L109.44,501.08 L107.61,504.63 L105.38,507.96 L102.79,511.00 L99.86,513.73 L96.64,516.10 L93.18,518.10 L89.53,519.73 L85.74,521.01 L81.85,521.97 L77.91,522.64 L73.93,523.05 L69.94,523.24 L65.94,523.21 L61.94,522.97 L57.97,522.54 L54.02,521.92 L50.10,521.08 L46.25,520.03 L42.46,518.73 L38.77,517.19 L35.21,515.36 L31.82,513.25 L28.63,510.83" fill="none" stroke="hsla(321.5, 60%, 50%, 0.6)" stroke-width="1"/>
  <path d="M125.00,425.00 L122.44,421.92 L120.05,418.72 L118.00,415.29 L116.58,411.54 L116.17,407.57 L117.07,403.67 L119.29,400.34 L122.46,397.90 L126.12,396.28 L129.98,395.25 L133.93,394.59 L137.91,394.17 L141.90,393.89 L145.89,393.71 L149.89,393.60 L153.89,393.54 L157.89,393.51 L161.89,393.52 L165.89,393.55 L169.89,393.63 L173.89,393.75 L177.89,393.92 L181.88,394.17 L185.86,394.52 L189.83,395.02 L193.77,395.73 L197.64,396.73 L201.37,398.17 L204.82,400.20 L207.70,402.97 L209.56,406.51 L209.90,410.50 L208.58,414.27 L206.06,417.38 L202.93,419.86 L199.55,422.00 L196.10,424.03 L192.69,426.12 L189.38,428.37 L186.24,430.84 L183.31,433.57 L180.66,436.56 L178.32,439.81 L176.32,443.27 L174.66,446.91 L173.32,450.68 L172.26,454.54 L171.45,458.46 L170.84,462.41" fill="none" stroke="hsla(323, 60%, 50%, 0.6)" stroke-width="1"/>
  <path d="M175.00,425.00 L175.97,428.88 L176.11,432.88 L175.67,436.85 L174.91,440.78 L174.00,444.68 L173.10,448.57 L172.27,452.49 L171.56,456.42 L170.98,460.38 L170.53,464.36 L170.20,468.34 L169.97,472.34 L169.85,476.33 L169.82,480.33 L169.87,484.33 L170.01,488.33 L170.24,492.32 L170.56,496.31 L170.97,500.29 L171.49,504.26 L172.13,508.20 L172.90,512.13 L173.83,516.02 L174.93,519.87 L176.24,523.64 L177.79,527.33 L179.62,530.89 L181.75,534.28 L184.21,537.43 L187.01,540.28 L190.15,542.76 L193.58,544.82 L197.24,546.43 L201.06,547.62 L204.98,548.45 L208.94,549.00 L212.92,549.33 L216.92,549.53 L220.92,549.65 L224.92,549.71 L228.92,549.74 L232.92,549.76 L236.92,549.77 L240.92,549.77 L244.92,549.78 L248.92,549.78 L252.92,549.78 L256.92,549.78 L260.92,549.78" fill="none" stroke="hsla(324.5, 60%, 50%, 0.6)" stroke-width="1"/>
  <path d="M225.00,425.00 L221.60,422.89 L217.77,421.76 L213.78,421.40 L209.79,421.60 L205.84,422.22 L201.96,423.20 L198.17,424.48 L194.50,426.08 L190.98,427.98 L187.65,430.19 L184.55,432.72 L181.72,435.55 L179.22,438.67 L177.06,442.04 L175.25,445.61 L173.79,449.33 L172.62,453.15 L171.72,457.05 L171.04,460.99 L170.55,464.96 L170.19,468.95 L169.97,472.94 L169.85,476.94 L169.82,480.94 L169.89,484.94 L170.04,488.93 L170.28,492.93 L170.61,496.91 L171.04,500.89 L171.58,504.85 L172.24,508.80 L173.03,512.72 L173.98,516.60 L175.12,520.44 L176.46,524.21 L178.05,527.88 L179.92,531.42 L182.10,534.77 L184.61,537.88 L187.47,540.68 L190.65,543.10 L194.12,545.09 L197.81,546.64 L201.65,547.77 L205.57,548.55 L209.54,549.06 L213.53,549.37 L217.52,549.56 L221.52,549.66" fill="none" stroke="hsla(326, 60%, 50%, 0.6)" stroke-width="1"/>
  <path d="M275.00,425.00 L271.44,426.82 L267.49,427.43 L263.50,427.07 L259.62,426.11 L255.81,424.89 L252.02,423.60 L248.21,422.40 L244.35,421.36 L240.44,420.51 L236.49,419.87 L232.51,419.44 L228.52,419.22 L224.52,419.20 L220.52,419.37 L216.54,419.74 L212.58,420.29 L208.65,421.05 L204.77,422.03 L200.95,423.23 L197.23,424.68 L193.61,426.40 L190.15,428.40 L186.88,430.70 L183.85,433.32 L181.11,436.23 L178.69,439.41 L176.61,442.83 L174.89,446.44 L173.49,450.19 L172.40,454.03 L171.55,457.94 L170.92,461.89 L170.45,465.87 L170.13,469.85 L169.93,473.85 L169.83,477.85 L169.83,481.85 L169.92,485.85 L170.09,489.84 L170.35,493.83 L170.70,497.82 L171.15,501.79 L171.72,505.75 L172.40,509.69 L173.23,513.61 L174.22,517.48 L175.40,521.30 L176.80,525.05 L178.45,528.70" fill="none" stroke="hsla(327.5, 60%, 50%, 0.6)" stroke-width="1"/>
  <path d="M325.00,425.00 L327.75,422.09 L330.12,418.87 L332.33,415.54 L334.54,412.21 L336.88,408.96 L339.42,405.87 L342.23,403.03 L345.33,400.49 L348.70,398.34 L352.30,396.59 L356.07,395.27 L359.96,394.32 L363.90,393.68 L367.88,393.26 L371.88,393.01 L375.87,392.87 L379.87,392.79 L383.87,392.75 L387.87,392.72 L391.87,392.71 L395.87,392.70 L399.87,392.70 L403.87,392.70 L407.87,392.70 L411.87,392.70 L415.87,392.70 L419.87,392.70 L423.87,392.70 L427.87,392.70 L431.87,392.70 L435.87,392.70 L439.87,392.70 L443.87,392.70 L447.87,392.70 L451.87,392.70 L455.87,392.70 L459.87,392.70 L463.87,392.70 L467.87,392.70 L471.87,392.70 L475.87,392.70 L479.87,392.70 L483.87,392.70 L487.87,392.70 L491.87,392.70 L495.87,392.70 L499.87,392.70 L503.87,392.70 L507.87,392.70" fill="none" stroke="hsla(329, 60%, 50%, 0.6)" stroke-width="1"/>
  <path d="M375.00,425.00 L371.33,426.58 L367.71,428.30 L364.13,430.08 L360.53,431.82 L356.85,433.39 L353.03,434.58 L349.07,435.11 L345.09,434.66 L341.46,432.99 L338.64,430.16 L336.93,426.54 L336.29,422.59 L336.51,418.60 L337.41,414.70 L338.86,410.97 L340.80,407.47 L343.19,404.27 L346.00,401.43 L349.19,399.01 L352.68,397.06 L356.40,395.57 L360.25,394.50 L364.19,393.79 L368.16,393.33 L372.15,393.05 L376.15,392.89 L380.15,392.80 L384.15,392.75 L388.15,392.72 L392.15,392.71 L396.15,392.71 L400.15,392.70 L404.15,392.70 L408.15,392.70 L412.15,392.70 L416.15,392.70 L420.15,392.70 L424.15,392.70 L428.15,392.70 L432.15,392.70 L436.15,392.70 L440.15,392.70 L444.15,392.70 L448.15,392.70 L452.15,392.70 L456.15,392.70 L460.15,392.70 L464.15,392.70 L468.15,392.70" fill="none" stroke="hsla(330.5, 60%, 50%, 0.6)" stroke-width="1"/>
  <path d="M425.00,425.00 L421.03,424.52 L417.03,424.55 L413.08,425.20 L409.32,426.56 L405.98,428.76 L403.37,431.79 L401.87,435.50 L401.68,439.49 L402.73,443.35 L404.69,446.84 L407.20,449.96 L409.99,452.82 L412.86,455.60 L415.69,458.43 L418.37,461.40 L420.81,464.57 L422.92,467.97 L424.65,471.58 L425.95,475.36 L426.80,479.27 L427.21,483.25 L427.19,487.25 L426.74,491.22 L425.89,495.13 L424.64,498.93 L423.00,502.58 L420.98,506.03 L418.59,509.24 L415.85,512.15 L412.79,514.73 L409.46,516.95 L405.91,518.80 L402.20,520.28 L398.37,521.43 L394.46,522.27 L390.50,522.83 L386.51,523.15 L382.51,523.25 L378.51,523.14 L374.53,522.83 L370.56,522.32 L366.62,521.61 L362.73,520.69 L358.90,519.54 L355.15,518.15 L351.50,516.50 L348.00,514.56 L344.69,512.33 L341.60,509.78" fill="none" stroke="hsla(332, 60%, 50%, 0.6)" stroke-width="1"/>
  <path d="M475.00,425.00 L478.84,426.12 L482.16,428.35 L484.68,431.46 L486.25,435.14 L486.95,439.07 L487.02,443.07 L486.71,447.06 L486.22,451.03 L485.68,455.00 L485.18,458.96 L484.76,462.94 L484.42,466.93 L484.18,470.92 L484.03,474.92 L483.97,478.92 L484.00,482.92 L484.11,486.91 L484.31,490.91 L484.59,494.90 L484.97,498.88 L485.45,502.85 L486.05,506.81 L486.77,510.74 L487.64,514.65 L488.68,518.51 L489.91,522.31 L491.37,526.04 L493.10,529.65 L495.11,533.10 L497.46,536.34 L500.14,539.31 L503.16,541.93 L506.50,544.14 L510.08,545.91 L513.85,547.25 L517.74,548.19 L521.69,548.83 L525.67,549.23 L529.66,549.48 L533.66,549.62 L537.66,549.69 L541.66,549.74 L545.66,549.76 L549.66,549.77 L553.66,549.77 L557.66,549.78 L561.66,549.78 L565.66,549.78 L569.66,549.78" fill="none" stroke="hsla(333.5, 60%, 50%, 0.6)" stroke-width="1"/>
  <path d="M25.00,475.00 L21.04,474.45 L17.69,472.26 L15.41,468.97 L14.10,465.19 L13.45,461.24 L13.18,457.25 L13.17,453.25 L13.33,449.26 L13.62,445.27 L14.03,441.29 L14.57,437.32 L15.23,433.38 L16.03,429.46 L16.99,425.58 L18.14,421.75 L19.50,417.98 L21.11,414.32 L23.00,410.80 L25.20,407.46 L27.74,404.37 L30.62,401.60 L33.83,399.21 L37.32,397.25 L41.03,395.74 L44.87,394.64 L48.80,393.88 L52.77,393.39 L56.76,393.09 L60.75,392.91 L64.75,392.81 L68.75,392.76 L72.75,392.73 L76.75,392.71 L80.75,392.71 L84.75,392.70 L88.75,392.70 L92.75,392.70 L96.75,392.70 L100.75,392.70 L104.75,392.70 L108.75,392.70 L112.75,392.70 L116.75,392.70 L120.75,392.70 L124.75,392.70 L128.75,392.70 L132.75,392.70 L136.75,392.70 L140.75,392.70" fill="none" stroke="hsla(335, 60%, 50%, 0.6)" stroke-width="1"/>
  <path d="M75.00,475.00 L79.00,475.13 L83.00,475.21 L86.99,475.39 L90.97,475.83 L94.87,476.70 L98.61,478.14 L102.01,480.24 L104.88,483.03 L107.03,486.40 L108.35,490.17 L108.83,494.15 L108.51,498.13 L107.49,502.00 L105.87,505.66 L103.72,509.03 L101.12,512.07 L98.14,514.74 L94.84,517.00 L91.30,518.88 L87.59,520.36 L83.76,521.50 L79.84,522.32 L75.88,522.87 L71.89,523.17 L67.89,523.24 L63.89,523.11 L59.91,522.78 L55.94,522.25 L52.01,521.52 L48.12,520.57 L44.30,519.40 L40.56,517.98 L36.93,516.29 L33.45,514.32 L30.16,512.05 L27.10,509.47 L24.32,506.59 L21.86,503.44 L19.75,500.04 L17.98,496.45 L16.55,492.72 L15.43,488.88 L14.55,484.98 L13.90,481.03 L13.42,477.06 L13.08,473.07 L12.87,469.08 L12.76,465.08 L12.75,461.08" fill="none" stroke="hsla(336.5, 60%, 50%, 0.6)" stroke-width="1"/>
  <path d="M125.00,475.00 L121.72,477.29 L119.27,480.45 L117.44,484.01 L115.95,487.72 L114.56,491.47 L113.11,495.19 L111.49,498.85 L109.63,502.39 L107.49,505.77 L105.04,508.94 L102.28,511.83 L99.23,514.42 L95.92,516.67 L92.39,518.55 L88.70,520.08 L84.88,521.27 L80.98,522.15 L77.02,522.76 L73.04,523.12 L69.04,523.25 L65.04,523.17 L61.05,522.90 L57.08,522.42 L53.14,521.75 L49.24,520.86 L45.39,519.76 L41.63,518.41 L37.96,516.80 L34.44,514.92 L31.09,512.73 L27.95,510.24 L25.09,507.45 L22.53,504.37 L20.32,501.04 L18.46,497.50 L16.93,493.80 L15.72,489.99 L14.78,486.10 L14.07,482.17 L13.54,478.20 L13.17,474.22 L12.92,470.23 L12.78,466.23 L12.74,462.23 L12.79,458.23 L12.93,454.23 L13.15,450.24 L13.47,446.25 L13.88,442.27" fill="none" stroke="hsla(338, 60%, 50%, 0.6)" stroke-width="1"/>
  <path d="M175.00,475.00 L172.65,478.24 L171.33,482.02 L170.72,485.97 L170.52,489.96 L170.59,493.96 L170.85,497.95 L171.25,501.93 L171.79,505.90 L172.46,509.84 L173.29,513.75 L174.28,517.63 L175.46,521.45 L176.87,525.20 L178.52,528.84 L180.47,532.33 L182.73,535.63 L185.34,538.66 L188.29,541.37 L191.56,543.67 L195.09,545.54 L198.83,546.98 L202.69,548.01 L206.63,548.71 L210.60,549.16 L214.59,549.43 L218.59,549.59 L222.59,549.68 L226.59,549.73 L230.59,549.75 L234.59,549.77 L238.59,549.77 L242.59,549.78 L246.59,549.78 L250.59,549.78 L254.59,549.78 L258.59,549.78 L262.59,549.78 L266.59,549.78 L270.59,549.78 L274.59,549.78 L278.59,549.78 L282.59,549.78 L286.59,549.78 L290.59,549.78 L294.59,549.78 L298.59,549.78 L302.59,549.78 L306.59,549.78 L310.59,549.78" fill="none" stroke="hsla(339.5, 60%, 50%, 0.6)" stroke-width="1"/>
  <path d="M225.00,475.00 L228.95,474.37 L232.94,474.10 L236.94,474.02 L240.94,473.97 L244.94,473.79 L248.91,473.33 L252.81,472.43 L256.54,470.99 L259.96,468.92 L262.93,466.24 L265.28,463.01 L266.94,459.36 L267.87,455.47 L268.11,451.48 L267.73,447.50 L266.79,443.61 L265.34,439.88 L263.43,436.37 L261.10,433.12 L258.39,430.18 L255.34,427.59 L252.00,425.38 L248.45,423.55 L244.73,422.08 L240.89,420.96 L236.97,420.15 L233.01,419.61 L229.02,419.31 L225.02,419.23 L221.02,419.36 L217.04,419.69 L213.07,420.22 L209.14,420.95 L205.25,421.90 L201.43,423.07 L197.69,424.48 L194.06,426.17 L190.57,428.13 L187.28,430.40 L184.22,432.97 L181.43,435.85 L178.97,439.00 L176.85,442.39 L175.08,445.98 L173.65,449.71 L172.52,453.55 L171.64,457.45 L170.98,461.40 L170.50,465.37" fill="none" stroke="hsla(341, 60%, 50%, 0.6)" stroke-width="1"/>
  <path d="M275.00,475.00 L273.85,471.17 L273.14,467.23 L272.62,463.27 L272.09,459.30 L271.45,455.35 L270.61,451.44 L269.51,447.60 L268.12,443.85 L266.41,440.23 L264.36,436.80 L261.96,433.59 L259.24,430.66 L256.21,428.06 L252.90,425.80 L249.38,423.91 L245.68,422.38 L241.86,421.19 L237.96,420.31 L234.01,419.71 L230.02,419.36 L226.02,419.23 L222.03,419.31 L218.03,419.59 L214.06,420.07 L210.12,420.75 L206.22,421.64 L202.38,422.75 L198.62,424.10 L194.96,425.72 L191.43,427.61 L188.09,429.80 L184.96,432.30 L182.10,435.10 L179.56,438.18 L177.35,441.52 L175.49,445.06 L173.98,448.77 L172.78,452.58 L171.84,456.47 L171.13,460.41 L170.61,464.37 L170.24,468.35 L169.99,472.35 L169.86,476.34 L169.82,480.34 L169.87,484.34 L170.01,488.34 L170.24,492.33 L170.56,496.32" fill="none" stroke="hsla(342.5, 60%, 50%, 0.6)" stroke-width="1"/>
  <path d="M325.00,475.00 L325.88,471.10 L326.33,467.12 L326.57,463.13 L326.76,459.14 L326.96,455.14 L327.21,451.15 L327.52,447.16 L327.92,443.18 L328.42,439.21 L329.03,435.26 L329.77,431.33 L330.66,427.43 L331.72,423.57 L332.97,419.77 L334.46,416.06 L336.21,412.46 L338.26,409.03 L340.64,405.81 L343.36,402.88 L346.42,400.30 L349.78,398.13 L353.39,396.41 L357.17,395.12 L361.07,394.20 L365.02,393.60 L369.00,393.21 L373.00,392.98 L377.00,392.85 L380.99,392.78 L384.99,392.74 L388.99,392.72 L392.99,392.71 L396.99,392.70 L400.99,392.70 L404.99,392.70 L408.99,392.70 L412.99,392.70 L416.99,392.70 L420.99,392.70 L424.99,392.70 L428.99,392.70 L432.99,392.70 L436.99,392.70 L440.99,392.70 L444.99,392.70 L448.99,392.70 L452.99,392.70 L456.99,392.70 L460.99,392.70" fill="none" stroke="hsla(344, 60%, 50%, 0.6)" stroke-width="1"/>
  <path d="M375.00,475.00 L378.67,476.58 L382.52,477.69 L386.45,478.41 L390.43,478.86 L394.42,479.17 L398.40,479.50 L402.37,480.00 L406.28,480.84 L410.05,482.19 L413.53,484.16 L416.52,486.82 L418.78,490.12 L420.16,493.87 L420.59,497.85 L420.11,501.82 L418.85,505.61 L416.91,509.11 L414.42,512.24 L411.48,514.96 L408.20,517.24 L404.66,519.10 L400.93,520.56 L397.08,521.66 L393.16,522.44 L389.19,522.94 L385.20,523.19 L381.20,523.23 L377.21,523.05 L373.22,522.68 L369.26,522.11 L365.34,521.33 L361.46,520.34 L357.66,519.11 L353.94,517.64 L350.34,515.89 L346.89,513.86 L343.65,511.53 L340.64,508.88 L337.93,505.95 L335.54,502.74 L333.50,499.30 L331.81,495.67 L330.45,491.91 L329.38,488.05 L328.56,484.14 L327.94,480.19 L327.49,476.21 L327.19,472.22 L327.00,468.23" fill="none" stroke="hsla(345.5, 60%, 50%, 0.6)" stroke-width="1"/>
  <path d="M425.00,475.00 L426.15,478.83 L426.78,482.78 L426.93,486.78 L426.62,490.77 L425.87,494.70 L424.70,498.52 L423.12,502.20 L421.16,505.68 L418.81,508.92 L416.11,511.87 L413.09,514.49 L409.78,516.75 L406.26,518.63 L402.56,520.15 L398.74,521.33 L394.83,522.20 L390.87,522.79 L386.89,523.13 L382.89,523.25 L378.89,523.16 L374.90,522.87 L370.93,522.38 L366.99,521.69 L363.09,520.79 L359.26,519.66 L355.50,518.29 L351.84,516.67 L348.33,514.76 L344.99,512.55 L341.88,510.04 L339.04,507.22 L336.51,504.12 L334.32,500.77 L332.49,497.22 L330.99,493.51 L329.80,489.69 L328.88,485.80 L328.18,481.86 L327.67,477.89 L327.30,473.91 L327.06,469.92 L326.93,465.92 L326.90,461.92 L326.96,457.92 L327.10,453.92 L327.33,449.93 L327.66,445.94 L328.08,441.97 L328.60,438.00" fill="none" stroke="hsla(347, 60%, 50%, 0.6)" stroke-width="1"/>
  <path d="M475.00,475.00 L478.56,476.81 L481.01,479.98 L482.46,483.71 L483.31,487.61 L483.90,491.57 L484.40,495.54 L484.90,499.51 L485.46,503.47 L486.10,507.42 L486.86,511.34 L487.77,515.24 L488.84,519.09 L490.11,522.89 L491.61,526.59 L493.38,530.18 L495.44,533.61 L497.84,536.81 L500.57,539.73 L503.65,542.29 L507.02,544.44 L510.64,546.14 L514.43,547.41 L518.33,548.31 L522.29,548.90 L526.27,549.28 L530.26,549.50 L534.26,549.63 L538.26,549.70 L542.26,549.74 L546.26,549.76 L550.26,549.77 L554.26,549.77 L558.26,549.78 L562.26,549.78 L566.26,549.78 L570.26,549.78 L574.26,549.78 L578.26,549.78 L582.26,549.78 L586.26,549.78 L590.26,549.78 L594.26,549.78 L598.26,549.78 L602.26,549.78 L606.26,549.78 L610.26,549.78 L614.26,549.78 L618.26,549.78 L622.26,549.78" fill="none" stroke="hsla(348.5, 60%, 50%, 0.6)" stroke-width="1"/>
</svg>