<svg xmlns="http://www.w3.org/2000/svg" width="400" height="400" viewBox="0 0 400 400">
  <path d="M380.00,200.00 L378.00,199.40 L376.00,198.81 L373.99,198.22 L371.99,197.64 L369.98,197.07 L367.97,196.50 L365.96,195.94 L363.94,195.39 L361.93,194.85 L359.91,194.31 L357.89,193.79 L355.87,193.26 L353.84,192.75 L351.82,192.25 L349.79,191.75 L347.76,191.26 L345.73,190.78 L343.69,190.31 L341.66,189.84 L339.62,189.39 L337.58,188.94 L335.54,188.50 L333.50,188.07 L331.45,187.65 L329.40,187.24 L327.35,186.84 L325.30,186.45 L323.25,186.07 L321.19,185.70 L319.14,185.34 L317.08,184.99 L315.02,184.65 L312.96,184.32 L310.89,184.00 L308.83,183.69 L306.76,183.39 L304.69,183.11 L302.62,182.83 L300.55,182.57 L298.48,182.32 L296.40,182.08 L294.33,181.86 L292.25,181.65 L290.17,181.45 L288.09,181.26 L286.01,181.09 L283.93,180.94 L281.85,180.79 L279.76,180.67 L277.68,180.56 L275.59,180.46 L273.50,180.38 L271.42,180.31 L269.33,180.27 L267.24,180.24 L265.15,180.23 L263.07,180.23 L260.98,180.26 L258.89,180.30 L256.80,180.37 L254.72,180.46 L252.63,180.56 L250.55,180.69 L248.47,180.85 L246.38,181.02 L244.31,181.23 L242.23,181.45 L240.16,181.71 L238.09,181.99 L236.03,182.30 L233.97,182.65 L231.91,183.02 L229.86,183.43 L227.82,183.88 L225.79,184.36 L223.77,184.89 L221.76,185.45 L219.77,186.06 L217.79,186.73" fill="none" stroke="hsl(0, 70%, 50%)" stroke-width="2"/>
  <path d="M377.27,231.26 L375.40,230.32 L373.53,229.39 L371.66,228.46 L369.78,227.54 L367.91,226.63 L366.03,225.72 L364.14,224.82 L362.25,223.93 L360.36,223.05 L358.47,222.17 L356.57,221.30 L354.67,220.43 L352.76,219.58 L350.86,218.73 L348.95,217.89 L347.03,217.05 L345.11,216.22 L343.19,215.41 L341.27,214.60 L339.34,213.79 L337.41,213.00 L335.48,212.21 L333.54,211.44 L331.60,210.67 L329.65,209.91 L327.70,209.16 L325.75,208.42 L323.80,207.68 L321.84,206.96 L319.87,206.25 L317.91,205.54 L315.94,204.85 L313.97,204.17 L311.99,203.50 L310.01,202.83 L308.02,202.18 L306.04,201.54 L304.05,200.91 L302.05,200.30 L300.05,199.69 L298.05,199.10 L296.05,198.51 L294.04,197.95 L292.02,197.39 L290.01,196.85 L287.99,196.32 L285.96,195.80 L283.94,195.30 L281.91,194.81 L279.87,194.34 L277.84,193.88 L275.79,193.44 L273.75,193.02 L271.70,192.61 L269.65,192.21 L267.60,191.84 L265.54,191.48 L263.48,191.15 L261.42,190.83 L259.35,190.53 L257.28,190.25 L255.21,190.00 L253.13,189.76 L251.06,189.55 L248.98,189.37 L246.89,189.20 L244.81,189.07 L242.72,188.96 L240.64,188.88 L238.55,188.83 L236.46,188.81 L234.37,188.82 L232.29,188.87 L230.20,188.95 L228.12,189.08 L226.04,189.24 L223.96,189.45 L221.89,189.71 L219.82,190.02" fill="none" stroke="hsl(10, 70%, 50%)" stroke-width="2"/>
  <path d="M369.14,261.56 L367.47,260.32 L365.79,259.07 L364.11,257.84 L362.42,256.61 L360.73,255.38 L359.04,254.16 L357.34,252.95 L355.63,251.74 L353.92,250.54 L352.21,249.35 L350.49,248.16 L348.77,246.98 L347.04,245.81 L345.31,244.64 L343.58,243.48 L341.84,242.32 L340.09,241.18 L338.34,240.04 L336.59,238.90 L334.83,237.78 L333.07,236.66 L331.30,235.55 L329.52,234.45 L327.74,233.36 L325.96,232.27 L324.17,231.19 L322.38,230.12 L320.58,229.06 L318.78,228.01 L316.97,226.97 L315.15,225.93 L313.33,224.91 L311.51,223.89 L309.68,222.89 L307.84,221.89 L306.00,220.91 L304.16,219.93 L302.31,218.97 L300.45,218.01 L298.59,217.07 L296.72,216.14 L294.84,215.21 L292.96,214.31 L291.08,213.41 L289.19,212.52 L287.29,211.65 L285.39,210.79 L283.48,209.95 L281.56,209.11 L279.64,208.30 L277.72,207.49 L275.78,206.70 L273.84,205.93 L271.90,205.17 L269.95,204.43 L267.99,203.70 L266.02,203.00 L264.05,202.31 L262.08,201.63 L260.09,200.98 L258.10,200.35 L256.11,199.74 L254.10,199.15 L252.09,198.58 L250.08,198.03 L248.06,197.51 L246.03,197.02 L243.99,196.55 L241.95,196.10 L239.91,195.69 L237.85,195.31 L235.79,194.96 L233.73,194.65 L231.66,194.37 L229.59,194.13 L227.51,193.93 L225.43,193.77 L223.34,193.67 L221.25,193.61" fill="none" stroke="hsl(20, 70%, 50%)" stroke-width="2"/>
  <path d="M355.88,290.00 L354.45,288.48 L353.02,286.97 L351.57,285.46 L350.13,283.95 L348.67,282.45 L347.21,280.96 L345.75,279.47 L344.28,277.98 L342.81,276.50 L341.33,275.03 L339.84,273.56 L338.35,272.10 L336.86,270.64 L335.35,269.19 L333.85,267.75 L332.33,266.31 L330.81,264.88 L329.29,263.45 L327.76,262.03 L326.22,260.62 L324.68,259.21 L323.13,257.81 L321.57,256.42 L320.01,255.03 L318.44,253.65 L316.87,252.28 L315.29,250.92 L313.70,249.56 L312.11,248.21 L310.51,246.87 L308.90,245.54 L307.29,244.21 L305.67,242.90 L304.04,241.59 L302.40,240.29 L300.76,239.00 L299.11,237.72 L297.46,236.44 L295.80,235.18 L294.13,233.93 L292.45,232.69 L290.76,231.45 L289.07,230.23 L287.37,229.02 L285.66,227.82 L283.94,226.63 L282.22,225.46 L280.48,224.29 L278.74,223.14 L276.99,222.00 L275.23,220.87 L273.47,219.76 L271.69,218.66 L269.91,217.58 L268.11,216.51 L266.31,215.45 L264.50,214.41 L262.68,213.39 L260.85,212.39 L259.01,211.40 L257.16,210.43 L255.30,209.48 L253.43,208.55 L251.55,207.65 L249.66,206.76 L247.76,205.89 L245.85,205.05 L243.92,204.24 L241.99,203.45 L240.05,202.69 L238.09,201.95 L236.12,201.25 L234.15,200.58 L232.16,199.95 L230.16,199.35 L228.14,198.80 L226.12,198.28 L224.09,197.81 L222.04,197.40" fill="none" stroke="hsl(30, 70%, 50%)" stroke-width="2"/>
  <path d="M337.89,315.70 L336.74,313.96 L335.59,312.22 L334.43,310.48 L333.27,308.74 L332.10,307.02 L330.92,305.29 L329.74,303.57 L328.55,301.85 L327.35,300.14 L326.15,298.43 L324.95,296.73 L323.73,295.03 L322.51,293.34 L321.28,291.65 L320.05,289.96 L318.81,288.28 L317.56,286.61 L316.31,284.94 L315.05,283.27 L313.78,281.62 L312.50,279.96 L311.22,278.32 L309.93,276.67 L308.63,275.04 L307.33,273.41 L306.02,271.78 L304.70,270.16 L303.37,268.55 L302.03,266.95 L300.69,265.35 L299.34,263.76 L297.98,262.17 L296.61,260.59 L295.24,259.02 L293.85,257.46 L292.46,255.90 L291.06,254.35 L289.65,252.81 L288.23,251.28 L286.80,249.76 L285.37,248.24 L283.92,246.74 L282.47,245.24 L281.00,243.75 L279.53,242.27 L278.04,240.80 L276.55,239.35 L275.04,237.90 L273.53,236.46 L272.00,235.03 L270.47,233.62 L268.92,232.22 L267.36,230.83 L265.79,229.45 L264.21,228.08 L262.62,226.73 L261.02,225.40 L259.40,224.07 L257.77,222.77 L256.13,221.47 L254.48,220.20 L252.81,218.94 L251.13,217.70 L249.44,216.48 L247.73,215.28 L246.01,214.10 L244.27,212.94 L242.52,211.80 L240.75,210.69 L238.97,209.60 L237.17,208.54 L235.36,207.51 L233.53,206.50 L231.68,205.53 L229.81,204.60 L227.93,203.70 L226.02,202.84 L224.10,202.03 L222.16,201.26" fill="none" stroke="hsl(40, 70%, 50%)" stroke-width="2"/>
  <path d="M315.70,337.89 L314.88,335.97 L314.04,334.06 L313.20,332.14 L312.36,330.23 L311.51,328.33 L310.65,326.42 L309.78,324.52 L308.91,322.63 L308.03,320.73 L307.14,318.84 L306.25,316.96 L305.35,315.07 L304.44,313.19 L303.53,311.31 L302.60,309.44 L301.67,307.57 L300.74,305.71 L299.79,303.84 L298.84,301.99 L297.88,300.13 L296.91,298.28 L295.93,296.44 L294.94,294.60 L293.95,292.76 L292.95,290.93 L291.94,289.10 L290.92,287.28 L289.89,285.46 L288.86,283.65 L287.81,281.84 L286.76,280.04 L285.70,278.24 L284.62,276.45 L283.54,274.66 L282.45,272.88 L281.35,271.11 L280.24,269.34 L279.12,267.58 L277.99,265.82 L276.84,264.07 L275.69,262.33 L274.53,260.60 L273.36,258.87 L272.17,257.15 L270.98,255.44 L269.77,253.74 L268.55,252.04 L267.32,250.35 L266.08,248.67 L264.83,247.01 L263.56,245.35 L262.28,243.70 L260.99,242.06 L259.68,240.43 L258.36,238.81 L257.03,237.20 L255.68,235.61 L254.32,234.02 L252.94,232.45 L251.55,230.90 L250.14,229.35 L248.72,227.82 L247.28,226.31 L245.83,224.81 L244.35,223.33 L242.86,221.87 L241.35,220.43 L239.83,219.01 L238.28,217.60 L236.71,216.22 L235.13,214.86 L233.52,213.53 L231.89,212.23 L230.24,210.95 L228.56,209.71 L226.86,208.49 L225.13,207.32 L223.38,206.18 L221.60,205.09" fill="none" stroke="hsl(50, 70%, 50%)" stroke-width="2"/>
  <path d="M290.00,355.88 L289.52,353.85 L289.03,351.82 L288.54,349.79 L288.04,347.77 L287.53,345.74 L287.01,343.72 L286.49,341.70 L285.96,339.68 L285.42,337.66 L284.88,335.64 L284.33,333.63 L283.77,331.62 L283.20,329.61 L282.62,327.60 L282.04,325.60 L281.45,323.59 L280.85,321.59 L280.24,319.60 L279.63,317.60 L279.00,315.61 L278.37,313.62 L277.73,311.63 L277.08,309.65 L276.42,307.67 L275.75,305.69 L275.07,303.71 L274.38,301.74 L273.69,299.77 L272.98,297.81 L272.27,295.84 L271.54,293.89 L270.81,291.93 L270.06,289.98 L269.31,288.03 L268.54,286.09 L267.77,284.15 L266.98,282.22 L266.18,280.29 L265.37,278.37 L264.55,276.45 L263.72,274.53 L262.88,272.62 L262.02,270.72 L261.15,268.82 L260.27,266.92 L259.38,265.03 L258.47,263.15 L257.56,261.28 L256.62,259.41 L255.68,257.55 L254.72,255.69 L253.74,253.85 L252.76,252.01 L251.75,250.18 L250.74,248.35 L249.70,246.54 L248.65,244.73 L247.59,242.94 L246.50,241.15 L245.40,239.38 L244.28,237.61 L243.15,235.86 L241.99,234.12 L240.82,232.40 L239.63,230.68 L238.41,228.98 L237.18,227.30 L235.92,225.63 L234.64,223.98 L233.34,222.35 L232.01,220.74 L230.66,219.15 L229.28,217.58 L227.87,216.04 L226.44,214.52 L224.98,213.03 L223.48,211.57 L221.95,210.15 L220.39,208.77" fill="none" stroke="hsl(60, 70%, 50%)" stroke-width="2"/>
  <path d="M261.56,369.14 L261.44,367.06 L261.32,364.98 L261.18,362.89 L261.04,360.81 L260.89,358.73 L260.74,356.64 L260.57,354.56 L260.40,352.48 L260.22,350.40 L260.04,348.32 L259.84,346.24 L259.64,344.16 L259.43,342.09 L259.21,340.01 L258.98,337.93 L258.75,335.86 L258.51,333.79 L258.25,331.71 L257.99,329.64 L257.73,327.57 L257.45,325.50 L257.16,323.43 L256.86,321.37 L256.56,319.30 L256.25,317.24 L255.92,315.17 L255.59,313.11 L255.24,311.05 L254.89,308.99 L254.53,306.94 L254.15,304.88 L253.77,302.83 L253.37,300.78 L252.97,298.73 L252.55,296.69 L252.12,294.64 L251.68,292.60 L251.23,290.56 L250.77,288.53 L250.30,286.49 L249.81,284.46 L249.31,282.43 L248.80,280.41 L248.27,278.39 L247.74,276.37 L247.18,274.36 L246.62,272.35 L246.04,270.34 L245.45,268.34 L244.84,266.34 L244.22,264.35 L243.58,262.36 L242.92,260.38 L242.25,258.40 L241.57,256.43 L240.86,254.46 L240.14,252.50 L239.41,250.55 L238.65,248.60 L237.87,246.66 L237.08,244.73 L236.27,242.81 L235.43,240.90 L234.57,238.99 L233.70,237.10 L232.80,235.21 L231.87,233.34 L230.92,231.48 L229.95,229.63 L228.95,227.80 L227.92,225.98 L226.87,224.18 L225.78,222.40 L224.67,220.63 L223.52,218.89 L222.33,217.17 L221.11,215.47 L219.86,213.81 L218.56,212.17" fill="none" stroke="hsl(70, 70%, 50%)" stroke-width="2"/>
  <path d="M231.26,377.27 L231.50,375.19 L231.74,373.12 L231.97,371.04 L232.19,368.97 L232.40,366.89 L232.61,364.81 L232.81,362.73 L233.00,360.65 L233.19,358.57 L233.37,356.49 L233.54,354.41 L233.70,352.33 L233.85,350.25 L234.00,348.16 L234.14,346.08 L234.27,344.00 L234.39,341.91 L234.50,339.83 L234.60,337.74 L234.70,335.66 L234.78,333.57 L234.86,331.48 L234.93,329.40 L234.98,327.31 L235.03,325.22 L235.07,323.13 L235.10,321.05 L235.12,318.96 L235.13,316.87 L235.13,314.78 L235.12,312.69 L235.09,310.61 L235.06,308.52 L235.02,306.43 L234.96,304.34 L234.90,302.26 L234.82,300.17 L234.73,298.08 L234.63,296.00 L234.51,293.91 L234.39,291.83 L234.25,289.75 L234.09,287.66 L233.93,285.58 L233.75,283.50 L233.56,281.42 L233.35,279.34 L233.13,277.27 L232.89,275.19 L232.64,273.12 L232.37,271.05 L232.09,268.98 L231.79,266.91 L231.47,264.85 L231.14,262.79 L230.79,260.73 L230.42,258.68 L230.03,256.62 L229.62,254.58 L229.20,252.53 L228.75,250.49 L228.28,248.46 L227.79,246.43 L227.28,244.40 L226.74,242.38 L226.18,240.37 L225.60,238.37 L224.99,236.37 L224.35,234.38 L223.68,232.40 L222.99,230.44 L222.26,228.48 L221.50,226.53 L220.71,224.60 L219.88,222.69 L219.01,220.79 L218.11,218.91 L217.16,217.05 L216.16,215.21" fill="none" stroke="hsl(80, 70%, 50%)" stroke-width="2"/>
  <path d="M200.00,380.00 L200.60,378.00 L201.19,376.00 L201.78,373.99 L202.36,371.99 L202.93,369.98 L203.50,367.97 L204.06,365.96 L204.61,363.94 L205.15,361.93 L205.69,359.91 L206.21,357.89 L206.74,355.87 L207.25,353.84 L207.75,351.82 L208.25,349.79 L208.74,347.76 L209.22,345.73 L209.69,343.69 L210.16,341.66 L210.61,339.62 L211.06,337.58 L211.50,335.54 L211.93,333.50 L212.35,331.45 L212.76,329.40 L213.16,327.35 L213.55,325.30 L213.93,323.25 L214.30,321.19 L214.66,319.14 L215.01,317.08 L215.35,315.02 L215.68,312.96 L216.00,310.89 L216.31,308.83 L216.61,306.76 L216.89,304.69 L217.17,302.62 L217.43,300.55 L217.68,298.48 L217.92,296.40 L218.14,294.33 L218.35,292.25 L218.55,290.17 L218.74,288.09 L218.91,286.01 L219.06,283.93 L219.21,281.85 L219.33,279.76 L219.44,277.68 L219.54,275.59 L219.62,273.50 L219.69,271.42 L219.73,269.33 L219.76,267.24 L219.77,265.15 L219.77,263.07 L219.74,260.98 L219.70,258.89 L219.63,256.80 L219.54,254.72 L219.44,252.63 L219.31,250.55 L219.15,248.47 L218.98,246.38 L218.77,244.31 L218.55,242.23 L218.29,240.16 L218.01,238.09 L217.70,236.03 L217.35,233.97 L216.98,231.91 L216.57,229.86 L216.12,227.82 L215.64,225.79 L215.11,223.77 L214.55,221.76 L213.94,219.77 L213.27,217.79" fill="none" stroke="hsl(90, 70%, 50%)" stroke-width="2"/>
  <path d="M168.74,377.27 L169.68,375.40 L170.61,373.53 L171.54,371.66 L172.46,369.78 L173.37,367.91 L174.28,366.03 L175.18,364.14 L176.07,362.25 L176.95,360.36 L177.83,358.47 L178.70,356.57 L179.57,354.67 L180.42,352.76 L181.27,350.86 L182.11,348.95 L182.95,347.03 L183.78,345.11 L184.59,343.19 L185.40,341.27 L186.21,339.34 L187.00,337.41 L187.79,335.48 L188.56,333.54 L189.33,331.60 L190.09,329.65 L190.84,327.70 L191.58,325.75 L192.32,323.80 L193.04,321.84 L193.75,319.87 L194.46,317.91 L195.15,315.94 L195.83,313.97 L196.50,311.99 L197.17,310.01 L197.82,308.02 L198.46,306.04 L199.09,304.05 L199.70,302.05 L200.31,300.05 L200.90,298.05 L201.49,296.05 L202.05,294.04 L202.61,292.02 L203.15,290.01 L203.68,287.99 L204.20,285.96 L204.70,283.94 L205.19,281.91 L205.66,279.87 L206.12,277.84 L206.56,275.79 L206.98,273.75 L207.39,271.70 L207.79,269.65 L208.16,267.60 L208.52,265.54 L208.85,263.48 L209.17,261.42 L209.47,259.35 L209.75,257.28 L210.00,255.21 L210.24,253.13 L210.45,251.06 L210.63,248.98 L210.80,246.89 L210.93,244.81 L211.04,242.72 L211.12,240.64 L211.17,238.55 L211.19,236.46 L211.18,234.37 L211.13,232.29 L211.05,230.20 L210.92,228.12 L210.76,226.04 L210.55,223.96 L210.29,221.89 L209.98,219.82" fill="none" stroke="hsl(100, 70%, 50%)" stroke-width="2"/>
  <path d="M138.44,369.14 L139.68,367.47 L140.93,365.79 L142.16,364.11 L143.39,362.42 L144.62,360.73 L145.84,359.04 L147.05,357.34 L148.26,355.63 L149.46,353.92 L150.65,352.21 L151.84,350.49 L153.02,348.77 L154.19,347.04 L155.36,345.31 L156.52,343.58 L157.68,341.84 L158.82,340.09 L159.96,338.34 L161.10,336.59 L162.22,334.83 L163.34,333.07 L164.45,331.30 L165.55,329.52 L166.64,327.74 L167.73,325.96 L168.81,324.17 L169.88,322.38 L170.94,320.58 L171.99,318.78 L173.03,316.97 L174.07,315.15 L175.09,313.33 L176.11,311.51 L177.11,309.68 L178.11,307.84 L179.09,306.00 L180.07,304.16 L181.03,302.31 L181.99,300.45 L182.93,298.59 L183.86,296.72 L184.79,294.84 L185.69,292.96 L186.59,291.08 L187.48,289.19 L188.35,287.29 L189.21,285.39 L190.05,283.48 L190.89,281.56 L191.70,279.64 L192.51,277.72 L193.30,275.78 L194.07,273.84 L194.83,271.90 L195.57,269.95 L196.30,267.99 L197.00,266.02 L197.69,264.05 L198.37,262.08 L199.02,260.09 L199.65,258.10 L200.26,256.11 L200.85,254.10 L201.42,252.09 L201.97,250.08 L202.49,248.06 L202.98,246.03 L203.45,243.99 L203.90,241.95 L204.31,239.91 L204.69,237.85 L205.04,235.79 L205.35,233.73 L205.63,231.66 L205.87,229.59 L206.07,227.51 L206.23,225.43 L206.33,223.34 L206.39,221.25" fill="none" stroke="hsl(110, 70%, 50%)" stroke-width="2"/>
  <path d="M110.00,355.88 L111.52,354.45 L113.03,353.02 L114.54,351.57 L116.05,350.13 L117.55,348.67 L119.04,347.21 L120.53,345.75 L122.02,344.28 L123.50,342.81 L124.97,341.33 L126.44,339.84 L127.90,338.35 L129.36,336.86 L130.81,335.35 L132.25,333.85 L133.69,332.33 L135.12,330.81 L136.55,329.29 L137.97,327.76 L139.38,326.22 L140.79,324.68 L142.19,323.13 L143.58,321.57 L144.97,320.01 L146.35,318.44 L147.72,316.87 L149.08,315.29 L150.44,313.70 L151.79,312.11 L153.13,310.51 L154.46,308.90 L155.79,307.29 L157.10,305.67 L158.41,304.04 L159.71,302.40 L161.00,300.76 L162.28,299.11 L163.56,297.46 L164.82,295.80 L166.07,294.13 L167.31,292.45 L168.55,290.76 L169.77,289.07 L170.98,287.37 L172.18,285.66 L173.37,283.94 L174.54,282.22 L175.71,280.48 L176.86,278.74 L178.00,276.99 L179.13,275.23 L180.24,273.47 L181.34,271.69 L182.42,269.91 L183.49,268.11 L184.55,266.31 L185.59,264.50 L186.61,262.68 L187.61,260.85 L188.60,259.01 L189.57,257.16 L190.52,255.30 L191.45,253.43 L192.35,251.55 L193.24,249.66 L194.11,247.76 L194.95,245.85 L195.76,243.92 L196.55,241.99 L197.31,240.05 L198.05,238.09 L198.75,236.12 L199.42,234.15 L200.05,232.16 L200.65,230.16 L201.20,228.14 L201.72,226.12 L202.19,224.09 L202.60,222.04" fill="none" stroke="hsl(120, 70%, 50%)" stroke-width="2"/>
  <path d="M84.30,337.89 L86.04,336.74 L87.78,335.59 L89.52,334.43 L91.26,333.27 L92.98,332.10 L94.71,330.92 L96.43,329.74 L98.15,328.55 L99.86,327.35 L101.57,326.15 L103.27,324.95 L104.97,323.73 L106.66,322.51 L108.35,321.28 L110.04,320.05 L111.72,318.81 L113.39,317.56 L115.06,316.31 L116.73,315.05 L118.38,313.78 L120.04,312.50 L121.68,311.22 L123.33,309.93 L124.96,308.63 L126.59,307.33 L128.22,306.02 L129.84,304.70 L131.45,303.37 L133.05,302.03 L134.65,300.69 L136.24,299.34 L137.83,297.98 L139.41,296.61 L140.98,295.24 L142.54,293.85 L144.10,292.46 L145.65,291.06 L147.19,289.65 L148.72,288.23 L150.24,286.80 L151.76,285.37 L153.26,283.92 L154.76,282.47 L156.25,281.00 L157.73,279.53 L159.20,278.04 L160.65,276.55 L162.10,275.04 L163.54,273.53 L164.97,272.00 L166.38,270.47 L167.78,268.92 L169.17,267.36 L170.55,265.79 L171.92,264.21 L173.27,262.62 L174.60,261.02 L175.93,259.40 L177.23,257.77 L178.53,256.13 L179.80,254.48 L181.06,252.81 L182.30,251.13 L183.52,249.44 L184.72,247.73 L185.90,246.01 L187.06,244.27 L188.20,242.52 L189.31,240.75 L190.40,238.97 L191.46,237.17 L192.49,235.36 L193.50,233.53 L194.47,231.68 L195.40,229.81 L196.30,227.93 L197.16,226.02 L197.97,224.10 L198.74,222.16" fill="none" stroke="hsl(130, 70%, 50%)" stroke-width="2"/>
  <path d="M62.11,315.70 L64.03,314.88 L65.94,314.04 L67.86,313.20 L69.77,312.36 L71.67,311.51 L73.58,310.65 L75.48,309.78 L77.37,308.91 L79.27,308.03 L81.16,307.14 L83.04,306.25 L84.93,305.35 L86.81,304.44 L88.69,303.53 L90.56,302.60 L92.43,301.67 L94.29,300.74 L96.16,299.79 L98.01,298.84 L99.87,297.88 L101.72,296.91 L103.56,295.93 L105.40,294.94 L107.24,293.95 L109.07,292.95 L110.90,291.94 L112.72,290.92 L114.54,289.89 L116.35,288.86 L118.16,287.81 L119.96,286.76 L121.76,285.70 L123.55,284.62 L125.34,283.54 L127.12,282.45 L128.89,281.35 L130.66,280.24 L132.42,279.12 L134.18,277.99 L135.93,276.84 L137.67,275.69 L139.40,274.53 L141.13,273.36 L142.85,272.17 L144.56,270.98 L146.26,269.77 L147.96,268.55 L149.65,267.32 L151.33,266.08 L152.99,264.83 L154.65,263.56 L156.30,262.28 L157.94,260.99 L159.57,259.68 L161.19,258.36 L162.80,257.03 L164.39,255.68 L165.98,254.32 L167.55,252.94 L169.10,251.55 L170.65,250.14 L172.18,248.72 L173.69,247.28 L175.19,245.83 L176.67,244.35 L178.13,242.86 L179.57,241.35 L180.99,239.83 L182.40,238.28 L183.78,236.71 L185.14,235.13 L186.47,233.52 L187.77,231.89 L189.05,230.24 L190.29,228.56 L191.51,226.86 L192.68,225.13 L193.82,223.38 L194.91,221.60" fill="none" stroke="hsl(140, 70%, 50%)" stroke-width="2"/>
  <path d="M44.12,290.00 L46.15,289.52 L48.18,289.03 L50.21,288.54 L52.23,288.04 L54.26,287.53 L56.28,287.01 L58.30,286.49 L60.32,285.96 L62.34,285.42 L64.36,284.88 L66.37,284.33 L68.38,283.77 L70.39,283.20 L72.40,282.62 L74.40,282.04 L76.41,281.45 L78.41,280.85 L80.40,280.24 L82.40,279.63 L84.39,279.00 L86.38,278.37 L88.37,277.73 L90.35,277.08 L92.33,276.42 L94.31,275.75 L96.29,275.07 L98.26,274.38 L100.23,273.69 L102.19,272.98 L104.16,272.27 L106.11,271.54 L108.07,270.81 L110.02,270.06 L111.97,269.31 L113.91,268.54 L115.85,267.77 L117.78,266.98 L119.71,266.18 L121.63,265.37 L123.55,264.55 L125.47,263.72 L127.38,262.88 L129.28,262.02 L131.18,261.15 L133.08,260.27 L134.97,259.38 L136.85,258.47 L138.72,257.56 L140.59,256.62 L142.45,255.68 L144.31,254.72 L146.15,253.74 L147.99,252.76 L149.82,251.75 L151.65,250.74 L153.46,249.70 L155.27,248.65 L157.06,247.59 L158.85,246.50 L160.62,245.40 L162.39,244.28 L164.14,243.15 L165.88,241.99 L167.60,240.82 L169.32,239.63 L171.02,238.41 L172.70,237.18 L174.37,235.92 L176.02,234.64 L177.65,233.34 L179.26,232.01 L180.85,230.66 L182.42,229.28 L183.96,227.87 L185.48,226.44 L186.97,224.98 L188.43,223.48 L189.85,221.95 L191.23,220.39" fill="none" stroke="hsl(150, 70%, 50%)" stroke-width="2"/>
  <path d="M30.86,261.56 L32.94,261.44 L35.02,261.32 L37.11,261.18 L39.19,261.04 L41.27,260.89 L43.36,260.74 L45.44,260.57 L47.52,260.40 L49.60,260.22 L51.68,260.04 L53.76,259.84 L55.84,259.64 L57.91,259.43 L59.99,259.21 L62.07,258.98 L64.14,258.75 L66.21,258.51 L68.29,258.25 L70.36,257.99 L72.43,257.73 L74.50,257.45 L76.57,257.16 L78.63,256.86 L80.70,256.56 L82.76,256.25 L84.83,255.92 L86.89,255.59 L88.95,255.24 L91.01,254.89 L93.06,254.53 L95.12,254.15 L97.17,253.77 L99.22,253.37 L101.27,252.97 L103.31,252.55 L105.36,252.12 L107.40,251.68 L109.44,251.23 L111.47,250.77 L113.51,250.30 L115.54,249.81 L117.57,249.31 L119.59,248.80 L121.61,248.27 L123.63,247.74 L125.64,247.18 L127.65,246.62 L129.66,246.04 L131.66,245.45 L133.66,244.84 L135.65,244.22 L137.64,243.58 L139.62,242.92 L141.60,242.25 L143.57,241.57 L145.54,240.86 L147.50,240.14 L149.45,239.41 L151.40,238.65 L153.34,237.87 L155.27,237.08 L157.19,236.27 L159.10,235.43 L161.01,234.57 L162.90,233.70 L164.79,232.80 L166.66,231.87 L168.52,230.92 L170.37,229.95 L172.20,228.95 L174.02,227.92 L175.82,226.87 L177.60,225.78 L179.37,224.67 L181.11,223.52 L182.83,222.33 L184.53,221.11 L186.19,219.86 L187.83,218.56" fill="none" stroke="hsl(160, 70%, 50%)" stroke-width="2"/>
  <path d="M22.73,231.26 L24.81,231.50 L26.88,231.74 L28.96,231.97 L31.03,232.19 L33.11,232.40 L35.19,232.61 L37.27,232.81 L39.35,233.00 L41.43,233.19 L43.51,233.37 L45.59,233.54 L47.67,233.70 L49.75,233.85 L51.84,234.00 L53.92,234.14 L56.00,234.27 L58.09,234.39 L60.17,234.50 L62.26,234.60 L64.34,234.70 L66.43,234.78 L68.52,234.86 L70.60,234.93 L72.69,234.98 L74.78,235.03 L76.87,235.07 L78.95,235.10 L81.04,235.12 L83.13,235.13 L85.22,235.13 L87.31,235.12 L89.39,235.09 L91.48,235.06 L93.57,235.02 L95.66,234.96 L97.74,234.90 L99.83,234.82 L101.92,234.73 L104.00,234.63 L106.09,234.51 L108.17,234.39 L110.25,234.25 L112.34,234.09 L114.42,233.93 L116.50,233.75 L118.58,233.56 L120.66,233.35 L122.73,233.13 L124.81,232.89 L126.88,232.64 L128.95,232.37 L131.02,232.09 L133.09,231.79 L135.15,231.47 L137.21,231.14 L139.27,230.79 L141.32,230.42 L143.38,230.03 L145.42,229.62 L147.47,229.20 L149.51,228.75 L151.54,228.28 L153.57,227.79 L155.60,227.28 L157.62,226.74 L159.63,226.18 L161.63,225.60 L163.63,224.99 L165.62,224.35 L167.60,223.68 L169.56,222.99 L171.52,222.26 L173.47,221.50 L175.40,220.71 L177.31,219.88 L179.21,219.01 L181.09,218.11 L182.95,217.16 L184.79,216.16" fill="none" stroke="hsl(170, 70%, 50%)" stroke-width="2"/>
  <path d="M20.00,200.00 L22.00,200.60 L24.00,201.19 L26.01,201.78 L28.01,202.36 L30.02,202.93 L32.03,203.50 L34.04,204.06 L36.06,204.61 L38.07,205.15 L40.09,205.69 L42.11,206.21 L44.13,206.74 L46.16,207.25 L48.18,207.75 L50.21,208.25 L52.24,208.74 L54.27,209.22 L56.31,209.69 L58.34,210.16 L60.38,210.61 L62.42,211.06 L64.46,211.50 L66.50,211.93 L68.55,212.35 L70.60,212.76 L72.65,213.16 L74.70,213.55 L76.75,213.93 L78.81,214.30 L80.86,214.66 L82.92,215.01 L84.98,215.35 L87.04,215.68 L89.11,216.00 L91.17,216.31 L93.24,216.61 L95.31,216.89 L97.38,217.17 L99.45,217.43 L101.52,217.68 L103.60,217.92 L105.67,218.14 L107.75,218.35 L109.83,218.55 L111.91,218.74 L113.99,218.91 L116.07,219.06 L118.15,219.21 L120.24,219.33 L122.32,219.44 L124.41,219.54 L126.50,219.62 L128.58,219.69 L130.67,219.73 L132.76,219.76 L134.85,219.77 L136.93,219.77 L139.02,219.74 L141.11,219.70 L143.20,219.63 L145.28,219.54 L147.37,219.44 L149.45,219.31 L151.53,219.15 L153.62,218.98 L155.69,218.77 L157.77,218.55 L159.84,218.29 L161.91,218.01 L163.97,217.70 L166.03,217.35 L168.09,216.98 L170.14,216.57 L172.18,216.12 L174.21,215.64 L176.23,215.11 L178.24,214.55 L180.23,213.94 L182.21,213.27" fill="none" stroke="hsl(180, 70%, 50%)" stroke-width="2"/>
  <path d="M22.73,168.74 L24.60,169.68 L26.47,170.61 L28.34,171.54 L30.22,172.46 L32.09,173.37 L33.97,174.28 L35.86,175.18 L37.75,176.07 L39.64,176.95 L41.53,177.83 L43.43,178.70 L45.33,179.57 L47.24,180.42 L49.14,181.27 L51.05,182.11 L52.97,182.95 L54.89,183.78 L56.81,184.59 L58.73,185.40 L60.66,186.21 L62.59,187.00 L64.52,187.79 L66.46,188.56 L68.40,189.33 L70.35,190.09 L72.30,190.84 L74.25,191.58 L76.20,192.32 L78.16,193.04 L80.13,193.75 L82.09,194.46 L84.06,195.15 L86.03,195.83 L88.01,196.50 L89.99,197.17 L91.98,197.82 L93.96,198.46 L95.95,199.09 L97.95,199.70 L99.95,200.31 L101.95,200.90 L103.95,201.49 L105.96,202.05 L107.98,202.61 L109.99,203.15 L112.01,203.68 L114.04,204.20 L116.06,204.70 L118.09,205.19 L120.13,205.66 L122.16,206.12 L124.21,206.56 L126.25,206.98 L128.30,207.39 L130.35,207.79 L132.40,208.16 L134.46,208.52 L136.52,208.85 L138.58,209.17 L140.65,209.47 L142.72,209.75 L144.79,210.00 L146.87,210.24 L148.94,210.45 L151.02,210.63 L153.11,210.80 L155.19,210.93 L157.28,211.04 L159.36,211.12 L161.45,211.17 L163.54,211.19 L165.63,211.18 L167.71,211.13 L169.80,211.05 L171.88,210.92 L173.96,210.76 L176.04,210.55 L178.11,210.29 L180.18,209.98" fill="none" stroke="hsl(190, 70%, 50%)" stroke-width="2"/>
  <path d="M30.86,138.44 L32.53,139.68 L34.21,140.93 L35.89,142.16 L37.58,143.39 L39.27,144.62 L40.96,145.84 L42.66,147.05 L44.37,148.26 L46.08,149.46 L47.79,150.65 L49.51,151.84 L51.23,153.02 L52.96,154.19 L54.69,155.36 L56.42,156.52 L58.16,157.68 L59.91,158.82 L61.66,159.96 L63.41,161.10 L65.17,162.22 L66.93,163.34 L68.70,164.45 L70.48,165.55 L72.26,166.64 L74.04,167.73 L75.83,168.81 L77.62,169.88 L79.42,170.94 L81.22,171.99 L83.03,173.03 L84.85,174.07 L86.67,175.09 L88.49,176.11 L90.32,177.11 L92.16,178.11 L94.00,179.09 L95.84,180.07 L97.69,181.03 L99.55,181.99 L101.41,182.93 L103.28,183.86 L105.16,184.79 L107.04,185.69 L108.92,186.59 L110.81,187.48 L112.71,188.35 L114.61,189.21 L116.52,190.05 L118.44,190.89 L120.36,191.70 L122.28,192.51 L124.22,193.30 L126.16,194.07 L128.10,194.83 L130.05,195.57 L132.01,196.30 L133.98,197.00 L135.95,197.69 L137.92,198.37 L139.91,199.02 L141.90,199.65 L143.89,200.26 L145.90,200.85 L147.91,201.42 L149.92,201.97 L151.94,202.49 L153.97,202.98 L156.01,203.45 L158.05,203.90 L160.09,204.31 L162.15,204.69 L164.21,205.04 L166.27,205.35 L168.34,205.63 L170.41,205.87 L172.49,206.07 L174.57,206.23 L176.66,206.33 L178.75,206.39" fill="none" stroke="hsl(200, 70%, 50%)" stroke-width="2"/>
  <path d="M44.12,110.00 L45.55,111.52 L46.98,113.03 L48.43,114.54 L49.87,116.05 L51.33,117.55 L52.79,119.04 L54.25,120.53 L55.72,122.02 L57.19,123.50 L58.67,124.97 L60.16,126.44 L61.65,127.90 L63.14,129.36 L64.65,130.81 L66.15,132.25 L67.67,133.69 L69.19,135.12 L70.71,136.55 L72.24,137.97 L73.78,139.38 L75.32,140.79 L76.87,142.19 L78.43,143.58 L79.99,144.97 L81.56,146.35 L83.13,147.72 L84.71,149.08 L86.30,150.44 L87.89,151.79 L89.49,153.13 L91.10,154.46 L92.71,155.79 L94.33,157.10 L95.96,158.41 L97.60,159.71 L99.24,161.00 L100.89,162.28 L102.54,163.56 L104.20,164.82 L105.87,166.07 L107.55,167.31 L109.24,168.55 L110.93,169.77 L112.63,170.98 L114.34,172.18 L116.06,173.37 L117.78,174.54 L119.52,175.71 L121.26,176.86 L123.01,178.00 L124.77,179.13 L126.53,180.24 L128.31,181.34 L130.09,182.42 L131.89,183.49 L133.69,184.55 L135.50,185.59 L137.32,186.61 L139.15,187.61 L140.99,188.60 L142.84,189.57 L144.70,190.52 L146.57,191.45 L148.45,192.35 L150.34,193.24 L152.24,194.11 L154.15,194.95 L156.08,195.76 L158.01,196.55 L159.95,197.31 L161.91,198.05 L163.88,198.75 L165.85,199.42 L167.84,200.05 L169.84,200.65 L171.86,201.20 L173.88,201.72 L175.91,202.19 L177.96,202.60" fill="none" stroke="hsl(210, 70%, 50%)" stroke-width="2"/>
  <path d="M62.11,84.30 L63.26,86.04 L64.41,87.78 L65.57,89.52 L66.73,91.26 L67.90,92.98 L69.08,94.71 L70.26,96.43 L71.45,98.15 L72.65,99.86 L73.85,101.57 L75.05,103.27 L76.27,104.97 L77.49,106.66 L78.72,108.35 L79.95,110.04 L81.19,111.72 L82.44,113.39 L83.69,115.06 L84.95,116.73 L86.22,118.38 L87.50,120.04 L88.78,121.68 L90.07,123.33 L91.37,124.96 L92.67,126.59 L93.98,128.22 L95.30,129.84 L96.63,131.45 L97.97,133.05 L99.31,134.65 L100.66,136.24 L102.02,137.83 L103.39,139.41 L104.76,140.98 L106.15,142.54 L107.54,144.10 L108.94,145.65 L110.35,147.19 L111.77,148.72 L113.20,150.24 L114.63,151.76 L116.08,153.26 L117.53,154.76 L119.00,156.25 L120.47,157.73 L121.96,159.20 L123.45,160.65 L124.96,162.10 L126.47,163.54 L128.00,164.97 L129.53,166.38 L131.08,167.78 L132.64,169.17 L134.21,170.55 L135.79,171.92 L137.38,173.27 L138.98,174.60 L140.60,175.93 L142.23,177.23 L143.87,178.53 L145.52,179.80 L147.19,181.06 L148.87,182.30 L150.56,183.52 L152.27,184.72 L153.99,185.90 L155.73,187.06 L157.48,188.20 L159.25,189.31 L161.03,190.40 L162.83,191.46 L164.64,192.49 L166.47,193.50 L168.32,194.47 L170.19,195.40 L172.07,196.30 L173.98,197.16 L175.90,197.97 L177.84,198.74" fill="none" stroke="hsl(220, 70%, 50%)" stroke-width="2"/>
  <path d="M84.30,62.11 L85.12,64.03 L85.96,65.94 L86.80,67.86 L87.64,69.77 L88.49,71.67 L89.35,73.58 L90.22,75.48 L91.09,77.37 L91.97,79.27 L92.86,81.16 L93.75,83.04 L94.65,84.93 L95.56,86.81 L96.47,88.69 L97.40,90.56 L98.33,92.43 L99.26,94.29 L100.21,96.16 L101.16,98.01 L102.12,99.87 L103.09,101.72 L104.07,103.56 L105.06,105.40 L106.05,107.24 L107.05,109.07 L108.06,110.90 L109.08,112.72 L110.11,114.54 L111.14,116.35 L112.19,118.16 L113.24,119.96 L114.30,121.76 L115.38,123.55 L116.46,125.34 L117.55,127.12 L118.65,128.89 L119.76,130.66 L120.88,132.42 L122.01,134.18 L123.16,135.93 L124.31,137.67 L125.47,139.40 L126.64,141.13 L127.83,142.85 L129.02,144.56 L130.23,146.26 L131.45,147.96 L132.68,149.65 L133.92,151.33 L135.17,152.99 L136.44,154.65 L137.72,156.30 L139.01,157.94 L140.32,159.57 L141.64,161.19 L142.97,162.80 L144.32,164.39 L145.68,165.98 L147.06,167.55 L148.45,169.10 L149.86,170.65 L151.28,172.18 L152.72,173.69 L154.17,175.19 L155.65,176.67 L157.14,178.13 L158.65,179.57 L160.17,180.99 L161.72,182.40 L163.29,183.78 L164.87,185.14 L166.48,186.47 L168.11,187.77 L169.76,189.05 L171.44,190.29 L173.14,191.51 L174.87,192.68 L176.62,193.82 L178.40,194.91" fill="none" stroke="hsl(230, 70%, 50%)" stroke-width="2"/>
  <path d="M110.00,44.12 L110.48,46.15 L110.97,48.18 L111.46,50.21 L111.96,52.23 L112.47,54.26 L112.99,56.28 L113.51,58.30 L114.04,60.32 L114.58,62.34 L115.12,64.36 L115.67,66.37 L116.23,68.38 L116.80,70.39 L117.38,72.40 L117.96,74.40 L118.55,76.41 L119.15,78.41 L119.76,80.40 L120.37,82.40 L121.00,84.39 L121.63,86.38 L122.27,88.37 L122.92,90.35 L123.58,92.33 L124.25,94.31 L124.93,96.29 L125.62,98.26 L126.31,100.23 L127.02,102.19 L127.73,104.16 L128.46,106.11 L129.19,108.07 L129.94,110.02 L130.69,111.97 L131.46,113.91 L132.23,115.85 L133.02,117.78 L133.82,119.71 L134.63,121.63 L135.45,123.55 L136.28,125.47 L137.12,127.38 L137.98,129.28 L138.85,131.18 L139.73,133.08 L140.62,134.97 L141.53,136.85 L142.44,138.72 L143.38,140.59 L144.32,142.45 L145.28,144.31 L146.26,146.15 L147.24,147.99 L148.25,149.82 L149.26,151.65 L150.30,153.46 L151.35,155.27 L152.41,157.06 L153.50,158.85 L154.60,160.62 L155.72,162.39 L156.85,164.14 L158.01,165.88 L159.18,167.60 L160.37,169.32 L161.59,171.02 L162.82,172.70 L164.08,174.37 L165.36,176.02 L166.66,177.65 L167.99,179.26 L169.34,180.85 L170.72,182.42 L172.13,183.96 L173.56,185.48 L175.02,186.97 L176.52,188.43 L178.05,189.85 L179.61,191.23" fill="none" stroke="hsl(240, 70%, 50%)" stroke-width="2"/>
  <path d="M138.44,30.86 L138.56,32.94 L138.68,35.02 L138.82,37.11 L138.96,39.19 L139.11,41.27 L139.26,43.36 L139.43,45.44 L139.60,47.52 L139.78,49.60 L139.96,51.68 L140.16,53.76 L140.36,55.84 L140.57,57.91 L140.79,59.99 L141.02,62.07 L141.25,64.14 L141.49,66.21 L141.75,68.29 L142.01,70.36 L142.27,72.43 L142.55,74.50 L142.84,76.57 L143.14,78.63 L143.44,80.70 L143.75,82.76 L144.08,84.83 L144.41,86.89 L144.76,88.95 L145.11,91.01 L145.47,93.06 L145.85,95.12 L146.23,97.17 L146.63,99.22 L147.03,101.27 L147.45,103.31 L147.88,105.36 L148.32,107.40 L148.77,109.44 L149.23,111.47 L149.70,113.51 L150.19,115.54 L150.69,117.57 L151.20,119.59 L151.73,121.61 L152.26,123.63 L152.82,125.64 L153.38,127.65 L153.96,129.66 L154.55,131.66 L155.16,133.66 L155.78,135.65 L156.42,137.64 L157.08,139.62 L157.75,141.60 L158.43,143.57 L159.14,145.54 L159.86,147.50 L160.59,149.45 L161.35,151.40 L162.13,153.34 L162.92,155.27 L163.73,157.19 L164.57,159.10 L165.43,161.01 L166.30,162.90 L167.20,164.79 L168.13,166.66 L169.08,168.52 L170.05,170.37 L171.05,172.20 L172.08,174.02 L173.13,175.82 L174.22,177.60 L175.33,179.37 L176.48,181.11 L177.67,182.83 L178.89,184.53 L180.14,186.19 L181.44,187.83" fill="none" stroke="hsl(250, 70%, 50%)" stroke-width="2"/>
  <path d="M168.74,22.73 L168.50,24.81 L168.26,26.88 L168.03,28.96 L167.81,31.03 L167.60,33.11 L167.39,35.19 L167.19,37.27 L167.00,39.35 L166.81,41.43 L166.63,43.51 L166.46,45.59 L166.30,47.67 L166.15,49.75 L166.00,51.84 L165.86,53.92 L165.73,56.00 L165.61,58.09 L165.50,60.17 L165.40,62.26 L165.30,64.34 L165.22,66.43 L165.14,68.52 L165.07,70.60 L165.02,72.69 L164.97,74.78 L164.93,76.87 L164.90,78.95 L164.88,81.04 L164.87,83.13 L164.87,85.22 L164.88,87.31 L164.91,89.39 L164.94,91.48 L164.98,93.57 L165.04,95.66 L165.10,97.74 L165.18,99.83 L165.27,101.92 L165.37,104.00 L165.49,106.09 L165.61,108.17 L165.75,110.25 L165.91,112.34 L166.07,114.42 L166.25,116.50 L166.44,118.58 L166.65,120.66 L166.87,122.73 L167.11,124.81 L167.36,126.88 L167.63,128.95 L167.91,131.02 L168.21,133.09 L168.53,135.15 L168.86,137.21 L169.21,139.27 L169.58,141.32 L169.97,143.38 L170.38,145.42 L170.80,147.47 L171.25,149.51 L171.72,151.54 L172.21,153.57 L172.72,155.60 L173.26,157.62 L173.82,159.63 L174.40,161.63 L175.01,163.63 L175.65,165.62 L176.32,167.60 L177.01,169.56 L177.74,171.52 L178.50,173.47 L179.29,175.40 L180.12,177.31 L180.99,179.21 L181.89,181.09 L182.84,182.95 L183.84,184.79" fill="none" stroke="hsl(260, 70%, 50%)" stroke-width="2"/>
  <path d="M200.00,20.00 L199.40,22.00 L198.81,24.00 L198.22,26.01 L197.64,28.01 L197.07,30.02 L196.50,32.03 L195.94,34.04 L195.39,36.06 L194.85,38.07 L194.31,40.09 L193.79,42.11 L193.26,44.13 L192.75,46.16 L192.25,48.18 L191.75,50.21 L191.26,52.24 L190.78,54.27 L190.31,56.31 L189.84,58.34 L189.39,60.38 L188.94,62.42 L188.50,64.46 L188.07,66.50 L187.65,68.55 L187.24,70.60 L186.84,72.65 L186.45,74.70 L186.07,76.75 L185.70,78.81 L185.34,80.86 L184.99,82.92 L184.65,84.98 L184.32,87.04 L184.00,89.11 L183.69,91.17 L183.39,93.24 L183.11,95.31 L182.83,97.38 L182.57,99.45 L182.32,101.52 L182.08,103.60 L181.86,105.67 L181.65,107.75 L181.45,109.83 L181.26,111.91 L181.09,113.99 L180.94,116.07 L180.79,118.15 L180.67,120.24 L180.56,122.32 L180.46,124.41 L180.38,126.50 L180.31,128.58 L180.27,130.67 L180.24,132.76 L180.23,134.85 L180.23,136.93 L180.26,139.02 L180.30,141.11 L180.37,143.20 L180.46,145.28 L180.56,147.37 L180.69,149.45 L180.85,151.53 L181.02,153.62 L181.23,155.69 L181.45,157.77 L181.71,159.84 L181.99,161.91 L182.30,163.97 L182.65,166.03 L183.02,168.09 L183.43,170.14 L183.88,172.18 L184.36,174.21 L184.89,176.23 L185.45,178.24 L186.06,180.23 L186.73,182.21" fill="none" stroke="hsl(270, 70%, 50%)" stroke-width="2"/>
  <path d="M231.26,22.73 L230.32,24.60 L229.39,26.47 L228.46,28.34 L227.54,30.22 L226.63,32.09 L225.72,33.97 L224.82,35.86 L223.93,37.75 L223.05,39.64 L222.17,41.53 L221.30,43.43 L220.43,45.33 L219.58,47.24 L218.73,49.14 L217.89,51.05 L217.05,52.97 L216.22,54.89 L215.41,56.81 L214.60,58.73 L213.79,60.66 L213.00,62.59 L212.21,64.52 L211.44,66.46 L210.67,68.40 L209.91,70.35 L209.16,72.30 L208.42,74.25 L207.68,76.20 L206.96,78.16 L206.25,80.13 L205.54,82.09 L204.85,84.06 L204.17,86.03 L203.50,88.01 L202.83,89.99 L202.18,91.98 L201.54,93.96 L200.91,95.95 L200.30,97.95 L199.69,99.95 L199.10,101.95 L198.51,103.95 L197.95,105.96 L197.39,107.98 L196.85,109.99 L196.32,112.01 L195.80,114.04 L195.30,116.06 L194.81,118.09 L194.34,120.13 L193.88,122.16 L193.44,124.21 L193.02,126.25 L192.61,128.30 L192.21,130.35 L191.84,132.40 L191.48,134.46 L191.15,136.52 L190.83,138.58 L190.53,140.65 L190.25,142.72 L190.00,144.79 L189.76,146.87 L189.55,148.94 L189.37,151.02 L189.20,153.11 L189.07,155.19 L188.96,157.28 L188.88,159.36 L188.83,161.45 L188.81,163.54 L188.82,165.63 L188.87,167.71 L188.95,169.80 L189.08,171.88 L189.24,173.96 L189.45,176.04 L189.71,178.11 L190.02,180.18" fill="none" stroke="hsl(280, 70%, 50%)" stroke-width="2"/>
  <path d="M261.56,30.86 L260.32,32.53 L259.07,34.21 L257.84,35.89 L256.61,37.58 L255.38,39.27 L254.16,40.96 L252.95,42.66 L251.74,44.37 L250.54,46.08 L249.35,47.79 L248.16,49.51 L246.98,51.23 L245.81,52.96 L244.64,54.69 L243.48,56.42 L242.32,58.16 L241.18,59.91 L240.04,61.66 L238.90,63.41 L237.78,65.17 L236.66,66.93 L235.55,68.70 L234.45,70.48 L233.36,72.26 L232.27,74.04 L231.19,75.83 L230.12,77.62 L229.06,79.42 L228.01,81.22 L226.97,83.03 L225.93,84.85 L224.91,86.67 L223.89,88.49 L222.89,90.32 L221.89,92.16 L220.91,94.00 L219.93,95.84 L218.97,97.69 L218.01,99.55 L217.07,101.41 L216.14,103.28 L215.21,105.16 L214.31,107.04 L213.41,108.92 L212.52,110.81 L211.65,112.71 L210.79,114.61 L209.95,116.52 L209.11,118.44 L208.30,120.36 L207.49,122.28 L206.70,124.22 L205.93,126.16 L205.17,128.10 L204.43,130.05 L203.70,132.01 L203.00,133.98 L202.31,135.95 L201.63,137.92 L200.98,139.91 L200.35,141.90 L199.74,143.89 L199.15,145.90 L198.58,147.91 L198.03,149.92 L197.51,151.94 L197.02,153.97 L196.55,156.01 L196.10,158.05 L195.69,160.09 L195.31,162.15 L194.96,164.21 L194.65,166.27 L194.37,168.34 L194.13,170.41 L193.93,172.49 L193.77,174.57 L193.67,176.66 L193.61,178.75" fill="none" stroke="hsl(290, 70%, 50%)" stroke-width="2"/>
  <path d="M290.00,44.12 L288.48,45.55 L286.97,46.98 L285.46,48.43 L283.95,49.87 L282.45,51.33 L280.96,52.79 L279.47,54.25 L277.98,55.72 L276.50,57.19 L275.03,58.67 L273.56,60.16 L272.10,61.65 L270.64,63.14 L269.19,64.65 L267.75,66.15 L266.31,67.67 L264.88,69.19 L263.45,70.71 L262.03,72.24 L260.62,73.78 L259.21,75.32 L257.81,76.87 L256.42,78.43 L255.03,79.99 L253.65,81.56 L252.28,83.13 L250.92,84.71 L249.56,86.30 L248.21,87.89 L246.87,89.49 L245.54,91.10 L244.21,92.71 L242.90,94.33 L241.59,95.96 L240.29,97.60 L239.00,99.24 L237.72,100.89 L236.44,102.54 L235.18,104.20 L233.93,105.87 L232.69,107.55 L231.45,109.24 L230.23,110.93 L229.02,112.63 L227.82,114.34 L226.63,116.06 L225.46,117.78 L224.29,119.52 L223.14,121.26 L222.00,123.01 L220.87,124.77 L219.76,126.53 L218.66,128.31 L217.58,130.09 L216.51,131.89 L215.45,133.69 L214.41,135.50 L213.39,137.32 L212.39,139.15 L211.40,140.99 L210.43,142.84 L209.48,144.70 L208.55,146.57 L207.65,148.45 L206.76,150.34 L205.89,152.24 L205.05,154.15 L204.24,156.08 L203.45,158.01 L202.69,159.95 L201.95,161.91 L201.25,163.88 L200.58,165.85 L199.95,167.84 L199.35,169.84 L198.80,171.86 L198.28,173.88 L197.81,175.91 L197.40,177.96" fill="none" stroke="hsl(300, 70%, 50%)" stroke-width="2"/>
  <path d="M315.70,62.11 L313.96,63.26 L312.22,64.41 L310.48,65.57 L308.74,66.73 L307.02,67.90 L305.29,69.08 L303.57,70.26 L301.85,71.45 L300.14,72.65 L298.43,73.85 L296.73,75.05 L295.03,76.27 L293.34,77.49 L291.65,78.72 L289.96,79.95 L288.28,81.19 L286.61,82.44 L284.94,83.69 L283.27,84.95 L281.62,86.22 L279.96,87.50 L278.32,88.78 L276.67,90.07 L275.04,91.37 L273.41,92.67 L271.78,93.98 L270.16,95.30 L268.55,96.63 L266.95,97.97 L265.35,99.31 L263.76,100.66 L262.17,102.02 L260.59,103.39 L259.02,104.76 L257.46,106.15 L255.90,107.54 L254.35,108.94 L252.81,110.35 L251.28,111.77 L249.76,113.20 L248.24,114.63 L246.74,116.08 L245.24,117.53 L243.75,119.00 L242.27,120.47 L240.80,121.96 L239.35,123.45 L237.90,124.96 L236.46,126.47 L235.03,128.00 L233.62,129.53 L232.22,131.08 L230.83,132.64 L229.45,134.21 L228.08,135.79 L226.73,137.38 L225.40,138.98 L224.07,140.60 L222.77,142.23 L221.47,143.87 L220.20,145.52 L218.94,147.19 L217.70,148.87 L216.48,150.56 L215.28,152.27 L214.10,153.99 L212.94,155.73 L211.80,157.48 L210.69,159.25 L209.60,161.03 L208.54,162.83 L207.51,164.64 L206.50,166.47 L205.53,168.32 L204.60,170.19 L203.70,172.07 L202.84,173.98 L202.03,175.90 L201.26,177.84" fill="none" stroke="hsl(310, 70%, 50%)" stroke-width="2"/>
  <path d="M337.89,84.30 L335.97,85.12 L334.06,85.96 L332.14,86.80 L330.23,87.64 L328.33,88.49 L326.42,89.35 L324.52,90.22 L322.63,91.09 L320.73,91.97 L318.84,92.86 L316.96,93.75 L315.07,94.65 L313.19,95.56 L311.31,96.47 L309.44,97.40 L307.57,98.33 L305.71,99.26 L303.84,100.21 L301.99,101.16 L300.13,102.12 L298.28,103.09 L296.44,104.07 L294.60,105.06 L292.76,106.05 L290.93,107.05 L289.10,108.06 L287.28,109.08 L285.46,110.11 L283.65,111.14 L281.84,112.19 L280.04,113.24 L278.24,114.30 L276.45,115.38 L274.66,116.46 L272.88,117.55 L271.11,118.65 L269.34,119.76 L267.58,120.88 L265.82,122.01 L264.07,123.16 L262.33,124.31 L260.60,125.47 L258.87,126.64 L257.15,127.83 L255.44,129.02 L253.74,130.23 L252.04,131.45 L250.35,132.68 L248.67,133.92 L247.01,135.17 L245.35,136.44 L243.70,137.72 L242.06,139.01 L240.43,140.32 L238.81,141.64 L237.20,142.97 L235.61,144.32 L234.02,145.68 L232.45,147.06 L230.90,148.45 L229.35,149.86 L227.82,151.28 L226.31,152.72 L224.81,154.17 L223.33,155.65 L221.87,157.14 L220.43,158.65 L219.01,160.17 L217.60,161.72 L216.22,163.29 L214.86,164.87 L213.53,166.48 L212.23,168.11 L210.95,169.76 L209.71,171.44 L208.49,173.14 L207.32,174.87 L206.18,176.62 L205.09,178.40" fill="none" stroke="hsl(320, 70%, 50%)" stroke-width="2"/>
  <path d="M355.88,110.00 L353.85,110.48 L351.82,110.97 L349.79,111.46 L347.77,111.96 L345.74,112.47 L343.72,112.99 L341.70,113.51 L339.68,114.04 L337.66,114.58 L335.64,115.12 L333.63,115.67 L331.62,116.23 L329.61,116.80 L327.60,117.38 L325.60,117.96 L323.59,118.55 L321.59,119.15 L319.60,119.76 L317.60,120.37 L315.61,121.00 L313.62,121.63 L311.63,122.27 L309.65,122.92 L307.67,123.58 L305.69,124.25 L303.71,124.93 L301.74,125.62 L299.77,126.31 L297.81,127.02 L295.84,127.73 L293.89,128.46 L291.93,129.19 L289.98,129.94 L288.03,130.69 L286.09,131.46 L284.15,132.23 L282.22,133.02 L280.29,133.82 L278.37,134.63 L276.45,135.45 L274.53,136.28 L272.62,137.12 L270.72,137.98 L268.82,138.85 L266.92,139.73 L265.03,140.62 L263.15,141.53 L261.28,142.44 L259.41,143.38 L257.55,144.32 L255.69,145.28 L253.85,146.26 L252.01,147.24 L250.18,148.25 L248.35,149.26 L246.54,150.30 L244.73,151.35 L242.94,152.41 L241.15,153.50 L239.38,154.60 L237.61,155.72 L235.86,156.85 L234.12,158.01 L232.40,159.18 L230.68,160.37 L228.98,161.59 L227.30,162.82 L225.63,164.08 L223.98,165.36 L222.35,166.66 L220.74,167.99 L219.15,169.34 L217.58,170.72 L216.04,172.13 L214.52,173.56 L213.03,175.02 L211.57,176.52 L210.15,178.05 L208.77,179.61" fill="none" stroke="hsl(330, 70%, 50%)" stroke-width="2"/>
  <path d="M369.14,138.44 L367.06,138.56 L364.98,138.68 L362.89,138.82 L360.81,138.96 L358.73,139.11 L356.64,139.26 L354.56,139.43 L352.48,139.60 L350.40,139.78 L348.32,139.96 L346.24,140.16 L344.16,140.36 L342.09,140.57 L340.01,140.79 L337.93,141.02 L335.86,141.25 L333.79,141.49 L331.71,141.75 L329.64,142.01 L327.57,142.27 L325.50,142.55 L323.43,142.84 L321.37,143.14 L319.30,143.44 L317.24,143.75 L315.17,144.08 L313.11,144.41 L311.05,144.76 L308.99,145.11 L306.94,145.47 L304.88,145.85 L302.83,146.23 L300.78,146.63 L298.73,147.03 L296.69,147.45 L294.64,147.88 L292.60,148.32 L290.56,148.77 L288.53,149.23 L286.49,149.70 L284.46,150.19 L282.43,150.69 L280.41,151.20 L278.39,151.73 L276.37,152.26 L274.36,152.82 L272.35,153.38 L270.34,153.96 L268.34,154.55 L266.34,155.16 L264.35,155.78 L262.36,156.42 L260.38,157.08 L258.40,157.75 L256.43,158.43 L254.46,159.14 L252.50,159.86 L250.55,160.59 L248.60,161.35 L246.66,162.13 L244.73,162.92 L242.81,163.73 L240.90,164.57 L238.99,165.43 L237.10,166.30 L235.21,167.20 L233.34,168.13 L231.48,169.08 L229.63,170.05 L227.80,171.05 L225.98,172.08 L224.18,173.13 L222.40,174.22 L220.63,175.33 L218.89,176.48 L217.17,177.67 L215.47,178.89 L213.81,180.14 L212.17,181.44" fill="none" stroke="hsl(340, 70%, 50%)" stroke-width="2"/>
  <path d="M377.27,168.74 L375.19,168.50 L373.12,168.26 L371.04,168.03 L368.97,167.81 L366.89,167.60 L364.81,167.39 L362.73,167.19 L360.65,167.00 L358.57,166.81 L356.49,166.63 L354.41,166.46 L352.33,166.30 L350.25,166.15 L348.16,166.00 L346.08,165.86 L344.00,165.73 L341.91,165.61 L339.83,165.50 L337.74,165.40 L335.66,165.30 L333.57,165.22 L331.48,165.14 L329.40,165.07 L327.31,165.02 L325.22,164.97 L323.13,164.93 L321.05,164.90 L318.96,164.88 L316.87,164.87 L314.78,164.87 L312.69,164.88 L310.61,164.91 L308.52,164.94 L306.43,164.98 L304.34,165.04 L302.26,165.10 L300.17,165.18 L298.08,165.27 L296.00,165.37 L293.91,165.49 L291.83,165.61 L289.75,165.75 L287.66,165.91 L285.58,166.07 L283.50,166.25 L281.42,166.44 L279.34,166.65 L277.27,166.87 L275.19,167.11 L273.12,167.36 L271.05,167.63 L268.98,167.91 L266.91,168.21 L264.85,168.53 L262.79,168.86 L260.73,169.21 L258.68,169.58 L256.62,169.97 L254.58,170.38 L252.53,170.80 L250.49,171.25 L248.46,171.72 L246.43,172.21 L244.40,172.72 L242.38,173.26 L240.37,173.82 L238.37,174.40 L236.37,175.01 L234.38,175.65 L232.40,176.32 L230.44,177.01 L228.48,177.74 L226.53,178.50 L224.60,179.29 L222.69,180.12 L220.79,180.99 L218.91,181.89 L217.05,182.84 L215.21,183.84" fill="none" stroke="hsl(350, 70%, 50%)" stroke-width="2"/>
</svg>