<svg xmlns="http://www.w3.org/2000/svg" width="400" height="400" viewBox="0 0 400 400">
  <path d="M20.00,20.00 L22.41,17.59 L24.85,15.21 L27.33,12.87 L29.83,10.55 L32.37,8.27 L34.94,6.03 L37.54,3.82 L40.16,1.64 L42.82,-0.50 L45.50,-2.60 L48.21,-4.67 L50.95,-6.70 L53.72,-8.69 L56.51,-10.65 L59.33,-12.57 L62.18,-14.46 L65.05,-16.30 L67.94,-18.11 L70.86,-19.87 L73.81,-21.60 L76.77,-23.29 L79.76,-24.94 L82.77,-26.55 L85.80,-28.12 L88.85,-29.65 L91.92,-31.13 L95.02,-32.58 L98.13,-33.98 L101.26,-35.35 L104.41,-36.67 L107.57,-37.95 L110.76,-39.18 L113.96,-40.38 L117.17,-41.53 L120.40,-42.63 L123.65,-43.70 L126.90,-44.72 L130.18,-45.70 L133.46,-46.63 L136.76,-47.52 L140.07,-48.37 L143.39,-49.17 L146.72,-49.92 L150.06,-50.64 L153.42,-51.30 L156.77,-51.93 L160.14,-52.51 L163.52,-53.04 L166.90,-53.53 L170.29,-53.97 L173.68,-54.37 L177.08,-54.72 L180.49,-55.02 L183.90,-55.28 L187.31,-55.50 L190.72,-55.67 L194.14,-55.79 L197.56,-55.87 L200.98,-55.90 L204.40,-55.89 L207.81,-55.83 L211.23,-55.73 L214.65,-55.58 L218.06,-55.38 L221.47,-55.14 L224.88,-54.85 L228.29,-54.52 L231.69,-54.14 L235.08,-53.72 L238.47,-53.25 L241.85,-52.74 L245.23,-52.18 L248.60,-51.57 L251.96,-50.93 L255.31,-50.23 L258.65,-49.49 L261.98,-48.71 L265.30,-47.88 L268.61,-47.01 L271.91,-46.10 L275.19,-45.14 L278.47,-44.13 L281.72,-43.08 L284.97,-41.99 L288.20,-40.86 L291.41,-39.68 L294.61,-38.46 L297.80,-37.20 L300.96,-35.89 L304.11,-34.55 L307.24,-33.16 L310.35,-31.73 L313.44,-30.25 L316.52,-28.74 L319.57,-27.18 L322.60,-25.59 L325.61,-23.95 L328.60,-22.28 L331.56,-20.56" fill="none" stroke="hsl(0, 70%, 50%)" stroke-width="1.5"/>
  <path d="M110.00,20.00 L112.69,18.65 L115.40,17.35 L118.13,16.08 L120.88,14.86 L123.65,13.68 L126.44,12.54 L129.24,11.44 L132.06,10.38 L134.89,9.36 L137.74,8.39 L140.61,7.46 L143.48,6.57 L146.37,5.73 L149.28,4.93 L152.19,4.17 L155.12,3.45 L158.05,2.78 L161.00,2.16 L163.96,1.57 L166.92,1.04 L169.89,0.54 L172.87,0.09 L175.86,-0.31 L178.85,-0.67 L181.84,-0.99 L184.85,-1.26 L187.85,-1.49 L190.86,-1.67 L193.87,-1.81 L196.88,-1.90 L199.90,-1.94 L202.91,-1.95 L205.93,-1.90 L208.94,-1.81 L211.95,-1.68 L214.96,-1.50 L217.97,-1.28 L220.97,-1.01 L223.97,-0.70 L226.97,-0.34 L229.96,0.06 L232.94,0.51 L235.92,1.00 L238.88,1.54 L241.84,2.12 L244.80,2.74 L247.74,3.41 L250.67,4.12 L253.59,4.88 L256.50,5.68 L259.40,6.52 L262.28,7.40 L265.16,8.33 L268.01,9.30 L270.86,10.32 L273.68,11.38 L276.50,12.47 L279.29,13.61 L282.07,14.80 L284.83,16.02 L287.57,17.28 L290.30,18.59 L293.00,19.93 L295.68,21.32 L298.34,22.75 L300.99,24.21 L303.60,25.72 L306.20,27.26 L308.77,28.84 L311.32,30.46 L313.85,32.12 L316.35,33.82 L318.83,35.55 L321.27,37.32 L323.70,39.12 L326.09,40.97 L328.46,42.84 L330.80,44.76 L333.11,46.70 L335.39,48.69 L337.65,50.70 L339.87,52.75 L342.06,54.83 L344.22,56.95 L346.35,59.09 L348.45,61.27 L350.51,63.48 L352.55,65.72 L354.54,67.99 L356.51,70.29 L358.44,72.62 L360.33,74.98 L362.19,77.36 L364.02,79.78 L365.81,82.22 L367.56,84.68 L369.27,87.17 L370.95,89.69 L372.59,92.23" fill="none" stroke="hsl(18, 70%, 50%)" stroke-width="1.5"/>
  <path d="M200.00,20.00 L202.85,20.00 L205.70,20.05 L208.55,20.14 L211.40,20.27 L214.24,20.45 L217.08,20.68 L219.92,20.95 L222.75,21.26 L225.58,21.62 L228.41,22.03 L231.22,22.48 L234.03,22.97 L236.83,23.51 L239.62,24.09 L242.41,24.72 L245.18,25.39 L247.94,26.10 L250.69,26.86 L253.43,27.66 L256.15,28.51 L258.87,29.40 L261.56,30.33 L264.25,31.30 L266.91,32.32 L269.56,33.37 L272.20,34.47 L274.81,35.61 L277.41,36.80 L279.99,38.02 L282.55,39.28 L285.09,40.59 L287.61,41.93 L290.11,43.32 L292.58,44.74 L295.04,46.20 L297.46,47.71 L299.87,49.25 L302.25,50.82 L304.61,52.44 L306.94,54.09 L309.24,55.78 L311.52,57.50 L313.77,59.26 L315.99,61.06 L318.19,62.89 L320.35,64.76 L322.48,66.66 L324.59,68.59 L326.66,70.56 L328.71,72.56 L330.72,74.59 L332.70,76.65 L334.64,78.74 L336.56,80.87 L338.44,83.02 L340.28,85.21 L342.09,87.42 L343.87,89.66 L345.61,91.93 L347.31,94.23 L348.98,96.55 L350.61,98.90 L352.21,101.27 L353.76,103.67 L355.28,106.10 L356.76,108.55 L358.20,111.02 L359.61,113.51 L360.97,116.03 L362.29,118.57 L363.58,121.12 L364.82,123.70 L366.02,126.30 L367.18,128.92 L368.30,131.55 L369.38,134.20 L370.42,136.87 L371.41,139.55 L372.37,142.25 L373.28,144.97 L374.14,147.70 L374.97,150.44 L375.75,153.20 L376.48,155.96 L377.18,158.74 L377.83,161.53 L378.43,164.33 L378.99,167.14 L379.51,169.96 L379.98,172.79 L380.41,175.62 L380.80,178.46 L381.14,181.30 L381.43,184.15 L381.68,187.01 L381.88,189.87 L382.04,192.73 L382.16,195.59 L382.23,198.46" fill="none" stroke="hsl(36, 70%, 50%)" stroke-width="1.5"/>
  <path d="M290.00,20.00 L292.69,21.35 L295.36,22.73 L298.01,24.16 L300.64,25.62 L303.25,27.13 L305.83,28.67 L308.39,30.25 L310.93,31.87 L313.45,33.53 L315.93,35.23 L318.40,36.96 L320.83,38.73 L323.24,40.53 L325.63,42.38 L327.98,44.25 L330.31,46.17 L332.61,48.11 L334.87,50.09 L337.11,52.11 L339.32,54.16 L341.50,56.24 L343.65,58.35 L345.76,60.50 L347.85,62.67 L349.90,64.88 L351.92,67.12 L353.90,69.39 L355.85,71.69 L357.77,74.01 L359.65,76.37 L361.49,78.75 L363.30,81.16 L365.08,83.60 L366.81,86.06 L368.52,88.55 L370.18,91.07 L371.80,93.61 L373.39,96.17 L374.94,98.76 L376.45,101.37 L377.92,104.00 L379.36,106.66 L380.75,109.33 L382.10,112.03 L383.41,114.75 L384.68,117.48 L385.92,120.24 L387.10,123.01 L388.25,125.80 L389.36,128.61 L390.42,131.43 L391.45,134.27 L392.43,137.12 L393.36,139.99 L394.26,142.88 L395.11,145.77 L395.92,148.68 L396.68,151.60 L397.41,154.53 L398.08,157.48 L398.72,160.43 L399.31,163.39 L399.85,166.36 L400.35,169.34 L400.81,172.32 L401.22,175.31 L401.59,178.31 L401.91,181.32 L402.19,184.32 L402.43,187.34 L402.61,190.35 L402.76,193.37 L402.86,196.39 L402.91,199.41 L402.92,202.43 L402.88,205.45 L402.80,208.48 L402.68,211.49 L402.50,214.51 L402.29,217.53 L402.03,220.54 L401.72,223.55 L401.37,226.55 L400.98,229.55 L400.54,232.54 L400.05,235.52 L399.52,238.50 L398.95,241.47 L398.33,244.43 L397.67,247.38 L396.97,250.32 L396.22,253.25 L395.43,256.17 L394.59,259.08 L393.71,261.97 L392.79,264.86 L391.82,267.72 L390.82,270.58 L389.77,273.41" fill="none" stroke="hsl(54, 70%, 50%)" stroke-width="1.5"/>
  <path d="M380.00,20.00 L382.41,22.41 L384.79,24.85 L387.13,27.33 L389.45,29.83 L391.73,32.37 L393.97,34.94 L396.18,37.54 L398.36,40.16 L400.50,42.82 L402.60,45.50 L404.67,48.21 L406.70,50.95 L408.69,53.72 L410.65,56.51 L412.57,59.33 L414.46,62.18 L416.30,65.05 L418.11,67.94 L419.87,70.86 L421.60,73.81 L423.29,76.77 L424.94,79.76 L426.55,82.77 L428.12,85.80 L429.65,88.85 L431.13,91.92 L432.58,95.02 L433.98,98.13 L435.35,101.26 L436.67,104.41 L437.95,107.57 L439.18,110.76 L440.38,113.96 L441.53,117.17 L442.63,120.40 L443.70,123.65 L444.72,126.90 L445.70,130.18 L446.63,133.46 L447.52,136.76 L448.37,140.07 L449.17,143.39 L449.92,146.72 L450.64,150.06 L451.30,153.42 L451.93,156.77 L452.51,160.14 L453.04,163.52 L453.53,166.90 L453.97,170.29 L454.37,173.68 L454.72,177.08 L455.02,180.49 L455.28,183.90 L455.50,187.31 L455.67,190.72 L455.79,194.14 L455.87,197.56 L455.90,200.98 L455.89,204.40 L455.83,207.81 L455.73,211.23 L455.58,214.65 L455.38,218.06 L455.14,221.47 L454.85,224.88 L454.52,228.29 L454.14,231.69 L453.72,235.08 L453.25,238.47 L452.74,241.85 L452.18,245.23 L451.57,248.60 L450.93,251.96 L450.23,255.31 L449.49,258.65 L448.71,261.98 L447.88,265.30 L447.01,268.61 L446.10,271.91 L445.14,275.19 L444.13,278.47 L443.08,281.72 L441.99,284.97 L440.86,288.20 L439.68,291.41 L438.46,294.61 L437.20,297.80 L435.89,300.96 L434.55,304.11 L433.16,307.24 L431.73,310.35 L430.25,313.44 L428.74,316.52 L427.18,319.57 L425.59,322.60 L423.95,325.61 L422.28,328.60 L420.56,331.56" fill="none" stroke="hsl(72, 70%, 50%)" stroke-width="1.5"/>
  <path d="M20.00,110.00 L21.35,107.31 L22.73,104.64 L24.16,101.99 L25.62,99.36 L27.13,96.75 L28.67,94.17 L30.25,91.61 L31.87,89.07 L33.53,86.55 L35.23,84.07 L36.96,81.60 L38.73,79.17 L40.53,76.76 L42.38,74.37 L44.25,72.02 L46.17,69.69 L48.11,67.39 L50.09,65.13 L52.11,62.89 L54.16,60.68 L56.24,58.50 L58.35,56.35 L60.50,54.24 L62.67,52.15 L64.88,50.10 L67.12,48.08 L69.39,46.10 L71.69,44.15 L74.01,42.23 L76.37,40.35 L78.75,38.51 L81.16,36.70 L83.60,34.92 L86.06,33.19 L88.55,31.48 L91.07,29.82 L93.61,28.20 L96.17,26.61 L98.76,25.06 L101.37,23.55 L104.00,22.08 L106.66,20.64 L109.33,19.25 L112.03,17.90 L114.75,16.59 L117.48,15.32 L120.24,14.08 L123.01,12.90 L125.80,11.75 L128.61,10.64 L131.43,9.58 L134.27,8.55 L137.12,7.57 L139.99,6.64 L142.88,5.74 L145.77,4.89 L148.68,4.08 L151.60,3.32 L154.53,2.59 L157.48,1.92 L160.43,1.28 L163.39,0.69 L166.36,0.15 L169.34,-0.35 L172.32,-0.81 L175.31,-1.22 L178.31,-1.59 L181.32,-1.91 L184.32,-2.19 L187.34,-2.43 L190.35,-2.61 L193.37,-2.76 L196.39,-2.86 L199.41,-2.91 L202.43,-2.92 L205.45,-2.88 L208.48,-2.80 L211.49,-2.68 L214.51,-2.50 L217.53,-2.29 L220.54,-2.03 L223.55,-1.72 L226.55,-1.37 L229.55,-0.98 L232.54,-0.54 L235.52,-0.05 L238.50,0.48 L241.47,1.05 L244.43,1.67 L247.38,2.33 L250.32,3.03 L253.25,3.78 L256.17,4.57 L259.08,5.41 L261.97,6.29 L264.86,7.21 L267.72,8.18 L270.58,9.18 L273.41,10.23" fill="none" stroke="hsl(90, 70%, 50%)" stroke-width="1.5"/>
  <path d="M110.00,110.00 L111.74,108.26 L113.50,106.56 L115.31,104.89 L117.14,103.26 L119.00,101.66 L120.90,100.10 L122.82,98.58 L124.78,97.09 L126.76,95.64 L128.77,94.23 L130.81,92.86 L132.87,91.53 L134.96,90.23 L137.08,88.98 L139.21,87.77 L141.37,86.60 L143.56,85.47 L145.76,84.38 L147.99,83.34 L150.23,82.34 L152.50,81.38 L154.78,80.47 L157.08,79.60 L159.39,78.77 L161.73,77.99 L164.07,77.26 L166.43,76.57 L168.80,75.92 L171.19,75.32 L173.59,74.77 L175.99,74.26 L178.41,73.80 L180.84,73.38 L183.27,73.01 L185.71,72.69 L188.15,72.42 L190.60,72.19 L193.06,72.01 L195.52,71.88 L197.98,71.79 L200.44,71.75 L202.90,71.76 L205.36,71.82 L207.82,71.92 L210.28,72.07 L212.73,72.27 L215.18,72.51 L217.63,72.80 L220.07,73.14 L222.50,73.52 L224.93,73.96 L227.34,74.43 L229.75,74.96 L232.15,75.53 L234.53,76.15 L236.91,76.81 L239.27,77.51 L241.62,78.27 L243.95,79.06 L246.27,79.91 L248.57,80.79 L250.85,81.72 L253.11,82.70 L255.36,83.71 L257.59,84.77 L259.79,85.88 L261.98,87.02 L264.14,88.21 L266.28,89.43 L268.40,90.70 L270.49,92.01 L272.55,93.36 L274.59,94.75 L276.61,96.17 L278.59,97.64 L280.55,99.14 L282.48,100.68 L284.38,102.26 L286.24,103.87 L288.08,105.52 L289.89,107.20 L291.66,108.92 L293.40,110.67 L295.11,112.46 L296.78,114.28 L298.42,116.12 L300.02,118.00 L301.59,119.91 L303.12,121.85 L304.61,123.82 L306.06,125.82 L307.48,127.84 L308.86,129.90 L310.19,131.97 L311.49,134.08 L312.75,136.20 L313.97,138.35 L315.14,140.53 L316.28,142.73" fill="none" stroke="hsl(108, 70%, 50%)" stroke-width="1.5"/>
  <path d="M200.00,110.00 L202.18,110.00 L204.35,110.05 L206.52,110.16 L208.69,110.32 L210.86,110.53 L213.02,110.79 L215.17,111.10 L217.32,111.47 L219.45,111.89 L221.58,112.35 L223.69,112.88 L225.79,113.45 L227.88,114.07 L229.95,114.74 L232.01,115.46 L234.04,116.23 L236.06,117.05 L238.06,117.92 L240.03,118.84 L241.99,119.80 L243.92,120.81 L245.82,121.87 L247.70,122.97 L249.56,124.12 L251.38,125.31 L253.18,126.55 L254.94,127.83 L256.68,129.15 L258.38,130.51 L260.05,131.91 L261.69,133.35 L263.29,134.84 L264.85,136.35 L266.38,137.91 L267.87,139.51 L269.32,141.13 L270.74,142.80 L272.11,144.49 L273.44,146.22 L274.73,147.98 L275.98,149.78 L277.18,151.60 L278.34,153.45 L279.45,155.32 L280.52,157.23 L281.55,159.16 L282.53,161.11 L283.46,163.08 L284.34,165.08 L285.18,167.10 L285.96,169.14 L286.70,171.20 L287.39,173.27 L288.03,175.36 L288.62,177.46 L289.16,179.58 L289.65,181.71 L290.08,183.86 L290.47,186.01 L290.80,188.17 L291.09,190.34 L291.32,192.51 L291.50,194.69 L291.62,196.87 L291.70,199.06 L291.72,201.25 L291.69,203.44 L291.61,205.62 L291.47,207.81 L291.29,209.99 L291.05,212.16 L290.76,214.33 L290.42,216.50 L290.03,218.65 L289.58,220.79 L289.09,222.93 L288.54,225.05 L287.94,227.15 L287.30,229.25 L286.60,231.32 L285.86,233.38 L285.06,235.43 L284.22,237.45 L283.33,239.45 L282.39,241.43 L281.41,243.39 L280.38,245.32 L279.30,247.23 L278.18,249.12 L277.01,250.97 L275.80,252.80 L274.55,254.60 L273.25,256.37 L271.91,258.11 L270.54,259.82 L269.12,261.49 L267.66,263.13 L266.16,264.73 L264.63,266.30" fill="none" stroke="hsl(126, 70%, 50%)" stroke-width="1.5"/>
  <path d="M290.00,110.00 L291.74,111.74 L293.44,113.50 L295.11,115.31 L296.74,117.14 L298.34,119.00 L299.90,120.90 L301.42,122.82 L302.91,124.78 L304.36,126.76 L305.77,128.77 L307.14,130.81 L308.47,132.87 L309.77,134.96 L311.02,137.08 L312.23,139.21 L313.40,141.37 L314.53,143.56 L315.62,145.76 L316.66,147.99 L317.66,150.23 L318.62,152.50 L319.53,154.78 L320.40,157.08 L321.23,159.39 L322.01,161.73 L322.74,164.07 L323.43,166.43 L324.08,168.80 L324.68,171.19 L325.23,173.59 L325.74,175.99 L326.20,178.41 L326.62,180.84 L326.99,183.27 L327.31,185.71 L327.58,188.15 L327.81,190.60 L327.99,193.06 L328.12,195.52 L328.21,197.98 L328.25,200.44 L328.24,202.90 L328.18,205.36 L328.08,207.82 L327.93,210.28 L327.73,212.73 L327.49,215.18 L327.20,217.63 L326.86,220.07 L326.48,222.50 L326.04,224.93 L325.57,227.34 L325.04,229.75 L324.47,232.15 L323.85,234.53 L323.19,236.91 L322.49,239.27 L321.73,241.62 L320.94,243.95 L320.09,246.27 L319.21,248.57 L318.28,250.85 L317.30,253.11 L316.29,255.36 L315.23,257.59 L314.12,259.79 L312.98,261.98 L311.79,264.14 L310.57,266.28 L309.30,268.40 L307.99,270.49 L306.64,272.55 L305.25,274.59 L303.83,276.61 L302.36,278.59 L300.86,280.55 L299.32,282.48 L297.74,284.38 L296.13,286.24 L294.48,288.08 L292.80,289.89 L291.08,291.66 L289.33,293.40 L287.54,295.11 L285.72,296.78 L283.88,298.42 L282.00,300.02 L280.09,301.59 L278.15,303.12 L276.18,304.61 L274.18,306.06 L272.16,307.48 L270.10,308.86 L268.03,310.19 L265.92,311.49 L263.80,312.75 L261.65,313.97 L259.47,315.14 L257.27,316.28" fill="none" stroke="hsl(144, 70%, 50%)" stroke-width="1.5"/>
  <path d="M380.00,110.00 L381.35,112.69 L382.65,115.40 L383.92,118.13 L385.14,120.88 L386.32,123.65 L387.46,126.44 L388.56,129.24 L389.62,132.06 L390.64,134.89 L391.61,137.74 L392.54,140.61 L393.43,143.48 L394.27,146.37 L395.07,149.28 L395.83,152.19 L396.55,155.12 L397.22,158.05 L397.84,161.00 L398.43,163.96 L398.96,166.92 L399.46,169.89 L399.91,172.87 L400.31,175.86 L400.67,178.85 L400.99,181.84 L401.26,184.85 L401.49,187.85 L401.67,190.86 L401.81,193.87 L401.90,196.88 L401.94,199.90 L401.95,202.91 L401.90,205.93 L401.81,208.94 L401.68,211.95 L401.50,214.96 L401.28,217.97 L401.01,220.97 L400.70,223.97 L400.34,226.97 L399.94,229.96 L399.49,232.94 L399.00,235.92 L398.46,238.88 L397.88,241.84 L397.26,244.80 L396.59,247.74 L395.88,250.67 L395.12,253.59 L394.32,256.50 L393.48,259.40 L392.60,262.28 L391.67,265.16 L390.70,268.01 L389.68,270.86 L388.62,273.68 L387.53,276.50 L386.39,279.29 L385.20,282.07 L383.98,284.83 L382.72,287.57 L381.41,290.30 L380.07,293.00 L378.68,295.68 L377.25,298.34 L375.79,300.99 L374.28,303.60 L372.74,306.20 L371.16,308.77 L369.54,311.32 L367.88,313.85 L366.18,316.35 L364.45,318.83 L362.68,321.27 L360.88,323.70 L359.03,326.09 L357.16,328.46 L355.24,330.80 L353.30,333.11 L351.31,335.39 L349.30,337.65 L347.25,339.87 L345.17,342.06 L343.05,344.22 L340.91,346.35 L338.73,348.45 L336.52,350.51 L334.28,352.55 L332.01,354.54 L329.71,356.51 L327.38,358.44 L325.02,360.33 L322.64,362.19 L320.22,364.02 L317.78,365.81 L315.32,367.56 L312.83,369.27 L310.31,370.95 L307.77,372.59" fill="none" stroke="hsl(162, 70%, 50%)" stroke-width="1.5"/>
  <path d="M20.00,200.00 L20.00,197.15 L20.05,194.30 L20.14,191.45 L20.27,188.60 L20.45,185.76 L20.68,182.92 L20.95,180.08 L21.26,177.25 L21.62,174.42 L22.03,171.59 L22.48,168.78 L22.97,165.97 L23.51,163.17 L24.09,160.38 L24.72,157.59 L25.39,154.82 L26.10,152.06 L26.86,149.31 L27.66,146.57 L28.51,143.85 L29.40,141.13 L30.33,138.44 L31.30,135.75 L32.32,133.09 L33.37,130.44 L34.47,127.80 L35.61,125.19 L36.80,122.59 L38.02,120.01 L39.28,117.45 L40.59,114.91 L41.93,112.39 L43.32,109.89 L44.74,107.42 L46.20,104.96 L47.71,102.54 L49.25,100.13 L50.82,97.75 L52.44,95.39 L54.09,93.06 L55.78,90.76 L57.50,88.48 L59.26,86.23 L61.06,84.01 L62.89,81.81 L64.76,79.65 L66.66,77.52 L68.59,75.41 L70.56,73.34 L72.56,71.29 L74.59,69.28 L76.65,67.30 L78.74,65.36 L80.87,63.44 L83.02,61.56 L85.21,59.72 L87.42,57.91 L89.66,56.13 L91.93,54.39 L94.23,52.69 L96.55,51.02 L98.90,49.39 L101.27,47.79 L103.67,46.24 L106.10,44.72 L108.55,43.24 L111.02,41.80 L113.51,40.39 L116.03,39.03 L118.57,37.71 L121.12,36.42 L123.70,35.18 L126.30,33.98 L128.92,32.82 L131.55,31.70 L134.20,30.62 L136.87,29.58 L139.55,28.59 L142.25,27.63 L144.97,26.72 L147.70,25.86 L150.44,25.03 L153.20,24.25 L155.96,23.52 L158.74,22.82 L161.53,22.17 L164.33,21.57 L167.14,21.01 L169.96,20.49 L172.79,20.02 L175.62,19.59 L178.46,19.20 L181.30,18.86 L184.15,18.57 L187.01,18.32 L189.87,18.12 L192.73,17.96 L195.59,17.84 L198.46,17.77" fill="none" stroke="hsl(180, 70%, 50%)" stroke-width="1.5"/>
  <path d="M110.00,200.00 L110.00,197.82 L110.05,195.65 L110.16,193.48 L110.32,191.31 L110.53,189.14 L110.79,186.98 L111.10,184.83 L111.47,182.68 L111.89,180.55 L112.35,178.42 L112.88,176.31 L113.45,174.21 L114.07,172.12 L114.74,170.05 L115.46,167.99 L116.23,165.96 L117.05,163.94 L117.92,161.94 L118.84,159.97 L119.80,158.01 L120.81,156.08 L121.87,154.18 L122.97,152.30 L124.12,150.44 L125.31,148.62 L126.55,146.82 L127.83,145.06 L129.15,143.32 L130.51,141.62 L131.91,139.95 L133.35,138.31 L134.84,136.71 L136.35,135.15 L137.91,133.62 L139.51,132.13 L141.13,130.68 L142.80,129.26 L144.49,127.89 L146.22,126.56 L147.98,125.27 L149.78,124.02 L151.60,122.82 L153.45,121.66 L155.32,120.55 L157.23,119.48 L159.16,118.45 L161.11,117.47 L163.08,116.54 L165.08,115.66 L167.10,114.82 L169.14,114.04 L171.20,113.30 L173.27,112.61 L175.36,111.97 L177.46,111.38 L179.58,110.84 L181.71,110.35 L183.86,109.92 L186.01,109.53 L188.17,109.20 L190.34,108.91 L192.51,108.68 L194.69,108.50 L196.87,108.38 L199.06,108.30 L201.25,108.28 L203.44,108.31 L205.62,108.39 L207.81,108.53 L209.99,108.71 L212.16,108.95 L214.33,109.24 L216.50,109.58 L218.65,109.97 L220.79,110.42 L222.93,110.91 L225.05,111.46 L227.15,112.06 L229.25,112.70 L231.32,113.40 L233.38,114.14 L235.43,114.94 L237.45,115.78 L239.45,116.67 L241.43,117.61 L243.39,118.59 L245.32,119.62 L247.23,120.70 L249.12,121.82 L250.97,122.99 L252.80,124.20 L254.60,125.45 L256.37,126.75 L258.11,128.09 L259.82,129.46 L261.49,130.88 L263.13,132.34 L264.73,133.84 L266.30,135.37" fill="none" stroke="hsl(198, 70%, 50%)" stroke-width="1.5"/>
  <path d="M200.00,200.00 L200.00,201.50 L198.49,201.50 L197.42,200.42 L197.17,198.92 L197.72,197.50 L198.84,196.47 L200.29,196.00 L201.82,196.11 L203.21,196.76 L204.30,197.83 L204.99,199.21 L205.23,200.73 L205.02,202.25 L204.39,203.66 L203.40,204.84 L202.14,205.73 L200.69,206.27 L199.15,206.44 L197.62,206.24 L196.17,205.68 L194.88,204.82 L193.82,203.68 L193.02,202.35 L192.53,200.88 L192.34,199.33 L192.48,197.78 L192.92,196.28 L193.65,194.90 L194.62,193.68 L195.81,192.67 L197.17,191.90 L198.65,191.38 L200.19,191.14 L201.76,191.17 L203.30,191.48 L204.76,192.05 L206.11,192.85 L207.30,193.87 L208.31,195.08 L209.11,196.43 L209.69,197.89 L210.02,199.43 L210.11,201.00 L209.96,202.57 L209.56,204.10 L208.94,205.55 L208.11,206.89 L207.08,208.09 L205.89,209.14 L204.56,209.99 L203.13,210.65 L201.61,211.10 L200.04,211.32 L198.45,211.33 L196.88,211.11 L195.35,210.69 L193.90,210.05 L192.54,209.23 L191.31,208.23 L190.21,207.08 L189.28,205.79 L188.52,204.39 L187.96,202.90 L187.58,201.35 L187.41,199.77 L187.44,198.17 L187.67,196.59 L188.10,195.05 L188.71,193.58 L189.50,192.19 L190.45,190.91 L191.55,189.75 L192.79,188.73 L194.14,187.87 L195.58,187.17 L197.09,186.65 L198.66,186.31 L200.25,186.15 L201.86,186.18 L203.45,186.40 L205.00,186.79 L206.51,187.36 L207.93,188.10 L209.27,188.99 L210.50,190.02 L211.61,191.19 L212.58,192.47 L213.41,193.85 L214.08,195.32 L214.59,196.85 L214.93,198.42 L215.10,200.02 L215.10,201.64 L214.92,203.24 L214.58,204.82 L214.07,206.35 L213.41,207.83 L212.59,209.22 L211.64,210.53" fill="none" stroke="hsl(216, 70%, 50%)" stroke-width="1.5"/>
  <path d="M290.00,200.00 L290.00,202.18 L289.95,204.35 L289.84,206.52 L289.68,208.69 L289.47,210.86 L289.21,213.02 L288.90,215.17 L288.53,217.32 L288.11,219.45 L287.65,221.58 L287.12,223.69 L286.55,225.79 L285.93,227.88 L285.26,229.95 L284.54,232.01 L283.77,234.04 L282.95,236.06 L282.08,238.06 L281.16,240.03 L280.20,241.99 L279.19,243.92 L278.13,245.82 L277.03,247.70 L275.88,249.56 L274.69,251.38 L273.45,253.18 L272.17,254.94 L270.85,256.68 L269.49,258.38 L268.09,260.05 L266.65,261.69 L265.16,263.29 L263.65,264.85 L262.09,266.38 L260.49,267.87 L258.87,269.32 L257.20,270.74 L255.51,272.11 L253.78,273.44 L252.02,274.73 L250.22,275.98 L248.40,277.18 L246.55,278.34 L244.68,279.45 L242.77,280.52 L240.84,281.55 L238.89,282.53 L236.92,283.46 L234.92,284.34 L232.90,285.18 L230.86,285.96 L228.80,286.70 L226.73,287.39 L224.64,288.03 L222.54,288.62 L220.42,289.16 L218.29,289.65 L216.14,290.08 L213.99,290.47 L211.83,290.80 L209.66,291.09 L207.49,291.32 L205.31,291.50 L203.13,291.62 L200.94,291.70 L198.75,291.72 L196.56,291.69 L194.38,291.61 L192.19,291.47 L190.01,291.29 L187.84,291.05 L185.67,290.76 L183.50,290.42 L181.35,290.03 L179.21,289.58 L177.07,289.09 L174.95,288.54 L172.85,287.94 L170.75,287.30 L168.68,286.60 L166.62,285.86 L164.57,285.06 L162.55,284.22 L160.55,283.33 L158.57,282.39 L156.61,281.41 L154.68,280.38 L152.77,279.30 L150.88,278.18 L149.03,277.01 L147.20,275.80 L145.40,274.55 L143.63,273.25 L141.89,271.91 L140.18,270.54 L138.51,269.12 L136.87,267.66 L135.27,266.16 L133.70,264.63" fill="none" stroke="hsl(234, 70%, 50%)" stroke-width="1.5"/>
  <path d="M380.00,200.00 L380.00,202.85 L379.95,205.70 L379.86,208.55 L379.73,211.40 L379.55,214.24 L379.32,217.08 L379.05,219.92 L378.74,222.75 L378.38,225.58 L377.97,228.41 L377.52,231.22 L377.03,234.03 L376.49,236.83 L375.91,239.62 L375.28,242.41 L374.61,245.18 L373.90,247.94 L373.14,250.69 L372.34,253.43 L371.49,256.15 L370.60,258.87 L369.67,261.56 L368.70,264.25 L367.68,266.91 L366.63,269.56 L365.53,272.20 L364.39,274.81 L363.20,277.41 L361.98,279.99 L360.72,282.55 L359.41,285.09 L358.07,287.61 L356.68,290.11 L355.26,292.58 L353.80,295.04 L352.29,297.46 L350.75,299.87 L349.18,302.25 L347.56,304.61 L345.91,306.94 L344.22,309.24 L342.50,311.52 L340.74,313.77 L338.94,315.99 L337.11,318.19 L335.24,320.35 L333.34,322.48 L331.41,324.59 L329.44,326.66 L327.44,328.71 L325.41,330.72 L323.35,332.70 L321.26,334.64 L319.13,336.56 L316.98,338.44 L314.79,340.28 L312.58,342.09 L310.34,343.87 L308.07,345.61 L305.77,347.31 L303.45,348.98 L301.10,350.61 L298.73,352.21 L296.33,353.76 L293.90,355.28 L291.45,356.76 L288.98,358.20 L286.49,359.61 L283.97,360.97 L281.43,362.29 L278.88,363.58 L276.30,364.82 L273.70,366.02 L271.08,367.18 L268.45,368.30 L265.80,369.38 L263.13,370.42 L260.45,371.41 L257.75,372.37 L255.03,373.28 L252.30,374.14 L249.56,374.97 L246.80,375.75 L244.04,376.48 L241.26,377.18 L238.47,377.83 L235.67,378.43 L232.86,378.99 L230.04,379.51 L227.21,379.98 L224.38,380.41 L221.54,380.80 L218.70,381.14 L215.85,381.43 L212.99,381.68 L210.13,381.88 L207.27,382.04 L204.41,382.16 L201.54,382.23" fill="none" stroke="hsl(252, 70%, 50%)" stroke-width="1.5"/>
  <path d="M20.00,290.00 L18.65,287.31 L17.35,284.60 L16.08,281.87 L14.86,279.12 L13.68,276.35 L12.54,273.56 L11.44,270.76 L10.38,267.94 L9.36,265.11 L8.39,262.26 L7.46,259.39 L6.57,256.52 L5.73,253.63 L4.93,250.72 L4.17,247.81 L3.45,244.88 L2.78,241.95 L2.16,239.00 L1.57,236.04 L1.04,233.08 L0.54,230.11 L0.09,227.13 L-0.31,224.14 L-0.67,221.15 L-0.99,218.16 L-1.26,215.15 L-1.49,212.15 L-1.67,209.14 L-1.81,206.13 L-1.90,203.12 L-1.94,200.10 L-1.95,197.09 L-1.90,194.07 L-1.81,191.06 L-1.68,188.05 L-1.50,185.04 L-1.28,182.03 L-1.01,179.03 L-0.70,176.03 L-0.34,173.03 L0.06,170.04 L0.51,167.06 L1.00,164.08 L1.54,161.12 L2.12,158.16 L2.74,155.20 L3.41,152.26 L4.12,149.33 L4.88,146.41 L5.68,143.50 L6.52,140.60 L7.40,137.72 L8.33,134.84 L9.30,131.99 L10.32,129.14 L11.38,126.32 L12.47,123.50 L13.61,120.71 L14.80,117.93 L16.02,115.17 L17.28,112.43 L18.59,109.70 L19.93,107.00 L21.32,104.32 L22.75,101.66 L24.21,99.01 L25.72,96.40 L27.26,93.80 L28.84,91.23 L30.46,88.68 L32.12,86.15 L33.82,83.65 L35.55,81.17 L37.32,78.73 L39.12,76.30 L40.97,73.91 L42.84,71.54 L44.76,69.20 L46.70,66.89 L48.69,64.61 L50.70,62.35 L52.75,60.13 L54.83,57.94 L56.95,55.78 L59.09,53.65 L61.27,51.55 L63.48,49.49 L65.72,47.45 L67.99,45.46 L70.29,43.49 L72.62,41.56 L74.98,39.67 L77.36,37.81 L79.78,35.98 L82.22,34.19 L84.68,32.44 L87.17,30.73 L89.69,29.05 L92.23,27.41" fill="none" stroke="hsl(270, 70%, 50%)" stroke-width="1.5"/>
  <path d="M110.00,290.00 L108.26,288.26 L106.56,286.50 L104.89,284.69 L103.26,282.86 L101.66,281.00 L100.10,279.10 L98.58,277.18 L97.09,275.22 L95.64,273.24 L94.23,271.23 L92.86,269.19 L91.53,267.13 L90.23,265.04 L88.98,262.92 L87.77,260.79 L86.60,258.63 L85.47,256.44 L84.38,254.24 L83.34,252.01 L82.34,249.77 L81.38,247.50 L80.47,245.22 L79.60,242.92 L78.77,240.61 L77.99,238.27 L77.26,235.93 L76.57,233.57 L75.92,231.20 L75.32,228.81 L74.77,226.41 L74.26,224.01 L73.80,221.59 L73.38,219.16 L73.01,216.73 L72.69,214.29 L72.42,211.85 L72.19,209.40 L72.01,206.94 L71.88,204.48 L71.79,202.02 L71.75,199.56 L71.76,197.10 L71.82,194.64 L71.92,192.18 L72.07,189.72 L72.27,187.27 L72.51,184.82 L72.80,182.37 L73.14,179.93 L73.52,177.50 L73.96,175.07 L74.43,172.66 L74.96,170.25 L75.53,167.85 L76.15,165.47 L76.81,163.09 L77.51,160.73 L78.27,158.38 L79.06,156.05 L79.91,153.73 L80.79,151.43 L81.72,149.15 L82.70,146.89 L83.71,144.64 L84.77,142.41 L85.88,140.21 L87.02,138.02 L88.21,135.86 L89.43,133.72 L90.70,131.60 L92.01,129.51 L93.36,127.45 L94.75,125.41 L96.17,123.39 L97.64,121.41 L99.14,119.45 L100.68,117.52 L102.26,115.62 L103.87,113.76 L105.52,111.92 L107.20,110.11 L108.92,108.34 L110.67,106.60 L112.46,104.89 L114.28,103.22 L116.12,101.58 L118.00,99.98 L119.91,98.41 L121.85,96.88 L123.82,95.39 L125.82,93.94 L127.84,92.52 L129.90,91.14 L131.97,89.81 L134.08,88.51 L136.20,87.25 L138.35,86.03 L140.53,84.86 L142.73,83.72" fill="none" stroke="hsl(288, 70%, 50%)" stroke-width="1.5"/>
  <path d="M200.00,290.00 L197.82,290.00 L195.65,289.95 L193.48,289.84 L191.31,289.68 L189.14,289.47 L186.98,289.21 L184.83,288.90 L182.68,288.53 L180.55,288.11 L178.42,287.65 L176.31,287.12 L174.21,286.55 L172.12,285.93 L170.05,285.26 L167.99,284.54 L165.96,283.77 L163.94,282.95 L161.94,282.08 L159.97,281.16 L158.01,280.20 L156.08,279.19 L154.18,278.13 L152.30,277.03 L150.44,275.88 L148.62,274.69 L146.82,273.45 L145.06,272.17 L143.32,270.85 L141.62,269.49 L139.95,268.09 L138.31,266.65 L136.71,265.16 L135.15,263.65 L133.62,262.09 L132.13,260.49 L130.68,258.87 L129.26,257.20 L127.89,255.51 L126.56,253.78 L125.27,252.02 L124.02,250.22 L122.82,248.40 L121.66,246.55 L120.55,244.68 L119.48,242.77 L118.45,240.84 L117.47,238.89 L116.54,236.92 L115.66,234.92 L114.82,232.90 L114.04,230.86 L113.30,228.80 L112.61,226.73 L111.97,224.64 L111.38,222.54 L110.84,220.42 L110.35,218.29 L109.92,216.14 L109.53,213.99 L109.20,211.83 L108.91,209.66 L108.68,207.49 L108.50,205.31 L108.38,203.13 L108.30,200.94 L108.28,198.75 L108.31,196.56 L108.39,194.38 L108.53,192.19 L108.71,190.01 L108.95,187.84 L109.24,185.67 L109.58,183.50 L109.97,181.35 L110.42,179.21 L110.91,177.07 L111.46,174.95 L112.06,172.85 L112.70,170.75 L113.40,168.68 L114.14,166.62 L114.94,164.57 L115.78,162.55 L116.67,160.55 L117.61,158.57 L118.59,156.61 L119.62,154.68 L120.70,152.77 L121.82,150.88 L122.99,149.03 L124.20,147.20 L125.45,145.40 L126.75,143.63 L128.09,141.89 L129.46,140.18 L130.88,138.51 L132.34,136.87 L133.84,135.27 L135.37,133.70" fill="none" stroke="hsl(306, 70%, 50%)" stroke-width="1.5"/>
  <path d="M290.00,290.00 L288.26,291.74 L286.50,293.44 L284.69,295.11 L282.86,296.74 L281.00,298.34 L279.10,299.90 L277.18,301.42 L275.22,302.91 L273.24,304.36 L271.23,305.77 L269.19,307.14 L267.13,308.47 L265.04,309.77 L262.92,311.02 L260.79,312.23 L258.63,313.40 L256.44,314.53 L254.24,315.62 L252.01,316.66 L249.77,317.66 L247.50,318.62 L245.22,319.53 L242.92,320.40 L240.61,321.23 L238.27,322.01 L235.93,322.74 L233.57,323.43 L231.20,324.08 L228.81,324.68 L226.41,325.23 L224.01,325.74 L221.59,326.20 L219.16,326.62 L216.73,326.99 L214.29,327.31 L211.85,327.58 L209.40,327.81 L206.94,327.99 L204.48,328.12 L202.02,328.21 L199.56,328.25 L197.10,328.24 L194.64,328.18 L192.18,328.08 L189.72,327.93 L187.27,327.73 L184.82,327.49 L182.37,327.20 L179.93,326.86 L177.50,326.48 L175.07,326.04 L172.66,325.57 L170.25,325.04 L167.85,324.47 L165.47,323.85 L163.09,323.19 L160.73,322.49 L158.38,321.73 L156.05,320.94 L153.73,320.09 L151.43,319.21 L149.15,318.28 L146.89,317.30 L144.64,316.29 L142.41,315.23 L140.21,314.12 L138.02,312.98 L135.86,311.79 L133.72,310.57 L131.60,309.30 L129.51,307.99 L127.45,306.64 L125.41,305.25 L123.39,303.83 L121.41,302.36 L119.45,300.86 L117.52,299.32 L115.62,297.74 L113.76,296.13 L111.92,294.48 L110.11,292.80 L108.34,291.08 L106.60,289.33 L104.89,287.54 L103.22,285.72 L101.58,283.88 L99.98,282.00 L98.41,280.09 L96.88,278.15 L95.39,276.18 L93.94,274.18 L92.52,272.16 L91.14,270.10 L89.81,268.03 L88.51,265.92 L87.25,263.80 L86.03,261.65 L84.86,259.47 L83.72,257.27" fill="none" stroke="hsl(324, 70%, 50%)" stroke-width="1.5"/>
  <path d="M380.00,290.00 L378.65,292.69 L377.27,295.36 L375.84,298.01 L374.38,300.64 L372.87,303.25 L371.33,305.83 L369.75,308.39 L368.13,310.93 L366.47,313.45 L364.77,315.93 L363.04,318.40 L361.27,320.83 L359.47,323.24 L357.62,325.63 L355.75,327.98 L353.83,330.31 L351.89,332.61 L349.91,334.87 L347.89,337.11 L345.84,339.32 L343.76,341.50 L341.65,343.65 L339.50,345.76 L337.33,347.85 L335.12,349.90 L332.88,351.92 L330.61,353.90 L328.31,355.85 L325.99,357.77 L323.63,359.65 L321.25,361.49 L318.84,363.30 L316.40,365.08 L313.94,366.81 L311.45,368.52 L308.93,370.18 L306.39,371.80 L303.83,373.39 L301.24,374.94 L298.63,376.45 L296.00,377.92 L293.34,379.36 L290.67,380.75 L287.97,382.10 L285.25,383.41 L282.52,384.68 L279.76,385.92 L276.99,387.10 L274.20,388.25 L271.39,389.36 L268.57,390.42 L265.73,391.45 L262.88,392.43 L260.01,393.36 L257.12,394.26 L254.23,395.11 L251.32,395.92 L248.40,396.68 L245.47,397.41 L242.52,398.08 L239.57,398.72 L236.61,399.31 L233.64,399.85 L230.66,400.35 L227.68,400.81 L224.69,401.22 L221.69,401.59 L218.68,401.91 L215.68,402.19 L212.66,402.43 L209.65,402.61 L206.63,402.76 L203.61,402.86 L200.59,402.91 L197.57,402.92 L194.55,402.88 L191.52,402.80 L188.51,402.68 L185.49,402.50 L182.47,402.29 L179.46,402.03 L176.45,401.72 L173.45,401.37 L170.45,400.98 L167.46,400.54 L164.48,400.05 L161.50,399.52 L158.53,398.95 L155.57,398.33 L152.62,397.67 L149.68,396.97 L146.75,396.22 L143.83,395.43 L140.92,394.59 L138.03,393.71 L135.14,392.79 L132.28,391.82 L129.42,390.82 L126.59,389.77" fill="none" stroke="hsl(342, 70%, 50%)" stroke-width="1.5"/>
</svg>