<svg xmlns="http://www.w3.org/2000/svg" width="500" height="500" viewBox="0 0 500 500">
  <path d="M31.00,31.00 L28.43,29.45 L25.97,27.73 L23.63,25.86 L21.40,23.86 L19.23,21.78 L17.07,19.70 L14.85,17.68 L12.50,15.81 L9.95,14.24 L7.17,13.11 L4.22,12.59 L1.22,12.80 L-1.63,13.72 L-4.24,15.21 L-6.58,17.08 L-8.72,19.18 L-10.72,21.42 L-12.64,23.72 L-14.51,26.07 L-16.34,28.44 L-18.16,30.83 L-19.97,33.23 L-21.76,35.63 L-23.56,38.03 L-25.35,40.44 L-27.14,42.85 L-28.93,45.25 L-30.72,47.66 L-32.52,50.06 L-34.31,52.47 L-36.11,54.87 L-37.91,57.27 L-39.71,59.67 L-41.52,62.06 L-43.34,64.45 L-45.16,66.83 L-46.99,69.21 L-48.83,71.58 L-50.68,73.94 L-52.54,76.30 L-54.41,78.64 L-56.30,80.97 L-58.21,83.28 L-60.13,85.58 L-62.08,87.87 L-64.06,90.13 L-66.06,92.36 L-68.09,94.57 L-70.15,96.75 L-72.25,98.89 L-74.39,100.99 L-76.58,103.05 L-78.80,105.06 L-81.08,107.01 L-83.40,108.91 L-85.77,110.75 L-88.18,112.53 L-90.64,114.25 L-93.14,115.91" fill="none" stroke="hsla(280, 70%, 55%, 0.7)" stroke-width="1.2"/>
  <path d="M93.50,31.00 L90.50,30.89 L87.52,30.58 L84.54,30.19 L81.57,29.78 L78.59,29.41 L75.61,29.10 L72.62,28.84 L69.63,28.65 L66.63,28.49 L63.63,28.37 L60.64,28.25 L57.64,28.11 L54.65,27.94 L51.65,27.71 L48.67,27.39 L45.71,26.94 L42.77,26.34 L39.87,25.56 L37.03,24.58 L34.28,23.39 L31.63,21.98 L29.10,20.37 L26.67,18.61 L24.33,16.73 L22.02,14.81 L19.69,12.92 L17.27,11.16 L14.69,9.62 L11.92,8.47 L8.99,7.84 L5.99,7.87 L3.08,8.58 L0.38,9.89 L-2.07,11.63 L-4.29,13.65 L-6.35,15.82 L-8.31,18.10 L-10.21,20.42 L-12.06,22.78 L-13.89,25.16 L-15.71,27.54 L-17.52,29.94 L-19.32,32.34 L-21.11,34.74 L-22.91,37.15 L-24.70,39.55 L-26.49,41.96 L-28.28,44.37 L-30.07,46.78 L-31.86,49.18 L-33.65,51.59 L-35.45,53.99 L-37.25,56.39 L-39.05,58.79 L-40.86,61.18 L-42.67,63.57 L-44.49,65.96 L-46.32,68.34 L-48.15,70.71" fill="none" stroke="hsla(281.2, 70%, 55%, 0.7)" stroke-width="1.2"/>
  <path d="M156.00,31.00 L155.78,28.01 L155.27,25.05 L154.48,22.16 L153.45,19.34 L152.22,16.60 L150.82,13.95 L149.31,11.36 L147.69,8.83 L146.00,6.35 L144.26,3.91 L142.47,1.50 L140.64,-0.87 L138.76,-3.22 L136.85,-5.52 L134.88,-7.79 L132.87,-10.02 L130.81,-12.19 L128.69,-14.32 L126.52,-16.39 L124.30,-18.40 L122.02,-20.36 L119.71,-22.27 L117.35,-24.13 L114.98,-25.96 L112.58,-27.77 L110.19,-29.58 L107.82,-31.41 L105.47,-33.29 L103.18,-35.22 L100.97,-37.24 L98.84,-39.36 L96.84,-41.60 L94.97,-43.94 L93.26,-46.41 L91.71,-48.97 L90.32,-51.64 L89.11,-54.38 L88.06,-57.19 L87.16,-60.05 L86.40,-62.95 L85.78,-65.89 L85.28,-68.85 L84.89,-71.82 L84.62,-74.81 L84.46,-77.81 L84.40,-80.81 L84.45,-83.80 L84.60,-86.80 L84.86,-89.79 L85.22,-92.77 L85.68,-95.73 L86.25,-98.68 L86.92,-101.60 L87.68,-104.50 L88.54,-107.38 L89.48,-110.23 L90.50,-113.05 L91.60,-115.84 L92.76,-118.61" fill="none" stroke="hsla(282.4, 70%, 55%, 0.7)" stroke-width="1.2"/>
  <path d="M218.50,31.00 L215.57,30.34 L212.61,30.79 L209.95,32.19 L207.74,34.22 L205.91,36.59 L204.35,39.15 L202.96,41.81 L201.69,44.53 L200.50,47.28 L199.38,50.07 L198.31,52.87 L197.28,55.69 L196.31,58.53 L195.37,61.38 L194.48,64.24 L193.64,67.12 L192.83,70.01 L192.08,72.91 L191.36,75.83 L190.70,78.75 L190.08,81.69 L189.51,84.63 L188.99,87.59 L188.52,90.55 L188.11,93.52 L187.75,96.50 L187.46,99.49 L187.23,102.48 L187.07,105.47 L187.00,108.47 L187.02,111.47 L187.13,114.47 L187.36,117.46 L187.73,120.44 L188.24,123.40 L188.93,126.32 L189.81,129.18 L190.91,131.97 L192.26,134.65 L193.87,137.19 L195.73,139.53 L197.85,141.66 L200.20,143.53 L202.71,145.16 L205.36,146.57 L208.10,147.80 L210.89,148.90 L213.70,149.95 L216.52,150.98 L219.32,152.06 L222.09,153.22 L224.80,154.49 L227.44,155.91 L230.00,157.49 L232.44,159.23 L234.75,161.15 L236.91,163.23 L238.91,165.46 L240.74,167.84" fill="none" stroke="hsla(283.6, 70%, 55%, 0.7)" stroke-width="1.2"/>
  <path d="M281.00,31.00 L278.01,30.81 L275.10,30.05 L272.36,28.83 L269.81,27.25 L267.47,25.37 L265.33,23.27 L263.37,21.00 L261.56,18.61 L259.88,16.13 L258.29,13.58 L256.75,11.01 L255.23,8.42 L253.70,5.84 L252.09,3.31 L250.37,0.85 L248.49,-1.49 L246.37,-3.61 L243.98,-5.43 L241.30,-6.78 L238.39,-7.48 L235.39,-7.41 L232.52,-6.55 L229.93,-5.03 L227.66,-3.06 L225.66,-0.82 L223.85,1.57 L222.16,4.05 L220.56,6.58 L219.01,9.15 L217.51,11.75 L216.04,14.36 L214.60,16.99 L213.18,19.64 L211.79,22.30 L210.43,24.97 L209.09,27.66 L207.78,30.36 L206.50,33.07 L205.25,35.79 L204.03,38.53 L202.84,41.29 L201.68,44.06 L200.56,46.84 L199.47,49.63 L198.42,52.44 L197.41,55.27 L196.43,58.11 L195.50,60.96 L194.61,63.82 L193.75,66.70 L192.95,69.59 L192.18,72.49 L191.46,75.40 L190.79,78.32 L190.16,81.26 L189.59,84.20 L189.06,87.15 L188.58,90.12 L188.16,93.09" fill="none" stroke="hsla(284.8, 70%, 55%, 0.7)" stroke-width="1.2"/>
  <path d="M343.50,31.00 L344.63,33.78 L345.49,36.65 L346.15,39.58 L346.68,42.53 L347.14,45.50 L347.60,48.46 L348.16,51.41 L348.90,54.32 L349.95,57.13 L351.44,59.73 L353.46,61.95 L356.03,63.50 L358.96,64.13 L361.94,63.79 L364.71,62.64 L367.18,60.93 L369.35,58.86 L371.29,56.57 L373.04,54.13 L374.65,51.60 L376.14,49.00 L377.54,46.34 L378.86,43.65 L380.13,40.93 L381.35,38.19 L382.52,35.43 L383.66,32.66 L384.78,29.87 L385.87,27.08 L386.95,24.28 L388.01,21.47 L389.06,18.66 L390.11,15.85 L391.15,13.04 L392.19,10.22 L393.23,7.41 L394.28,4.60 L395.34,1.79 L396.41,-1.01 L397.50,-3.81 L398.60,-6.60 L399.73,-9.38 L400.89,-12.14 L402.08,-14.90 L403.31,-17.63 L404.60,-20.34 L405.93,-23.03 L407.34,-25.68 L408.82,-28.29 L410.39,-30.84 L412.06,-33.34 L413.84,-35.75 L415.74,-38.07 L417.76,-40.29 L419.91,-42.38 L422.18,-44.34 L424.56,-46.17 L427.03,-47.88 L429.57,-49.48" fill="none" stroke="hsla(286, 70%, 55%, 0.7)" stroke-width="1.2"/>
  <path d="M406.00,31.00 L406.45,28.03 L406.74,25.05 L406.88,22.05 L406.88,19.05 L406.80,16.05 L406.66,13.06 L406.52,10.06 L406.42,7.06 L406.40,4.06 L406.49,1.06 L406.70,-1.93 L407.04,-4.91 L407.51,-7.87 L408.12,-10.81 L408.86,-13.72 L409.73,-16.59 L410.72,-19.42 L411.83,-22.21 L413.06,-24.94 L414.42,-27.62 L415.90,-30.23 L417.50,-32.77 L419.23,-35.22 L421.08,-37.58 L423.05,-39.84 L425.13,-42.00 L427.31,-44.06 L429.58,-46.02 L431.93,-47.90 L434.32,-49.70 L436.75,-51.46 L439.21,-53.18 L441.66,-54.91 L444.11,-56.64 L446.54,-58.40 L448.94,-60.20 L451.31,-62.05 L453.63,-63.95 L455.90,-65.90 L458.13,-67.91 L460.31,-69.97 L462.44,-72.08 L464.53,-74.24 L466.58,-76.43 L468.58,-78.66 L470.55,-80.93 L472.49,-83.22 L474.40,-85.53 L476.28,-87.86 L478.15,-90.21 L479.99,-92.58 L481.82,-94.96 L483.63,-97.35 L485.44,-99.75 L487.23,-102.15 L489.01,-104.57 L490.78,-106.99 L492.55,-109.41 L494.31,-111.84" fill="none" stroke="hsla(287.2, 70%, 55%, 0.7)" stroke-width="1.2"/>
  <path d="M468.50,31.00 L470.90,32.80 L472.58,35.29 L473.53,38.13 L473.87,41.11 L473.73,44.11 L473.24,47.07 L472.47,49.97 L471.48,52.80 L470.32,55.57 L469.04,58.28 L467.68,60.95 L466.26,63.60 L464.84,66.24 L463.45,68.90 L462.14,71.60 L460.96,74.36 L459.96,77.18 L459.21,80.09 L458.80,83.06 L458.82,86.06 L459.37,89.01 L460.57,91.76 L462.46,94.09 L464.99,95.70 L467.91,96.38 L470.90,96.10 L473.70,95.03 L476.24,93.43 L478.52,91.48 L480.59,89.31 L482.49,86.99 L484.27,84.57 L485.93,82.07 L487.49,79.51 L488.97,76.90 L490.38,74.25 L491.71,71.56 L492.98,68.85 L494.18,66.10 L495.33,63.33 L496.42,60.53 L497.46,57.72 L498.44,54.88 L499.37,52.03 L500.25,49.16 L501.07,46.28 L501.84,43.38 L502.56,40.46 L503.22,37.54 L503.82,34.60 L504.36,31.65 L504.83,28.68 L505.21,25.71 L505.52,22.72 L505.73,19.73 L505.83,16.73 L505.80,13.73 L505.63,10.74 L505.29,7.76" fill="none" stroke="hsla(288.4, 70%, 55%, 0.7)" stroke-width="1.2"/>
  <path d="M31.00,93.50 L29.18,91.11 L26.70,89.43 L23.78,88.73 L20.81,89.09 L18.10,90.40 L15.89,92.42 L14.23,94.92 L13.11,97.70 L12.45,100.63 L12.11,103.61 L11.99,106.61 L11.97,109.61 L11.96,112.61 L11.93,115.61 L11.85,118.61 L11.71,121.60 L11.51,124.60 L11.27,127.59 L10.98,130.57 L10.67,133.56 L10.34,136.54 L10.00,139.52 L9.65,142.50 L9.31,145.48 L8.96,148.46 L8.63,151.44 L8.31,154.43 L8.01,157.41 L7.74,160.40 L7.49,163.39 L7.29,166.38 L7.13,169.38 L7.03,172.38 L6.99,175.37 L7.03,178.37 L7.16,181.37 L7.40,184.36 L7.78,187.34 L8.31,190.29 L9.03,193.20 L9.98,196.05 L11.19,198.79 L12.71,201.38 L14.57,203.73 L16.79,205.76 L19.33,207.35 L22.12,208.44 L25.07,208.98 L28.07,209.01 L31.05,208.60 L33.95,207.84 L36.77,206.82 L39.51,205.59 L42.17,204.21 L44.77,202.71 L47.31,201.12 L49.80,199.44 L52.23,197.69 L54.63,195.88" fill="none" stroke="hsla(289.6, 70%, 55%, 0.7)" stroke-width="1.2"/>
  <path d="M93.50,93.50 L95.61,91.36 L97.21,88.83 L98.48,86.11 L99.51,83.29 L100.38,80.42 L101.11,77.51 L101.70,74.57 L102.16,71.61 L102.48,68.62 L102.65,65.63 L102.66,62.63 L102.48,59.63 L102.11,56.66 L101.53,53.71 L100.71,50.83 L99.65,48.02 L98.34,45.32 L96.77,42.77 L94.93,40.39 L92.86,38.23 L90.56,36.30 L88.07,34.62 L85.43,33.21 L82.66,32.04 L79.81,31.10 L76.90,30.37 L73.96,29.81 L70.99,29.39 L68.00,29.07 L65.01,28.83 L62.02,28.64 L59.02,28.46 L56.03,28.27 L53.04,28.04 L50.05,27.74 L47.08,27.34 L44.13,26.81 L41.21,26.11 L38.34,25.22 L35.55,24.13 L32.85,22.82 L30.27,21.30 L27.79,19.60 L25.42,17.77 L23.10,15.86 L20.79,13.94 L18.43,12.10 L15.94,10.43 L13.26,9.06 L10.41,8.15 L7.42,7.84 L4.45,8.22 L1.63,9.25 L-0.94,10.80 L-3.27,12.69 L-5.40,14.80 L-7.41,17.03 L-9.33,19.34 L-11.20,21.68" fill="none" stroke="hsla(290.8, 70%, 55%, 0.7)" stroke-width="1.2"/>
  <path d="M156.00,93.50 L156.99,90.67 L158.14,87.90 L159.45,85.20 L160.92,82.58 L162.55,80.06 L164.35,77.67 L166.34,75.42 L168.54,73.38 L170.96,71.61 L173.62,70.21 L176.49,69.34 L179.48,69.19 L182.40,69.91 L184.91,71.55 L186.75,73.92 L187.86,76.71 L188.39,79.66 L188.54,82.66 L188.46,85.65 L188.26,88.65 L188.00,91.64 L187.73,94.62 L187.48,97.61 L187.26,100.60 L187.09,103.60 L186.99,106.60 L186.96,109.60 L187.02,112.60 L187.19,115.59 L187.47,118.58 L187.89,121.55 L188.47,124.49 L189.23,127.40 L190.19,130.24 L191.38,132.99 L192.83,135.62 L194.53,138.09 L196.50,140.36 L198.70,142.39 L201.12,144.17 L203.69,145.71 L206.38,147.04 L209.14,148.22 L211.94,149.30 L214.75,150.33 L217.57,151.38 L220.36,152.48 L223.11,153.68 L225.80,155.01 L228.41,156.48 L230.92,158.12 L233.32,159.93 L235.57,161.91 L237.67,164.05 L239.61,166.34 L241.38,168.76 L242.98,171.30 L244.42,173.93 L245.70,176.64" fill="none" stroke="hsla(292, 70%, 55%, 0.7)" stroke-width="1.2"/>
  <path d="M218.50,93.50 L217.54,90.66 L216.59,87.81 L215.61,84.98 L214.52,82.18 L213.26,79.46 L211.73,76.88 L209.86,74.53 L207.58,72.59 L204.88,71.28 L201.91,70.85 L198.97,71.45 L196.39,72.98 L194.31,75.14 L192.70,77.67 L191.46,80.41 L190.48,83.24 L189.69,86.14 L189.04,89.06 L188.50,92.01 L188.05,94.98 L187.68,97.96 L187.39,100.94 L187.18,103.94 L187.05,106.93 L187.01,109.93 L187.07,112.93 L187.24,115.93 L187.53,118.91 L187.96,121.88 L188.56,124.82 L189.33,127.72 L190.32,130.55 L191.54,133.30 L193.01,135.91 L194.75,138.36 L196.74,140.60 L198.97,142.60 L201.41,144.36 L203.99,145.87 L206.69,147.19 L209.46,148.35 L212.26,149.42 L215.08,150.45 L217.89,151.50 L220.67,152.61 L223.42,153.82 L226.10,155.17 L228.70,156.66 L231.20,158.32 L233.58,160.15 L235.82,162.14 L237.90,164.30 L239.82,166.61 L241.57,169.04 L243.16,171.59 L244.57,174.24 L245.84,176.96 L246.95,179.74 L247.94,182.58" fill="none" stroke="hsla(293.2, 70%, 55%, 0.7)" stroke-width="1.2"/>
  <path d="M281.00,93.50 L283.36,91.65 L285.68,89.75 L287.94,87.78 L290.11,85.70 L292.14,83.50 L294.02,81.15 L295.70,78.67 L297.14,76.04 L298.32,73.28 L299.20,70.41 L299.73,67.46 L299.90,64.46 L299.68,61.47 L299.03,58.54 L297.97,55.73 L296.52,53.11 L294.73,50.70 L292.66,48.53 L290.39,46.57 L287.99,44.77 L285.51,43.08 L283.01,41.43 L280.50,39.78 L278.03,38.07 L275.63,36.29 L273.30,34.39 L271.07,32.38 L268.96,30.25 L266.97,28.01 L265.09,25.67 L263.34,23.23 L261.68,20.73 L260.12,18.17 L258.62,15.57 L257.16,12.95 L255.72,10.32 L254.27,7.70 L252.75,5.10 L251.14,2.57 L249.39,0.14 L247.43,-2.13 L245.22,-4.16 L242.71,-5.81 L239.92,-6.92 L236.95,-7.31 L233.98,-6.90 L231.22,-5.73 L228.77,-3.99 L226.63,-1.89 L224.72,0.42 L222.97,2.86 L221.32,5.37 L219.75,7.92 L218.22,10.51 L216.74,13.11 L215.28,15.74 L213.85,18.37 L212.45,21.03 L211.08,23.69" fill="none" stroke="hsla(294.4, 70%, 55%, 0.7)" stroke-width="1.2"/>
  <path d="M343.50,93.50 L346.34,94.46 L349.34,94.26 L352.11,93.12 L354.54,91.37 L356.68,89.27 L358.60,86.96 L360.35,84.52 L361.98,82.00 L363.52,79.43 L364.99,76.81 L366.41,74.17 L367.78,71.50 L369.12,68.82 L370.42,66.11 L371.69,63.39 L372.93,60.66 L374.15,57.92 L375.34,55.17 L376.51,52.40 L377.65,49.63 L378.78,46.85 L379.88,44.06 L380.97,41.27 L382.04,38.46 L383.10,35.66 L384.15,32.85 L385.19,30.03 L386.22,27.21 L387.24,24.39 L388.25,21.57 L389.27,18.75 L390.28,15.92 L391.30,13.10 L392.32,10.28 L393.35,7.46 L394.39,4.65 L395.43,1.84 L396.49,-0.97 L397.57,-3.77 L398.67,-6.56 L399.79,-9.34 L400.95,-12.11 L402.14,-14.87 L403.37,-17.60 L404.65,-20.32 L405.98,-23.00 L407.39,-25.65 L408.87,-28.26 L410.44,-30.82 L412.11,-33.31 L413.89,-35.73 L415.79,-38.05 L417.81,-40.26 L419.96,-42.36 L422.23,-44.32 L424.60,-46.15 L427.07,-47.86 L429.61,-49.46 L432.19,-50.98" fill="none" stroke="hsla(295.6, 70%, 55%, 0.7)" stroke-width="1.2"/>
  <path d="M406.00,93.50 L404.81,96.26 L403.91,99.12 L403.19,102.03 L402.59,104.97 L402.10,107.93 L401.71,110.90 L401.43,113.89 L401.26,116.88 L401.21,119.88 L401.28,122.88 L401.49,125.88 L401.84,128.86 L402.35,131.81 L403.02,134.73 L403.88,137.61 L404.92,140.42 L406.16,143.15 L407.61,145.78 L409.27,148.28 L411.13,150.63 L413.19,152.81 L415.44,154.80 L417.84,156.59 L420.39,158.18 L423.05,159.56 L425.80,160.76 L428.62,161.80 L431.48,162.71 L434.37,163.51 L437.28,164.24 L440.20,164.93 L443.11,165.63 L446.02,166.36 L448.91,167.17 L451.77,168.09 L454.57,169.16 L457.29,170.42 L459.90,171.90 L462.35,173.64 L464.60,175.62 L466.59,177.86 L468.32,180.31 L469.77,182.94 L470.95,185.70 L471.89,188.55 L472.65,191.45 L473.25,194.39 L473.74,197.35 L474.16,200.32 L474.54,203.30 L474.89,206.28 L475.25,209.25 L475.63,212.23 L476.05,215.20 L476.54,218.16 L477.11,221.11 L477.78,224.03 L478.58,226.92 L479.55,229.76" fill="none" stroke="hsla(296.8, 70%, 55%, 0.7)" stroke-width="1.2"/>
  <path d="M468.50,93.50 L471.48,93.87 L474.41,93.24 L477.08,91.86 L479.44,90.01 L481.54,87.87 L483.44,85.55 L485.19,83.11 L486.81,80.59 L488.34,78.01 L489.78,75.38 L491.15,72.71 L492.45,70.00 L493.68,67.27 L494.85,64.51 L495.96,61.72 L497.02,58.91 L498.03,56.09 L498.98,53.24 L499.88,50.38 L500.73,47.50 L501.52,44.61 L502.26,41.70 L502.95,38.78 L503.58,35.85 L504.14,32.90 L504.64,29.94 L505.06,26.97 L505.40,23.99 L505.65,21.00 L505.80,18.01 L505.83,15.01 L505.72,12.01 L505.46,9.02 L505.01,6.05 L504.33,3.13 L503.39,0.28 L502.15,-2.45 L500.55,-4.99 L498.56,-7.24 L496.20,-9.08 L493.50,-10.39 L490.58,-11.09 L487.58,-11.18 L484.61,-10.75 L481.74,-9.90 L478.97,-8.74 L476.30,-7.37 L473.72,-5.84 L471.21,-4.19 L468.77,-2.45 L466.39,-0.62 L464.06,1.27 L461.79,3.22 L459.56,5.23 L457.37,7.28 L455.23,9.38 L453.13,11.53 L451.07,13.71 L449.05,15.92" fill="none" stroke="hsla(298, 70%, 55%, 0.7)" stroke-width="1.2"/>
  <path d="M31.00,156.00 L31.94,153.15 L33.43,150.54 L35.45,148.33 L37.93,146.64 L40.72,145.56 L43.67,145.00 L46.66,144.77 L49.66,144.63 L52.65,144.36 L55.60,143.80 L58.45,142.87 L61.16,141.58 L63.70,139.99 L66.08,138.16 L68.32,136.16 L70.44,134.05 L72.48,131.85 L74.45,129.58 L76.34,127.26 L78.18,124.89 L79.97,122.47 L81.70,120.02 L83.38,117.54 L85.00,115.02 L86.58,112.47 L88.11,109.88 L89.58,107.27 L90.99,104.62 L92.35,101.95 L93.65,99.24 L94.89,96.51 L96.05,93.75 L97.15,90.95 L98.17,88.13 L99.11,85.28 L99.96,82.41 L100.71,79.50 L101.36,76.57 L101.89,73.62 L102.30,70.65 L102.57,67.66 L102.68,64.66 L102.63,61.66 L102.39,58.67 L101.95,55.71 L101.29,52.78 L100.40,49.91 L99.26,47.14 L97.86,44.48 L96.20,41.98 L94.29,39.67 L92.14,37.58 L89.78,35.73 L87.24,34.14 L84.55,32.81 L81.75,31.72 L78.88,30.85 L75.96,30.17 L73.00,29.66" fill="none" stroke="hsla(299.2, 70%, 55%, 0.7)" stroke-width="1.2"/>
  <path d="M93.50,156.00 L95.22,153.55 L97.00,151.13 L98.80,148.73 L100.61,146.33 L102.41,143.93 L104.21,141.53 L106.00,139.12 L107.78,136.71 L109.55,134.29 L111.32,131.87 L113.08,129.44 L114.83,127.00 L116.57,124.56 L118.31,122.11 L120.04,119.66 L121.77,117.21 L123.48,114.75 L125.20,112.29 L126.90,109.82 L128.60,107.34 L130.29,104.87 L131.98,102.38 L133.65,99.90 L135.32,97.41 L136.99,94.91 L138.64,92.41 L140.29,89.90 L141.92,87.38 L143.55,84.86 L145.16,82.33 L146.76,79.79 L148.35,77.25 L149.91,74.69 L151.45,72.12 L152.97,69.53 L154.46,66.93 L155.92,64.30 L157.33,61.65 L158.69,58.98 L159.99,56.28 L161.21,53.54 L162.33,50.75 L163.34,47.93 L164.19,45.05 L164.87,42.13 L165.32,39.16 L165.51,36.17 L165.40,33.17 L164.95,30.20 L164.15,27.31 L163.00,24.54 L161.55,21.92 L159.85,19.44 L157.98,17.10 L155.99,14.86 L153.93,12.67 L151.85,10.51 L149.78,8.34 L147.72,6.16" fill="none" stroke="hsla(300.4, 70%, 55%, 0.7)" stroke-width="1.2"/>
  <path d="M156.00,156.00 L155.95,153.00 L156.06,150.00 L156.33,147.01 L156.76,144.05 L157.36,141.11 L158.15,138.21 L159.16,135.39 L160.42,132.66 L161.96,130.09 L163.84,127.75 L166.07,125.74 L168.65,124.21 L171.51,123.32 L174.51,123.20 L177.43,123.87 L180.11,125.22 L182.47,127.07 L184.58,129.21 L186.53,131.49 L188.42,133.81 L190.35,136.11 L192.39,138.31 L194.57,140.38 L196.90,142.26 L199.39,143.94 L202.00,145.42 L204.71,146.71 L207.48,147.85 L210.30,148.89 L213.13,149.88 L215.96,150.87 L218.77,151.91 L221.56,153.03 L224.29,154.27 L226.95,155.65 L229.52,157.19 L231.99,158.90 L234.33,160.78 L236.52,162.83 L238.55,165.04 L240.41,167.39 L242.11,169.87 L243.64,172.45 L245.00,175.12 L246.22,177.86 L247.29,180.66 L248.23,183.51 L249.05,186.40 L249.76,189.31 L250.37,192.25 L250.89,195.20 L251.33,198.17 L251.70,201.15 L251.99,204.14 L252.24,207.13 L252.43,210.12 L252.57,213.12 L252.69,216.11 L252.77,219.11" fill="none" stroke="hsla(301.6, 70%, 55%, 0.7)" stroke-width="1.2"/>
  <path d="M218.50,156.00 L221.50,155.93 L224.46,156.39 L227.32,157.29 L230.05,158.55 L232.62,160.10 L235.01,161.91 L237.22,163.94 L239.24,166.15 L241.08,168.53 L242.73,171.03 L244.21,173.64 L245.53,176.34 L246.69,179.10 L247.71,181.92 L248.60,184.79 L249.37,187.69 L250.04,190.61 L250.61,193.56 L251.09,196.52 L251.50,199.49 L251.83,202.47 L252.11,205.46 L252.32,208.45 L252.50,211.45 L252.63,214.44 L252.73,217.44 L252.80,220.44 L252.87,223.44 L252.92,226.44 L252.99,229.44 L253.08,232.44 L253.21,235.43 L253.39,238.43 L253.66,241.42 L254.05,244.39 L254.59,247.34 L255.33,250.25 L256.34,253.07 L257.68,255.76 L259.43,258.20 L261.62,260.25 L264.23,261.71 L267.15,262.42 L270.15,262.25 L272.97,261.25 L275.46,259.56 L277.53,257.39 L279.21,254.91 L280.59,252.25 L281.75,249.48 L282.77,246.66 L283.71,243.81 L284.61,240.95 L285.51,238.09 L286.42,235.23 L287.36,232.38 L288.33,229.54 L289.33,226.71 L290.36,223.89" fill="none" stroke="hsla(302.8, 70%, 55%, 0.7)" stroke-width="1.2"/>
  <path d="M281.00,156.00 L278.06,155.41 L275.20,154.51 L272.42,153.39 L269.69,152.13 L266.99,150.83 L264.27,149.55 L261.51,148.38 L258.67,147.41 L255.75,146.72 L252.77,146.44 L249.78,146.67 L246.90,147.53 L244.33,149.07 L242.29,151.27 L240.96,153.96 L240.40,156.91 L240.52,159.91 L241.13,162.84 L242.03,165.71 L243.09,168.51 L244.19,171.30 L245.29,174.09 L246.33,176.91 L247.30,179.75 L248.18,182.61 L248.97,185.51 L249.67,188.42 L250.28,191.36 L250.80,194.32 L251.25,197.28 L251.63,200.26 L251.94,203.24 L252.19,206.23 L252.39,209.23 L252.55,212.22 L252.67,215.22 L252.76,218.22 L252.83,221.22 L252.89,224.22 L252.95,227.22 L253.02,230.22 L253.12,233.21 L253.26,236.21 L253.46,239.20 L253.76,242.19 L254.18,245.16 L254.77,248.10 L255.57,250.99 L256.66,253.79 L258.11,256.42 L259.97,258.77 L262.28,260.68 L264.99,261.97 L267.95,262.44 L270.92,262.05 L273.67,260.84 L276.05,259.01 L278.01,256.74 L279.61,254.21" fill="none" stroke="hsla(304, 70%, 55%, 0.7)" stroke-width="1.2"/>
  <path d="M343.50,156.00 L340.51,155.75 L337.63,154.91 L335.07,153.35 L333.13,151.06 L332.04,148.27 L331.82,145.28 L332.25,142.31 L333.10,139.43 L334.21,136.64 L335.46,133.92 L336.80,131.23 L338.19,128.57 L339.61,125.93 L341.04,123.29 L342.48,120.66 L343.93,118.03 L345.38,115.41 L346.82,112.78 L348.27,110.15 L349.70,107.51 L351.14,104.88 L352.57,102.24 L353.99,99.60 L355.40,96.95 L356.80,94.30 L358.19,91.64 L359.57,88.98 L360.94,86.31 L362.29,83.63 L363.63,80.95 L364.96,78.26 L366.27,75.56 L367.56,72.85 L368.83,70.13 L370.09,67.41 L371.33,64.67 L372.54,61.93 L373.74,59.18 L374.92,56.42 L376.08,53.66 L377.22,50.88 L378.34,48.10 L379.45,45.31 L380.53,42.51 L381.61,39.71 L382.67,36.91 L383.71,34.09 L384.75,31.28 L385.78,28.46 L386.80,25.64 L387.82,22.82 L388.83,20.00 L389.85,17.17 L390.86,14.35 L391.88,11.53 L392.90,8.71 L393.93,5.89 L394.97,3.08 L396.03,0.27" fill="none" stroke="hsla(305.2, 70%, 55%, 0.7)" stroke-width="1.2"/>
  <path d="M406.00,156.00 L409.00,155.98 L411.95,156.53 L414.82,157.40 L417.64,158.42 L420.45,159.47 L423.27,160.49 L426.12,161.43 L429.00,162.29 L431.89,163.07 L434.81,163.79 L437.73,164.47 L440.65,165.13 L443.58,165.81 L446.49,166.53 L449.38,167.35 L452.23,168.28 L455.02,169.37 L457.73,170.67 L460.31,172.19 L462.73,173.96 L464.94,175.99 L466.90,178.26 L468.58,180.75 L469.98,183.40 L471.12,186.18 L472.03,189.04 L472.76,191.95 L473.34,194.89 L473.82,197.85 L474.23,200.82 L474.59,203.80 L474.95,206.78 L475.31,209.76 L475.70,212.73 L476.13,215.70 L476.63,218.66 L477.22,221.60 L477.91,224.52 L478.73,227.40 L479.73,230.24 L480.92,232.99 L482.36,235.62 L484.11,238.06 L486.20,240.21 L488.67,241.90 L491.49,242.93 L494.49,243.07 L497.36,242.21 L499.81,240.48 L501.72,238.17 L503.20,235.55 L504.41,232.81 L505.49,230.01 L506.53,227.20 L507.58,224.39 L508.67,221.59 L509.81,218.82 L511.00,216.06 L512.24,213.33" fill="none" stroke="hsla(306.4, 70%, 55%, 0.7)" stroke-width="1.2"/>
  <path d="M468.50,156.00 L468.69,158.99 L469.14,161.96 L469.75,164.90 L470.45,167.81 L471.17,170.73 L471.86,173.65 L472.49,176.58 L473.04,179.53 L473.50,182.49 L473.88,185.47 L474.20,188.45 L474.47,191.44 L474.70,194.43 L474.91,197.42 L475.11,200.42 L475.32,203.41 L475.56,206.40 L475.82,209.39 L476.14,212.37 L476.52,215.35 L476.98,218.31 L477.53,221.26 L478.20,224.19 L479.01,227.07 L479.99,229.91 L481.18,232.66 L482.63,235.29 L484.38,237.72 L486.49,239.85 L488.99,241.52 L491.82,242.50 L494.82,242.57 L497.68,241.64 L500.09,239.85 L501.96,237.51 L503.42,234.89 L504.62,232.14 L505.71,229.34 L506.76,226.54 L507.83,223.73 L508.93,220.94 L510.08,218.17 L511.28,215.42 L512.54,212.70 L513.84,209.99 L515.18,207.31 L516.57,204.65 L518.00,202.01 L519.46,199.39 L520.95,196.79 L522.47,194.21 L524.03,191.64 L525.61,189.09 L527.21,186.55 L528.84,184.03 L530.49,181.53 L532.17,179.04 L533.86,176.57 L535.58,174.11" fill="none" stroke="hsla(307.6, 70%, 55%, 0.7)" stroke-width="1.2"/>
  <path d="M31.00,218.50 L31.72,215.59 L33.16,212.96 L35.08,210.65 L37.29,208.62 L39.66,206.78 L42.09,205.02 L44.55,203.31 L47.01,201.59 L49.45,199.84 L51.86,198.06 L54.24,196.23 L56.59,194.36 L58.90,192.45 L61.18,190.50 L63.41,188.50 L65.62,186.46 L67.79,184.39 L69.93,182.29 L72.04,180.16 L74.12,178.00 L76.17,175.81 L78.20,173.59 L80.20,171.36 L82.18,169.11 L84.14,166.83 L86.08,164.54 L87.99,162.24 L89.90,159.92 L91.78,157.59 L93.65,155.24 L95.51,152.89 L97.36,150.52 L99.19,148.14 L101.01,145.76 L102.82,143.37 L104.62,140.97 L106.41,138.56 L108.19,136.15 L109.96,133.73 L111.73,131.30 L113.49,128.87 L115.24,126.43 L116.98,123.99 L118.72,121.54 L120.44,119.09 L122.17,116.64 L123.88,114.18 L125.59,111.71 L127.30,109.24 L128.99,106.77 L130.68,104.29 L132.37,101.81 L134.04,99.32 L135.71,96.82 L137.37,94.33 L139.03,91.82 L140.67,89.31 L142.30,86.80 L143.93,84.27" fill="none" stroke="hsla(308.8, 70%, 55%, 0.7)" stroke-width="1.2"/>
  <path d="M93.50,218.50 L93.30,215.51 L92.54,212.60 L91.27,209.89 L89.55,207.43 L87.49,205.25 L85.19,203.32 L82.77,201.55 L80.31,199.83 L77.90,198.04 L75.66,196.04 L73.75,193.74 L72.35,191.08 L71.69,188.15 L71.85,185.16 L72.72,182.29 L74.10,179.62 L75.76,177.13 L77.59,174.74 L79.48,172.42 L81.41,170.12 L83.35,167.83 L85.27,165.53 L87.19,163.22 L89.10,160.91 L90.99,158.58 L92.86,156.24 L94.73,153.89 L96.58,151.52 L98.41,149.15 L100.24,146.77 L102.05,144.38 L103.86,141.98 L105.65,139.58 L107.44,137.17 L109.21,134.75 L110.98,132.33 L112.74,129.90 L114.50,127.47 L116.24,125.03 L117.98,122.58 L119.71,120.13 L121.44,117.68 L123.16,115.22 L124.87,112.76 L126.58,110.29 L128.28,107.82 L129.97,105.34 L131.66,102.86 L133.33,100.37 L135.01,97.88 L136.67,95.39 L138.33,92.88 L139.98,90.38 L141.61,87.86 L143.24,85.34 L144.86,82.82 L146.46,80.28 L148.04,77.73 L149.61,75.18" fill="none" stroke="hsla(310, 70%, 55%, 0.7)" stroke-width="1.2"/>
  <path d="M156.00,218.50 L158.67,219.86 L161.67,220.05 L164.58,219.35 L167.33,218.15 L169.98,216.73 L172.58,215.25 L175.21,213.80 L177.89,212.45 L180.64,211.26 L183.48,210.28 L186.39,209.56 L189.37,209.17 L192.37,209.18 L195.33,209.66 L198.15,210.67 L200.71,212.24 L202.85,214.34 L204.46,216.87 L205.51,219.69 L206.04,222.64 L206.16,225.64 L205.96,228.63 L205.52,231.60 L204.91,234.53 L204.17,237.44 L203.32,240.32 L202.37,243.16 L201.34,245.98 L200.25,248.77 L199.08,251.54 L197.85,254.28 L196.57,256.99 L195.24,259.68 L193.85,262.34 L192.42,264.97 L190.94,267.58 L189.41,270.16 L187.84,272.72 L186.23,275.25 L184.58,277.76 L182.89,280.23 L181.15,282.68 L179.38,285.10 L177.56,287.49 L175.71,289.85 L173.81,292.17 L171.88,294.46 L169.90,296.72 L167.88,298.94 L165.82,301.12 L163.71,303.25 L161.56,305.34 L159.36,307.39 L157.12,309.38 L154.82,311.31 L152.48,313.18 L150.08,314.98 L147.62,316.70 L145.11,318.34" fill="none" stroke="hsla(311.2, 70%, 55%, 0.7)" stroke-width="1.2"/>
  <path d="M218.50,218.50 L215.76,217.29 L212.77,217.58 L210.30,219.28 L208.63,221.77 L207.54,224.57 L206.75,227.46 L206.05,230.38 L205.34,233.29 L204.57,236.19 L203.73,239.07 L202.81,241.93 L201.81,244.75 L200.74,247.56 L199.60,250.33 L198.40,253.08 L197.14,255.81 L195.83,258.50 L194.46,261.18 L193.05,263.82 L191.59,266.44 L190.08,269.04 L188.53,271.60 L186.94,274.15 L185.31,276.66 L183.63,279.15 L181.91,281.61 L180.16,284.04 L178.36,286.45 L176.53,288.82 L174.65,291.16 L172.73,293.47 L170.77,295.74 L168.77,297.97 L166.73,300.17 L164.64,302.32 L162.51,304.44 L160.33,306.50 L158.11,308.51 L155.83,310.47 L153.51,312.37 L151.13,314.20 L148.70,315.96 L146.22,317.64 L143.67,319.23 L141.07,320.71 L138.40,322.08 L135.66,323.32 L132.86,324.40 L130.00,325.29 L127.08,325.96 L124.10,326.36 L121.10,326.44 L118.12,326.14 L115.22,325.38 L112.50,324.11 L110.09,322.32 L108.12,320.06 L106.65,317.44 L105.66,314.61" fill="none" stroke="hsla(312.4, 70%, 55%, 0.7)" stroke-width="1.2"/>
  <path d="M281.00,218.50 L283.91,219.21 L286.89,218.80 L289.54,217.40 L291.74,215.37 L293.56,212.98 L295.13,210.42 L296.55,207.78 L297.89,205.09 L299.19,202.39 L300.48,199.68 L301.77,196.97 L303.06,194.27 L304.36,191.56 L305.68,188.87 L307.01,186.18 L308.35,183.50 L309.70,180.82 L311.07,178.15 L312.44,175.48 L313.83,172.82 L315.22,170.16 L316.62,167.51 L318.03,164.86 L319.45,162.22 L320.88,159.58 L322.31,156.94 L323.75,154.31 L325.19,151.68 L326.63,149.05 L328.08,146.42 L329.54,143.80 L331.00,141.18 L332.45,138.56 L333.92,135.94 L335.38,133.32 L336.84,130.70 L338.30,128.08 L339.77,125.46 L341.23,122.84 L342.69,120.22 L344.14,117.59 L345.60,114.97 L347.05,112.34 L348.49,109.72 L349.93,107.08 L351.37,104.45 L352.80,101.81 L354.21,99.17 L355.62,96.52 L357.03,93.87 L358.42,91.21 L359.79,88.54 L361.16,85.87 L362.51,83.19 L363.85,80.51 L365.17,77.82 L366.48,75.12 L367.77,72.41 L369.04,69.69" fill="none" stroke="hsla(313.6, 70%, 55%, 0.7)" stroke-width="1.2"/>
  <path d="M343.50,218.50 L345.75,220.48 L348.08,222.37 L350.46,224.20 L352.86,226.00 L355.26,227.81 L357.64,229.62 L360.01,231.47 L362.35,233.34 L364.67,235.25 L366.96,237.19 L369.23,239.15 L371.48,241.12 L373.73,243.12 L375.96,245.12 L378.19,247.13 L380.39,249.16 L382.58,251.22 L384.72,253.32 L386.81,255.47 L388.81,257.71 L390.68,260.06 L392.39,262.52 L393.88,265.12 L395.11,267.86 L396.05,270.71 L396.67,273.64 L396.96,276.63 L396.94,279.63 L396.63,282.61 L396.08,285.56 L395.30,288.46 L394.35,291.30 L393.24,294.09 L391.99,296.82 L390.64,299.50 L389.17,302.12 L387.61,304.68 L385.96,307.18 L384.22,309.63 L382.39,312.00 L380.46,314.30 L378.44,316.51 L376.29,318.61 L374.03,320.58 L371.63,322.38 L369.08,323.97 L366.38,325.26 L363.52,326.18 L360.55,326.58 L357.56,326.35 L354.72,325.39 L352.24,323.69 L350.28,321.42 L348.82,318.80 L347.73,316.00 L346.87,313.13 L346.10,310.23 L345.35,307.33 L344.55,304.44" fill="none" stroke="hsla(314.8, 70%, 55%, 0.7)" stroke-width="1.2"/>
  <path d="M406.00,218.50 L405.44,221.45 L405.20,224.44 L405.21,227.44 L405.39,230.43 L405.67,233.42 L406.00,236.40 L406.32,239.38 L406.60,242.37 L406.80,245.36 L406.90,248.36 L406.89,251.36 L406.76,254.36 L406.51,257.35 L406.13,260.32 L405.64,263.28 L405.04,266.22 L404.34,269.14 L403.54,272.03 L402.65,274.90 L401.69,277.74 L400.64,280.55 L399.53,283.34 L398.34,286.09 L397.09,288.82 L395.78,291.51 L394.40,294.18 L392.96,296.81 L391.46,299.41 L389.89,301.97 L388.26,304.48 L386.55,306.95 L384.78,309.37 L382.93,311.73 L380.99,314.02 L378.96,316.23 L376.83,318.34 L374.58,320.33 L372.20,322.16 L369.68,323.79 L367.01,325.14 L364.18,326.15 L361.23,326.67 L358.23,326.59 L355.34,325.79 L352.76,324.25 L350.68,322.09 L349.12,319.53 L347.96,316.76 L347.06,313.90 L346.29,311.00 L345.54,308.09 L344.76,305.20 L343.91,302.32 L342.94,299.48 L341.85,296.68 L340.61,293.95 L339.21,291.30 L337.63,288.75 L335.88,286.32" fill="none" stroke="hsla(316, 70%, 55%, 0.7)" stroke-width="1.2"/>
  <path d="M468.50,218.50 L469.98,221.11 L471.26,223.82 L472.42,226.59 L473.53,229.38 L474.64,232.16 L475.79,234.93 L477.04,237.66 L478.43,240.32 L480.01,242.87 L481.83,245.26 L483.94,247.38 L486.39,249.12 L489.16,250.28 L492.13,250.64 L495.08,250.05 L497.66,248.53 L499.69,246.32 L501.20,243.72 L502.34,240.95 L503.29,238.10 L504.15,235.23 L505.01,232.36 L505.90,229.49 L506.85,226.64 L507.86,223.82 L508.93,221.02 L510.07,218.24 L511.26,215.49 L512.51,212.76 L513.81,210.06 L515.15,207.38 L516.54,204.72 L517.96,202.08 L519.42,199.45 L520.92,196.85 L522.44,194.27 L523.99,191.70 L525.57,189.15 L527.17,186.61 L528.80,184.09 L530.45,181.59 L532.13,179.10 L533.82,176.62 L535.54,174.17 L537.28,171.72 L539.04,169.29 L540.82,166.88 L542.62,164.48 L544.44,162.09 L546.29,159.73 L548.15,157.38 L550.04,155.04 L551.95,152.73 L553.88,150.44 L555.83,148.16 L557.81,145.91 L559.82,143.67 L561.85,141.47 L563.91,139.28" fill="none" stroke="hsla(317.2, 70%, 55%, 0.7)" stroke-width="1.2"/>
  <path d="M31.00,281.00 L33.02,278.78 L35.09,276.61 L37.23,274.51 L39.46,272.50 L41.79,270.62 L44.27,268.93 L46.93,267.53 L49.77,266.56 L52.75,266.23 L55.70,266.77 L58.25,268.36 L59.87,270.88 L60.24,273.86 L59.49,276.76 L57.98,279.36 L56.03,281.64 L53.87,283.71 L51.60,285.68 L49.31,287.61 L47.02,289.56 L44.77,291.54 L42.56,293.57 L40.39,295.64 L38.26,297.75 L36.17,299.91 L34.12,302.10 L32.11,304.32 L30.12,306.57 L28.17,308.85 L26.25,311.15 L24.35,313.47 L22.48,315.82 L20.63,318.18 L18.81,320.57 L17.01,322.97 L15.24,325.39 L13.49,327.82 L11.76,330.28 L10.06,332.75 L8.38,335.23 L6.72,337.73 L5.08,340.25 L3.47,342.78 L1.89,345.33 L0.33,347.89 L-1.19,350.47 L-2.69,353.07 L-4.16,355.69 L-5.60,358.32 L-7.00,360.97 L-8.36,363.65 L-9.68,366.34 L-10.96,369.05 L-12.19,371.79 L-13.38,374.55 L-14.50,377.33 L-15.57,380.13 L-16.57,382.96 L-17.50,385.81" fill="none" stroke="hsla(318.4, 70%, 55%, 0.7)" stroke-width="1.2"/>
  <path d="M93.50,281.00 L94.92,283.64 L96.95,285.85 L99.67,287.11 L102.65,286.77 L104.94,284.83 L106.25,282.13 L107.04,279.24 L107.62,276.30 L108.13,273.34 L108.62,270.38 L109.11,267.42 L109.59,264.46 L110.07,261.50 L110.54,258.53 L111.01,255.57 L111.46,252.61 L111.90,249.64 L112.31,246.67 L112.70,243.69 L113.06,240.71 L113.38,237.73 L113.65,234.74 L113.87,231.75 L114.02,228.75 L114.09,225.76 L114.06,222.76 L113.91,219.76 L113.62,216.77 L113.17,213.81 L112.52,210.88 L111.64,208.01 L110.50,205.24 L109.07,202.60 L107.35,200.14 L105.34,197.91 L103.09,195.93 L100.64,194.20 L98.05,192.69 L95.37,191.33 L92.67,190.03 L89.99,188.67 L87.41,187.15 L85.02,185.34 L82.99,183.13 L81.54,180.50 L80.88,177.58 L81.07,174.58 L81.97,171.72 L83.35,169.05 L84.98,166.54 L86.74,164.11 L88.57,161.73 L90.42,159.37 L92.28,157.02 L94.14,154.66 L95.98,152.30 L97.82,149.92 L99.65,147.55 L101.47,145.16" fill="none" stroke="hsla(319.6, 70%, 55%, 0.7)" stroke-width="1.2"/>
  <path d="M156.00,281.00 L157.42,278.36 L158.46,275.54 L159.03,272.60 L159.09,269.60 L158.66,266.63 L157.83,263.75 L156.74,260.95 L155.58,258.18 L154.53,255.38 L153.74,252.48 L153.32,249.51 L153.34,246.51 L153.77,243.54 L154.56,240.65 L155.62,237.84 L156.91,235.13 L158.38,232.52 L159.99,229.99 L161.74,227.55 L163.60,225.20 L165.58,222.94 L167.67,220.79 L169.87,218.75 L172.18,216.84 L174.61,215.08 L177.15,213.48 L179.81,212.09 L182.57,210.92 L185.44,210.03 L188.38,209.47 L191.38,209.30 L194.37,209.59 L197.25,210.40 L199.92,211.77 L202.22,213.70 L204.01,216.11 L205.24,218.85 L205.92,221.77 L206.15,224.76 L206.04,227.76 L205.67,230.73 L205.11,233.68 L204.40,236.59 L203.58,239.48 L202.66,242.33 L201.65,245.16 L200.57,247.96 L199.43,250.73 L198.22,253.48 L196.95,256.20 L195.63,258.89 L194.26,261.56 L192.84,264.20 L191.37,266.82 L189.86,269.41 L188.30,271.98 L186.71,274.51 L185.07,277.03 L183.38,279.51" fill="none" stroke="hsla(320.8, 70%, 55%, 0.7)" stroke-width="1.2"/>
  <path d="M218.50,281.00 L219.76,283.72 L220.52,286.63 L220.92,289.60 L221.08,292.59 L221.09,295.59 L221.00,298.59 L220.86,301.59 L220.72,304.59 L220.59,307.58 L220.53,310.58 L220.56,313.58 L220.71,316.58 L221.02,319.56 L221.50,322.52 L222.18,325.44 L223.07,328.31 L224.16,331.11 L225.39,333.84 L226.73,336.53 L228.09,339.20 L229.37,341.91 L230.48,344.70 L231.29,347.59 L231.72,350.56 L231.73,353.56 L231.33,356.53 L230.60,359.44 L229.62,362.28 L228.49,365.05 L227.27,367.79 L226.01,370.52 L224.75,373.24 L223.51,375.97 L222.29,378.72 L221.11,381.47 L219.97,384.25 L218.87,387.04 L217.80,389.84 L216.77,392.66 L215.78,395.49 L214.81,398.33 L213.88,401.18 L212.98,404.04 L212.11,406.91 L211.27,409.79 L210.46,412.68 L209.67,415.58 L208.92,418.48 L208.20,421.39 L207.51,424.31 L206.86,427.24 L206.23,430.18 L205.65,433.12 L205.11,436.07 L204.61,439.03 L204.15,441.99 L203.75,444.97 L203.40,447.94 L203.11,450.93" fill="none" stroke="hsla(322, 70%, 55%, 0.7)" stroke-width="1.2"/>
  <path d="M281.00,281.00 L282.28,278.29 L283.11,275.40 L283.53,272.43 L283.64,269.44 L283.57,266.44 L283.42,263.44 L283.27,260.44 L283.20,257.45 L283.24,254.45 L283.42,251.45 L283.74,248.47 L284.19,245.50 L284.76,242.56 L285.44,239.63 L286.19,236.73 L287.03,233.85 L287.92,230.99 L288.87,228.14 L289.87,225.31 L290.90,222.49 L291.97,219.69 L293.08,216.90 L294.21,214.12 L295.36,211.35 L296.55,208.60 L297.75,205.85 L298.97,203.11 L300.22,200.38 L301.48,197.66 L302.76,194.94 L304.05,192.24 L305.36,189.54 L306.68,186.85 L308.02,184.16 L309.37,181.48 L310.73,178.81 L312.10,176.14 L313.48,173.48 L314.87,170.82 L316.28,168.17 L317.68,165.52 L319.10,162.87 L320.52,160.23 L321.95,157.59 L323.39,154.96 L324.83,152.33 L326.28,149.70 L327.72,147.07 L329.18,144.45 L330.63,141.83 L332.09,139.20 L333.55,136.58 L335.02,133.96 L336.48,131.34 L337.94,128.73 L339.40,126.11 L340.87,123.49 L342.33,120.87 L343.78,118.24" fill="none" stroke="hsla(323.2, 70%, 55%, 0.7)" stroke-width="1.2"/>
  <path d="M343.50,281.00 L340.50,280.88 L337.56,280.27 L334.71,279.35 L331.91,278.26 L329.15,277.10 L326.38,275.95 L323.59,274.83 L320.78,273.79 L317.95,272.81 L315.09,271.88 L312.23,270.99 L309.36,270.11 L306.50,269.20 L303.67,268.21 L300.88,267.11 L298.16,265.85 L295.54,264.37 L293.09,262.64 L290.87,260.63 L288.95,258.32 L287.41,255.75 L286.29,252.97 L285.60,250.05 L285.31,247.06 L285.35,244.06 L285.66,241.08 L286.17,238.12 L286.85,235.20 L287.64,232.30 L288.51,229.44 L289.46,226.59 L290.46,223.76 L291.50,220.95 L292.59,218.15 L293.70,215.37 L294.85,212.59 L296.02,209.83 L297.21,207.08 L298.42,204.33 L299.66,201.60 L300.91,198.87 L302.18,196.16 L303.47,193.45 L304.77,190.74 L306.09,188.05 L307.42,185.36 L308.76,182.68 L310.12,180.00 L311.49,177.33 L312.86,174.67 L314.25,172.01 L315.65,169.35 L317.05,166.70 L318.47,164.05 L319.89,161.41 L321.31,158.77 L322.75,156.14 L324.18,153.50 L325.63,150.87" fill="none" stroke="hsla(324.4, 70%, 55%, 0.7)" stroke-width="1.2"/>
  <path d="M406.00,281.00 L403.73,282.97 L401.73,285.20 L399.90,287.57 L398.18,290.04 L396.53,292.54 L394.91,295.06 L393.28,297.58 L391.64,300.10 L389.97,302.59 L388.26,305.05 L386.50,307.48 L384.68,309.87 L382.79,312.19 L380.82,314.46 L378.76,316.64 L376.60,318.72 L374.33,320.68 L371.93,322.48 L369.39,324.07 L366.69,325.39 L363.84,326.33 L360.88,326.79 L357.88,326.63 L355.02,325.74 L352.50,324.11 L350.48,321.89 L348.97,319.30 L347.86,316.51 L346.98,313.64 L346.21,310.74 L345.47,307.84 L344.68,304.94 L343.82,302.07 L342.85,299.23 L341.75,296.44 L340.49,293.71 L339.08,291.07 L337.48,288.53 L335.71,286.10 L333.76,283.83 L331.63,281.71 L329.34,279.77 L326.91,278.02 L324.35,276.46 L321.69,275.07 L318.96,273.83 L316.17,272.72 L313.35,271.70 L310.51,270.74 L307.66,269.78 L304.83,268.79 L302.03,267.71 L299.29,266.50 L296.63,265.11 L294.11,263.49 L291.78,261.59 L289.73,259.41 L288.02,256.94 L286.71,254.24" fill="none" stroke="hsla(325.6, 70%, 55%, 0.7)" stroke-width="1.2"/>
  <path d="M468.50,281.00 L468.16,283.98 L467.48,286.90 L466.43,289.71 L465.01,292.35 L463.24,294.78 L461.17,296.95 L458.87,298.88 L456.43,300.62 L453.90,302.23 L451.34,303.80 L448.79,305.38 L446.29,307.04 L443.86,308.80 L441.53,310.68 L439.29,312.68 L437.16,314.79 L435.11,316.99 L433.15,319.25 L431.25,321.58 L429.41,323.94 L427.61,326.34 L425.85,328.77 L424.11,331.22 L422.41,333.69 L420.72,336.17 L419.06,338.67 L417.41,341.17 L415.78,343.69 L414.16,346.22 L412.56,348.76 L410.98,351.30 L409.41,353.86 L407.85,356.42 L406.31,359.00 L404.78,361.58 L403.27,364.17 L401.77,366.77 L400.29,369.38 L398.83,372.00 L397.38,374.63 L395.96,377.27 L394.55,379.92 L393.17,382.58 L391.80,385.25 L390.47,387.94 L389.16,390.64 L387.88,393.35 L386.63,396.08 L385.42,398.83 L384.26,401.59 L383.14,404.37 L382.07,407.18 L381.06,410.00 L380.13,412.85 L379.28,415.73 L378.53,418.63 L377.90,421.57 L377.41,424.53 L377.11,427.51" fill="none" stroke="hsla(326.8, 70%, 55%, 0.7)" stroke-width="1.2"/>
  <path d="M31.00,343.50 L33.94,342.88 L36.93,342.78 L39.91,343.15 L42.83,343.83 L45.72,344.64 L48.63,345.38 L51.59,345.85 L54.59,345.83 L57.51,345.16 L60.17,343.77 L62.39,341.74 L64.10,339.28 L65.36,336.56 L66.28,333.70 L66.95,330.78 L67.45,327.82 L67.82,324.84 L68.08,321.85 L68.25,318.86 L68.31,315.86 L68.27,312.86 L68.11,309.86 L67.80,306.88 L67.30,303.92 L66.59,301.01 L65.60,298.18 L64.27,295.49 L62.53,293.04 L60.35,290.98 L57.75,289.50 L54.83,288.78 L51.84,288.90 L48.96,289.75 L46.30,291.13 L43.84,292.85 L41.52,294.76 L39.32,296.79 L37.18,298.90 L35.10,301.06 L33.06,303.26 L31.06,305.50 L29.10,307.76 L27.16,310.05 L25.25,312.37 L23.36,314.70 L21.51,317.06 L19.67,319.43 L17.87,321.83 L16.08,324.24 L14.32,326.67 L12.58,329.11 L10.86,331.57 L9.17,334.05 L7.50,336.54 L5.86,339.05 L4.24,341.57 L2.64,344.11 L1.07,346.67 L-0.47,349.24" fill="none" stroke="hsla(328, 70%, 55%, 0.7)" stroke-width="1.2"/>
  <path d="M93.50,343.50 L95.83,345.39 L98.53,346.70 L101.46,347.33 L104.46,347.23 L107.35,346.41 L109.93,344.89 L112.00,342.72 L113.34,340.03 L113.80,337.07 L113.39,334.09 L112.35,331.28 L110.96,328.62 L109.48,326.01 L108.08,323.36 L106.90,320.60 L105.97,317.75 L105.32,314.82 L104.92,311.85 L104.71,308.85 L104.65,305.85 L104.72,302.85 L104.87,299.86 L105.09,296.87 L105.37,293.88 L105.69,290.90 L106.05,287.92 L106.44,284.94 L106.86,281.97 L107.29,279.00 L107.74,276.04 L108.21,273.08 L108.68,270.11 L109.16,267.15 L109.64,264.19 L110.11,261.23 L110.58,258.26 L111.05,255.30 L111.50,252.33 L111.94,249.37 L112.35,246.40 L112.74,243.42 L113.09,240.44 L113.41,237.46 L113.68,234.47 L113.89,231.48 L114.03,228.48 L114.09,225.48 L114.05,222.48 L113.89,219.49 L113.59,216.50 L113.12,213.54 L112.45,210.61 L111.54,207.75 L110.38,204.99 L108.92,202.37 L107.18,199.93 L105.15,197.72 L102.87,195.76 L100.41,194.05" fill="none" stroke="hsla(329.2, 70%, 55%, 0.7)" stroke-width="1.2"/>
  <path d="M156.00,343.50 L158.46,345.21 L160.28,347.60 L161.37,350.39 L161.81,353.36 L161.77,356.36 L161.37,359.33 L160.73,362.26 L159.90,365.15 L158.94,367.99 L157.88,370.80 L156.75,373.57 L155.57,376.33 L154.35,379.07 L153.12,381.81 L151.89,384.55 L150.68,387.29 L149.52,390.06 L148.45,392.86 L147.51,395.71 L146.79,398.62 L146.38,401.59 L146.46,404.59 L147.24,407.49 L148.92,409.98 L151.47,411.55 L154.46,411.86 L157.35,411.05 L159.97,409.61 L162.40,407.85 L164.72,405.94 L166.98,403.97 L169.23,401.98 L171.49,400.01 L173.77,398.06 L176.09,396.16 L178.45,394.31 L180.86,392.52 L183.33,390.81 L185.85,389.19 L188.45,387.69 L191.12,386.32 L193.87,385.13 L196.71,384.15 L199.62,383.45 L202.60,383.11 L205.60,383.24 L208.51,383.98 L211.14,385.43 L213.21,387.60 L214.47,390.32 L214.89,393.29 L214.70,396.29 L214.14,399.23 L213.41,402.14 L212.60,405.03 L211.78,407.92 L210.97,410.81 L210.17,413.70 L209.40,416.60" fill="none" stroke="hsla(330.4, 70%, 55%, 0.7)" stroke-width="1.2"/>
  <path d="M218.50,343.50 L220.11,346.03 L221.75,348.54 L223.32,351.10 L224.69,353.77 L225.75,356.58 L226.39,359.51 L226.58,362.50 L226.33,365.49 L225.74,368.43 L224.89,371.31 L223.90,374.14 L222.83,376.94 L221.72,379.73 L220.61,382.52 L219.51,385.31 L218.44,388.11 L217.39,390.92 L216.38,393.75 L215.40,396.58 L214.45,399.43 L213.53,402.28 L212.64,405.15 L211.78,408.02 L210.95,410.91 L210.15,413.80 L209.38,416.70 L208.64,419.60 L207.93,422.52 L207.25,425.44 L206.61,428.37 L206.00,431.31 L205.44,434.26 L204.91,437.21 L204.42,440.17 L203.99,443.14 L203.60,446.11 L203.28,449.09 L203.01,452.08 L202.82,455.08 L202.70,458.07 L202.67,461.07 L202.73,464.07 L202.91,467.07 L203.21,470.05 L203.66,473.02 L204.27,475.96 L205.06,478.85 L206.07,481.68 L207.31,484.41 L208.82,487.00 L210.60,489.42 L212.66,491.59 L214.99,493.48 L217.56,495.03 L220.32,496.21 L223.21,497.02 L226.17,497.50 L229.16,497.68 L232.16,497.62" fill="none" stroke="hsla(331.6, 70%, 55%, 0.7)" stroke-width="1.2"/>
  <path d="M281.00,343.50 L282.79,341.09 L283.98,338.34 L284.30,335.35 L283.54,332.46 L281.68,330.10 L279.07,328.63 L276.11,328.09 L273.12,328.27 L270.20,328.94 L267.37,329.93 L264.62,331.15 L261.96,332.53 L259.37,334.05 L256.84,335.66 L254.38,337.38 L251.98,339.18 L249.65,341.07 L247.38,343.03 L245.18,345.07 L243.05,347.18 L240.99,349.37 L239.01,351.61 L237.10,353.93 L235.26,356.30 L233.50,358.73 L231.81,361.21 L230.20,363.74 L228.66,366.31 L227.19,368.93 L225.78,371.58 L224.43,374.26 L223.15,376.97 L221.91,379.70 L220.73,382.46 L219.59,385.23 L218.49,388.03 L217.44,390.83 L216.42,393.66 L215.43,396.49 L214.48,399.33 L213.56,402.19 L212.67,405.05 L211.81,407.93 L210.98,410.81 L210.18,413.70 L209.41,416.60 L208.66,419.51 L207.95,422.42 L207.28,425.35 L206.63,428.28 L206.02,431.21 L205.45,434.16 L204.92,437.11 L204.44,440.07 L204.00,443.04 L203.62,446.01 L203.29,449.00 L203.02,451.98 L202.82,454.98" fill="none" stroke="hsla(332.8, 70%, 55%, 0.7)" stroke-width="1.2"/>
  <path d="M343.50,343.50 L344.83,340.81 L345.69,337.94 L346.23,334.99 L346.56,332.00 L346.74,329.01 L346.80,326.01 L346.76,323.01 L346.63,320.01 L346.41,317.02 L346.09,314.04 L345.67,311.07 L345.14,308.12 L344.50,305.19 L343.72,302.29 L342.81,299.43 L341.75,296.62 L340.52,293.88 L339.13,291.23 L337.55,288.67 L335.80,286.24 L333.86,283.95 L331.74,281.83 L329.46,279.88 L327.04,278.11 L324.48,276.54 L321.83,275.14 L319.10,273.89 L316.32,272.78 L313.50,271.75 L310.66,270.79 L307.81,269.83 L304.98,268.84 L302.18,267.77 L299.43,266.57 L296.76,265.19 L294.23,263.58 L291.90,261.70 L289.83,259.53 L288.10,257.08 L286.77,254.38 L285.87,251.52 L285.39,248.56 L285.28,245.56 L285.47,242.57 L285.89,239.60 L286.49,236.66 L287.23,233.75 L288.06,230.87 L288.98,228.01 L289.95,225.18 L290.98,222.36 L292.04,219.55 L293.14,216.76 L294.27,213.98 L295.43,211.21 L296.61,208.45 L297.81,205.71 L299.04,202.97 L300.28,200.24" fill="none" stroke="hsla(334, 70%, 55%, 0.7)" stroke-width="1.2"/>
  <path d="M406.00,343.50 L408.29,345.44 L409.32,348.26 L409.16,351.26 L408.30,354.13 L407.10,356.88 L405.73,359.55 L404.30,362.18 L402.84,364.80 L401.37,367.42 L399.90,370.04 L398.45,372.66 L397.01,375.30 L395.60,377.94 L394.20,380.59 L392.82,383.26 L391.46,385.93 L390.13,388.62 L388.83,391.33 L387.56,394.04 L386.32,396.78 L385.12,399.53 L383.97,402.29 L382.86,405.08 L381.81,407.89 L380.82,410.72 L379.90,413.58 L379.08,416.47 L378.35,419.38 L377.76,422.32 L377.32,425.28 L377.06,428.27 L377.05,431.27 L377.33,434.26 L377.99,437.19 L379.10,439.98 L380.72,442.50 L382.87,444.59 L385.47,446.09 L388.35,446.93 L391.34,447.19 L394.34,447.04 L397.31,446.65 L400.27,446.16 L403.22,445.64 L406.19,445.16 L409.16,444.76 L412.15,444.49 L415.14,444.37 L418.14,444.44 L421.13,444.72 L424.08,445.25 L426.97,446.07 L429.75,447.20 L432.36,448.67 L434.75,450.49 L436.86,452.62 L438.65,455.03 L440.10,457.66 L441.22,460.44" fill="none" stroke="hsla(335.2, 70%, 55%, 0.7)" stroke-width="1.2"/>
  <path d="M468.50,343.50 L468.26,340.51 L467.71,337.56 L466.86,334.68 L465.73,331.90 L464.35,329.24 L462.73,326.71 L460.89,324.35 L458.82,322.18 L456.53,320.23 L454.03,318.58 L451.33,317.27 L448.46,316.39 L445.49,316.02 L442.49,316.21 L439.59,316.96 L436.86,318.22 L434.36,319.87 L432.08,321.82 L429.98,323.97 L428.02,326.24 L426.16,328.59 L424.37,331.00 L422.63,333.44 L420.93,335.91 L419.25,338.40 L417.60,340.90 L415.96,343.42 L414.34,345.94 L412.74,348.48 L411.15,351.02 L409.58,353.58 L408.02,356.14 L406.48,358.71 L404.95,361.29 L403.43,363.88 L401.94,366.48 L400.45,369.09 L398.99,371.71 L397.54,374.34 L396.11,376.98 L394.70,379.62 L393.32,382.28 L391.95,384.96 L390.61,387.64 L389.30,390.34 L388.02,393.05 L386.77,395.78 L385.56,398.52 L384.38,401.28 L383.26,404.06 L382.18,406.86 L381.17,409.69 L380.23,412.54 L379.37,415.41 L378.60,418.31 L377.96,421.24 L377.46,424.20 L377.13,427.18 L377.02,430.18" fill="none" stroke="hsla(336.4, 70%, 55%, 0.7)" stroke-width="1.2"/>
  <path d="M31.00,406.00 L32.53,403.42 L34.35,401.04 L36.38,398.82 L38.53,396.74 L40.76,394.73 L43.01,392.74 L45.23,390.73 L47.40,388.65 L49.48,386.49 L51.44,384.22 L53.26,381.83 L54.93,379.34 L56.44,376.75 L57.79,374.07 L58.99,371.32 L60.05,368.52 L60.99,365.67 L61.82,362.78 L62.57,359.88 L63.25,356.96 L63.87,354.02 L64.44,351.08 L64.98,348.13 L65.49,345.17 L65.96,342.21 L66.40,339.24 L66.81,336.27 L67.18,333.29 L67.52,330.31 L67.81,327.32 L68.05,324.33 L68.23,321.34 L68.34,318.34 L68.37,315.34 L68.29,312.34 L68.09,309.35 L67.74,306.37 L67.21,303.41 L66.45,300.51 L65.40,297.70 L64.01,295.05 L62.20,292.65 L59.94,290.67 L57.27,289.31 L54.33,288.74 L51.34,288.99 L48.50,289.95 L45.87,291.40 L43.44,293.16 L41.15,295.10 L38.95,297.14 L36.83,299.26 L34.76,301.43 L32.72,303.64 L30.73,305.88 L28.77,308.15 L26.83,310.44 L24.93,312.76 L23.05,315.10" fill="none" stroke="hsla(337.6, 70%, 55%, 0.7)" stroke-width="1.2"/>
  <path d="M93.50,406.00 L92.23,403.28 L90.64,400.74 L88.74,398.42 L86.58,396.33 L84.24,394.46 L81.77,392.76 L79.24,391.14 L76.72,389.52 L74.24,387.82 L71.89,385.97 L69.70,383.91 L67.77,381.61 L66.15,379.09 L64.89,376.37 L64.00,373.50 L63.45,370.55 L63.21,367.56 L63.20,364.56 L63.37,361.57 L63.66,358.58 L64.03,355.60 L64.45,352.63 L64.89,349.67 L65.34,346.70 L65.79,343.73 L66.22,340.76 L66.63,337.79 L67.01,334.82 L67.36,331.84 L67.67,328.85 L67.94,325.87 L68.15,322.87 L68.29,319.88 L68.36,316.88 L68.34,313.88 L68.21,310.88 L67.94,307.89 L67.51,304.92 L66.87,301.99 L65.98,299.13 L64.77,296.38 L63.18,293.84 L61.16,291.62 L58.69,289.92 L55.86,288.93 L52.86,288.76 L49.93,289.38 L47.19,290.61 L44.66,292.23 L42.31,294.08 L40.07,296.08 L37.91,298.17 L35.81,300.31 L33.76,302.50 L31.75,304.73 L29.77,306.98 L27.82,309.26 L25.90,311.57 L24.01,313.89" fill="none" stroke="hsla(338.8, 70%, 55%, 0.7)" stroke-width="1.2"/>
  <path d="M156.00,406.00 L158.98,406.35 L161.90,405.68 L164.61,404.39 L167.14,402.77 L169.56,401.00 L171.93,399.16 L174.29,397.31 L176.66,395.47 L179.06,393.68 L181.51,391.94 L184.00,390.27 L186.55,388.69 L189.18,387.24 L191.87,385.92 L194.65,384.79 L197.51,383.88 L200.45,383.28 L203.44,383.06 L206.43,383.35 L209.28,384.27 L211.78,385.93 L213.65,388.28 L214.67,391.10 L214.90,394.09 L214.58,397.07 L213.96,400.01 L213.20,402.91 L212.39,405.80 L211.57,408.68 L210.76,411.57 L209.97,414.47 L209.21,417.37 L208.47,420.28 L207.77,423.19 L207.10,426.12 L206.47,429.05 L205.87,431.99 L205.31,434.94 L204.79,437.89 L204.32,440.86 L203.89,443.82 L203.52,446.80 L203.21,449.79 L202.96,452.78 L202.78,455.77 L202.68,458.77 L202.67,461.77 L202.76,464.77 L202.97,467.76 L203.30,470.74 L203.78,473.70 L204.43,476.63 L205.28,479.51 L206.34,482.32 L207.64,485.02 L209.20,487.58 L211.05,489.94 L213.18,492.06 L215.57,493.87" fill="none" stroke="hsla(340, 70%, 55%, 0.7)" stroke-width="1.2"/>
  <path d="M218.50,406.00 L215.52,406.31 L213.17,408.18 L211.59,410.73 L210.47,413.51 L209.56,416.37 L208.76,419.26 L208.03,422.17 L207.34,425.09 L206.69,428.02 L206.08,430.96 L205.50,433.90 L204.97,436.85 L204.48,439.81 L204.04,442.78 L203.65,445.75 L203.31,448.74 L203.04,451.72 L202.84,454.72 L202.71,457.71 L202.67,460.71 L202.72,463.71 L202.88,466.71 L203.17,469.70 L203.60,472.66 L204.19,475.61 L204.96,478.51 L205.94,481.34 L207.15,484.08 L208.62,486.70 L210.37,489.14 L212.40,491.35 L214.70,493.27 L217.24,494.86 L219.98,496.09 L222.86,496.95 L225.81,497.46 L228.80,497.68 L231.80,497.64 L234.79,497.39 L237.77,496.98 L240.72,496.44 L243.65,495.79 L246.56,495.06 L249.45,494.27 L252.32,493.41 L255.18,492.51 L258.03,491.57 L260.87,490.61 L263.71,489.62 L266.53,488.61 L269.35,487.59 L272.17,486.56 L274.99,485.54 L277.81,484.52 L280.64,483.51 L283.47,482.52 L286.31,481.57 L289.17,480.65 L292.05,479.79" fill="none" stroke="hsla(341.2, 70%, 55%, 0.7)" stroke-width="1.2"/>
  <path d="M281.00,406.00 L283.15,408.09 L286.06,408.83 L288.91,407.91 L291.15,405.92 L292.92,403.49 L294.45,400.91 L295.84,398.26 L297.16,395.56 L298.41,392.83 L299.60,390.08 L300.73,387.30 L301.79,384.49 L302.80,381.67 L303.73,378.82 L304.60,375.94 L305.39,373.05 L306.10,370.14 L306.72,367.20 L307.25,364.25 L307.68,361.28 L307.99,358.30 L308.18,355.30 L308.22,352.30 L308.10,349.30 L307.80,346.32 L307.29,343.36 L306.55,340.46 L305.54,337.63 L304.24,334.93 L302.63,332.40 L300.68,330.12 L298.41,328.15 L295.86,326.57 L293.09,325.42 L290.18,324.70 L287.20,324.40 L284.20,324.46 L281.22,324.83 L278.28,325.44 L275.40,326.26 L272.57,327.25 L269.79,328.39 L267.06,329.64 L264.39,331.01 L261.78,332.48 L259.22,334.04 L256.71,335.69 L254.26,337.43 L251.88,339.24 L249.55,341.14 L247.29,343.11 L245.09,345.15 L242.97,347.27 L240.91,349.45 L238.93,351.71 L237.02,354.02 L235.19,356.40 L233.43,358.83 L231.75,361.31" fill="none" stroke="hsla(342.4, 70%, 55%, 0.7)" stroke-width="1.2"/>
  <path d="M343.50,406.00 L344.96,403.38 L346.25,400.67 L347.37,397.89 L348.28,395.03 L348.96,392.11 L349.39,389.14 L349.56,386.14 L349.48,383.15 L349.17,380.16 L348.71,377.20 L348.15,374.25 L347.57,371.31 L347.04,368.35 L346.60,365.39 L346.29,362.40 L346.10,359.41 L346.04,356.41 L346.07,353.41 L346.16,350.41 L346.30,347.41 L346.45,344.42 L346.61,341.42 L346.75,338.42 L346.86,335.43 L346.94,332.43 L346.97,329.43 L346.95,326.43 L346.86,323.43 L346.71,320.43 L346.48,317.44 L346.16,314.46 L345.75,311.49 L345.23,308.53 L344.60,305.60 L343.84,302.70 L342.95,299.83 L341.91,297.02 L340.71,294.27 L339.34,291.60 L337.79,289.03 L336.06,286.58 L334.15,284.27 L332.05,282.12 L329.80,280.14 L327.39,278.35 L324.85,276.75 L322.21,275.33 L319.49,274.06 L316.71,272.93 L313.90,271.89 L311.06,270.92 L308.22,269.97 L305.38,268.99 L302.57,267.93 L299.81,266.75 L297.14,265.40 L294.58,263.82 L292.22,261.98 L290.10,259.85" fill="none" stroke="hsla(343.6, 70%, 55%, 0.7)" stroke-width="1.2"/>
  <path d="M406.00,406.00 L403.13,405.14 L400.19,404.53 L397.20,404.32 L394.21,404.62 L391.34,405.50 L388.72,406.95 L386.40,408.86 L384.43,411.12 L382.76,413.61 L381.37,416.27 L380.22,419.04 L379.31,421.90 L378.62,424.82 L378.18,427.79 L378.01,430.78 L378.17,433.78 L378.72,436.73 L379.75,439.55 L381.31,442.11 L383.41,444.25 L385.98,445.79 L388.85,446.68 L391.83,446.98 L394.83,446.86 L397.81,446.49 L400.77,446.02 L403.73,445.52 L406.69,445.06 L409.67,444.70 L412.66,444.45 L415.66,444.36 L418.66,444.47 L421.64,444.79 L424.59,445.37 L427.46,446.24 L430.21,447.43 L432.79,448.96 L435.14,450.83 L437.19,453.01 L438.92,455.47 L440.31,458.13 L441.38,460.93 L442.17,463.82 L442.73,466.77 L443.10,469.75 L443.33,472.74 L443.45,475.74 L443.48,478.74 L443.44,481.73 L443.34,484.73 L443.21,487.73 L443.05,490.73 L442.86,493.72 L442.65,496.71 L442.44,499.71 L442.22,502.70 L442.01,505.69 L441.81,508.68 L441.64,511.68" fill="none" stroke="hsla(344.8, 70%, 55%, 0.7)" stroke-width="1.2"/>
  <path d="M468.50,406.00 L469.32,403.12 L470.32,400.28 L471.47,397.51 L472.75,394.80 L474.14,392.14 L475.61,389.53 L477.12,386.94 L478.63,384.34 L480.11,381.73 L481.51,379.08 L482.81,376.37 L483.94,373.60 L484.88,370.75 L485.58,367.83 L486.02,364.86 L486.17,361.87 L486.03,358.87 L485.59,355.90 L484.88,352.99 L483.92,350.15 L482.74,347.39 L481.39,344.71 L479.88,342.12 L478.26,339.59 L476.53,337.14 L474.73,334.74 L472.85,332.40 L470.91,330.11 L468.90,327.89 L466.81,325.73 L464.64,323.66 L462.37,321.70 L459.98,319.89 L457.46,318.26 L454.80,316.88 L452.00,315.81 L449.07,315.13 L446.08,314.92 L443.10,315.23 L440.21,316.06 L437.51,317.35 L435.02,319.02 L432.73,320.97 L430.63,323.11 L428.66,325.37 L426.79,327.72 L424.99,330.12 L423.24,332.55 L421.53,335.02 L419.85,337.50 L418.19,340.00 L416.55,342.51 L414.92,345.03 L413.31,347.57 L411.72,350.11 L410.14,352.66 L408.58,355.22 L407.03,357.79 L405.50,360.37" fill="none" stroke="hsla(346, 70%, 55%, 0.7)" stroke-width="1.2"/>
  <path d="M31.00,468.50 L29.81,471.25 L29.24,474.20 L29.26,477.20 L29.75,480.16 L30.59,483.04 L31.68,485.84 L32.92,488.57 L34.26,491.25 L35.66,493.90 L37.08,496.54 L38.52,499.18 L39.97,501.81 L41.41,504.43 L42.86,507.06 L44.31,509.69 L45.77,512.31 L47.25,514.92 L48.76,517.51 L50.31,520.08 L51.91,522.62 L53.57,525.11 L55.33,527.55 L57.20,529.89 L59.21,532.12 L61.39,534.18 L63.78,535.99 L66.39,537.47 L69.22,538.47 L72.20,538.85 L75.17,538.49 L77.95,537.36 L80.36,535.57 L82.34,533.31 L83.95,530.78 L85.29,528.10 L86.46,525.34 L87.56,522.54 L88.63,519.74 L89.71,516.94 L90.83,514.16 L91.99,511.39 L93.19,508.64 L94.45,505.92 L95.75,503.22 L97.09,500.53 L98.48,497.87 L99.90,495.23 L101.35,492.60 L102.83,489.99 L104.33,487.40 L105.86,484.82 L107.42,482.25 L108.99,479.70 L110.58,477.15 L112.19,474.62 L113.81,472.10 L115.45,469.59 L117.11,467.09 L118.78,464.59" fill="none" stroke="hsla(347.2, 70%, 55%, 0.7)" stroke-width="1.2"/>
  <path d="M93.50,468.50 L91.44,470.68 L89.32,472.80 L87.11,474.84 L84.82,476.78 L82.44,478.60 L79.97,480.30 L77.41,481.86 L74.77,483.29 L72.08,484.61 L69.35,485.85 L66.61,487.08 L63.89,488.35 L61.25,489.77 L58.73,491.40 L56.42,493.31 L54.41,495.54 L52.80,498.07 L51.65,500.84 L50.99,503.77 L50.79,506.76 L50.99,509.75 L51.53,512.70 L52.35,515.59 L53.39,518.40 L54.64,521.13 L56.08,523.76 L57.69,526.29 L59.50,528.68 L61.52,530.90 L63.77,532.88 L66.28,534.54 L69.03,535.74 L71.96,536.35 L74.96,536.22 L77.82,535.31 L80.35,533.70 L82.45,531.56 L84.17,529.11 L85.61,526.47 L86.86,523.74 L88.02,520.98 L89.14,518.20 L90.27,515.42 L91.43,512.65 L92.62,509.90 L93.86,507.16 L95.14,504.45 L96.47,501.76 L97.84,499.09 L99.24,496.44 L100.68,493.80 L102.14,491.19 L103.64,488.59 L105.16,486.00 L106.70,483.43 L108.27,480.87 L109.85,478.32 L111.45,475.78 L113.07,473.25" fill="none" stroke="hsla(348.4, 70%, 55%, 0.7)" stroke-width="1.2"/>
  <path d="M156.00,468.50 L155.87,471.50 L156.01,474.49 L156.37,477.47 L156.86,480.43 L157.42,483.38 L157.99,486.32 L158.52,489.28 L158.99,492.24 L159.39,495.21 L159.71,498.20 L159.97,501.18 L160.17,504.18 L160.34,507.17 L160.49,510.17 L160.62,513.17 L160.76,516.16 L160.92,519.16 L161.10,522.15 L161.31,525.15 L161.56,528.14 L161.87,531.12 L162.23,534.10 L162.66,537.07 L163.17,540.02 L163.75,542.97 L164.44,545.89 L165.22,548.78 L166.11,551.65 L167.11,554.48 L168.24,557.26 L169.49,559.98 L170.86,562.65 L172.36,565.25 L173.97,567.78 L175.68,570.25 L177.46,572.66 L179.29,575.03 L181.14,577.40 L182.95,579.79 L184.67,582.25 L186.23,584.81 L187.54,587.51 L188.53,590.34 L189.12,593.28 L189.26,596.28 L188.95,599.26 L188.22,602.18 L187.15,604.98 L185.79,607.65 L184.20,610.19 L182.43,612.61 L180.50,614.91 L178.44,617.09 L176.25,619.15 L173.94,621.06 L171.51,622.82 L168.96,624.40 L166.29,625.77 L163.51,626.89" fill="none" stroke="hsla(349.6, 70%, 55%, 0.7)" stroke-width="1.2"/>
  <path d="M218.50,468.50 L215.51,468.20 L212.54,468.60 L209.85,469.94 L207.86,472.18 L206.78,474.97 L206.53,477.96 L206.91,480.94 L207.78,483.81 L209.06,486.53 L210.69,489.04 L212.66,491.30 L214.94,493.26 L217.47,494.87 L220.21,496.10 L223.08,496.95 L226.04,497.46 L229.03,497.66 L232.03,497.61 L235.02,497.36 L237.99,496.94 L240.94,496.39 L243.87,495.74 L246.78,495.00 L249.67,494.20 L252.54,493.34 L255.40,492.44 L258.25,491.50 L261.09,490.53 L263.92,489.54 L266.75,488.53 L269.57,487.51 L272.39,486.48 L275.21,485.46 L278.03,484.44 L280.85,483.43 L283.69,482.45 L286.53,481.49 L289.39,480.58 L292.27,479.73 L295.16,478.95 L298.08,478.26 L301.03,477.68 L303.99,477.23 L306.98,476.94 L309.98,476.84 L312.98,476.93 L315.96,477.23 L318.92,477.71 L321.85,478.35 L324.76,479.08 L327.67,479.82 L330.60,480.46 L333.57,480.88 L336.57,480.98 L339.55,480.65 L342.45,479.88 L345.22,478.72 L347.84,477.26 L350.32,475.58" fill="none" stroke="hsla(350.8, 70%, 55%, 0.7)" stroke-width="1.2"/>
  <path d="M281.00,468.50 L283.84,469.46 L286.82,469.80 L289.82,469.73 L292.80,469.39 L295.76,468.86 L298.69,468.22 L301.61,467.53 L304.52,466.81 L307.44,466.11 L310.37,465.46 L313.31,464.89 L316.28,464.44 L319.26,464.13 L322.26,464.00 L325.26,464.07 L328.24,464.35 L331.21,464.83 L334.14,465.47 L337.04,466.22 L339.94,466.98 L342.86,467.66 L345.82,468.14 L348.82,468.33 L351.81,468.15 L354.76,467.59 L357.62,466.69 L360.39,465.52 L363.07,464.18 L365.69,462.72 L368.28,461.21 L370.87,459.69 L373.46,458.19 L376.08,456.72 L378.72,455.30 L381.39,453.93 L384.10,452.64 L386.84,451.41 L389.61,450.26 L392.41,449.18 L395.24,448.19 L398.10,447.30 L400.99,446.50 L403.91,445.81 L406.86,445.24 L409.83,444.80 L412.81,444.52 L415.81,444.42 L418.81,444.51 L421.79,444.84 L424.74,445.42 L427.60,446.31 L430.35,447.51 L432.92,449.06 L435.25,450.94 L437.29,453.14 L439.00,455.61 L440.38,458.28 L441.43,461.08 L442.21,463.98" fill="none" stroke="hsla(352, 70%, 55%, 0.7)" stroke-width="1.2"/>
  <path d="M343.50,468.50 L346.48,468.85 L349.48,468.87 L352.46,468.51 L355.37,467.78 L358.18,466.74 L360.90,465.47 L363.54,464.05 L366.14,462.55 L368.72,461.01 L371.29,459.48 L373.88,457.97 L376.50,456.50 L379.14,455.08 L381.82,453.73 L384.53,452.44 L387.27,451.22 L390.05,450.08 L392.85,449.02 L395.69,448.05 L398.56,447.16 L401.45,446.38 L404.38,445.71 L407.33,445.16 L410.30,444.75 L413.29,444.49 L416.29,444.42 L419.28,444.55 L422.26,444.91 L425.19,445.54 L428.05,446.47 L430.77,447.73 L433.31,449.33 L435.60,451.27 L437.59,453.52 L439.24,456.02 L440.56,458.71 L441.57,461.54 L442.31,464.45 L442.82,467.40 L443.16,470.38 L443.36,473.37 L443.46,476.37 L443.47,479.37 L443.42,482.37 L443.32,485.37 L443.18,488.37 L443.01,491.36 L442.81,494.36 L442.61,497.35 L442.39,500.34 L442.18,503.33 L441.97,506.33 L441.77,509.32 L441.60,512.32 L441.46,515.31 L441.36,518.31 L441.32,521.31 L441.34,524.31 L441.45,527.31" fill="none" stroke="hsla(353.2, 70%, 55%, 0.7)" stroke-width="1.2"/>
  <path d="M406.00,468.50 L403.06,467.89 L400.12,467.32 L397.19,466.65 L394.35,465.69 L391.74,464.22 L389.65,462.06 L388.55,459.27 L388.73,456.28 L390.06,453.59 L392.12,451.41 L394.57,449.68 L397.24,448.31 L400.03,447.21 L402.89,446.31 L405.81,445.60 L408.76,445.05 L411.73,444.67 L414.73,444.48 L417.73,444.48 L420.72,444.71 L423.68,445.19 L426.58,445.96 L429.38,447.04 L432.02,448.47 L434.44,450.23 L436.60,452.32 L438.43,454.70 L439.92,457.30 L441.09,460.06 L441.96,462.93 L442.58,465.87 L443.00,468.84 L443.27,471.83 L443.42,474.82 L443.48,477.82 L443.46,480.82 L443.38,483.82 L443.26,486.82 L443.10,489.81 L442.92,492.81 L442.72,495.80 L442.50,498.79 L442.29,501.79 L442.08,504.78 L441.87,507.77 L441.69,510.77 L441.53,513.76 L441.41,516.76 L441.33,519.76 L441.32,522.76 L441.38,525.76 L441.54,528.75 L441.82,531.74 L442.25,534.71 L442.87,537.64 L443.72,540.52 L444.87,543.29 L446.36,545.90 L448.25,548.23" fill="none" stroke="hsla(354.4, 70%, 55%, 0.7)" stroke-width="1.2"/>
  <path d="M468.50,468.50 L468.26,465.51 L468.09,462.51 L467.98,459.52 L467.93,456.52 L467.90,453.52 L467.91,450.52 L467.95,447.52 L468.03,444.52 L468.13,441.52 L468.28,438.52 L468.48,435.53 L468.75,432.54 L469.11,429.56 L469.57,426.60 L470.16,423.66 L470.90,420.75 L471.81,417.89 L472.89,415.09 L474.16,412.37 L475.60,409.74 L477.20,407.21 L478.94,404.76 L480.79,402.40 L482.73,400.11 L484.71,397.86 L486.71,395.63 L488.69,393.37 L490.61,391.06 L492.42,388.67 L494.09,386.18 L495.56,383.57 L496.80,380.83 L497.77,377.99 L498.42,375.07 L498.74,372.08 L498.73,369.08 L498.39,366.10 L497.73,363.18 L496.78,360.33 L495.58,357.58 L494.15,354.94 L492.54,352.41 L490.79,349.98 L488.92,347.63 L486.97,345.35 L484.96,343.12 L482.92,340.93 L480.85,338.75 L478.77,336.60 L476.67,334.45 L474.57,332.30 L472.46,330.18 L470.32,328.07 L468.14,326.01 L465.92,324.00 L463.62,322.07 L461.23,320.26 L458.73,318.60 L456.10,317.15" fill="none" stroke="hsla(355.6, 70%, 55%, 0.7)" stroke-width="1.2"/>
</svg>