<svg xmlns="http://www.w3.org/2000/svg" width="400" height="400" viewBox="0 0 400 400">
  <path d="M20.00,380.00 L20.00,368.39 L31.61,368.39 L31.61,380.00 L43.23,380.00 L54.84,380.00 L54.84,368.39 L43.23,368.39 L43.23,356.77 L54.84,356.77 L54.84,345.16 L43.23,345.16 L31.61,345.16 L31.61,356.77 L20.00,356.77 L20.00,345.16 L20.00,333.55 L31.61,333.55 L31.61,321.94 L20.00,321.94 L20.00,310.32 L20.00,298.71 L31.61,298.71 L31.61,310.32 L43.23,310.32 L43.23,298.71 L54.84,298.71 L54.84,310.32 L54.84,321.94 L43.23,321.94 L43.23,333.55 L54.84,333.55 L66.45,333.55 L78.06,333.55 L78.06,321.94 L66.45,321.94 L66.45,310.32 L66.45,298.71 L78.06,298.71 L78.06,310.32 L89.68,310.32 L89.68,298.71 L101.29,298.71 L101.29,310.32 L101.29,321.94 L89.68,321.94 L89.68,333.55 L101.29,333.55 L101.29,345.16 L101.29,356.77 L89.68,356.77 L89.68,345.16 L78.06,345.16 L66.45,345.16 L66.45,356.77 L78.06,356.77 L78.06,368.39 L66.45,368.39 L66.45,380.00 L78.06,380.00 L89.68,380.00 L89.68,368.39 L101.29,368.39 L101.29,380.00 L112.90,380.00 L124.52,380.00 L124.52,368.39 L112.90,368.39 L112.90,356.77 L112.90,345.16 L124.52,345.16 L124.52,356.77 L136.13,356.77 L136.13,345.16 L147.74,345.16 L147.74,356.77 L147.74,368.39 L136.13,368.39 L136.13,380.00 L147.74,380.00 L159.35,380.00 L159.35,368.39 L170.97,368.39 L170.97,380.00 L182.58,380.00 L194.19,380.00 L194.19,368.39 L182.58,368.39 L182.58,356.77 L194.19,356.77 L194.19,345.16 L182.58,345.16 L170.97,345.16 L170.97,356.77 L159.35,356.77 L159.35,345.16 L159.35,333.55 L159.35,321.94 L170.97,321.94 L170.97,333.55 L182.58,333.55 L194.19,333.55 L194.19,321.94 L182.58,321.94 L182.58,310.32 L194.19,310.32 L194.19,298.71 L182.58,298.71 L170.97,298.71 L170.97,310.32 L159.35,310.32 L159.35,298.71 L147.74,298.71 L136.13,298.71 L136.13,310.32 L147.74,310.32 L147.74,321.94 L147.74,333.55 L136.13,333.55 L136.13,321.94 L124.52,321.94 L124.52,333.55 L112.90,333.55 L112.90,321.94 L112.90,310.32 L124.52,310.32 L124.52,298.71 L112.90,298.71 L112.90,287.10 L124.52,287.10 L124.52,275.48 L112.90,275.48 L112.90,263.87 L112.90,252.26 L124.52,252.26 L124.52,263.87 L136.13,263.87 L136.13,252.26 L147.74,252.26 L147.74,263.87 L147.74,275.48 L136.13,275.48 L136.13,287.10 L147.74,287.10 L159.35,287.10 L159.35,275.48 L170.97,275.48 L170.97,287.10 L182.58,287.10 L194.19,287.10 L194.19,275.48 L182.58,275.48 L182.58,263.87 L194.19,263.87 L194.19,252.26 L182.58,252.26 L170.97,252.26 L170.97,263.87 L159.35,263.87 L159.35,252.26 L159.35,240.65 L159.35,229.03 L170.97,229.03 L170.97,240.65 L182.58,240.65 L194.19,240.65 L194.19,229.03 L182.58,229.03 L182.58,217.42 L194.19,217.42 L194.19,205.81 L182.58,205.81 L170.97,205.81 L170.97,217.42 L159.35,217.42 L159.35,205.81 L147.74,205.81 L136.13,205.81 L136.13,217.42 L147.74,217.42 L147.74,229.03 L147.74,240.65 L136.13,240.65 L136.13,229.03 L124.52,229.03 L124.52,240.65 L112.90,240.65 L112.90,229.03 L112.90,217.42 L124.52,217.42 L124.52,205.81 L112.90,205.81 L101.29,205.81 L101.29,217.42 L89.68,217.42 L89.68,205.81 L78.06,205.81 L66.45,205.81 L66.45,217.42 L78.06,217.42 L78.06,229.03 L66.45,229.03 L66.45,240.65 L78.06,240.65 L89.68,240.65 L89.68,229.03 L101.29,229.03 L101.29,240.65 L101.29,252.26 L89.68,252.26 L89.68,263.87 L101.29,263.87 L101.29,275.48 L101.29,287.10 L89.68,287.10 L89.68,275.48 L78.06,275.48 L78.06,287.10 L66.45,287.10 L66.45,275.48 L66.45,263.87 L78.06,263.87 L78.06,252.26 L66.45,252.26 L54.84,252.26 L43.23,252.26 L43.23,263.87 L54.84,263.87 L54.84,275.48 L54.84,287.10 L43.23,287.10 L43.23,275.48 L31.61,275.48 L31.61,287.10 L20.00,287.10 L20.00,275.48 L20.00,263.87 L31.61,263.87 L31.61,252.26 L20.00,252.26 L20.00,240.65 L20.00,229.03 L31.61,229.03 L31.61,240.65 L43.23,240.65 L54.84,240.65 L54.84,229.03 L43.23,229.03 L43.23,217.42 L54.84,217.42 L54.84,205.81 L43.23,205.81 L31.61,205.81 L31.61,217.42 L20.00,217.42 L20.00,205.81 L20.00,194.19 L31.61,194.19 L31.61,182.58 L20.00,182.58 L20.00,170.97 L20.00,159.35 L31.61,159.35 L31.61,170.97 L43.23,170.97 L43.23,159.35 L54.84,159.35 L54.84,170.97 L54.84,182.58 L43.23,182.58 L43.23,194.19 L54.84,194.19 L66.45,194.19 L66.45,182.58 L78.06,182.58 L78.06,194.19 L89.68,194.19 L101.29,194.19 L101.29,182.58 L89.68,182.58 L89.68,170.97 L101.29,170.97 L101.29,159.35 L89.68,159.35 L78.06,159.35 L78.06,170.97 L66.45,170.97 L66.45,159.35 L66.45,147.74 L66.45,136.13 L78.06,136.13 L78.06,147.74 L89.68,147.74 L101.29,147.74 L101.29,136.13 L89.68,136.13 L89.68,124.52 L101.29,124.52 L101.29,112.90 L89.68,112.90 L78.06,112.90 L78.06,124.52 L66.45,124.52 L66.45,112.90 L54.84,112.90 L43.23,112.90 L43.23,124.52 L54.84,124.52 L54.84,136.13 L54.84,147.74 L43.23,147.74 L43.23,136.13 L31.61,136.13 L31.61,147.74 L20.00,147.74 L20.00,136.13 L20.00,124.52 L31.61,124.52 L31.61,112.90 L20.00,112.90 L20.00,101.29 L20.00,89.68 L31.61,89.68 L31.61,101.29 L43.23,101.29 L54.84,101.29 L54.84,89.68 L43.23,89.68 L43.23,78.06 L54.84,78.06 L54.84,66.45 L43.23,66.45 L31.61,66.45 L31.61,78.06 L20.00,78.06 L20.00,66.45 L20.00,54.84 L31.61,54.84 L31.61,43.23 L20.00,43.23 L20.00,31.61 L20.00,20.00 L31.61,20.00 L31.61,31.61 L43.23,31.61 L43.23,20.00 L54.84,20.00 L54.84,31.61 L54.84,43.23 L43.23,43.23 L43.23,54.84 L54.84,54.84 L66.45,54.84 L78.06,54.84 L78.06,43.23 L66.45,43.23 L66.45,31.61 L66.45,20.00 L78.06,20.00 L78.06,31.61 L89.68,31.61 L89.68,20.00 L101.29,20.00 L101.29,31.61 L101.29,43.23 L89.68,43.23 L89.68,54.84 L101.29,54.84 L101.29,66.45 L101.29,78.06 L89.68,78.06 L89.68,66.45 L78.06,66.45 L66.45,66.45 L66.45,78.06 L78.06,78.06 L78.06,89.68 L66.45,89.68 L66.45,101.29 L78.06,101.29 L89.68,101.29 L89.68,89.68 L101.29,89.68 L101.29,101.29 L112.90,101.29 L112.90,89.68 L124.52,89.68 L124.52,101.29 L136.13,101.29 L147.74,101.29 L147.74,89.68 L136.13,89.68 L136.13,78.06 L147.74,78.06 L147.74,66.45 L136.13,66.45 L124.52,66.45 L124.52,78.06 L112.90,78.06 L112.90,66.45 L112.90,54.84 L124.52,54.84 L124.52,43.23 L112.90,43.23 L112.90,31.61 L112.90,20.00 L124.52,20.00 L124.52,31.61 L136.13,31.61 L136.13,20.00 L147.74,20.00 L147.74,31.61 L147.74,43.23 L136.13,43.23 L136.13,54.84 L147.74,54.84 L159.35,54.84 L170.97,54.84 L170.97,43.23 L159.35,43.23 L159.35,31.61 L159.35,20.00 L170.97,20.00 L170.97,31.61 L182.58,31.61 L182.58,20.00 L194.19,20.00 L194.19,31.61 L194.19,43.23 L182.58,43.23 L182.58,54.84 L194.19,54.84 L194.19,66.45 L194.19,78.06 L182.58,78.06 L182.58,66.45 L170.97,66.45 L159.35,66.45 L159.35,78.06 L170.97,78.06 L170.97,89.68 L159.35,89.68 L159.35,101.29 L170.97,101.29 L182.58,101.29 L182.58,89.68 L194.19,89.68 L194.19,101.29 L194.19,112.90 L182.58,112.90 L182.58,124.52 L194.19,124.52 L194.19,136.13 L194.19,147.74 L182.58,147.74 L182.58,136.13 L170.97,136.13 L170.97,147.74 L159.35,147.74 L159.35,136.13 L159.35,124.52 L170.97,124.52 L170.97,112.90 L159.35,112.90 L147.74,112.90 L147.74,124.52 L136.13,124.52 L136.13,112.90 L124.52,112.90 L112.90,112.90 L112.90,124.52 L124.52,124.52 L124.52,136.13 L112.90,136.13 L112.90,147.74 L124.52,147.74 L136.13,147.74 L136.13,136.13 L147.74,136.13 L147.74,147.74 L147.74,159.35 L147.74,170.97 L136.13,170.97 L136.13,159.35 L124.52,159.35 L112.90,159.35 L112.90,170.97 L124.52,170.97 L124.52,182.58 L112.90,182.58 L112.90,194.19 L124.52,194.19 L136.13,194.19 L136.13,182.58 L147.74,182.58 L147.74,194.19 L159.35,194.19 L170.97,194.19 L170.97,182.58 L159.35,182.58 L159.35,170.97 L159.35,159.35 L170.97,159.35 L170.97,170.97 L182.58,170.97 L182.58,159.35 L194.19,159.35 L194.19,170.97 L194.19,182.58 L182.58,182.58 L182.58,194.19 L194.19,194.19 L205.81,194.19 L217.42,194.19 L217.42,182.58 L205.81,182.58 L205.81,170.97 L205.81,159.35 L217.42,159.35 L217.42,170.97 L229.03,170.97 L229.03,159.35 L240.65,159.35 L240.65,170.97 L240.65,182.58 L229.03,182.58 L229.03,194.19 L240.65,194.19 L252.26,194.19 L252.26,182.58 L263.87,182.58 L263.87,194.19 L275.48,194.19 L287.10,194.19 L287.10,182.58 L275.48,182.58 L275.48,170.97 L287.10,170.97 L287.10,159.35 L275.48,159.35 L263.87,159.35 L263.87,170.97 L252.26,170.97 L252.26,159.35 L252.26,147.74 L252.26,136.13 L263.87,136.13 L263.87,147.74 L275.48,147.74 L287.10,147.74 L287.10,136.13 L275.48,136.13 L275.48,124.52 L287.10,124.52 L287.10,112.90 L275.48,112.90 L263.87,112.90 L263.87,124.52 L252.26,124.52 L252.26,112.90 L240.65,112.90 L229.03,112.90 L229.03,124.52 L240.65,124.52 L240.65,136.13 L240.65,147.74 L229.03,147.74 L229.03,136.13 L217.42,136.13 L217.42,147.74 L205.81,147.74 L205.81,136.13 L205.81,124.52 L217.42,124.52 L217.42,112.90 L205.81,112.90 L205.81,101.29 L205.81,89.68 L217.42,89.68 L217.42,101.29 L229.03,101.29 L240.65,101.29 L240.65,89.68 L229.03,89.68 L229.03,78.06 L240.65,78.06 L240.65,66.45 L229.03,66.45 L217.42,66.45 L217.42,78.06 L205.81,78.06 L205.81,66.45 L205.81,54.84 L217.42,54.84 L217.42,43.23 L205.81,43.23 L205.81,31.61 L205.81,20.00 L217.42,20.00 L217.42,31.61 L229.03,31.61 L229.03,20.00 L240.65,20.00 L240.65,31.61 L240.65,43.23 L229.03,43.23 L229.03,54.84 L240.65,54.84 L252.26,54.84 L263.87,54.84 L263.87,43.23 L252.26,43.23 L252.26,31.61 L252.26,20.00 L263.87,20.00 L263.87,31.61 L275.48,31.61 L275.48,20.00 L287.10,20.00 L287.10,31.61 L287.10,43.23 L275.48,43.23 L275.48,54.84 L287.10,54.84 L287.10,66.45 L287.10,78.06 L275.48,78.06 L275.48,66.45 L263.87,66.45 L252.26,66.45 L252.26,78.06 L263.87,78.06 L263.87,89.68 L252.26,89.68 L252.26,101.29 L263.87,101.29 L275.48,101.29 L275.48,89.68 L287.10,89.68 L287.10,101.29 L298.71,101.29 L298.71,89.68 L310.32,89.68 L310.32,101.29 L321.94,101.29 L333.55,101.29 L333.55,89.68 L321.94,89.68 L321.94,78.06 L333.55,78.06 L333.55,66.45 L321.94,66.45 L310.32,66.45 L310.32,78.06 L298.71,78.06 L298.71,66.45 L298.71,54.84 L310.32,54.84 L310.32,43.23 L298.71,43.23 L298.71,31.61 L298.71,20.00 L310.32,20.00 L310.32,31.61 L321.94,31.61 L321.94,20.00 L333.55,20.00 L333.55,31.61 L333.55,43.23 L321.94,43.23 L321.94,54.84 L333.55,54.84 L345.16,54.84 L356.77,54.84 L356.77,43.23 L345.16,43.23 L345.16,31.61 L345.16,20.00 L356.77,20.00 L356.77,31.61 L368.39,31.61 L368.39,20.00 L380.00,20.00 L380.00,31.61 L380.00,43.23 L368.39,43.23 L368.39,54.84 L380.00,54.84 L380.00,66.45 L380.00,78.06 L368.39,78.06 L368.39,66.45 L356.77,66.45 L345.16,66.45 L345.16,78.06 L356.77,78.06 L356.77,89.68 L345.16,89.68 L345.16,101.29 L356.77,101.29 L368.39,101.29 L368.39,89.68 L380.00,89.68 L380.00,101.29 L380.00,112.90 L368.39,112.90 L368.39,124.52 L380.00,124.52 L380.00,136.13 L380.00,147.74 L368.39,147.74 L368.39,136.13 L356.77,136.13 L356.77,147.74 L345.16,147.74 L345.16,136.13 L345.16,124.52 L356.77,124.52 L356.77,112.90 L345.16,112.90 L333.55,112.90 L333.55,124.52 L321.94,124.52 L321.94,112.90 L310.32,112.90 L298.71,112.90 L298.71,124.52 L310.32,124.52 L310.32,136.13 L298.71,136.13 L298.71,147.74 L310.32,147.74 L321.94,147.74 L321.94,136.13 L333.55,136.13 L333.55,147.74 L333.55,159.35 L333.55,170.97 L321.94,170.97 L321.94,159.35 L310.32,159.35 L298.71,159.35 L298.71,170.97 L310.32,170.97 L310.32,182.58 L298.71,182.58 L298.71,194.19 L310.32,194.19 L321.94,194.19 L321.94,182.58 L333.55,182.58 L333.55,194.19 L345.16,194.19 L356.77,194.19 L356.77,182.58 L345.16,182.58 L345.16,170.97 L345.16,159.35 L356.77,159.35 L356.77,170.97 L368.39,170.97 L368.39,159.35 L380.00,159.35 L380.00,170.97 L380.00,182.58 L368.39,182.58 L368.39,194.19 L380.00,194.19 L380.00,205.81 L380.00,217.42 L368.39,217.42 L368.39,205.81 L356.77,205.81 L345.16,205.81 L345.16,217.42 L356.77,217.42 L356.77,229.03 L345.16,229.03 L345.16,240.65 L356.77,240.65 L368.39,240.65 L368.39,229.03 L380.00,229.03 L380.00,240.65 L380.00,252.26 L368.39,252.26 L368.39,263.87 L380.00,263.87 L380.00,275.48 L380.00,287.10 L368.39,287.10 L368.39,275.48 L356.77,275.48 L356.77,287.10 L345.16,287.10 L345.16,275.48 L345.16,263.87 L356.77,263.87 L356.77,252.26 L345.16,252.26 L333.55,252.26 L321.94,252.26 L321.94,263.87 L333.55,263.87 L333.55,275.48 L333.55,287.10 L321.94,287.10 L321.94,275.48 L310.32,275.48 L310.32,287.10 L298.71,287.10 L298.71,275.48 L298.71,263.87 L310.32,263.87 L310.32,252.26 L298.71,252.26 L298.71,240.65 L298.71,229.03 L310.32,229.03 L310.32,240.65 L321.94,240.65 L333.55,240.65 L333.55,229.03 L321.94,229.03 L321.94,217.42 L333.55,217.42 L333.55,205.81 L321.94,205.81 L310.32,205.81 L310.32,217.42 L298.71,217.42 L298.71,205.81 L287.10,205.81 L275.48,205.81 L275.48,217.42 L287.10,217.42 L287.10,229.03 L287.10,240.65 L275.48,240.65 L275.48,229.03 L263.87,229.03 L263.87,240.65 L252.26,240.65 L252.26,229.03 L252.26,217.42 L263.87,217.42 L263.87,205.81 L252.26,205.81 L240.65,205.81 L240.65,217.42 L229.03,217.42 L229.03,205.81 L217.42,205.81 L205.81,205.81 L205.81,217.42 L217.42,217.42 L217.42,229.03 L205.81,229.03 L205.81,240.65 L217.42,240.65 L229.03,240.65 L229.03,229.03 L240.65,229.03 L240.65,240.65 L240.65,252.26 L240.65,263.87 L229.03,263.87 L229.03,252.26 L217.42,252.26 L205.81,252.26 L205.81,263.87 L217.42,263.87 L217.42,275.48 L205.81,275.48 L205.81,287.10 L217.42,287.10 L229.03,287.10 L229.03,275.48 L240.65,275.48 L240.65,287.10 L252.26,287.10 L263.87,287.10 L263.87,275.48 L252.26,275.48 L252.26,263.87 L252.26,252.26 L263.87,252.26 L263.87,263.87 L275.48,263.87 L275.48,252.26 L287.10,252.26 L287.10,263.87 L287.10,275.48 L275.48,275.48 L275.48,287.10 L287.10,287.10 L287.10,298.71 L275.48,298.71 L275.48,310.32 L287.10,310.32 L287.10,321.94 L287.10,333.55 L275.48,333.55 L275.48,321.94 L263.87,321.94 L263.87,333.55 L252.26,333.55 L252.26,321.94 L252.26,310.32 L263.87,310.32 L263.87,298.71 L252.26,298.71 L240.65,298.71 L240.65,310.32 L229.03,310.32 L229.03,298.71 L217.42,298.71 L205.81,298.71 L205.81,310.32 L217.42,310.32 L217.42,321.94 L205.81,321.94 L205.81,333.55 L217.42,333.55 L229.03,333.55 L229.03,321.94 L240.65,321.94 L240.65,333.55 L240.65,345.16 L240.65,356.77 L229.03,356.77 L229.03,345.16 L217.42,345.16 L205.81,345.16 L205.81,356.77 L217.42,356.77 L217.42,368.39 L205.81,368.39 L205.81,380.00 L217.42,380.00 L229.03,380.00 L229.03,368.39 L240.65,368.39 L240.65,380.00 L252.26,380.00 L263.87,380.00 L263.87,368.39 L252.26,368.39 L252.26,356.77 L252.26,345.16 L263.87,345.16 L263.87,356.77 L275.48,356.77 L275.48,345.16 L287.10,345.16 L287.10,356.77 L287.10,368.39 L275.48,368.39 L275.48,380.00 L287.10,380.00 L298.71,380.00 L298.71,368.39 L310.32,368.39 L310.32,380.00 L321.94,380.00 L333.55,380.00 L333.55,368.39 L321.94,368.39 L321.94,356.77 L333.55,356.77 L333.55,345.16 L321.94,345.16 L310.32,345.16 L310.32,356.77 L298.71,356.77 L298.71,345.16 L298.71,333.55 L310.32,333.55 L310.32,321.94 L298.71,321.94 L298.71,310.32 L298.71,298.71 L310.32,298.71 L310.32,310.32 L321.94,310.32 L321.94,298.71 L333.55,298.71 L333.55,310.32 L333.55,321.94 L321.94,321.94 L321.94,333.55 L333.55,333.55 L345.16,333.55 L356.77,333.55 L356.77,321.94 L345.16,321.94 L345.16,310.32 L345.16,298.71 L356.77,298.71 L356.77,310.32 L368.39,310.32 L368.39,298.71 L380.00,298.71 L380.00,310.32 L380.00,321.94 L368.39,321.94 L368.39,333.55 L380.00,333.55 L380.00,345.16 L380.00,356.77 L368.39,356.77 L368.39,345.16 L356.77,345.16 L345.16,345.16 L345.16,356.77 L356.77,356.77 L356.77,368.39 L345.16,368.39 L345.16,380.00 L356.77,380.00 L368.39,380.00 L368.39,368.39 L380.00,368.39 L380.00,380.00" fill="none" stroke="darkgreen" stroke-width="1"/>
</svg>