<svg xmlns="http://www.w3.org/2000/svg" width="500" height="400" viewBox="0 0 500 400">
  <path d="M200.00,250.00 L204.86,250.00 L204.86,254.86 L200.00,254.86 L200.00,259.72 L195.14,259.72 L195.14,254.86 L190.28,254.86 L190.28,259.72 L185.42,259.72 L185.42,254.86 L190.28,254.86 L190.28,250.00 L185.42,250.00 L185.42,245.14 L180.57,245.14 L180.57,250.00 L175.71,250.00 L175.71,245.14 L180.57,245.14 L180.57,240.28 L185.42,240.28 L185.42,245.14 L190.28,245.14 L190.28,240.28 L185.42,240.28 L185.42,235.42 L190.28,235.42 L190.28,230.57 L185.42,230.57 L185.42,225.71 L180.57,225.71 L180.57,230.57 L175.71,230.57 L175.71,225.71 L180.57,225.71 L180.57,220.85 L185.42,220.85 L185.42,225.71 L190.28,225.71 L190.28,220.85 L195.14,220.85 L195.14,225.71 L190.28,225.71 L190.28,230.57 L195.14,230.57 L195.14,235.42 L200.00,235.42 L200.00,230.57 L195.14,230.57 L195.14,225.71 L200.00,225.71 L200.00,220.85 L204.86,220.85 L204.86,225.71 L209.72,225.71 L209.72,220.85 L204.86,220.85 L204.86,215.99 L209.72,215.99 L209.72,211.13 L204.86,211.13 L204.86,206.27 L200.00,206.27 L200.00,211.13 L195.14,211.13 L195.14,206.27 L200.00,206.27 L200.00,201.42 L204.86,201.42 L204.86,206.27 L209.72,206.27 L209.72,201.42 L214.58,201.42 L214.58,206.27 L209.72,206.27 L209.72,211.13 L214.58,211.13 L214.58,215.99 L219.43,215.99 L219.43,211.13 L224.29,211.13 L224.29,215.99 L219.43,215.99 L219.43,220.85 L214.58,220.85 L214.58,215.99 L209.72,215.99 L209.72,220.85 L214.58,220.85 L214.58,225.71 L209.72,225.71 L209.72,230.57 L214.58,230.57 L214.58,235.42 L219.43,235.42 L219.43,230.57 L214.58,230.57 L214.58,225.71 L219.43,225.71 L219.43,220.85 L224.29,220.85 L224.29,225.71 L229.15,225.71 L229.15,220.85 L234.01,220.85 L234.01,225.71 L229.15,225.71 L229.15,230.57 L234.01,230.57 L234.01,235.42 L238.87,235.42 L238.87,230.57 L234.01,230.57 L234.01,225.71 L238.87,225.71 L238.87,220.85 L243.73,220.85 L243.73,225.71 L248.58,225.71 L248.58,220.85 L243.73,220.85 L243.73,215.99 L248.58,215.99 L248.58,211.13 L243.73,211.13 L243.73,206.27 L238.87,206.27 L238.87,211.13 L234.01,211.13 L234.01,206.27 L238.87,206.27 L238.87,201.42 L243.73,201.42 L243.73,206.27 L248.58,206.27 L248.58,201.42 L253.44,201.42 L253.44,206.27 L248.58,206.27 L248.58,211.13 L253.44,211.13 L253.44,215.99 L258.30,215.99 L258.30,211.13 L263.16,211.13 L263.16,215.99 L258.30,215.99 L258.30,220.85 L253.44,220.85 L253.44,215.99 L248.58,215.99 L248.58,220.85 L253.44,220.85 L253.44,225.71 L248.58,225.71 L248.58,230.57 L253.44,230.57 L253.44,235.42 L258.30,235.42 L258.30,230.57 L263.16,230.57 L263.16,235.42 L258.30,235.42 L258.30,240.28 L253.44,240.28 L253.44,235.42 L248.58,235.42 L248.58,240.28 L243.73,240.28 L243.73,235.42 L248.58,235.42 L248.58,230.57 L243.73,230.57 L243.73,225.71 L238.87,225.71 L238.87,230.57 L243.73,230.57 L243.73,235.42 L238.87,235.42 L238.87,240.28 L234.01,240.28 L234.01,235.42 L229.15,235.42 L229.15,240.28 L234.01,240.28 L234.01,245.14 L229.15,245.14 L229.15,250.00 L234.01,250.00 L234.01,254.86 L238.87,254.86 L238.87,250.00 L234.01,250.00 L234.01,245.14 L238.87,245.14 L238.87,240.28 L243.73,240.28 L243.73,245.14 L248.58,245.14 L248.58,240.28 L253.44,240.28 L253.44,245.14 L248.58,245.14 L248.58,250.00 L253.44,250.00 L253.44,254.86 L258.30,254.86 L258.30,250.00 L263.16,250.00 L263.16,254.86 L258.30,254.86 L258.30,259.72 L253.44,259.72 L253.44,254.86 L248.58,254.86 L248.58,259.72 L253.44,259.72 L253.44,264.58 L248.58,264.58 L248.58,269.43 L253.44,269.43 L253.44,274.29 L258.30,274.29 L258.30,269.43 L253.44,269.43 L253.44,264.58 L258.30,264.58 L258.30,259.72 L263.16,259.72 L263.16,264.58 L268.02,264.58 L268.02,259.72 L272.88,259.72 L272.88,264.58 L268.02,264.58 L268.02,269.43 L272.88,269.43 L272.88,274.29 L277.73,274.29 L277.73,269.43 L272.88,269.43 L272.88,264.58 L277.73,264.58 L277.73,259.72 L282.59,259.72 L282.59,264.58 L287.45,264.58 L287.45,259.72 L282.59,259.72 L282.59,254.86 L287.45,254.86 L287.45,250.00 L282.59,250.00 L282.59,245.14 L277.73,245.14 L277.73,250.00 L272.88,250.00 L272.88,245.14 L277.73,245.14 L277.73,240.28 L282.59,240.28 L282.59,245.14 L287.45,245.14 L287.45,240.28 L292.31,240.28 L292.31,245.14 L287.45,245.14 L287.45,250.00 L292.31,250.00 L292.31,254.86 L297.17,254.86 L297.17,250.00 L302.03,250.00 L302.03,254.86 L297.17,254.86 L297.17,259.72 L292.31,259.72 L292.31,254.86 L287.45,254.86 L287.45,259.72 L292.31,259.72 L292.31,264.58 L287.45,264.58 L287.45,269.43 L292.31,269.43 L292.31,274.29 L297.17,274.29 L297.17,269.43 L302.03,269.43 L302.03,274.29 L297.17,274.29 L297.17,279.15 L292.31,279.15 L292.31,274.29 L287.45,274.29 L287.45,279.15 L282.59,279.15 L282.59,274.29 L287.45,274.29 L287.45,269.43 L282.59,269.43 L282.59,264.58 L277.73,264.58 L277.73,269.43 L282.59,269.43 L282.59,274.29 L277.73,274.29 L277.73,279.15 L272.88,279.15 L272.88,274.29 L268.02,274.29 L268.02,279.15 L272.88,279.15 L272.88,284.01 L268.02,284.01 L268.02,288.87 L272.88,288.87 L272.88,293.73 L277.73,293.73 L277.73,288.87 L282.59,288.87 L282.59,293.73 L277.73,293.73 L277.73,298.58 L272.88,298.58 L272.88,293.73 L268.02,293.73 L268.02,298.58 L263.16,298.58 L263.16,293.73 L268.02,293.73 L268.02,288.87 L263.16,288.87 L263.16,284.01 L258.30,284.01 L258.30,288.87 L253.44,288.87 L253.44,284.01 L258.30,284.01 L258.30,279.15 L263.16,279.15 L263.16,284.01 L268.02,284.01 L268.02,279.15 L263.16,279.15 L263.16,274.29 L268.02,274.29 L268.02,269.43 L263.16,269.43 L263.16,264.58 L258.30,264.58 L258.30,269.43 L263.16,269.43 L263.16,274.29 L258.30,274.29 L258.30,279.15 L253.44,279.15 L253.44,274.29 L248.58,274.29 L248.58,279.15 L243.73,279.15 L243.73,274.29 L248.58,274.29 L248.58,269.43 L243.73,269.43 L243.73,264.58 L238.87,264.58 L238.87,269.43 L243.73,269.43 L243.73,274.29 L238.87,274.29 L238.87,279.15 L234.01,279.15 L234.01,274.29 L229.15,274.29 L229.15,279.15 L234.01,279.15 L234.01,284.01 L229.15,284.01 L229.15,288.87 L234.01,288.87 L234.01,293.73 L238.87,293.73 L238.87,288.87 L234.01,288.87 L234.01,284.01 L238.87,284.01 L238.87,279.15 L243.73,279.15 L243.73,284.01 L248.58,284.01 L248.58,279.15 L253.44,279.15 L253.44,284.01 L248.58,284.01 L248.58,288.87 L253.44,288.87 L253.44,293.73 L258.30,293.73 L258.30,288.87 L263.16,288.87 L263.16,293.73 L258.30,293.73 L258.30,298.58 L253.44,298.58 L253.44,293.73 L248.58,293.73 L248.58,298.58 L253.44,298.58 L253.44,303.44 L248.58,303.44 L248.58,308.30 L253.44,308.30 L253.44,313.16 L258.30,313.16 L258.30,308.30 L263.16,308.30 L263.16,313.16 L258.30,313.16 L258.30,318.02 L253.44,318.02 L253.44,313.16 L248.58,313.16 L248.58,318.02 L243.73,318.02 L243.73,313.16 L248.58,313.16 L248.58,308.30 L243.73,308.30 L243.73,303.44 L238.87,303.44 L238.87,308.30 L243.73,308.30 L243.73,313.16 L238.87,313.16 L238.87,318.02 L234.01,318.02 L234.01,313.16 L229.15,313.16 L229.15,318.02 L234.01,318.02 L234.01,322.88 L229.15,322.88 L229.15,327.73 L234.01,327.73 L234.01,332.59 L238.87,332.59 L238.87,327.73 L234.01,327.73 L234.01,322.88 L238.87,322.88 L238.87,318.02 L243.73,318.02 L243.73,322.88 L248.58,322.88 L248.58,318.02 L253.44,318.02 L253.44,322.88 L248.58,322.88 L248.58,327.73 L253.44,327.73 L253.44,332.59 L258.30,332.59 L258.30,327.73 L263.16,327.73 L263.16,332.59 L258.30,332.59 L258.30,337.45 L253.44,337.45 L253.44,332.59 L248.58,332.59 L248.58,337.45 L253.44,337.45 L253.44,342.31 L248.58,342.31 L248.58,347.17 L253.44,347.17 L253.44,352.03 L258.30,352.03 L258.30,347.17 L253.44,347.17 L253.44,342.31 L258.30,342.31 L258.30,337.45 L263.16,337.45 L263.16,342.31 L268.02,342.31 L268.02,337.45 L272.88,337.45 L272.88,342.31 L268.02,342.31 L268.02,347.17 L272.88,347.17 L272.88,352.03 L277.73,352.03 L277.73,347.17 L272.88,347.17 L272.88,342.31 L277.73,342.31 L277.73,337.45 L282.59,337.45 L282.59,342.31 L287.45,342.31 L287.45,337.45 L282.59,337.45 L282.59,332.59 L287.45,332.59 L287.45,327.73 L282.59,327.73 L282.59,322.88 L277.73,322.88 L277.73,327.73 L272.88,327.73 L272.88,322.88 L277.73,322.88 L277.73,318.02 L282.59,318.02 L282.59,322.88 L287.45,322.88 L287.45,318.02 L292.31,318.02 L292.31,322.88 L287.45,322.88 L287.45,327.73 L292.31,327.73 L292.31,332.59 L297.17,332.59 L297.17,327.73 L302.03,327.73 L302.03,332.59 L297.17,332.59 L297.17,337.45 L292.31,337.45 L292.31,332.59 L287.45,332.59 L287.45,337.45 L292.31,337.45 L292.31,342.31 L287.45,342.31 L287.45,347.17 L292.31,347.17 L292.31,352.03 L297.17,352.03 L297.17,347.17 L302.03,347.17 L302.03,352.03 L297.17,352.03 L297.17,356.88 L292.31,356.88 L292.31,352.03 L287.45,352.03 L287.45,356.88 L282.59,356.88 L282.59,352.03 L287.45,352.03 L287.45,347.17 L282.59,347.17 L282.59,342.31 L277.73,342.31 L277.73,347.17 L282.59,347.17 L282.59,352.03 L277.73,352.03 L277.73,356.88 L272.88,356.88 L272.88,352.03 L268.02,352.03 L268.02,356.88 L272.88,356.88 L272.88,361.74 L268.02,361.74 L268.02,366.60 L272.88,366.60 L272.88,371.46 L277.73,371.46 L277.73,366.60 L282.59,366.60 L282.59,371.46 L277.73,371.46 L277.73,376.32 L272.88,376.32 L272.88,371.46 L268.02,371.46 L268.02,376.32 L263.16,376.32 L263.16,371.46 L268.02,371.46 L268.02,366.60 L263.16,366.60 L263.16,361.74 L258.30,361.74 L258.30,366.60 L253.44,366.60 L253.44,361.74 L258.30,361.74 L258.30,356.88 L263.16,356.88 L263.16,361.74 L268.02,361.74 L268.02,356.88 L263.16,356.88 L263.16,352.03 L268.02,352.03 L268.02,347.17 L263.16,347.17 L263.16,342.31 L258.30,342.31 L258.30,347.17 L263.16,347.17 L263.16,352.03 L258.30,352.03 L258.30,356.88 L253.44,356.88 L253.44,352.03 L248.58,352.03 L248.58,356.88 L243.73,356.88 L243.73,352.03 L248.58,352.03 L248.58,347.17 L243.73,347.17 L243.73,342.31 L238.87,342.31 L238.87,347.17 L243.73,347.17 L243.73,352.03 L238.87,352.03 L238.87,356.88 L234.01,356.88 L234.01,352.03 L229.15,352.03 L229.15,356.88 L234.01,356.88 L234.01,361.74 L229.15,361.74 L229.15,366.60 L234.01,366.60 L234.01,371.46 L238.87,371.46 L238.87,366.60 L243.73,366.60 L243.73,371.46 L238.87,371.46 L238.87,376.32 L234.01,376.32 L234.01,371.46 L229.15,371.46 L229.15,376.32 L224.29,376.32 L224.29,371.46 L229.15,371.46 L229.15,366.60 L224.29,366.60 L224.29,361.74 L219.43,361.74 L219.43,366.60 L214.58,366.60 L214.58,361.74 L219.43,361.74 L219.43,356.88 L224.29,356.88 L224.29,361.74 L229.15,361.74 L229.15,356.88 L224.29,356.88 L224.29,352.03 L229.15,352.03 L229.15,347.17 L224.29,347.17 L224.29,342.31 L219.43,342.31 L219.43,347.17 L214.58,347.17 L214.58,342.31 L219.43,342.31 L219.43,337.45 L224.29,337.45 L224.29,342.31 L229.15,342.31 L229.15,337.45 L234.01,337.45 L234.01,342.31 L229.15,342.31 L229.15,347.17 L234.01,347.17 L234.01,352.03 L238.87,352.03 L238.87,347.17 L234.01,347.17 L234.01,342.31 L238.87,342.31 L238.87,337.45 L243.73,337.45 L243.73,342.31 L248.58,342.31 L248.58,337.45 L243.73,337.45 L243.73,332.59 L248.58,332.59 L248.58,327.73 L243.73,327.73 L243.73,322.88 L238.87,322.88 L238.87,327.73 L243.73,327.73 L243.73,332.59 L238.87,332.59 L238.87,337.45 L234.01,337.45 L234.01,332.59 L229.15,332.59 L229.15,337.45 L224.29,337.45 L224.29,332.59 L229.15,332.59 L229.15,327.73 L224.29,327.73 L224.29,322.88 L219.43,322.88 L219.43,327.73 L214.58,327.73 L214.58,322.88 L219.43,322.88 L219.43,318.02 L224.29,318.02 L224.29,322.88 L229.15,322.88 L229.15,318.02 L224.29,318.02 L224.29,313.16 L229.15,313.16 L229.15,308.30 L224.29,308.30 L224.29,303.44 L219.43,303.44 L219.43,308.30 L224.29,308.30 L224.29,313.16 L219.43,313.16 L219.43,318.02 L214.58,318.02 L214.58,313.16 L209.72,313.16 L209.72,318.02 L204.86,318.02 L204.86,313.16 L209.72,313.16 L209.72,308.30 L204.86,308.30 L204.86,303.44 L200.00,303.44 L200.00,308.30 L204.86,308.30 L204.86,313.16 L200.00,313.16 L200.00,318.02 L195.14,318.02 L195.14,313.16 L190.28,313.16 L190.28,318.02 L195.14,318.02 L195.14,322.88 L190.28,322.88 L190.28,327.73 L195.14,327.73 L195.14,332.59 L200.00,332.59 L200.00,327.73 L195.14,327.73 L195.14,322.88 L200.00,322.88 L200.00,318.02 L204.86,318.02 L204.86,322.88 L209.72,322.88 L209.72,318.02 L214.58,318.02 L214.58,322.88 L209.72,322.88 L209.72,327.73 L214.58,327.73 L214.58,332.59 L219.43,332.59 L219.43,327.73 L224.29,327.73 L224.29,332.59 L219.43,332.59 L219.43,337.45 L214.58,337.45 L214.58,332.59 L209.72,332.59 L209.72,337.45 L214.58,337.45 L214.58,342.31 L209.72,342.31 L209.72,347.17 L214.58,347.17 L214.58,352.03 L219.43,352.03 L219.43,347.17 L224.29,347.17 L224.29,352.03 L219.43,352.03 L219.43,356.88 L214.58,356.88 L214.58,352.03 L209.72,352.03 L209.72,356.88 L204.86,356.88 L204.86,352.03 L209.72,352.03 L209.72,347.17 L204.86,347.17 L204.86,342.31 L200.00,342.31 L200.00,347.17 L204.86,347.17 L204.86,352.03 L200.00,352.03 L200.00,356.88 L195.14,356.88 L195.14,352.03 L190.28,352.03 L190.28,356.88 L195.14,356.88 L195.14,361.74 L190.28,361.74 L190.28,366.60 L195.14,366.60 L195.14,371.46 L200.00,371.46 L200.00,366.60 L204.86,366.60 L204.86,371.46 L200.00,371.46 L200.00,376.32 L195.14,376.32 L195.14,371.46 L190.28,371.46 L190.28,376.32 L185.42,376.32 L185.42,371.46 L190.28,371.46 L190.28,366.60 L185.42,366.60 L185.42,361.74 L180.57,361.74 L180.57,366.60 L175.71,366.60 L175.71,361.74 L180.57,361.74 L180.57,356.88 L185.42,356.88 L185.42,361.74 L190.28,361.74 L190.28,356.88 L185.42,356.88 L185.42,352.03 L190.28,352.03 L190.28,347.17 L185.42,347.17 L185.42,342.31 L180.57,342.31 L180.57,347.17 L185.42,347.17 L185.42,352.03 L180.57,352.03 L180.57,356.88 L175.71,356.88 L175.71,352.03 L170.85,352.03 L170.85,356.88 L165.99,356.88 L165.99,352.03 L170.85,352.03 L170.85,347.17 L165.99,347.17 L165.99,342.31 L161.13,342.31 L161.13,347.17 L165.99,347.17 L165.99,352.03 L161.13,352.03 L161.13,356.88 L156.27,356.88 L156.27,352.03 L151.42,352.03 L151.42,356.88 L156.27,356.88 L156.27,361.74 L151.42,361.74 L151.42,366.60 L156.27,366.60 L156.27,371.46 L161.13,371.46 L161.13,366.60 L156.27,366.60 L156.27,361.74 L161.13,361.74 L161.13,356.88 L165.99,356.88 L165.99,361.74 L170.85,361.74 L170.85,356.88 L175.71,356.88 L175.71,361.74 L170.85,361.74 L170.85,366.60 L175.71,366.60 L175.71,371.46 L180.57,371.46 L180.57,366.60 L185.42,366.60 L185.42,371.46 L180.57,371.46 L180.57,376.32 L175.71,376.32 L175.71,371.46 L170.85,371.46 L170.85,376.32 L175.71,376.32 L175.71,381.18 L170.85,381.18 L170.85,386.03 L175.71,386.03 L175.71,390.89 L180.57,390.89 L180.57,386.03 L185.42,386.03 L185.42,390.89 L180.57,390.89 L180.57,395.75 L175.71,395.75 L175.71,390.89 L170.85,390.89 L170.85,395.75 L165.99,395.75 L165.99,390.89 L170.85,390.89 L170.85,386.03 L165.99,386.03 L165.99,381.18 L161.13,381.18 L161.13,386.03 L165.99,386.03 L165.99,390.89 L161.13,390.89 L161.13,395.75 L156.27,395.75 L156.27,390.89 L151.42,390.89 L151.42,395.75 L156.27,395.75 L156.27,400.61 L151.42,400.61 L151.42,405.47 L156.27,405.47 L156.27,410.33 L161.13,410.33 L161.13,405.47 L156.27,405.47 L156.27,400.61 L161.13,400.61 L161.13,395.75 L165.99,395.75 L165.99,400.61 L170.85,400.61 L170.85,395.75 L175.71,395.75 L175.71,400.61 L170.85,400.61 L170.85,405.47 L175.71,405.47 L175.71,410.33 L180.57,410.33 L180.57,405.47 L185.42,405.47 L185.42,410.33 L180.57,410.33 L180.57,415.19 L175.71,415.19 L175.71,410.33 L170.85,410.33 L170.85,415.19 L175.71,415.19 L175.71,420.04 L170.85,420.04 L170.85,424.90 L175.71,424.90 L175.71,429.76 L180.57,429.76 L180.57,424.90 L175.71,424.90 L175.71,420.04 L180.57,420.04 L180.57,415.19 L185.42,415.19 L185.42,420.04 L190.28,420.04 L190.28,415.19 L195.14,415.19 L195.14,420.04 L190.28,420.04 L190.28,424.90 L195.14,424.90 L195.14,429.76 L200.00,429.76 L200.00,424.90 L195.14,424.90 L195.14,420.04 L200.00,420.04 L200.00,415.19 L204.86,415.19 L204.86,420.04 L209.72,420.04 L209.72,415.19 L204.86,415.19 L204.86,410.33 L209.72,410.33 L209.72,405.47 L204.86,405.47 L204.86,400.61 L200.00,400.61 L200.00,405.47 L195.14,405.47 L195.14,400.61 L200.00,400.61 L200.00,395.75 L204.86,395.75 L204.86,400.61 L209.72,400.61 L209.72,395.75 L214.58,395.75 L214.58,400.61 L209.72,400.61 L209.72,405.47 L214.58,405.47 L214.58,410.33 L219.43,410.33 L219.43,405.47 L224.29,405.47 L224.29,410.33 L219.43,410.33 L219.43,415.19 L214.58,415.19 L214.58,410.33 L209.72,410.33 L209.72,415.19 L214.58,415.19 L214.58,420.04 L209.72,420.04 L209.72,424.90 L214.58,424.90 L214.58,429.76 L219.43,429.76 L219.43,424.90 L224.29,424.90 L224.29,429.76 L219.43,429.76 L219.43,434.62 L214.58,434.62 L214.58,429.76 L209.72,429.76 L209.72,434.62 L204.86,434.62 L204.86,429.76 L209.72,429.76 L209.72,424.90 L204.86,424.90 L204.86,420.04 L200.00,420.04 L200.00,424.90 L204.86,424.90 L204.86,429.76 L200.00,429.76 L200.00,434.62 L195.14,434.62 L195.14,429.76 L190.28,429.76 L190.28,434.62 L195.14,434.62 L195.14,439.48 L190.28,439.48 L190.28,444.34 L195.14,444.34 L195.14,449.19 L200.00,449.19 L200.00,444.34 L204.86,444.34 L204.86,449.19 L200.00,449.19 L200.00,454.05 L195.14,454.05 L195.14,449.19 L190.28,449.19 L190.28,454.05 L185.42,454.05 L185.42,449.19 L190.28,449.19 L190.28,444.34 L185.42,444.34 L185.42,439.48 L180.57,439.48 L180.57,444.34 L175.71,444.34 L175.71,439.48 L180.57,439.48 L180.57,434.62 L185.42,434.62 L185.42,439.48 L190.28,439.48 L190.28,434.62 L185.42,434.62 L185.42,429.76 L190.28,429.76 L190.28,424.90 L185.42,424.90 L185.42,420.04 L180.57,420.04 L180.57,424.90 L185.42,424.90 L185.42,429.76 L180.57,429.76 L180.57,434.62 L175.71,434.62 L175.71,429.76 L170.85,429.76 L170.85,434.62 L165.99,434.62 L165.99,429.76 L170.85,429.76 L170.85,424.90 L165.99,424.90 L165.99,420.04 L161.13,420.04 L161.13,424.90 L165.99,424.90 L165.99,429.76 L161.13,429.76 L161.13,434.62 L156.27,434.62 L156.27,429.76 L151.42,429.76 L151.42,434.62 L156.27,434.62 L156.27,439.48 L151.42,439.48 L151.42,444.34 L156.27,444.34 L156.27,449.19 L161.13,449.19 L161.13,444.34 L165.99,444.34 L165.99,449.19 L161.13,449.19 L161.13,454.05 L156.27,454.05 L156.27,449.19 L151.42,449.19 L151.42,454.05 L146.56,454.05 L146.56,449.19 L151.42,449.19 L151.42,444.34 L146.56,444.34 L146.56,439.48 L141.70,439.48 L141.70,444.34 L136.84,444.34 L136.84,439.48 L141.70,439.48 L141.70,434.62 L146.56,434.62 L146.56,439.48 L151.42,439.48 L151.42,434.62 L146.56,434.62 L146.56,429.76 L151.42,429.76 L151.42,424.90 L146.56,424.90 L146.56,420.04 L141.70,420.04 L141.70,424.90 L136.84,424.90 L136.84,420.04 L141.70,420.04 L141.70,415.19 L146.56,415.19 L146.56,420.04 L151.42,420.04 L151.42,415.19 L156.27,415.19 L156.27,420.04 L151.42,420.04 L151.42,424.90 L156.27,424.90 L156.27,429.76 L161.13,429.76 L161.13,424.90 L156.27,424.90 L156.27,420.04 L161.13,420.04 L161.13,415.19 L165.99,415.19 L165.99,420.04 L170.85,420.04 L170.85,415.19 L165.99,415.19 L165.99,410.33 L170.85,410.33 L170.85,405.47 L165.99,405.47 L165.99,400.61 L161.13,400.61 L161.13,405.47 L165.99,405.47 L165.99,410.33 L161.13,410.33 L161.13,415.19 L156.27,415.19 L156.27,410.33 L151.42,410.33 L151.42,415.19 L146.56,415.19 L146.56,410.33 L151.42,410.33 L151.42,405.47 L146.56,405.47 L146.56,400.61 L141.70,400.61 L141.70,405.47 L136.84,405.47 L136.84,400.61 L141.70,400.61 L141.70,395.75 L146.56,395.75 L146.56,400.61 L151.42,400.61 L151.42,395.75 L146.56,395.75 L146.56,390.89 L151.42,390.89 L151.42,386.03 L146.56,386.03 L146.56,381.18 L141.70,381.18 L141.70,386.03 L146.56,386.03 L146.56,390.89 L141.70,390.89 L141.70,395.75 L136.84,395.75 L136.84,390.89 L131.98,390.89 L131.98,395.75 L127.12,395.75 L127.12,390.89 L131.98,390.89 L131.98,386.03 L127.12,386.03 L127.12,381.18 L122.27,381.18 L122.27,386.03 L127.12,386.03 L127.12,390.89 L122.27,390.89 L122.27,395.75 L117.41,395.75 L117.41,390.89 L112.55,390.89 L112.55,395.75 L117.41,395.75 L117.41,400.61 L112.55,400.61 L112.55,405.47 L117.41,405.47 L117.41,410.33 L122.27,410.33 L122.27,405.47 L127.12,405.47 L127.12,410.33 L122.27,410.33 L122.27,415.19 L117.41,415.19 L117.41,410.33 L112.55,410.33 L112.55,415.19 L107.69,415.19 L107.69,410.33 L112.55,410.33 L112.55,405.47 L107.69,405.47 L107.69,400.61 L102.83,400.61 L102.83,405.47 L97.97,405.47 L97.97,400.61 L102.83,400.61 L102.83,395.75 L107.69,395.75 L107.69,400.61 L112.55,400.61 L112.55,395.75 L107.69,395.75 L107.69,390.89 L112.55,390.89 L112.55,386.03 L107.69,386.03 L107.69,381.18 L102.83,381.18 L102.83,386.03 L97.97,386.03 L97.97,381.18 L102.83,381.18 L102.83,376.32 L107.69,376.32 L107.69,381.18 L112.55,381.18 L112.55,376.32 L117.41,376.32 L117.41,381.18 L112.55,381.18 L112.55,386.03 L117.41,386.03 L117.41,390.89 L122.27,390.89 L122.27,386.03 L117.41,386.03 L117.41,381.18 L122.27,381.18 L122.27,376.32 L127.12,376.32 L127.12,381.18 L131.98,381.18 L131.98,376.32 L127.12,376.32 L127.12,371.46 L131.98,371.46 L131.98,366.60 L127.12,366.60 L127.12,361.74 L122.27,361.74 L122.27,366.60 L117.41,366.60 L117.41,361.74 L122.27,361.74 L122.27,356.88 L127.12,356.88 L127.12,361.74 L131.98,361.74 L131.98,356.88 L136.84,356.88 L136.84,361.74 L131.98,361.74 L131.98,366.60 L136.84,366.60 L136.84,371.46 L141.70,371.46 L141.70,366.60 L146.56,366.60 L146.56,371.46 L141.70,371.46 L141.70,376.32 L136.84,376.32 L136.84,371.46 L131.98,371.46 L131.98,376.32 L136.84,376.32 L136.84,381.18 L131.98,381.18 L131.98,386.03 L136.84,386.03 L136.84,390.89 L141.70,390.89 L141.70,386.03 L136.84,386.03 L136.84,381.18 L141.70,381.18 L141.70,376.32 L146.56,376.32 L146.56,381.18 L151.42,381.18 L151.42,376.32 L156.27,376.32 L156.27,381.18 L151.42,381.18 L151.42,386.03 L156.27,386.03 L156.27,390.89 L161.13,390.89 L161.13,386.03 L156.27,386.03 L156.27,381.18 L161.13,381.18 L161.13,376.32 L165.99,376.32 L165.99,381.18 L170.85,381.18 L170.85,376.32 L165.99,376.32 L165.99,371.46 L170.85,371.46 L170.85,366.60 L165.99,366.60 L165.99,361.74 L161.13,361.74 L161.13,366.60 L165.99,366.60 L165.99,371.46 L161.13,371.46 L161.13,376.32 L156.27,376.32 L156.27,371.46 L151.42,371.46 L151.42,376.32 L146.56,376.32 L146.56,371.46 L151.42,371.46 L151.42,366.60 L146.56,366.60 L146.56,361.74 L141.70,361.74 L141.70,366.60 L136.84,366.60 L136.84,361.74 L141.70,361.74 L141.70,356.88 L146.56,356.88 L146.56,361.74 L151.42,361.74 L151.42,356.88 L146.56,356.88 L146.56,352.03 L151.42,352.03 L151.42,347.17 L146.56,347.17 L146.56,342.31 L141.70,342.31 L141.70,347.17 L136.84,347.17 L136.84,342.31 L141.70,342.31 L141.70,337.45 L146.56,337.45 L146.56,342.31 L151.42,342.31 L151.42,337.45 L156.27,337.45 L156.27,342.31 L151.42,342.31 L151.42,347.17 L156.27,347.17 L156.27,352.03 L161.13,352.03 L161.13,347.17 L156.27,347.17 L156.27,342.31 L161.13,342.31 L161.13,337.45 L165.99,337.45 L165.99,342.31 L170.85,342.31 L170.85,337.45 L165.99,337.45 L165.99,332.59 L170.85,332.59 L170.85,327.73 L165.99,327.73 L165.99,322.88 L161.13,322.88 L161.13,327.73 L165.99,327.73 L165.99,332.59 L161.13,332.59 L161.13,337.45 L156.27,337.45 L156.27,332.59 L151.42,332.59 L151.42,337.45 L146.56,337.45 L146.56,332.59 L151.42,332.59 L151.42,327.73 L146.56,327.73 L146.56,322.88 L141.70,322.88 L141.70,327.73 L136.84,327.73 L136.84,322.88 L141.70,322.88 L141.70,318.02 L146.56,318.02 L146.56,322.88 L151.42,322.88 L151.42,318.02 L146.56,318.02 L146.56,313.16 L151.42,313.16 L151.42,308.30 L146.56,308.30 L146.56,303.44 L141.70,303.44 L141.70,308.30 L146.56,308.30 L146.56,313.16 L141.70,313.16 L141.70,318.02 L136.84,318.02 L136.84,313.16 L131.98,313.16 L131.98,318.02 L127.12,318.02 L127.12,313.16 L131.98,313.16 L131.98,308.30 L127.12,308.30 L127.12,303.44 L122.27,303.44 L122.27,308.30 L127.12,308.30 L127.12,313.16 L122.27,313.16 L122.27,318.02 L117.41,318.02 L117.41,313.16 L112.55,313.16 L112.55,318.02 L117.41,318.02 L117.41,322.88 L112.55,322.88 L112.55,327.73 L117.41,327.73 L117.41,332.59 L122.27,332.59 L122.27,327.73 L117.41,327.73 L117.41,322.88 L122.27,322.88 L122.27,318.02 L127.12,318.02 L127.12,322.88 L131.98,322.88 L131.98,318.02 L136.84,318.02 L136.84,322.88 L131.98,322.88 L131.98,327.73 L136.84,327.73 L136.84,332.59 L141.70,332.59 L141.70,327.73 L146.56,327.73 L146.56,332.59 L141.70,332.59 L141.70,337.45 L136.84,337.45 L136.84,332.59 L131.98,332.59 L131.98,337.45 L136.84,337.45 L136.84,342.31 L131.98,342.31 L131.98,347.17 L136.84,347.17 L136.84,352.03 L141.70,352.03 L141.70,347.17 L146.56,347.17 L146.56,352.03 L141.70,352.03 L141.70,356.88 L136.84,356.88 L136.84,352.03 L131.98,352.03 L131.98,356.88 L127.12,356.88 L127.12,352.03 L131.98,352.03 L131.98,347.17 L127.12,347.17 L127.12,342.31 L122.27,342.31 L122.27,347.17 L127.12,347.17 L127.12,352.03 L122.27,352.03 L122.27,356.88 L117.41,356.88 L117.41,352.03 L112.55,352.03 L112.55,356.88 L117.41,356.88 L117.41,361.74 L112.55,361.74 L112.55,366.60 L117.41,366.60 L117.41,371.46 L122.27,371.46 L122.27,366.60 L127.12,366.60 L127.12,371.46 L122.27,371.46 L122.27,376.32 L117.41,376.32 L117.41,371.46 L112.55,371.46 L112.55,376.32 L107.69,376.32 L107.69,371.46 L112.55,371.46 L112.55,366.60 L107.69,366.60 L107.69,361.74 L102.83,361.74 L102.83,366.60 L97.97,366.60 L97.97,361.74 L102.83,361.74 L102.83,356.88 L107.69,356.88 L107.69,361.74 L112.55,361.74 L112.55,356.88 L107.69,356.88 L107.69,352.03 L112.55,352.03 L112.55,347.17 L107.69,347.17 L107.69,342.31 L102.83,342.31 L102.83,347.17 L107.69,347.17 L107.69,352.03 L102.83,352.03 L102.83,356.88 L97.97,356.88 L97.97,352.03 L93.12,352.03 L93.12,356.88 L88.26,356.88 L88.26,352.03 L93.12,352.03 L93.12,347.17 L88.26,347.17 L88.26,342.31 L83.40,342.31 L83.40,347.17 L88.26,347.17 L88.26,352.03 L83.40,352.03 L83.40,356.88 L78.54,356.88 L78.54,352.03 L73.68,352.03 L73.68,356.88 L78.54,356.88 L78.54,361.74 L73.68,361.74 L73.68,366.60 L78.54,366.60 L78.54,371.46 L83.40,371.46 L83.40,366.60 L88.26,366.60 L88.26,371.46 L83.40,371.46 L83.40,376.32 L78.54,376.32 L78.54,371.46 L73.68,371.46 L73.68,376.32 L68.82,376.32 L68.82,371.46 L73.68,371.46 L73.68,366.60 L68.82,366.60 L68.82,361.74 L63.97,361.74 L63.97,366.60 L59.11,366.60 L59.11,361.74 L63.97,361.74 L63.97,356.88 L68.82,356.88 L68.82,361.74 L73.68,361.74 L73.68,356.88 L68.82,356.88 L68.82,352.03 L73.68,352.03 L73.68,347.17 L68.82,347.17 L68.82,342.31 L63.97,342.31 L63.97,347.17 L59.11,347.17 L59.11,342.31 L63.97,342.31 L63.97,337.45 L68.82,337.45 L68.82,342.31 L73.68,342.31 L73.68,337.45 L78.54,337.45 L78.54,342.31 L73.68,342.31 L73.68,347.17 L78.54,347.17 L78.54,352.03 L83.40,352.03 L83.40,347.17 L78.54,347.17 L78.54,342.31 L83.40,342.31 L83.40,337.45 L88.26,337.45 L88.26,342.31 L93.12,342.31 L93.12,337.45 L88.26,337.45 L88.26,332.59 L93.12,332.59 L93.12,327.73 L88.26,327.73 L88.26,322.88 L83.40,322.88 L83.40,327.73 L88.26,327.73 L88.26,332.59 L83.40,332.59 L83.40,337.45 L78.54,337.45 L78.54,332.59 L73.68,332.59 L73.68,337.45 L68.82,337.45 L68.82,332.59 L73.68,332.59 L73.68,327.73 L68.82,327.73 L68.82,322.88 L63.97,322.88 L63.97,327.73 L59.11,327.73 L59.11,322.88 L63.97,322.88 L63.97,318.02 L68.82,318.02 L68.82,322.88 L73.68,322.88 L73.68,318.02 L68.82,318.02 L68.82,313.16 L73.68,313.16 L73.68,308.30 L68.82,308.30 L68.82,303.44 L63.97,303.44 L63.97,308.30 L68.82,308.30 L68.82,313.16 L63.97,313.16 L63.97,318.02 L59.11,318.02 L59.11,313.16 L54.25,313.16 L54.25,318.02 L49.39,318.02 L49.39,313.16 L54.25,313.16 L54.25,308.30 L49.39,308.30 L49.39,303.44 L44.53,303.44 L44.53,308.30 L49.39,308.30 L49.39,313.16 L44.53,313.16 L44.53,318.02 L39.67,318.02 L39.67,313.16 L34.81,313.16 L34.81,318.02 L39.67,318.02 L39.67,322.88 L34.81,322.88 L34.81,327.73 L39.67,327.73 L39.67,332.59 L44.53,332.59 L44.53,327.73 L39.67,327.73 L39.67,322.88 L44.53,322.88 L44.53,318.02 L49.39,318.02 L49.39,322.88 L54.25,322.88 L54.25,318.02 L59.11,318.02 L59.11,322.88 L54.25,322.88 L54.25,327.73 L59.11,327.73 L59.11,332.59 L63.97,332.59 L63.97,327.73 L68.82,327.73 L68.82,332.59 L63.97,332.59 L63.97,337.45 L59.11,337.45 L59.11,332.59 L54.25,332.59 L54.25,337.45 L59.11,337.45 L59.11,342.31 L54.25,342.31 L54.25,347.17 L59.11,347.17 L59.11,352.03 L63.97,352.03 L63.97,347.17 L68.82,347.17 L68.82,352.03 L63.97,352.03 L63.97,356.88 L59.11,356.88 L59.11,352.03 L54.25,352.03 L54.25,356.88 L49.39,356.88 L49.39,352.03 L54.25,352.03 L54.25,347.17 L49.39,347.17 L49.39,342.31 L44.53,342.31 L44.53,347.17 L49.39,347.17 L49.39,352.03 L44.53,352.03 L44.53,356.88 L39.67,356.88 L39.67,352.03 L34.81,352.03 L34.81,356.88 L39.67,356.88 L39.67,361.74 L34.81,361.74 L34.81,366.60 L39.67,366.60 L39.67,371.46 L44.53,371.46 L44.53,366.60 L49.39,366.60 L49.39,371.46 L44.53,371.46 L44.53,376.32 L39.67,376.32 L39.67,371.46 L34.81,371.46 L34.81,376.32 L29.96,376.32 L29.96,371.46 L34.81,371.46 L34.81,366.60 L29.96,366.60 L29.96,361.74 L25.10,361.74 L25.10,366.60 L20.24,366.60 L20.24,361.74 L25.10,361.74 L25.10,356.88 L29.96,356.88 L29.96,361.74 L34.81,361.74 L34.81,356.88 L29.96,356.88 L29.96,352.03 L34.81,352.03 L34.81,347.17 L29.96,347.17 L29.96,342.31 L25.10,342.31 L25.10,347.17 L29.96,347.17 L29.96,352.03 L25.10,352.03 L25.10,356.88 L20.24,356.88 L20.24,352.03 L15.38,352.03 L15.38,356.88 L10.52,356.88 L10.52,352.03 L15.38,352.03 L15.38,347.17 L10.52,347.17 L10.52,342.31 L5.66,342.31 L5.66,347.17 L10.52,347.17 L10.52,352.03 L5.66,352.03 L5.66,356.88 L0.81,356.88 L0.81,352.03 L-4.05,352.03 L-4.05,356.88 L0.81,356.88 L0.81,361.74 L-4.05,361.74 L-4.05,366.60 L0.81,366.60 L0.81,371.46 L5.66,371.46 L5.66,366.60 L0.81,366.60 L0.81,361.74 L5.66,361.74 L5.66,356.88 L10.52,356.88 L10.52,361.74 L15.38,361.74 L15.38,356.88 L20.24,356.88 L20.24,361.74 L15.38,361.74 L15.38,366.60 L20.24,366.60 L20.24,371.46 L25.10,371.46 L25.10,366.60 L29.96,366.60 L29.96,371.46 L25.10,371.46 L25.10,376.32 L20.24,376.32 L20.24,371.46 L15.38,371.46 L15.38,376.32 L20.24,376.32 L20.24,381.18 L15.38,381.18 L15.38,386.03 L20.24,386.03 L20.24,390.89 L25.10,390.89 L25.10,386.03 L29.96,386.03 L29.96,390.89 L25.10,390.89 L25.10,395.75 L20.24,395.75 L20.24,390.89 L15.38,390.89 L15.38,395.75 L10.52,395.75 L10.52,390.89 L15.38,390.89 L15.38,386.03 L10.52,386.03 L10.52,381.18 L5.66,381.18 L5.66,386.03 L10.52,386.03 L10.52,390.89 L5.66,390.89 L5.66,395.75 L0.81,395.75 L0.81,390.89 L-4.05,390.89 L-4.05,395.75 L0.81,395.75 L0.81,400.61 L-4.05,400.61 L-4.05,405.47 L0.81,405.47 L0.81,410.33 L5.66,410.33 L5.66,405.47 L0.81,405.47 L0.81,400.61 L5.66,400.61 L5.66,395.75 L10.52,395.75 L10.52,400.61 L15.38,400.61 L15.38,395.75 L20.24,395.75 L20.24,400.61 L15.38,400.61 L15.38,405.47 L20.24,405.47 L20.24,410.33 L25.10,410.33 L25.10,405.47 L29.96,405.47 L29.96,410.33 L25.10,410.33 L25.10,415.19 L20.24,415.19 L20.24,410.33 L15.38,410.33 L15.38,415.19 L20.24,415.19 L20.24,420.04 L15.38,420.04 L15.38,424.90 L20.24,424.90 L20.24,429.76 L25.10,429.76 L25.10,424.90 L20.24,424.90 L20.24,420.04 L25.10,420.04 L25.10,415.19 L29.96,415.19 L29.96,420.04 L34.81,420.04 L34.81,415.19 L39.67,415.19 L39.67,420.04 L34.81,420.04 L34.81,424.90 L39.67,424.90 L39.67,429.76 L44.53,429.76 L44.53,424.90 L39.67,424.90 L39.67,420.04 L44.53,420.04 L44.53,415.19 L49.39,415.19 L49.39,420.04 L54.25,420.04 L54.25,415.19 L49.39,415.19 L49.39,410.33 L54.25,410.33 L54.25,405.47 L49.39,405.47 L49.39,400.61 L44.53,400.61 L44.53,405.47 L39.67,405.47 L39.67,400.61 L44.53,400.61 L44.53,395.75 L49.39,395.75 L49.39,400.61 L54.25,400.61 L54.25,395.75 L59.11,395.75 L59.11,400.61 L54.25,400.61 L54.25,405.47 L59.11,405.47 L59.11,410.33 L63.97,410.33 L63.97,405.47 L68.82,405.47 L68.82,410.33 L63.97,410.33 L63.97,415.19 L59.11,415.19 L59.11,410.33 L54.25,410.33 L54.25,415.19 L59.11,415.19 L59.11,420.04 L54.25,420.04 L54.25,424.90 L59.11,424.90 L59.11,429.76 L63.97,429.76 L63.97,424.90 L68.82,424.90 L68.82,429.76 L63.97,429.76 L63.97,434.62 L59.11,434.62 L59.11,429.76 L54.25,429.76 L54.25,434.62 L49.39,434.62 L49.39,429.76 L54.25,429.76 L54.25,424.90 L49.39,424.90 L49.39,420.04 L44.53,420.04 L44.53,424.90 L49.39,424.90 L49.39,429.76 L44.53,429.76 L44.53,434.62 L39.67,434.62 L39.67,429.76 L34.81,429.76 L34.81,434.62 L39.67,434.62 L39.67,439.48 L34.81,439.48 L34.81,444.34 L39.67,444.34 L39.67,449.19 L44.53,449.19 L44.53,444.34 L49.39,444.34 L49.39,449.19 L44.53,449.19 L44.53,454.05 L39.67,454.05 L39.67,449.19 L34.81,449.19 L34.81,454.05 L29.96,454.05 L29.96,449.19 L34.81,449.19 L34.81,444.34 L29.96,444.34 L29.96,439.48 L25.10,439.48 L25.10,444.34 L20.24,444.34 L20.24,439.48 L25.10,439.48 L25.10,434.62 L29.96,434.62 L29.96,439.48 L34.81,439.48 L34.81,434.62 L29.96,434.62 L29.96,429.76 L34.81,429.76 L34.81,424.90 L29.96,424.90 L29.96,420.04 L25.10,420.04 L25.10,424.90 L29.96,424.90 L29.96,429.76 L25.10,429.76 L25.10,434.62 L20.24,434.62 L20.24,429.76 L15.38,429.76 L15.38,434.62 L10.52,434.62 L10.52,429.76 L15.38,429.76 L15.38,424.90 L10.52,424.90 L10.52,420.04 L5.66,420.04 L5.66,424.90 L10.52,424.90 L10.52,429.76 L5.66,429.76 L5.66,434.62 L0.81,434.62 L0.81,429.76 L-4.05,429.76 L-4.05,434.62 L0.81,434.62 L0.81,439.48 L-4.05,439.48 L-4.05,444.34 L0.81,444.34 L0.81,449.19 L5.66,449.19 L5.66,444.34 L10.52,444.34 L10.52,449.19 L5.66,449.19 L5.66,454.05 L0.81,454.05 L0.81,449.19 L-4.05,449.19 L-4.05,454.05 L-8.91,454.05 L-8.91,449.19 L-4.05,449.19 L-4.05,444.34 L-8.91,444.34 L-8.91,439.48 L-13.77,439.48 L-13.77,444.34 L-18.63,444.34 L-18.63,439.48 L-13.77,439.48 L-13.77,434.62 L-8.91,434.62 L-8.91,439.48 L-4.05,439.48 L-4.05,434.62 L-8.91,434.62 L-8.91,429.76 L-4.05,429.76 L-4.05,424.90 L-8.91,424.90 L-8.91,420.04 L-13.77,420.04 L-13.77,424.90 L-18.63,424.90 L-18.63,420.04 L-13.77,420.04 L-13.77,415.19 L-8.91,415.19 L-8.91,420.04 L-4.05,420.04 L-4.05,415.19 L0.81,415.19 L0.81,420.04 L-4.05,420.04 L-4.05,424.90 L0.81,424.90 L0.81,429.76 L5.66,429.76 L5.66,424.90 L0.81,424.90 L0.81,420.04 L5.66,420.04 L5.66,415.19 L10.52,415.19 L10.52,420.04 L15.38,420.04 L15.38,415.19 L10.52,415.19 L10.52,410.33 L15.38,410.33 L15.38,405.47 L10.52,405.47 L10.52,400.61 L5.66,400.61 L5.66,405.47 L10.52,405.47 L10.52,410.33 L5.66,410.33 L5.66,415.19 L0.81,415.19 L0.81,410.33 L-4.05,410.33 L-4.05,415.19 L-8.91,415.19 L-8.91,410.33 L-4.05,410.33 L-4.05,405.47 L-8.91,405.47 L-8.91,400.61 L-13.77,400.61 L-13.77,405.47 L-18.63,405.47 L-18.63,400.61 L-13.77,400.61 L-13.77,395.75 L-8.91,395.75 L-8.91,400.61 L-4.05,400.61 L-4.05,395.75 L-8.91,395.75 L-8.91,390.89 L-4.05,390.89 L-4.05,386.03 L-8.91,386.03 L-8.91,381.18 L-13.77,381.18 L-13.77,386.03 L-8.91,386.03 L-8.91,390.89 L-13.77,390.89 L-13.77,395.75 L-18.63,395.75 L-18.63,390.89 L-23.49,390.89 L-23.49,395.75 L-28.34,395.75 L-28.34,390.89 L-23.49,390.89 L-23.49,386.03 L-28.34,386.03 L-28.34,381.18 L-33.20,381.18 L-33.20,386.03 L-28.34,386.03 L-28.34,390.89 L-33.20,390.89 L-33.20,395.75 L-38.06,395.75 L-38.06,390.89 L-42.92,390.89 L-42.92,395.75 L-38.06,395.75 L-38.06,400.61 L-42.92,400.61 L-42.92,405.47 L-38.06,405.47 L-38.06,410.33 L-33.20,410.33 L-33.20,405.47 L-28.34,405.47 L-28.34,410.33 L-33.20,410.33 L-33.20,415.19 L-38.06,415.19 L-38.06,410.33 L-42.92,410.33 L-42.92,415.19 L-47.78,415.19 L-47.78,410.33 L-42.92,410.33 L-42.92,405.47 L-47.78,405.47 L-47.78,400.61 L-52.64,400.61 L-52.64,405.47 L-57.49,405.47 L-57.49,400.61 L-52.64,400.61 L-52.64,395.75 L-47.78,395.75 L-47.78,400.61 L-42.92,400.61 L-42.92,395.75 L-47.78,395.75 L-47.78,390.89 L-42.92,390.89 L-42.92,386.03 L-47.78,386.03 L-47.78,381.18 L-52.64,381.18 L-52.64,386.03 L-57.49,386.03 L-57.49,381.18 L-52.64,381.18 L-52.64,376.32 L-47.78,376.32 L-47.78,381.18 L-42.92,381.18 L-42.92,376.32 L-38.06,376.32 L-38.06,381.18 L-42.92,381.18 L-42.92,386.03 L-38.06,386.03 L-38.06,390.89 L-33.20,390.89 L-33.20,386.03 L-38.06,386.03 L-38.06,381.18 L-33.20,381.18 L-33.20,376.32 L-28.34,376.32 L-28.34,381.18 L-23.49,381.18 L-23.49,376.32 L-28.34,376.32 L-28.34,371.46 L-23.49,371.46 L-23.49,366.60 L-28.34,366.60 L-28.34,361.74 L-33.20,361.74 L-33.20,366.60 L-38.06,366.60 L-38.06,361.74 L-33.20,361.74 L-33.20,356.88 L-28.34,356.88 L-28.34,361.74 L-23.49,361.74 L-23.49,356.88 L-18.63,356.88 L-18.63,361.74 L-23.49,361.74 L-23.49,366.60 L-18.63,366.60 L-18.63,371.46 L-13.77,371.46 L-13.77,366.60 L-8.91,366.60 L-8.91,371.46 L-13.77,371.46 L-13.77,376.32 L-18.63,376.32 L-18.63,371.46 L-23.49,371.46 L-23.49,376.32 L-18.63,376.32 L-18.63,381.18 L-23.49,381.18 L-23.49,386.03 L-18.63,386.03 L-18.63,390.89 L-13.77,390.89 L-13.77,386.03 L-18.63,386.03 L-18.63,381.18 L-13.77,381.18 L-13.77,376.32 L-8.91,376.32 L-8.91,381.18 L-4.05,381.18 L-4.05,376.32 L0.81,376.32 L0.81,381.18 L-4.05,381.18 L-4.05,386.03 L0.81,386.03 L0.81,390.89 L5.66,390.89 L5.66,386.03 L0.81,386.03 L0.81,381.18 L5.66,381.18 L5.66,376.32 L10.52,376.32 L10.52,381.18 L15.38,381.18 L15.38,376.32 L10.52,376.32 L10.52,371.46 L15.38,371.46 L15.38,366.60 L10.52,366.60 L10.52,361.74 L5.66,361.74 L5.66,366.60 L10.52,366.60 L10.52,371.46 L5.66,371.46 L5.66,376.32 L0.81,376.32 L0.81,371.46 L-4.05,371.46 L-4.05,376.32 L-8.91,376.32 L-8.91,371.46 L-4.05,371.46 L-4.05,366.60 L-8.91,366.60 L-8.91,361.74 L-13.77,361.74 L-13.77,366.60 L-18.63,366.60 L-18.63,361.74 L-13.77,361.74 L-13.77,356.88 L-8.91,356.88 L-8.91,361.74 L-4.05,361.74 L-4.05,356.88 L-8.91,356.88 L-8.91,352.03 L-4.05,352.03 L-4.05,347.17 L-8.91,347.17 L-8.91,342.31 L-13.77,342.31 L-13.77,347.17 L-18.63,347.17 L-18.63,342.31 L-13.77,342.31 L-13.77,337.45 L-8.91,337.45 L-8.91,342.31 L-4.05,342.31 L-4.05,337.45 L0.81,337.45 L0.81,342.31 L-4.05,342.31 L-4.05,347.17 L0.81,347.17 L0.81,352.03 L5.66,352.03 L5.66,347.17 L0.81,347.17 L0.81,342.31 L5.66,342.31 L5.66,337.45 L10.52,337.45 L10.52,342.31 L15.38,342.31 L15.38,337.45 L10.52,337.45 L10.52,332.59 L15.38,332.59 L15.38,327.73 L10.52,327.73 L10.52,322.88 L5.66,322.88 L5.66,327.73 L10.52,327.73 L10.52,332.59 L5.66,332.59 L5.66,337.45 L0.81,337.45 L0.81,332.59 L-4.05,332.59 L-4.05,337.45 L-8.91,337.45 L-8.91,332.59 L-4.05,332.59 L-4.05,327.73 L-8.91,327.73 L-8.91,322.88 L-13.77,322.88 L-13.77,327.73 L-18.63,327.73 L-18.63,322.88 L-13.77,322.88 L-13.77,318.02 L-8.91,318.02 L-8.91,322.88 L-4.05,322.88 L-4.05,318.02 L-8.91,318.02 L-8.91,313.16 L-4.05,313.16 L-4.05,308.30 L-8.91,308.30 L-8.91,303.44 L-13.77,303.44 L-13.77,308.30 L-8.91,308.30 L-8.91,313.16 L-13.77,313.16 L-13.77,318.02 L-18.63,318.02 L-18.63,313.16 L-23.49,313.16 L-23.49,318.02 L-28.34,318.02 L-28.34,313.16 L-23.49,313.16 L-23.49,308.30 L-28.34,308.30 L-28.34,303.44 L-33.20,303.44 L-33.20,308.30 L-28.34,308.30 L-28.34,313.16 L-33.20,313.16 L-33.20,318.02 L-38.06,318.02 L-38.06,313.16 L-42.92,313.16 L-42.92,318.02 L-38.06,318.02 L-38.06,322.88 L-42.92,322.88 L-42.92,327.73 L-38.06,327.73 L-38.06,332.59 L-33.20,332.59 L-33.20,327.73 L-28.34,327.73 L-28.34,332.59 L-33.20,332.59 L-33.20,337.45 L-38.06,337.45 L-38.06,332.59 L-42.92,332.59 L-42.92,337.45 L-47.78,337.45 L-47.78,332.59 L-42.92,332.59 L-42.92,327.73 L-47.78,327.73 L-47.78,322.88 L-52.64,322.88 L-52.64,327.73 L-57.49,327.73 L-57.49,322.88 L-52.64,322.88 L-52.64,318.02 L-47.78,318.02 L-47.78,322.88 L-42.92,322.88 L-42.92,318.02 L-47.78,318.02 L-47.78,313.16 L-42.92,313.16 L-42.92,308.30 L-47.78,308.30 L-47.78,303.44 L-52.64,303.44 L-52.64,308.30 L-57.49,308.30 L-57.49,303.44 L-52.64,303.44 L-52.64,298.58 L-47.78,298.58 L-47.78,303.44 L-42.92,303.44 L-42.92,298.58 L-38.06,298.58 L-38.06,303.44 L-42.92,303.44 L-42.92,308.30 L-38.06,308.30 L-38.06,313.16 L-33.20,313.16 L-33.20,308.30 L-38.06,308.30 L-38.06,303.44 L-33.20,303.44 L-33.20,298.58 L-28.34,298.58 L-28.34,303.44 L-23.49,303.44 L-23.49,298.58 L-28.34,298.58 L-28.34,293.73 L-23.49,293.73 L-23.49,288.87 L-28.34,288.87 L-28.34,284.01 L-33.20,284.01 L-33.20,288.87 L-38.06,288.87 L-38.06,284.01 L-33.20,284.01 L-33.20,279.15 L-28.34,279.15 L-28.34,284.01 L-23.49,284.01 L-23.49,279.15 L-18.63,279.15 L-18.63,284.01 L-23.49,284.01 L-23.49,288.87 L-18.63,288.87 L-18.63,293.73 L-13.77,293.73 L-13.77,288.87 L-8.91,288.87 L-8.91,293.73 L-13.77,293.73 L-13.77,298.58 L-18.63,298.58 L-18.63,293.73 L-23.49,293.73 L-23.49,298.58 L-18.63,298.58 L-18.63,303.44 L-23.49,303.44 L-23.49,308.30 L-18.63,308.30 L-18.63,313.16 L-13.77,313.16 L-13.77,308.30 L-18.63,308.30 L-18.63,303.44 L-13.77,303.44 L-13.77,298.58 L-8.91,298.58 L-8.91,303.44 L-4.05,303.44 L-4.05,298.58 L0.81,298.58 L0.81,303.44 L-4.05,303.44 L-4.05,308.30 L0.81,308.30 L0.81,313.16 L5.66,313.16 L5.66,308.30 L0.81,308.30 L0.81,303.44 L5.66,303.44 L5.66,298.58 L10.52,298.58 L10.52,303.44 L15.38,303.44 L15.38,298.58 L10.52,298.58 L10.52,293.73 L15.38,293.73 L15.38,288.87 L10.52,288.87 L10.52,284.01 L5.66,284.01 L5.66,288.87 L0.81,288.87 L0.81,284.01 L5.66,284.01 L5.66,279.15 L10.52,279.15 L10.52,284.01 L15.38,284.01 L15.38,279.15 L20.24,279.15 L20.24,284.01 L15.38,284.01 L15.38,288.87 L20.24,288.87 L20.24,293.73 L25.10,293.73 L25.10,288.87 L29.96,288.87 L29.96,293.73 L25.10,293.73 L25.10,298.58 L20.24,298.58 L20.24,293.73 L15.38,293.73 L15.38,298.58 L20.24,298.58 L20.24,303.44 L15.38,303.44 L15.38,308.30 L20.24,308.30 L20.24,313.16 L25.10,313.16 L25.10,308.30 L29.96,308.30 L29.96,313.16 L25.10,313.16 L25.10,318.02 L20.24,318.02 L20.24,313.16 L15.38,313.16 L15.38,318.02 L10.52,318.02 L10.52,313.16 L15.38,313.16 L15.38,308.30 L10.52,308.30 L10.52,303.44 L5.66,303.44 L5.66,308.30 L10.52,308.30 L10.52,313.16 L5.66,313.16 L5.66,318.02 L0.81,318.02 L0.81,313.16 L-4.05,313.16 L-4.05,318.02 L0.81,318.02 L0.81,322.88 L-4.05,322.88 L-4.05,327.73 L0.81,327.73 L0.81,332.59 L5.66,332.59 L5.66,327.73 L0.81,327.73 L0.81,322.88 L5.66,322.88 L5.66,318.02 L10.52,318.02 L10.52,322.88 L15.38,322.88 L15.38,318.02 L20.24,318.02 L20.24,322.88 L15.38,322.88 L15.38,327.73 L20.24,327.73 L20.24,332.59 L25.10,332.59 L25.10,327.73 L29.96,327.73 L29.96,332.59 L25.10,332.59 L25.10,337.45 L20.24,337.45 L20.24,332.59 L15.38,332.59 L15.38,337.45 L20.24,337.45 L20.24,342.31 L15.38,342.31 L15.38,347.17 L20.24,347.17 L20.24,352.03 L25.10,352.03 L25.10,347.17 L20.24,347.17 L20.24,342.31 L25.10,342.31 L25.10,337.45 L29.96,337.45 L29.96,342.31 L34.81,342.31 L34.81,337.45 L39.67,337.45 L39.67,342.31 L34.81,342.31 L34.81,347.17 L39.67,347.17 L39.67,352.03 L44.53,352.03 L44.53,347.17 L39.67,347.17 L39.67,342.31 L44.53,342.31 L44.53,337.45 L49.39,337.45 L49.39,342.31 L54.25,342.31 L54.25,337.45 L49.39,337.45 L49.39,332.59 L54.25,332.59 L54.25,327.73 L49.39,327.73 L49.39,322.88 L44.53,322.88 L44.53,327.73 L49.39,327.73 L49.39,332.59 L44.53,332.59 L44.53,337.45 L39.67,337.45 L39.67,332.59 L34.81,332.59 L34.81,337.45 L29.96,337.45 L29.96,332.59 L34.81,332.59 L34.81,327.73 L29.96,327.73 L29.96,322.88 L25.10,322.88 L25.10,327.73 L20.24,327.73 L20.24,322.88 L25.10,322.88 L25.10,318.02 L29.96,318.02 L29.96,322.88 L34.81,322.88 L34.81,318.02 L29.96,318.02 L29.96,313.16 L34.81,313.16 L34.81,308.30 L29.96,308.30 L29.96,303.44 L25.10,303.44 L25.10,308.30 L20.24,308.30 L20.24,303.44 L25.10,303.44 L25.10,298.58 L29.96,298.58 L29.96,303.44 L34.81,303.44 L34.81,298.58 L39.67,298.58 L39.67,303.44 L34.81,303.44 L34.81,308.30 L39.67,308.30 L39.67,313.16 L44.53,313.16 L44.53,308.30 L39.67,308.30 L39.67,303.44 L44.53,303.44 L44.53,298.58 L49.39,298.58 L49.39,303.44 L54.25,303.44 L54.25,298.58 L49.39,298.58 L49.39,293.73 L54.25,293.73 L54.25,288.87 L49.39,288.87 L49.39,284.01 L44.53,284.01 L44.53,288.87 L39.67,288.87 L39.67,284.01 L44.53,284.01 L44.53,279.15 L49.39,279.15 L49.39,284.01 L54.25,284.01 L54.25,279.15 L59.11,279.15 L59.11,284.01 L54.25,284.01 L54.25,288.87 L59.11,288.87 L59.11,293.73 L63.97,293.73 L63.97,288.87 L68.82,288.87 L68.82,293.73 L63.97,293.73 L63.97,298.58 L59.11,298.58 L59.11,293.73 L54.25,293.73 L54.25,298.58 L59.11,298.58 L59.11,303.44 L54.25,303.44 L54.25,308.30 L59.11,308.30 L59.11,313.16 L63.97,313.16 L63.97,308.30 L59.11,308.30 L59.11,303.44 L63.97,303.44 L63.97,298.58 L68.82,298.58 L68.82,303.44 L73.68,303.44 L73.68,298.58 L78.54,298.58 L78.54,303.44 L73.68,303.44 L73.68,308.30 L78.54,308.30 L78.54,313.16 L83.40,313.16 L83.40,308.30 L78.54,308.30 L78.54,303.44 L83.40,303.44 L83.40,298.58 L88.26,298.58 L88.26,303.44 L93.12,303.44 L93.12,298.58 L88.26,298.58 L88.26,293.73 L93.12,293.73 L93.12,288.87 L88.26,288.87 L88.26,284.01 L83.40,284.01 L83.40,288.87 L88.26,288.87 L88.26,293.73 L83.40,293.73 L83.40,298.58 L78.54,298.58 L78.54,293.73 L73.68,293.73 L73.68,298.58 L68.82,298.58 L68.82,293.73 L73.68,293.73 L73.68,288.87 L68.82,288.87 L68.82,284.01 L63.97,284.01 L63.97,288.87 L59.11,288.87 L59.11,284.01 L63.97,284.01 L63.97,279.15 L68.82,279.15 L68.82,284.01 L73.68,284.01 L73.68,279.15 L68.82,279.15 L68.82,274.29 L73.68,274.29 L73.68,269.43 L68.82,269.43 L68.82,264.58 L63.97,264.58 L63.97,269.43 L59.11,269.43 L59.11,264.58 L63.97,264.58 L63.97,259.72 L68.82,259.72 L68.82,264.58 L73.68,264.58 L73.68,259.72 L78.54,259.72 L78.54,264.58 L73.68,264.58 L73.68,269.43 L78.54,269.43 L78.54,274.29 L83.40,274.29 L83.40,269.43 L78.54,269.43 L78.54,264.58 L83.40,264.58 L83.40,259.72 L88.26,259.72 L88.26,264.58 L93.12,264.58 L93.12,259.72 L88.26,259.72 L88.26,254.86 L93.12,254.86 L93.12,250.00 L88.26,250.00 L88.26,245.14 L83.40,245.14 L83.40,250.00 L88.26,250.00 L88.26,254.86 L83.40,254.86 L83.40,259.72 L78.54,259.72 L78.54,254.86 L73.68,254.86 L73.68,259.72 L68.82,259.72 L68.82,254.86 L73.68,254.86 L73.68,250.00 L68.82,250.00 L68.82,245.14 L63.97,245.14 L63.97,250.00 L59.11,250.00 L59.11,245.14 L63.97,245.14 L63.97,240.28 L68.82,240.28 L68.82,245.14 L73.68,245.14 L73.68,240.28 L68.82,240.28 L68.82,235.42 L73.68,235.42 L73.68,230.57 L68.82,230.57 L68.82,225.71 L63.97,225.71 L63.97,230.57 L68.82,230.57 L68.82,235.42 L63.97,235.42 L63.97,240.28 L59.11,240.28 L59.11,235.42 L54.25,235.42 L54.25,240.28 L49.39,240.28 L49.39,235.42 L54.25,235.42 L54.25,230.57 L49.39,230.57 L49.39,225.71 L44.53,225.71 L44.53,230.57 L49.39,230.57 L49.39,235.42 L44.53,235.42 L44.53,240.28 L39.67,240.28 L39.67,235.42 L34.81,235.42 L34.81,240.28 L39.67,240.28 L39.67,245.14 L34.81,245.14 L34.81,250.00 L39.67,250.00 L39.67,254.86 L44.53,254.86 L44.53,250.00 L39.67,250.00 L39.67,245.14 L44.53,245.14 L44.53,240.28 L49.39,240.28 L49.39,245.14 L54.25,245.14 L54.25,240.28 L59.11,240.28 L59.11,245.14 L54.25,245.14 L54.25,250.00 L59.11,250.00 L59.11,254.86 L63.97,254.86 L63.97,250.00 L68.82,250.00 L68.82,254.86 L63.97,254.86 L63.97,259.72 L59.11,259.72 L59.11,254.86 L54.25,254.86 L54.25,259.72 L59.11,259.72 L59.11,264.58 L54.25,264.58 L54.25,269.43 L59.11,269.43 L59.11,274.29 L63.97,274.29 L63.97,269.43 L68.82,269.43 L68.82,274.29 L63.97,274.29 L63.97,279.15 L59.11,279.15 L59.11,274.29 L54.25,274.29 L54.25,279.15 L49.39,279.15 L49.39,274.29 L54.25,274.29 L54.25,269.43 L49.39,269.43 L49.39,264.58 L44.53,264.58 L44.53,269.43 L49.39,269.43 L49.39,274.29 L44.53,274.29 L44.53,279.15 L39.67,279.15 L39.67,274.29 L34.81,274.29 L34.81,279.15 L39.67,279.15 L39.67,284.01 L34.81,284.01 L34.81,288.87 L39.67,288.87 L39.67,293.73 L44.53,293.73 L44.53,288.87 L49.39,288.87 L49.39,293.73 L44.53,293.73 L44.53,298.58 L39.67,298.58 L39.67,293.73 L34.81,293.73 L34.81,298.58 L29.96,298.58 L29.96,293.73 L34.81,293.73 L34.81,288.87 L29.96,288.87 L29.96,284.01 L25.10,284.01 L25.10,288.87 L20.24,288.87 L20.24,284.01 L25.10,284.01 L25.10,279.15 L29.96,279.15 L29.96,284.01 L34.81,284.01 L34.81,279.15 L29.96,279.15 L29.96,274.29 L34.81,274.29 L34.81,269.43 L29.96,269.43 L29.96,264.58 L25.10,264.58 L25.10,269.43 L29.96,269.43 L29.96,274.29 L25.10,274.29 L25.10,279.15 L20.24,279.15 L20.24,274.29 L15.38,274.29 L15.38,279.15 L10.52,279.15 L10.52,274.29 L15.38,274.29 L15.38,269.43 L10.52,269.43 L10.52,264.58 L5.66,264.58 L5.66,269.43 L10.52,269.43 L10.52,274.29 L5.66,274.29 L5.66,279.15 L0.81,279.15 L0.81,274.29 L-4.05,274.29 L-4.05,279.15 L0.81,279.15 L0.81,284.01 L-4.05,284.01 L-4.05,288.87 L0.81,288.87 L0.81,293.73 L5.66,293.73 L5.66,288.87 L10.52,288.87 L10.52,293.73 L5.66,293.73 L5.66,298.58 L0.81,298.58 L0.81,293.73 L-4.05,293.73 L-4.05,298.58 L-8.91,298.58 L-8.91,293.73 L-4.05,293.73 L-4.05,288.87 L-8.91,288.87 L-8.91,284.01 L-13.77,284.01 L-13.77,288.87 L-18.63,288.87 L-18.63,284.01 L-13.77,284.01 L-13.77,279.15 L-8.91,279.15 L-8.91,284.01 L-4.05,284.01 L-4.05,279.15 L-8.91,279.15 L-8.91,274.29 L-4.05,274.29 L-4.05,269.43 L-8.91,269.43 L-8.91,264.58 L-13.77,264.58 L-13.77,269.43 L-18.63,269.43 L-18.63,264.58 L-13.77,264.58 L-13.77,259.72 L-8.91,259.72 L-8.91,264.58 L-4.05,264.58 L-4.05,259.72 L0.81,259.72 L0.81,264.58 L-4.05,264.58 L-4.05,269.43 L0.81,269.43 L0.81,274.29 L5.66,274.29 L5.66,269.43 L0.81,269.43 L0.81,264.58 L5.66,264.58 L5.66,259.72 L10.52,259.72 L10.52,264.58 L15.38,264.58 L15.38,259.72 L10.52,259.72 L10.52,254.86 L15.38,254.86 L15.38,250.00 L10.52,250.00 L10.52,245.14 L5.66,245.14 L5.66,250.00 L10.52,250.00 L10.52,254.86 L5.66,254.86 L5.66,259.72 L0.81,259.72 L0.81,254.86 L-4.05,254.86 L-4.05,259.72 L-8.91,259.72 L-8.91,254.86 L-4.05,254.86 L-4.05,250.00 L-8.91,250.00 L-8.91,245.14 L-13.77,245.14 L-13.77,250.00 L-18.63,250.00 L-18.63,245.14 L-13.77,245.14 L-13.77,240.28 L-8.91,240.28 L-8.91,245.14 L-4.05,245.14 L-4.05,240.28 L-8.91,240.28 L-8.91,235.42 L-4.05,235.42 L-4.05,230.57 L-8.91,230.57 L-8.91,225.71 L-13.77,225.71 L-13.77,230.57 L-8.91,230.57 L-8.91,235.42 L-13.77,235.42 L-13.77,240.28 L-18.63,240.28 L-18.63,235.42 L-23.49,235.42 L-23.49,240.28 L-28.34,240.28 L-28.34,235.42 L-23.49,235.42 L-23.49,230.57 L-28.34,230.57 L-28.34,225.71 L-33.20,225.71 L-33.20,230.57 L-28.34,230.57 L-28.34,235.42 L-33.20,235.42 L-33.20,240.28 L-38.06,240.28 L-38.06,235.42 L-42.92,235.42 L-42.92,240.28 L-38.06,240.28 L-38.06,245.14 L-42.92,245.14 L-42.92,250.00 L-38.06,250.00 L-38.06,254.86 L-33.20,254.86 L-33.20,250.00 L-28.34,250.00 L-28.34,254.86 L-33.20,254.86 L-33.20,259.72 L-38.06,259.72 L-38.06,254.86 L-42.92,254.86 L-42.92,259.72 L-47.78,259.72 L-47.78,254.86 L-42.92,254.86 L-42.92,250.00 L-47.78,250.00 L-47.78,245.14 L-52.64,245.14 L-52.64,250.00 L-57.49,250.00 L-57.49,245.14 L-52.64,245.14 L-52.64,240.28 L-47.78,240.28 L-47.78,245.14 L-42.92,245.14 L-42.92,240.28 L-47.78,240.28 L-47.78,235.42 L-42.92,235.42 L-42.92,230.57 L-47.78,230.57 L-47.78,225.71 L-52.64,225.71 L-52.64,230.57 L-57.49,230.57 L-57.49,225.71 L-52.64,225.71 L-52.64,220.85 L-47.78,220.85 L-47.78,225.71 L-42.92,225.71 L-42.92,220.85 L-38.06,220.85 L-38.06,225.71 L-42.92,225.71 L-42.92,230.57 L-38.06,230.57 L-38.06,235.42 L-33.20,235.42 L-33.20,230.57 L-38.06,230.57 L-38.06,225.71 L-33.20,225.71 L-33.20,220.85 L-28.34,220.85 L-28.34,225.71 L-23.49,225.71 L-23.49,220.85 L-28.34,220.85 L-28.34,215.99 L-23.49,215.99 L-23.49,211.13 L-28.34,211.13 L-28.34,206.27 L-33.20,206.27 L-33.20,211.13 L-38.06,211.13 L-38.06,206.27 L-33.20,206.27 L-33.20,201.42 L-28.34,201.42 L-28.34,206.27 L-23.49,206.27 L-23.49,201.42 L-18.63,201.42 L-18.63,206.27 L-23.49,206.27 L-23.49,211.13 L-18.63,211.13 L-18.63,215.99 L-13.77,215.99 L-13.77,211.13 L-8.91,211.13 L-8.91,215.99 L-13.77,215.99 L-13.77,220.85 L-18.63,220.85 L-18.63,215.99 L-23.49,215.99 L-23.49,220.85 L-18.63,220.85 L-18.63,225.71 L-23.49,225.71 L-23.49,230.57 L-18.63,230.57 L-18.63,235.42 L-13.77,235.42 L-13.77,230.57 L-18.63,230.57 L-18.63,225.71 L-13.77,225.71 L-13.77,220.85 L-8.91,220.85 L-8.91,225.71 L-4.05,225.71 L-4.05,220.85 L0.81,220.85 L0.81,225.71 L-4.05,225.71 L-4.05,230.57 L0.81,230.57 L0.81,235.42 L5.66,235.42 L5.66,230.57 L0.81,230.57 L0.81,225.71 L5.66,225.71 L5.66,220.85 L10.52,220.85 L10.52,225.71 L15.38,225.71 L15.38,220.85 L10.52,220.85 L10.52,215.99 L15.38,215.99 L15.38,211.13 L10.52,211.13 L10.52,206.27 L5.66,206.27 L5.66,211.13 L10.52,211.13 L10.52,215.99 L5.66,215.99 L5.66,220.85 L0.81,220.85 L0.81,215.99 L-4.05,215.99 L-4.05,220.85 L-8.91,220.85 L-8.91,215.99 L-4.05,215.99 L-4.05,211.13 L-8.91,211.13 L-8.91,206.27 L-13.77,206.27 L-13.77,211.13 L-18.63,211.13 L-18.63,206.27 L-13.77,206.27 L-13.77,201.42 L-8.91,201.42 L-8.91,206.27 L-4.05,206.27 L-4.05,201.42 L-8.91,201.42 L-8.91,196.56 L-4.05,196.56 L-4.05,191.70 L-8.91,191.70 L-8.91,186.84 L-13.77,186.84 L-13.77,191.70 L-18.63,191.70 L-18.63,186.84 L-13.77,186.84 L-13.77,181.98 L-8.91,181.98 L-8.91,186.84 L-4.05,186.84 L-4.05,181.98 L0.81,181.98 L0.81,186.84 L-4.05,186.84 L-4.05,191.70 L0.81,191.70 L0.81,196.56 L5.66,196.56 L5.66,191.70 L0.81,191.70 L0.81,186.84 L5.66,186.84 L5.66,181.98 L10.52,181.98 L10.52,186.84 L15.38,186.84 L15.38,181.98 L10.52,181.98 L10.52,177.12 L15.38,177.12 L15.38,172.27 L10.52,172.27 L10.52,167.41 L5.66,167.41 L5.66,172.27 L10.52,172.27 L10.52,177.12 L5.66,177.12 L5.66,181.98 L0.81,181.98 L0.81,177.12 L-4.05,177.12 L-4.05,181.98 L-8.91,181.98 L-8.91,177.12 L-4.05,177.12 L-4.05,172.27 L-8.91,172.27 L-8.91,167.41 L-13.77,167.41 L-13.77,172.27 L-18.63,172.27 L-18.63,167.41 L-13.77,167.41 L-13.77,162.55 L-8.91,162.55 L-8.91,167.41 L-4.05,167.41 L-4.05,162.55 L-8.91,162.55 L-8.91,157.69 L-4.05,157.69 L-4.05,152.83 L-8.91,152.83 L-8.91,147.97 L-13.77,147.97 L-13.77,152.83 L-8.91,152.83 L-8.91,157.69 L-13.77,157.69 L-13.77,162.55 L-18.63,162.55 L-18.63,157.69 L-23.49,157.69 L-23.49,162.55 L-28.34,162.55 L-28.34,157.69 L-23.49,157.69 L-23.49,152.83 L-28.34,152.83 L-28.34,147.97 L-33.20,147.97 L-33.20,152.83 L-28.34,152.83 L-28.34,157.69 L-33.20,157.69 L-33.20,162.55 L-38.06,162.55 L-38.06,157.69 L-42.92,157.69 L-42.92,162.55 L-38.06,162.55 L-38.06,167.41 L-42.92,167.41 L-42.92,172.27 L-38.06,172.27 L-38.06,177.12 L-33.20,177.12 L-33.20,172.27 L-38.06,172.27 L-38.06,167.41 L-33.20,167.41 L-33.20,162.55 L-28.34,162.55 L-28.34,167.41 L-23.49,167.41 L-23.49,162.55 L-18.63,162.55 L-18.63,167.41 L-23.49,167.41 L-23.49,172.27 L-18.63,172.27 L-18.63,177.12 L-13.77,177.12 L-13.77,172.27 L-8.91,172.27 L-8.91,177.12 L-13.77,177.12 L-13.77,181.98 L-18.63,181.98 L-18.63,177.12 L-23.49,177.12 L-23.49,181.98 L-18.63,181.98 L-18.63,186.84 L-23.49,186.84 L-23.49,191.70 L-18.63,191.70 L-18.63,196.56 L-13.77,196.56 L-13.77,191.70 L-8.91,191.70 L-8.91,196.56 L-13.77,196.56 L-13.77,201.42 L-18.63,201.42 L-18.63,196.56 L-23.49,196.56 L-23.49,201.42 L-28.34,201.42 L-28.34,196.56 L-23.49,196.56 L-23.49,191.70 L-28.34,191.70 L-28.34,186.84 L-33.20,186.84 L-33.20,191.70 L-28.34,191.70 L-28.34,196.56 L-33.20,196.56 L-33.20,201.42 L-38.06,201.42 L-38.06,196.56 L-42.92,196.56 L-42.92,201.42 L-38.06,201.42 L-38.06,206.27 L-42.92,206.27 L-42.92,211.13 L-38.06,211.13 L-38.06,215.99 L-33.20,215.99 L-33.20,211.13 L-28.34,211.13 L-28.34,215.99 L-33.20,215.99 L-33.20,220.85 L-38.06,220.85 L-38.06,215.99 L-42.92,215.99 L-42.92,220.85 L-47.78,220.85 L-47.78,215.99 L-42.92,215.99 L-42.92,211.13 L-47.78,211.13 L-47.78,206.27 L-52.64,206.27 L-52.64,211.13 L-57.49,211.13 L-57.49,206.27 L-52.64,206.27 L-52.64,201.42 L-47.78,201.42 L-47.78,206.27 L-42.92,206.27 L-42.92,201.42 L-47.78,201.42 L-47.78,196.56 L-42.92,196.56 L-42.92,191.70 L-47.78,191.70 L-47.78,186.84 L-52.64,186.84 L-52.64,191.70 L-47.78,191.70 L-47.78,196.56 L-52.64,196.56 L-52.64,201.42 L-57.49,201.42 L-57.49,196.56 L-62.35,196.56 L-62.35,201.42 L-67.21,201.42 L-67.21,196.56 L-62.35,196.56 L-62.35,191.70 L-67.21,191.70 L-67.21,186.84 L-72.07,186.84 L-72.07,191.70 L-67.21,191.70 L-67.21,196.56 L-72.07,196.56 L-72.07,201.42 L-76.93,201.42 L-76.93,196.56 L-81.79,196.56 L-81.79,201.42 L-76.93,201.42 L-76.93,206.27 L-81.79,206.27 L-81.79,211.13 L-76.93,211.13 L-76.93,215.99 L-72.07,215.99 L-72.07,211.13 L-67.21,211.13 L-67.21,215.99 L-72.07,215.99 L-72.07,220.85 L-76.93,220.85 L-76.93,215.99 L-81.79,215.99 L-81.79,220.85 L-86.64,220.85 L-86.64,215.99 L-81.79,215.99 L-81.79,211.13 L-86.64,211.13 L-86.64,206.27 L-91.50,206.27 L-91.50,211.13 L-96.36,211.13 L-96.36,206.27 L-91.50,206.27 L-91.50,201.42 L-86.64,201.42 L-86.64,206.27 L-81.79,206.27 L-81.79,201.42 L-86.64,201.42 L-86.64,196.56 L-81.79,196.56 L-81.79,191.70 L-86.64,191.70 L-86.64,186.84 L-91.50,186.84 L-91.50,191.70 L-96.36,191.70 L-96.36,186.84 L-91.50,186.84 L-91.50,181.98 L-86.64,181.98 L-86.64,186.84 L-81.79,186.84 L-81.79,181.98 L-76.93,181.98 L-76.93,186.84 L-81.79,186.84 L-81.79,191.70 L-76.93,191.70 L-76.93,196.56 L-72.07,196.56 L-72.07,191.70 L-76.93,191.70 L-76.93,186.84 L-72.07,186.84 L-72.07,181.98 L-67.21,181.98 L-67.21,186.84 L-62.35,186.84 L-62.35,181.98 L-67.21,181.98 L-67.21,177.12 L-62.35,177.12 L-62.35,172.27 L-67.21,172.27 L-67.21,167.41 L-72.07,167.41 L-72.07,172.27 L-67.21,172.27 L-67.21,177.12 L-72.07,177.12 L-72.07,181.98 L-76.93,181.98 L-76.93,177.12 L-81.79,177.12 L-81.79,181.98 L-86.64,181.98 L-86.64,177.12 L-81.79,177.12 L-81.79,172.27 L-86.64,172.27 L-86.64,167.41 L-91.50,167.41 L-91.50,172.27 L-96.36,172.27 L-96.36,167.41 L-91.50,167.41 L-91.50,162.55 L-86.64,162.55 L-86.64,167.41 L-81.79,167.41 L-81.79,162.55 L-86.64,162.55 L-86.64,157.69 L-81.79,157.69 L-81.79,152.83 L-86.64,152.83 L-86.64,147.97 L-91.50,147.97 L-91.50,152.83 L-86.64,152.83 L-86.64,157.69 L-91.50,157.69 L-91.50,162.55 L-96.36,162.55 L-96.36,157.69 L-101.22,157.69 L-101.22,162.55 L-106.08,162.55 L-106.08,157.69 L-101.22,157.69 L-101.22,152.83 L-106.08,152.83 L-106.08,147.97 L-110.94,147.97 L-110.94,152.83 L-106.08,152.83 L-106.08,157.69 L-110.94,157.69 L-110.94,162.55 L-115.80,162.55 L-115.80,157.69 L-120.65,157.69 L-120.65,162.55 L-115.80,162.55 L-115.80,167.41 L-120.65,167.41 L-120.65,172.27 L-115.80,172.27 L-115.80,177.12 L-110.94,177.12 L-110.94,172.27 L-115.80,172.27 L-115.80,167.41 L-110.94,167.41 L-110.94,162.55 L-106.08,162.55 L-106.08,167.41 L-101.22,167.41 L-101.22,162.55 L-96.36,162.55 L-96.36,167.41 L-101.22,167.41 L-101.22,172.27 L-96.36,172.27 L-96.36,177.12 L-91.50,177.12 L-91.50,172.27 L-86.64,172.27 L-86.64,177.12 L-91.50,177.12 L-91.50,181.98 L-96.36,181.98 L-96.36,177.12 L-101.22,177.12 L-101.22,181.98 L-96.36,181.98 L-96.36,186.84 L-101.22,186.84 L-101.22,191.70 L-96.36,191.70 L-96.36,196.56 L-91.50,196.56 L-91.50,191.70 L-86.64,191.70 L-86.64,196.56 L-91.50,196.56 L-91.50,201.42 L-96.36,201.42 L-96.36,196.56 L-101.22,196.56 L-101.22,201.42 L-106.08,201.42 L-106.08,196.56 L-101.22,196.56 L-101.22,191.70 L-106.08,191.70 L-106.08,186.84 L-110.94,186.84 L-110.94,191.70 L-106.08,191.70 L-106.08,196.56 L-110.94,196.56 L-110.94,201.42 L-115.80,201.42 L-115.80,196.56 L-120.65,196.56 L-120.65,201.42 L-115.80,201.42 L-115.80,206.27 L-120.65,206.27 L-120.65,211.13 L-115.80,211.13 L-115.80,215.99 L-110.94,215.99 L-110.94,211.13 L-106.08,211.13 L-106.08,215.99 L-110.94,215.99 L-110.94,220.85 L-115.80,220.85 L-115.80,215.99 L-120.65,215.99 L-120.65,220.85 L-125.51,220.85 L-125.51,215.99 L-120.65,215.99 L-120.65,211.13 L-125.51,211.13 L-125.51,206.27 L-130.37,206.27 L-130.37,211.13 L-135.23,211.13 L-135.23,206.27 L-130.37,206.27 L-130.37,201.42 L-125.51,201.42 L-125.51,206.27 L-120.65,206.27 L-120.65,201.42 L-125.51,201.42 L-125.51,196.56 L-120.65,196.56 L-120.65,191.70 L-125.51,191.70 L-125.51,186.84 L-130.37,186.84 L-130.37,191.70 L-125.51,191.70 L-125.51,196.56 L-130.37,196.56 L-130.37,201.42 L-135.23,201.42 L-135.23,196.56 L-140.09,196.56 L-140.09,201.42 L-144.95,201.42 L-144.95,196.56 L-140.09,196.56 L-140.09,191.70 L-144.95,191.70 L-144.95,186.84 L-149.80,186.84 L-149.80,191.70 L-144.95,191.70 L-144.95,196.56 L-149.80,196.56 L-149.80,201.42 L-154.66,201.42 L-154.66,196.56 L-159.52,196.56 L-159.52,201.42 L-154.66,201.42 L-154.66,206.27 L-159.52,206.27 L-159.52,211.13 L-154.66,211.13 L-154.66,215.99 L-149.80,215.99 L-149.80,211.13 L-154.66,211.13 L-154.66,206.27 L-149.80,206.27 L-149.80,201.42 L-144.95,201.42 L-144.95,206.27 L-140.09,206.27 L-140.09,201.42 L-135.23,201.42 L-135.23,206.27 L-140.09,206.27 L-140.09,211.13 L-135.23,211.13 L-135.23,215.99 L-130.37,215.99 L-130.37,211.13 L-125.51,211.13 L-125.51,215.99 L-130.37,215.99 L-130.37,220.85 L-135.23,220.85 L-135.23,215.99 L-140.09,215.99 L-140.09,220.85 L-135.23,220.85 L-135.23,225.71 L-140.09,225.71 L-140.09,230.57 L-135.23,230.57 L-135.23,235.42 L-130.37,235.42 L-130.37,230.57 L-125.51,230.57 L-125.51,235.42 L-130.37,235.42 L-130.37,240.28 L-135.23,240.28 L-135.23,235.42 L-140.09,235.42 L-140.09,240.28 L-144.95,240.28 L-144.95,235.42 L-140.09,235.42 L-140.09,230.57 L-144.95,230.57 L-144.95,225.71 L-149.80,225.71 L-149.80,230.57 L-144.95,230.57 L-144.95,235.42 L-149.80,235.42 L-149.80,240.28 L-154.66,240.28 L-154.66,235.42 L-159.52,235.42 L-159.52,240.28 L-154.66,240.28 L-154.66,245.14 L-159.52,245.14 L-159.52,250.00 L-154.66,250.00 L-154.66,254.86 L-149.80,254.86 L-149.80,250.00 L-154.66,250.00 L-154.66,245.14 L-149.80,245.14 L-149.80,240.28 L-144.95,240.28 L-144.95,245.14 L-140.09,245.14 L-140.09,240.28 L-135.23,240.28 L-135.23,245.14 L-140.09,245.14 L-140.09,250.00 L-135.23,250.00 L-135.23,254.86 L-130.37,254.86 L-130.37,250.00 L-125.51,250.00 L-125.51,254.86 L-130.37,254.86 L-130.37,259.72 L-135.23,259.72 L-135.23,254.86 L-140.09,254.86 L-140.09,259.72 L-135.23,259.72 L-135.23,264.58 L-140.09,264.58 L-140.09,269.43 L-135.23,269.43 L-135.23,274.29 L-130.37,274.29 L-130.37,269.43 L-135.23,269.43 L-135.23,264.58 L-130.37,264.58 L-130.37,259.72 L-125.51,259.72 L-125.51,264.58 L-120.65,264.58 L-120.65,259.72 L-115.80,259.72 L-115.80,264.58 L-120.65,264.58 L-120.65,269.43 L-115.80,269.43 L-115.80,274.29 L-110.94,274.29 L-110.94,269.43 L-115.80,269.43 L-115.80,264.58 L-110.94,264.58 L-110.94,259.72 L-106.08,259.72 L-106.08,264.58 L-101.22,264.58 L-101.22,259.72 L-106.08,259.72 L-106.08,254.86 L-101.22,254.86 L-101.22,250.00 L-106.08,250.00 L-106.08,245.14 L-110.94,245.14 L-110.94,250.00" fill="none" stroke="crimson" stroke-width="0.5"/>
</svg>