<svg xmlns="http://www.w3.org/2000/svg" width="400" height="400" viewBox="0 0 400 400">
  <g>
    <circle cx="200" cy="200" r="8" fill="coral" stroke="darkred" stroke-width="2"/>
    <rect x="100" y="100" width="200" height="200" fill="none" stroke="black" stroke-width="2"/>
    <circle cx="200" cy="200" r="8" fill="coral" stroke="darkred" stroke-width="2"/>
    <circle cx="200" cy="200" r="10" fill="coral" stroke="darkred" stroke-width="2"/>
    <circle cx="200" cy="200" r="12" fill="coral" stroke="darkred" stroke-width="2"/>
    <circle cx="200" cy="200" r="14" fill="coral" stroke="darkred" stroke-width="2"/>
    <circle cx="200" cy="200" r="16" fill="coral" stroke="darkred" stroke-width="2"/>
    <circle cx="200" cy="200" r="18" fill="coral" stroke="darkred" stroke-width="2"/>
    <circle cx="200" cy="200" r="20" fill="coral" stroke="darkred" stroke-width="2"/>
    <circle cx="200" cy="200" r="22" fill="coral" stroke="darkred" stroke-width="2"/>
    <circle cx="200" cy="200" r="24" fill="coral" stroke="darkred" stroke-width="2"/>
    <circle cx="200" cy="200" r="26" fill="coral" stroke="darkred" stroke-width="2"/>
    <circle cx="200" cy="200" r="28" fill="coral" stroke="darkred" stroke-width="2"/>
    <circle cx="200" cy="200" r="30" fill="coral" stroke="darkred" stroke-width="2"/>
    <circle cx="200" cy="200" r="32" fill="coral" stroke="darkred" stroke-width="2"/>
    <circle cx="200" cy="200" r="34" fill="coral" stroke="darkred" stroke-width="2"/>
    <circle cx="200" cy="200" r="36" fill="coral" stroke="darkred" stroke-width="2"/>
    <circle cx="200" cy="200" r="38" fill="coral" stroke="darkred" stroke-width="2"/>
    <circle cx="200" cy="200" r="40" fill="coral" stroke="darkred" stroke-width="2"/>
    <circle cx="200" cy="200" r="42" fill="coral" stroke="darkred" stroke-width="2"/>
    <circle cx="200" cy="200" r="44" fill="coral" stroke="darkred" stroke-width="2"/>
    <circle cx="200" cy="200" r="46" fill="coral" stroke="darkred" stroke-width="2"/>
    <circle cx="240" cy="200" r="8" fill="coral" stroke="darkred" stroke-width="2"/>
    <circle cx="236.8102732440601" cy="226.74422897930754" r="8" fill="coral" stroke="darkred" stroke-width="2"/>
    <circle cx="215.75986671312234" cy="248.50388233105284" r="8" fill="coral" stroke="darkred" stroke-width="2"/>
    <circle cx="182.54053981781547" cy="253.73469317067617" r="8" fill="coral" stroke="darkred" stroke-width="2"/>
    <circle cx="149.84094634875328" cy="236.44268564213334" r="8" fill="coral" stroke="darkred" stroke-width="2"/>
    <circle cx="132.5" cy="200" r="8" fill="coral" stroke="darkred" stroke-width="2"/>
    <circle cx="140.94175941062883" cy="157.09167658264948" r="8" fill="coral" stroke="darkred" stroke-width="2"/>
    <circle cx="175.7421659415666" cy="125.34206347083045" r="8" fill="coral" stroke="darkred" stroke-width="2"/>
    <circle cx="225.95742752749555" cy="120.1112526312071" r="8" fill="coral" stroke="darkred" stroke-width="2"/>
    <circle cx="272.4070209965578" cy="147.39321991982365" r="8" fill="coral" stroke="darkred" stroke-width="2"/>
    <circle cx="295" cy="199.99999999999997" r="8" fill="coral" stroke="darkred" stroke-width="2"/>
    <circle cx="281.3062079346822" cy="259.0724178553936" r="8" fill="coral" stroke="darkred" stroke-width="2"/>
    <circle cx="232.75580140374444" cy="300.8119907272863" r="8" fill="coral" stroke="darkred" stroke-width="2"/>
    <circle cx="165.5446051271934" cy="306.04280156690965" r="8" fill="coral" stroke="darkred" stroke-width="2"/>
    <circle cx="105.34501165813117" cy="268.7708745182194" r="8" fill="coral" stroke="darkred" stroke-width="2"/>
    <circle cx="77.5" cy="200.00000000000006" r="8" fill="coral" stroke="darkred" stroke-width="2"/>
    <circle cx="96.4458247200067" cy="124.76348770656348" r="8" fill="coral" stroke="darkred" stroke-width="2"/>
    <circle cx="158.74623125094445" cy="73.03395507459702" r="8" fill="coral" stroke="darkred" stroke-width="2"/>
    <circle cx="242.95336221811763" cy="67.80314423497362" r="8" fill="coral" stroke="darkred" stroke-width="2"/>
    <circle cx="316.9029556871799" cy="115.06503104373758" r="8" fill="coral" stroke="darkred" stroke-width="2"/>
    <circle cx="350" cy="199.99999999999991" r="8" fill="coral" stroke="darkred" stroke-width="2"/>
  </g>
</svg>