<svg xmlns="http://www.w3.org/2000/svg" width="400" height="400" viewBox="0 0 400 400">
  <path d="M220.00,200.00 L220.26,206.58 L218.28,213.28 L214.05,219.34 L207.79,223.97 L200.00,226.50 L191.41,226.44 L182.90,223.54 L175.41,217.87 L169.85,209.80 L167.00,200.00 L167.38,189.40 L171.20,179.07 L178.31,170.15 L188.20,163.67 L200.00,160.50 L212.61,161.20 L224.75,165.94 L235.11,174.49 L242.51,186.19 L246.00,200.00 L244.98,214.62 L239.32,228.57 L229.33,240.37 L215.82,248.69 L200.00,252.50 L183.37,251.17 L167.61,244.58 L154.37,233.15 L145.12,217.83 L141.00,200.00 L142.65,181.37 L150.16,163.79 L163.03,149.11 L180.16,138.94 L200.00,134.50 L220.64,136.47 L240.03,144.91 L256.15,159.21 L267.24,178.15 L272.00,200.00 L269.71,222.65 L260.35,243.85 L244.61,261.40 L223.86,273.42 L200.00,278.50 L175.34,275.89 L152.33,265.61 L133.34,248.43 L120.40,225.86 L115.00,200.00 L117.92,173.33 L129.13,148.51 L147.75,128.08 L172.13,114.21 L200.00,108.50 L228.68,111.74 L255.31,123.87 L277.18,143.93 L291.97,170.12 L298.00,200.00 L294.44,230.69 L281.39,259.13 L259.90,282.44 L231.89,298.15 L200.00,304.50 L167.31,300.62 L137.05,286.65 L112.30,263.72 L95.67,233.90 L89.00,200.00 L93.20,165.30 L108.10,133.23 L132.46,107.04 L164.09,89.49 L200.00,82.50 L236.71,87.01 L270.59,102.84 L298.21,128.64 L316.69,162.08 L324.00,200.00 L319.17,238.72 L302.42,274.41 L275.18,303.47 L239.92,322.88 L200.00,330.50 L159.27,325.35 L121.77,307.68 L91.27,279.00 L70.94,241.93 L63.00,200.00 L68.47,157.26 L87.06,117.95 L117.18,86.01 L156.06,64.76 L200.00,56.50 L244.75,62.29 L285.88,81.80 L319.25,113.36 L341.42,154.05 L350.00,200.00" fill="none" stroke="blue" stroke-width="1.5"/>
  <path d="M221.62,201.18 L221.51,208.31 L218.98,215.43 L214.05,221.73 L207.01,226.36 L198.44,228.64 L189.16,228.07 L180.13,224.44 L172.37,217.87 L166.84,208.82 L164.33,198.06 L165.36,186.63 L170.10,175.69 L178.31,166.46 L189.38,160.04 L202.32,157.30 L215.91,158.80 L228.75,164.64 L239.45,174.49 L246.76,187.57 L249.72,202.70 L247.77,218.44 L240.82,233.19 L229.33,245.36 L214.24,253.56 L196.91,256.75 L179.02,254.33 L162.37,246.28 L148.73,233.15 L139.64,216.05 L136.23,196.53 L139.11,176.49 L148.26,157.93 L163.03,142.82 L182.14,132.84 L203.85,129.20 L226.05,132.54 L246.50,142.80 L263.09,159.21 L273.96,180.34 L277.82,204.23 L274.02,228.58 L262.66,250.94 L244.61,268.99 L221.47,280.76 L195.39,284.85 L168.88,280.58 L144.62,268.12 L125.10,248.43 L112.44,223.28 L108.12,195.00 L112.85,166.35 L126.42,140.18 L147.75,119.19 L174.91,105.64 L205.38,101.10 L236.18,106.29 L264.26,120.96 L286.72,143.93 L301.16,173.11 L305.93,205.76 L300.28,238.72 L284.50,268.70 L259.90,292.63 L228.70,307.96 L193.86,312.95 L158.75,306.84 L126.86,289.96 L101.46,263.72 L85.24,230.51 L80.02,193.48 L86.60,156.21 L104.59,122.42 L132.46,95.55 L167.68,78.44 L206.91,72.99 L246.32,80.03 L282.02,99.13 L310.35,128.64 L328.36,165.88 L334.03,207.29 L326.53,248.86 L306.33,286.45 L275.18,316.26 L235.93,335.16 L192.33,341.06 L148.61,333.10 L109.11,311.79 L77.83,279.00 L58.04,237.74 L51.92,191.95 L60.34,146.07 L82.75,104.67 L117.18,71.92 L160.45,51.24 L208.43,44.89 L256.46,53.78 L299.77,77.29 L333.99,113.36 L355.56,158.64 L362.14,208.82" fill="none" stroke="green" stroke-width="1.5"/>
  <path d="M280.00,200.00 L279.33,202.49 L277.33,204.87 L274.05,207.00 L269.55,208.79 L263.92,210.12 L257.28,210.93 L249.77,211.12 L241.52,210.66 L232.71,209.50 L223.51,207.64 L214.10,205.08 L204.67,201.85 L195.39,198.01 L186.44,193.62 L177.97,188.78 L170.15,183.59 L163.10,178.18 L156.94,172.68 L151.77,167.22 L147.64,161.96 L144.61,157.03 L142.69,152.59 L141.88,148.76 L142.14,145.67 L143.43,143.43 L145.67,142.14 L148.76,141.88 L152.59,142.69 L157.03,144.61 L161.96,147.64 L167.22,151.77 L172.68,156.94 L178.18,163.10 L183.59,170.15 L188.78,177.97 L193.62,186.44 L198.01,195.39 L201.85,204.67 L205.08,214.10 L207.64,223.51 L209.50,232.71 L210.66,241.52 L211.12,249.77 L210.93,257.28 L210.12,263.92 L208.79,269.55 L207.00,274.05 L204.87,277.33 L202.49,279.33 L200.00,280.00 L197.51,279.33 L195.13,277.33 L193.00,274.05 L191.21,269.55 L189.88,263.92 L189.07,257.28 L188.88,249.77 L189.34,241.52 L190.50,232.71 L192.36,223.51 L194.92,214.10 L198.15,204.67 L201.99,195.39 L206.38,186.44 L211.22,177.97 L216.41,170.15 L221.82,163.10 L227.32,156.94 L232.78,151.77 L238.04,147.64 L242.97,144.61 L247.41,142.69 L251.24,141.88 L254.33,142.14 L256.57,143.43 L257.86,145.67 L258.12,148.76 L257.31,152.59 L255.39,157.03 L252.36,161.96 L248.23,167.22 L243.06,172.68 L236.90,178.18 L229.85,183.59 L222.03,188.78 L213.56,193.62 L204.61,198.01 L195.33,201.85 L185.90,205.08 L176.49,207.64 L167.29,209.50 L158.48,210.66 L150.23,211.12 L142.72,210.93 L136.08,210.12 L130.45,208.79 L125.95,207.00 L122.67,204.87 L120.67,202.49 L120.00,200.00 L120.67,197.51 L122.67,195.13 L125.95,193.00 L130.45,191.21 L136.08,189.88 L142.72,189.07 L150.23,188.88 L158.48,189.34 L167.29,190.50 L176.49,192.36 L185.90,194.92 L195.33,198.15 L204.61,201.99 L213.56,206.38 L222.03,211.22 L229.85,216.41 L236.90,221.82 L243.06,227.32 L248.23,232.78 L252.36,238.04 L255.39,242.97 L257.31,247.41 L258.12,251.24 L257.86,254.33 L256.57,256.57 L254.33,257.86 L251.24,258.12 L247.41,257.31 L242.97,255.39 L238.04,252.36 L232.78,248.23 L227.32,243.06 L221.82,236.90 L216.41,229.85 L211.22,222.03 L206.38,213.56 L201.99,204.61 L198.15,195.33 L194.92,185.90 L192.36,176.49 L190.50,167.29 L189.34,158.48 L188.88,150.23 L189.07,142.72 L189.88,136.08 L191.21,130.45 L193.00,125.95 L195.13,122.67 L197.51,120.67 L200.00,120.00 L202.49,120.67 L204.87,122.67 L207.00,125.95 L208.79,130.45 L210.12,136.08 L210.93,142.72 L211.12,150.23 L210.66,158.48 L209.50,167.29 L207.64,176.49 L205.08,185.90 L201.85,195.33 L198.01,204.61 L193.62,213.56 L188.78,222.03 L183.59,229.85 L178.18,236.90 L172.68,243.06 L167.22,248.23 L161.96,252.36 L157.03,255.39 L152.59,257.31 L148.76,258.12 L145.67,257.86 L143.43,256.57 L142.14,254.33 L141.88,251.24 L142.69,247.41 L144.61,242.97 L147.64,238.04 L151.77,232.78 L156.94,227.32 L163.10,221.82 L170.15,216.41 L177.97,211.22 L186.44,206.38 L195.39,201.99 L204.67,198.15 L214.10,194.92 L223.51,192.36 L232.71,190.50 L241.52,189.34 L249.77,188.88 L257.28,189.07 L263.92,189.88 L269.55,191.21 L274.05,193.00 L277.33,195.13 L279.33,197.51 L280.00,200.00" fill="none" stroke="red" stroke-width="1.5"/>
</svg>