<svg xmlns="http://www.w3.org/2000/svg" width="400" height="400" viewBox="0 0 400 400">
  <circle cx="41.333333333333336" cy="41.333333333333336" r="8" fill="#8b7355" stroke="none" stroke-width="2"/>
  <circle cx="64" cy="41.333333333333336" r="4.059886374342149" fill="#2d5a27" stroke="none" stroke-width="2"/>
  <circle cx="86.66666666666667" cy="41.333333333333336" r="5.674732986778881" fill="#4a7c42" stroke="none" stroke-width="2"/>
  <circle cx="109.33333333333334" cy="41.333333333333336" r="7.633529343832863" fill="#4a7c42" stroke="none" stroke-width="2"/>
  <circle cx="132" cy="41.333333333333336" r="10.05351016606712" fill="#8b7355" stroke="none" stroke-width="2"/>
  <circle cx="154.66666666666669" cy="41.333333333333336" r="8.95198960898543" fill="#8b7355" stroke="none" stroke-width="2"/>
  <circle cx="177.33333333333334" cy="41.333333333333336" r="12.053249069898326" fill="#a0a0a0" stroke="none" stroke-width="2"/>
  <circle cx="200" cy="41.333333333333336" r="13.913907077364389" fill="#a0a0a0" stroke="none" stroke-width="2"/>
  <circle cx="222.66666666666669" cy="41.333333333333336" r="13.239448286205413" fill="#a0a0a0" stroke="none" stroke-width="2"/>
  <circle cx="245.33333333333334" cy="41.333333333333336" r="9.095766789338143" fill="#8b7355" stroke="none" stroke-width="2"/>
  <circle cx="268" cy="41.333333333333336" r="8.270399492375061" fill="#8b7355" stroke="none" stroke-width="2"/>
  <circle cx="290.6666666666667" cy="41.333333333333336" r="7.9739203138648245" fill="#4a7c42" stroke="none" stroke-width="2"/>
  <circle cx="313.33333333333337" cy="41.333333333333336" r="10.543484709050768" fill="#8b7355" stroke="none" stroke-width="2"/>
  <circle cx="336" cy="41.333333333333336" r="10.1777022629004" fill="#8b7355" stroke="none" stroke-width="2"/>
  <circle cx="358.6666666666667" cy="41.333333333333336" r="11.917907173504767" fill="#a0a0a0" stroke="none" stroke-width="2"/>
  <circle cx="41.333333333333336" cy="64" r="4.626606689843996" fill="#2d5a27" stroke="none" stroke-width="2"/>
  <circle cx="64" cy="64" r="3.9759279986112137" fill="#2d5a27" stroke="none" stroke-width="2"/>
  <circle cx="86.66666666666667" cy="64" r="6.615631310072667" fill="#4a7c42" stroke="none" stroke-width="2"/>
  <circle cx="109.33333333333334" cy="64" r="7.3417776360587075" fill="#4a7c42" stroke="none" stroke-width="2"/>
  <circle cx="132" cy="64" r="9.78869901463014" fill="#8b7355" stroke="none" stroke-width="2"/>
  <circle cx="154.66666666666669" cy="64" r="9.516503520198663" fill="#8b7355" stroke="none" stroke-width="2"/>
  <circle cx="177.33333333333334" cy="64" r="8.927376568411898" fill="#8b7355" stroke="none" stroke-width="2"/>
  <circle cx="200" cy="64" r="12.554379512104369" fill="#a0a0a0" stroke="none" stroke-width="2"/>
  <circle cx="222.66666666666669" cy="64" r="10.589590973914135" fill="#8b7355" stroke="none" stroke-width="2"/>
  <circle cx="245.33333333333334" cy="64" r="8.592794853395917" fill="#8b7355" stroke="none" stroke-width="2"/>
  <circle cx="268" cy="64" r="7.003670320255548" fill="#4a7c42" stroke="none" stroke-width="2"/>
  <circle cx="290.6666666666667" cy="64" r="6.0314952445930565" fill="#4a7c42" stroke="none" stroke-width="2"/>
  <circle cx="313.33333333333337" cy="64" r="5.148614969790954" fill="#4a7c42" stroke="none" stroke-width="2"/>
  <circle cx="336" cy="64" r="6.639251203943451" fill="#4a7c42" stroke="none" stroke-width="2"/>
  <circle cx="358.6666666666667" cy="64" r="10.871930043500491" fill="#8b7355" stroke="none" stroke-width="2"/>
  <circle cx="41.333333333333336" cy="86.66666666666667" r="6.074058592377742" fill="#4a7c42" stroke="none" stroke-width="2"/>
  <circle cx="64" cy="86.66666666666667" r="5.678053267084234" fill="#4a7c42" stroke="none" stroke-width="2"/>
  <circle cx="86.66666666666667" cy="86.66666666666667" r="7.822060203585202" fill="#4a7c42" stroke="none" stroke-width="2"/>
  <circle cx="109.33333333333334" cy="86.66666666666667" r="9.768685270738343" fill="#8b7355" stroke="none" stroke-width="2"/>
  <circle cx="132" cy="86.66666666666667" r="11.483783444128829" fill="#a0a0a0" stroke="none" stroke-width="2"/>
  <circle cx="154.66666666666669" cy="86.66666666666667" r="11.157954891092185" fill="#8b7355" stroke="none" stroke-width="2"/>
  <circle cx="177.33333333333334" cy="86.66666666666667" r="8.635663637980869" fill="#8b7355" stroke="none" stroke-width="2"/>
  <circle cx="200" cy="86.66666666666667" r="8.913924065797431" fill="#8b7355" stroke="none" stroke-width="2"/>
  <circle cx="222.66666666666669" cy="86.66666666666667" r="9.224223784195116" fill="#8b7355" stroke="none" stroke-width="2"/>
  <circle cx="245.33333333333334" cy="86.66666666666667" r="8.038218199093428" fill="#8b7355" stroke="none" stroke-width="2"/>
  <circle cx="268" cy="86.66666666666667" r="6.050538727874625" fill="#4a7c42" stroke="none" stroke-width="2"/>
  <circle cx="290.6666666666667" cy="86.66666666666667" r="5.726593158487592" fill="#4a7c42" stroke="none" stroke-width="2"/>
  <circle cx="313.33333333333337" cy="86.66666666666667" r="3.78495266605385" fill="#2d5a27" stroke="none" stroke-width="2"/>
  <circle cx="336" cy="86.66666666666667" r="6.523589572560537" fill="#4a7c42" stroke="none" stroke-width="2"/>
  <circle cx="358.6666666666667" cy="86.66666666666667" r="10.686673012480234" fill="#8b7355" stroke="none" stroke-width="2"/>
  <circle cx="41.333333333333336" cy="109.33333333333334" r="8.881278187135422" fill="#8b7355" stroke="none" stroke-width="2"/>
  <circle cx="64" cy="109.33333333333334" r="8.745090274280432" fill="#8b7355" stroke="none" stroke-width="2"/>
  <circle cx="86.66666666666667" cy="109.33333333333334" r="8.206869767297002" fill="#8b7355" stroke="none" stroke-width="2"/>
  <circle cx="109.33333333333334" cy="109.33333333333334" r="9.540203936485309" fill="#8b7355" stroke="none" stroke-width="2"/>
  <circle cx="132" cy="109.33333333333334" r="11.81535761683773" fill="#a0a0a0" stroke="none" stroke-width="2"/>
  <circle cx="154.66666666666669" cy="109.33333333333334" r="10.20625657652301" fill="#8b7355" stroke="none" stroke-width="2"/>
  <circle cx="177.33333333333334" cy="109.33333333333334" r="8.498071136354822" fill="#8b7355" stroke="none" stroke-width="2"/>
  <circle cx="200" cy="109.33333333333334" r="7.351482608727545" fill="#4a7c42" stroke="none" stroke-width="2"/>
  <circle cx="222.66666666666669" cy="109.33333333333334" r="8.401888618770863" fill="#8b7355" stroke="none" stroke-width="2"/>
  <circle cx="245.33333333333334" cy="109.33333333333334" r="8.327022133505075" fill="#8b7355" stroke="none" stroke-width="2"/>
  <circle cx="268" cy="109.33333333333334" r="9.17221734793022" fill="#8b7355" stroke="none" stroke-width="2"/>
  <circle cx="290.6666666666667" cy="109.33333333333334" r="8.482643777276317" fill="#8b7355" stroke="none" stroke-width="2"/>
  <circle cx="313.33333333333337" cy="109.33333333333334" r="6.141906142787878" fill="#4a7c42" stroke="none" stroke-width="2"/>
  <circle cx="336" cy="109.33333333333334" r="7.8151635240899395" fill="#4a7c42" stroke="none" stroke-width="2"/>
  <circle cx="358.6666666666667" cy="109.33333333333334" r="8.623767213278454" fill="#8b7355" stroke="none" stroke-width="2"/>
  <circle cx="41.333333333333336" cy="132" r="9.037048728861604" fill="#8b7355" stroke="none" stroke-width="2"/>
  <circle cx="64" cy="132" r="9.625889503474044" fill="#8b7355" stroke="none" stroke-width="2"/>
  <circle cx="86.66666666666667" cy="132" r="9.378363468256634" fill="#8b7355" stroke="none" stroke-width="2"/>
  <circle cx="109.33333333333334" cy="132" r="10.500966313670958" fill="#8b7355" stroke="none" stroke-width="2"/>
  <circle cx="132" cy="132" r="10.25728652354053" fill="#8b7355" stroke="none" stroke-width="2"/>
  <circle cx="154.66666666666669" cy="132" r="9.034738959005406" fill="#8b7355" stroke="none" stroke-width="2"/>
  <circle cx="177.33333333333334" cy="132" r="7.3090591383072" fill="#4a7c42" stroke="none" stroke-width="2"/>
  <circle cx="200" cy="132" r="9.355986097435586" fill="#8b7355" stroke="none" stroke-width="2"/>
  <circle cx="222.66666666666669" cy="132" r="8.954587004058638" fill="#8b7355" stroke="none" stroke-width="2"/>
  <circle cx="245.33333333333334" cy="132" r="10.583708031951307" fill="#8b7355" stroke="none" stroke-width="2"/>
  <circle cx="268" cy="132" r="10.365391845828764" fill="#8b7355" stroke="none" stroke-width="2"/>
  <circle cx="290.6666666666667" cy="132" r="8.590460528390562" fill="#8b7355" stroke="none" stroke-width="2"/>
  <circle cx="313.33333333333337" cy="132" r="5.787330228325237" fill="#4a7c42" stroke="none" stroke-width="2"/>
  <circle cx="336" cy="132" r="4.875141690339579" fill="#4a7c42" stroke="none" stroke-width="2"/>
  <circle cx="358.6666666666667" cy="132" r="5.230029780470836" fill="#4a7c42" stroke="none" stroke-width="2"/>
  <circle cx="41.333333333333336" cy="154.66666666666669" r="10.44161948471066" fill="#8b7355" stroke="none" stroke-width="2"/>
  <circle cx="64" cy="154.66666666666669" r="10.776073155255204" fill="#8b7355" stroke="none" stroke-width="2"/>
  <circle cx="86.66666666666667" cy="154.66666666666669" r="10.447481661323451" fill="#8b7355" stroke="none" stroke-width="2"/>
  <circle cx="109.33333333333334" cy="154.66666666666669" r="7.766381292859166" fill="#4a7c42" stroke="none" stroke-width="2"/>
  <circle cx="132" cy="154.66666666666669" r="5.732995094459641" fill="#4a7c42" stroke="none" stroke-width="2"/>
  <circle cx="154.66666666666669" cy="154.66666666666669" r="5.154390859645367" fill="#4a7c42" stroke="none" stroke-width="2"/>
  <circle cx="177.33333333333334" cy="154.66666666666669" r="4.327947831416104" fill="#2d5a27" stroke="none" stroke-width="2"/>
  <circle cx="200" cy="154.66666666666669" r="6.347503274164099" fill="#4a7c42" stroke="none" stroke-width="2"/>
  <circle cx="222.66666666666669" cy="154.66666666666669" r="8.822540747550416" fill="#8b7355" stroke="none" stroke-width="2"/>
  <circle cx="245.33333333333334" cy="154.66666666666669" r="11.242034494984459" fill="#a0a0a0" stroke="none" stroke-width="2"/>
  <circle cx="268" cy="154.66666666666669" r="9.451381049014005" fill="#8b7355" stroke="none" stroke-width="2"/>
  <circle cx="290.6666666666667" cy="154.66666666666669" r="8.83182702387409" fill="#8b7355" stroke="none" stroke-width="2"/>
  <circle cx="313.33333333333337" cy="154.66666666666669" r="7.857051315317556" fill="#4a7c42" stroke="none" stroke-width="2"/>
  <circle cx="336" cy="154.66666666666669" r="5.634675825145035" fill="#4a7c42" stroke="none" stroke-width="2"/>
  <circle cx="358.6666666666667" cy="154.66666666666669" r="5.299386867723995" fill="#4a7c42" stroke="none" stroke-width="2"/>
  <circle cx="41.333333333333336" cy="177.33333333333334" r="12.600245178987267" fill="#a0a0a0" stroke="none" stroke-width="2"/>
  <circle cx="64" cy="177.33333333333334" r="11.69252973737613" fill="#a0a0a0" stroke="none" stroke-width="2"/>
  <circle cx="86.66666666666667" cy="177.33333333333334" r="10.655485959540838" fill="#8b7355" stroke="none" stroke-width="2"/>
  <circle cx="109.33333333333334" cy="177.33333333333334" r="8.191706985631956" fill="#8b7355" stroke="none" stroke-width="2"/>
  <circle cx="132" cy="177.33333333333334" r="3.9726134195697425" fill="#2d5a27" stroke="none" stroke-width="2"/>
  <circle cx="154.66666666666669" cy="177.33333333333334" r="3.079761916614376" fill="#2d5a27" stroke="none" stroke-width="2"/>
  <circle cx="177.33333333333334" cy="177.33333333333334" r="3.8323456028146143" fill="#2d5a27" stroke="none" stroke-width="2"/>
  <circle cx="200" cy="177.33333333333334" r="5.49924397782676" fill="#4a7c42" stroke="none" stroke-width="2"/>
  <circle cx="222.66666666666669" cy="177.33333333333334" r="8.849478855911137" fill="#8b7355" stroke="none" stroke-width="2"/>
  <circle cx="245.33333333333334" cy="177.33333333333334" r="10.437410882757412" fill="#8b7355" stroke="none" stroke-width="2"/>
  <circle cx="268" cy="177.33333333333334" r="10.1515005050027" fill="#8b7355" stroke="none" stroke-width="2"/>
  <circle cx="290.6666666666667" cy="177.33333333333334" r="9.973351532346452" fill="#8b7355" stroke="none" stroke-width="2"/>
  <circle cx="313.33333333333337" cy="177.33333333333334" r="10.110531747788041" fill="#8b7355" stroke="none" stroke-width="2"/>
  <circle cx="336" cy="177.33333333333334" r="8.685236036203344" fill="#8b7355" stroke="none" stroke-width="2"/>
  <circle cx="358.6666666666667" cy="177.33333333333334" r="4.893976012495553" fill="#4a7c42" stroke="none" stroke-width="2"/>
  <circle cx="41.333333333333336" cy="200" r="8.703578670026161" fill="#8b7355" stroke="none" stroke-width="2"/>
  <circle cx="64" cy="200" r="8.737625591341438" fill="#8b7355" stroke="none" stroke-width="2"/>
  <circle cx="86.66666666666667" cy="200" r="7.658983076287732" fill="#4a7c42" stroke="none" stroke-width="2"/>
  <circle cx="109.33333333333334" cy="200" r="7.536924924273827" fill="#4a7c42" stroke="none" stroke-width="2"/>
  <circle cx="132" cy="200" r="3.484524716898875" fill="#2d5a27" stroke="none" stroke-width="2"/>
  <circle cx="154.66666666666669" cy="200" r="4.286362887678463" fill="#2d5a27" stroke="none" stroke-width="2"/>
  <circle cx="177.33333333333334" cy="200" r="6.428798072127606" fill="#4a7c42" stroke="none" stroke-width="2"/>
  <circle cx="200" cy="200" r="7.479649456980409" fill="#4a7c42" stroke="none" stroke-width="2"/>
  <circle cx="222.66666666666669" cy="200" r="9.069214475476619" fill="#8b7355" stroke="none" stroke-width="2"/>
  <circle cx="245.33333333333334" cy="200" r="9.808372546845945" fill="#8b7355" stroke="none" stroke-width="2"/>
  <circle cx="268" cy="200" r="10.591182886234943" fill="#8b7355" stroke="none" stroke-width="2"/>
  <circle cx="290.6666666666667" cy="200" r="12.482785487281408" fill="#a0a0a0" stroke="none" stroke-width="2"/>
  <circle cx="313.33333333333337" cy="200" r="9.782439789613058" fill="#8b7355" stroke="none" stroke-width="2"/>
  <circle cx="336" cy="200" r="10.363708400331586" fill="#8b7355" stroke="none" stroke-width="2"/>
  <circle cx="358.6666666666667" cy="200" r="8.374338540532142" fill="#8b7355" stroke="none" stroke-width="2"/>
  <circle cx="41.333333333333336" cy="222.66666666666669" r="8.069692883968372" fill="#8b7355" stroke="none" stroke-width="2"/>
  <circle cx="64" cy="222.66666666666669" r="7.636766025495602" fill="#4a7c42" stroke="none" stroke-width="2"/>
  <circle cx="86.66666666666667" cy="222.66666666666669" r="7.807103930757966" fill="#4a7c42" stroke="none" stroke-width="2"/>
  <circle cx="109.33333333333334" cy="222.66666666666669" r="5.679713815377761" fill="#4a7c42" stroke="none" stroke-width="2"/>
  <circle cx="132" cy="222.66666666666669" r="5.021569628458881" fill="#4a7c42" stroke="none" stroke-width="2"/>
  <circle cx="154.66666666666669" cy="222.66666666666669" r="5.439747342044686" fill="#4a7c42" stroke="none" stroke-width="2"/>
  <circle cx="177.33333333333334" cy="222.66666666666669" r="6.096388184000313" fill="#4a7c42" stroke="none" stroke-width="2"/>
  <circle cx="200" cy="222.66666666666669" r="8.024440758241262" fill="#8b7355" stroke="none" stroke-width="2"/>
  <circle cx="222.66666666666669" cy="222.66666666666669" r="8.987508863444996" fill="#8b7355" stroke="none" stroke-width="2"/>
  <circle cx="245.33333333333334" cy="222.66666666666669" r="9.708722235935959" fill="#8b7355" stroke="none" stroke-width="2"/>
  <circle cx="268" cy="222.66666666666669" r="12.615717384810168" fill="#a0a0a0" stroke="none" stroke-width="2"/>
  <circle cx="290.6666666666667" cy="222.66666666666669" r="13.250295079744411" fill="#a0a0a0" stroke="none" stroke-width="2"/>
  <circle cx="313.33333333333337" cy="222.66666666666669" r="11.297074431425505" fill="#a0a0a0" stroke="none" stroke-width="2"/>
  <circle cx="336" cy="222.66666666666669" r="11.593790717114057" fill="#a0a0a0" stroke="none" stroke-width="2"/>
  <circle cx="358.6666666666667" cy="222.66666666666669" r="12.192208103402873" fill="#a0a0a0" stroke="none" stroke-width="2"/>
  <circle cx="41.333333333333336" cy="245.33333333333334" r="7.709930659620254" fill="#4a7c42" stroke="none" stroke-width="2"/>
  <circle cx="64" cy="245.33333333333334" r="9.01836130800213" fill="#8b7355" stroke="none" stroke-width="2"/>
  <circle cx="86.66666666666667" cy="245.33333333333334" r="6.829916274045699" fill="#4a7c42" stroke="none" stroke-width="2"/>
  <circle cx="109.33333333333334" cy="245.33333333333334" r="6.872070029940257" fill="#4a7c42" stroke="none" stroke-width="2"/>
  <circle cx="132" cy="245.33333333333334" r="7.056928187765181" fill="#4a7c42" stroke="none" stroke-width="2"/>
  <circle cx="154.66666666666669" cy="245.33333333333334" r="6.814680847755507" fill="#4a7c42" stroke="none" stroke-width="2"/>
  <circle cx="177.33333333333334" cy="245.33333333333334" r="5.173923229043249" fill="#4a7c42" stroke="none" stroke-width="2"/>
  <circle cx="200" cy="245.33333333333334" r="4.364770059378622" fill="#2d5a27" stroke="none" stroke-width="2"/>
  <circle cx="222.66666666666669" cy="245.33333333333334" r="6.662180801983693" fill="#4a7c42" stroke="none" stroke-width="2"/>
  <circle cx="245.33333333333334" cy="245.33333333333334" r="7.685134432141137" fill="#4a7c42" stroke="none" stroke-width="2"/>
  <circle cx="268" cy="245.33333333333334" r="8.652234874220486" fill="#8b7355" stroke="none" stroke-width="2"/>
  <circle cx="290.6666666666667" cy="245.33333333333334" r="10.425854933191204" fill="#8b7355" stroke="none" stroke-width="2"/>
  <circle cx="313.33333333333337" cy="245.33333333333334" r="10.502050943371795" fill="#8b7355" stroke="none" stroke-width="2"/>
  <circle cx="336" cy="245.33333333333334" r="11.691022745095502" fill="#a0a0a0" stroke="none" stroke-width="2"/>
  <circle cx="358.6666666666667" cy="245.33333333333334" r="13.772113037784251" fill="#a0a0a0" stroke="none" stroke-width="2"/>
  <circle cx="41.333333333333336" cy="268" r="8.235357998323327" fill="#8b7355" stroke="none" stroke-width="2"/>
  <circle cx="64" cy="268" r="7.885255879521121" fill="#4a7c42" stroke="none" stroke-width="2"/>
  <circle cx="86.66666666666667" cy="268" r="8.123824401023988" fill="#8b7355" stroke="none" stroke-width="2"/>
  <circle cx="109.33333333333334" cy="268" r="7.46206078803881" fill="#4a7c42" stroke="none" stroke-width="2"/>
  <circle cx="132" cy="268" r="8.265602057485633" fill="#8b7355" stroke="none" stroke-width="2"/>
  <circle cx="154.66666666666669" cy="268" r="7.61988213640713" fill="#4a7c42" stroke="none" stroke-width="2"/>
  <circle cx="177.33333333333334" cy="268" r="4.311899807489594" fill="#2d5a27" stroke="none" stroke-width="2"/>
  <circle cx="200" cy="268" r="3.2138215273378368" fill="#2d5a27" stroke="none" stroke-width="2"/>
  <circle cx="222.66666666666669" cy="268" r="5.439644050711418" fill="#4a7c42" stroke="none" stroke-width="2"/>
  <circle cx="245.33333333333334" cy="268" r="6.056493090706869" fill="#4a7c42" stroke="none" stroke-width="2"/>
  <circle cx="268" cy="268" r="9.091999285555096" fill="#8b7355" stroke="none" stroke-width="2"/>
  <circle cx="290.6666666666667" cy="268" r="9.897589195620478" fill="#8b7355" stroke="none" stroke-width="2"/>
  <circle cx="313.33333333333337" cy="268" r="8.77419107274785" fill="#8b7355" stroke="none" stroke-width="2"/>
  <circle cx="336" cy="268" r="7.69781497117017" fill="#4a7c42" stroke="none" stroke-width="2"/>
  <circle cx="358.6666666666667" cy="268" r="8.664006074465092" fill="#8b7355" stroke="none" stroke-width="2"/>
  <circle cx="41.333333333333336" cy="290.6666666666667" r="10.39558030027911" fill="#8b7355" stroke="none" stroke-width="2"/>
  <circle cx="64" cy="290.6666666666667" r="8.200268011264502" fill="#8b7355" stroke="none" stroke-width="2"/>
  <circle cx="86.66666666666667" cy="290.6666666666667" r="8.578178777692019" fill="#8b7355" stroke="none" stroke-width="2"/>
  <circle cx="109.33333333333334" cy="290.6666666666667" r="8.383755465559707" fill="#8b7355" stroke="none" stroke-width="2"/>
  <circle cx="132" cy="290.6666666666667" r="8.544596702087466" fill="#8b7355" stroke="none" stroke-width="2"/>
  <circle cx="154.66666666666669" cy="290.6666666666667" r="10.117874334154902" fill="#8b7355" stroke="none" stroke-width="2"/>
  <circle cx="177.33333333333334" cy="290.6666666666667" r="7.8273442333321395" fill="#4a7c42" stroke="none" stroke-width="2"/>
  <circle cx="200" cy="290.6666666666667" r="7.90847268842796" fill="#4a7c42" stroke="none" stroke-width="2"/>
  <circle cx="222.66666666666669" cy="290.6666666666667" r="5.4196876350663175" fill="#4a7c42" stroke="none" stroke-width="2"/>
  <circle cx="245.33333333333334" cy="290.6666666666667" r="5.714405792572836" fill="#4a7c42" stroke="none" stroke-width="2"/>
  <circle cx="268" cy="290.6666666666667" r="6.159186827104741" fill="#4a7c42" stroke="none" stroke-width="2"/>
  <circle cx="290.6666666666667" cy="290.6666666666667" r="5.73284737825145" fill="#4a7c42" stroke="none" stroke-width="2"/>
  <circle cx="313.33333333333337" cy="290.6666666666667" r="5.745138501166554" fill="#4a7c42" stroke="none" stroke-width="2"/>
  <circle cx="336" cy="290.6666666666667" r="4.089661645156495" fill="#2d5a27" stroke="none" stroke-width="2"/>
  <circle cx="358.6666666666667" cy="290.6666666666667" r="4.776964827126615" fill="#2d5a27" stroke="none" stroke-width="2"/>
  <circle cx="41.333333333333336" cy="313.33333333333337" r="11.439143233786854" fill="#a0a0a0" stroke="none" stroke-width="2"/>
  <circle cx="64" cy="313.33333333333337" r="10.38501061429941" fill="#8b7355" stroke="none" stroke-width="2"/>
  <circle cx="86.66666666666667" cy="313.33333333333337" r="10.67827991423583" fill="#8b7355" stroke="none" stroke-width="2"/>
  <circle cx="109.33333333333334" cy="313.33333333333337" r="10.381213964982875" fill="#8b7355" stroke="none" stroke-width="2"/>
  <circle cx="132" cy="313.33333333333337" r="11.46385719217071" fill="#a0a0a0" stroke="none" stroke-width="2"/>
  <circle cx="154.66666666666669" cy="313.33333333333337" r="10.807792452223406" fill="#8b7355" stroke="none" stroke-width="2"/>
  <circle cx="177.33333333333334" cy="313.33333333333337" r="10.260591379137166" fill="#8b7355" stroke="none" stroke-width="2"/>
  <circle cx="200" cy="313.33333333333337" r="7.489489013906544" fill="#4a7c42" stroke="none" stroke-width="2"/>
  <circle cx="222.66666666666669" cy="313.33333333333337" r="4.529636824177864" fill="#2d5a27" stroke="none" stroke-width="2"/>
  <circle cx="245.33333333333334" cy="313.33333333333337" r="4.9526791666413565" fill="#4a7c42" stroke="none" stroke-width="2"/>
  <circle cx="268" cy="313.33333333333337" r="6.221745197286397" fill="#4a7c42" stroke="none" stroke-width="2"/>
  <circle cx="290.6666666666667" cy="313.33333333333337" r="5.629372536051422" fill="#4a7c42" stroke="none" stroke-width="2"/>
  <circle cx="313.33333333333337" cy="313.33333333333337" r="7.259372759400936" fill="#4a7c42" stroke="none" stroke-width="2"/>
  <circle cx="336" cy="313.33333333333337" r="6.699173889992788" fill="#4a7c42" stroke="none" stroke-width="2"/>
  <circle cx="358.6666666666667" cy="313.33333333333337" r="6.008849411767723" fill="#4a7c42" stroke="none" stroke-width="2"/>
  <circle cx="41.333333333333336" cy="336" r="8.036758497314207" fill="#8b7355" stroke="none" stroke-width="2"/>
  <circle cx="64" cy="336" r="8.69809142118606" fill="#8b7355" stroke="none" stroke-width="2"/>
  <circle cx="86.66666666666667" cy="336" r="8.459793694095298" fill="#8b7355" stroke="none" stroke-width="2"/>
  <circle cx="109.33333333333334" cy="336" r="9.180552164895333" fill="#8b7355" stroke="none" stroke-width="2"/>
  <circle cx="132" cy="336" r="8.88864367677666" fill="#8b7355" stroke="none" stroke-width="2"/>
  <circle cx="154.66666666666669" cy="336" r="9.144823220371233" fill="#8b7355" stroke="none" stroke-width="2"/>
  <circle cx="177.33333333333334" cy="336" r="9.361453958001384" fill="#8b7355" stroke="none" stroke-width="2"/>
  <circle cx="200" cy="336" r="7.349255156278241" fill="#4a7c42" stroke="none" stroke-width="2"/>
  <circle cx="222.66666666666669" cy="336" r="5.796603959468853" fill="#4a7c42" stroke="none" stroke-width="2"/>
  <circle cx="245.33333333333334" cy="336" r="3.814602694442753" fill="#2d5a27" stroke="none" stroke-width="2"/>
  <circle cx="268" cy="336" r="6.183401427268586" fill="#4a7c42" stroke="none" stroke-width="2"/>
  <circle cx="290.6666666666667" cy="336" r="8.867774775525499" fill="#8b7355" stroke="none" stroke-width="2"/>
  <circle cx="313.33333333333337" cy="336" r="8.787639079560668" fill="#8b7355" stroke="none" stroke-width="2"/>
  <circle cx="336" cy="336" r="7.948714494100632" fill="#4a7c42" stroke="none" stroke-width="2"/>
  <circle cx="358.6666666666667" cy="336" r="6.944161001953635" fill="#4a7c42" stroke="none" stroke-width="2"/>
  <circle cx="41.333333333333336" cy="358.6666666666667" r="5.321784642514816" fill="#4a7c42" stroke="none" stroke-width="2"/>
  <circle cx="64" cy="358.6666666666667" r="6.475062618043084" fill="#4a7c42" stroke="none" stroke-width="2"/>
  <circle cx="86.66666666666667" cy="358.6666666666667" r="7.521702887236944" fill="#4a7c42" stroke="none" stroke-width="2"/>
  <circle cx="109.33333333333334" cy="358.6666666666667" r="6.857459204509245" fill="#4a7c42" stroke="none" stroke-width="2"/>
  <circle cx="132" cy="358.6666666666667" r="7.813659256419252" fill="#4a7c42" stroke="none" stroke-width="2"/>
  <circle cx="154.66666666666669" cy="358.6666666666667" r="10.3399968130199" fill="#8b7355" stroke="none" stroke-width="2"/>
  <circle cx="177.33333333333334" cy="358.6666666666667" r="11.278726504019048" fill="#a0a0a0" stroke="none" stroke-width="2"/>
  <circle cx="200" cy="358.6666666666667" r="8.354981284998598" fill="#8b7355" stroke="none" stroke-width="2"/>
  <circle cx="222.66666666666669" cy="358.6666666666667" r="3.916714738209783" fill="#2d5a27" stroke="none" stroke-width="2"/>
  <circle cx="245.33333333333334" cy="358.6666666666667" r="4.491196186639442" fill="#2d5a27" stroke="none" stroke-width="2"/>
  <circle cx="268" cy="358.6666666666667" r="7.271532725203332" fill="#4a7c42" stroke="none" stroke-width="2"/>
  <circle cx="290.6666666666667" cy="358.6666666666667" r="10.622664361112673" fill="#8b7355" stroke="none" stroke-width="2"/>
  <circle cx="313.33333333333337" cy="358.6666666666667" r="9.677585450158862" fill="#8b7355" stroke="none" stroke-width="2"/>
  <circle cx="336" cy="358.6666666666667" r="9.214207556023487" fill="#8b7355" stroke="none" stroke-width="2"/>
  <circle cx="358.6666666666667" cy="358.6666666666667" r="8.453263522507715" fill="#8b7355" stroke="none" stroke-width="2"/>
</svg>