<svg xmlns="http://www.w3.org/2000/svg" width="400" height="400" viewBox="0 0 400 400">
  <polygon points="274.42,174.36 291.48,148.05 327.12,161.95" fill="hsla(200, 60%, 70%, 0.8)" stroke="white" stroke-width="1"/>
  <polygon points="235.36,245.33 229.63,207.13 265.37,220.25" fill="hsla(203, 60%, 70%, 0.8)" stroke="white" stroke-width="1"/>
  <polygon points="229.63,207.13 274.42,174.36 265.37,220.25" fill="hsla(206, 60%, 70%, 0.8)" stroke="white" stroke-width="1"/>
  <polygon points="235.36,245.33 265.37,220.25 272.28,274.90" fill="hsla(209, 60%, 70%, 0.8)" stroke="white" stroke-width="1"/>
  <polygon points="229.63,207.13 212.98,157.25 250.61,152.00" fill="hsla(212, 60%, 70%, 0.8)" stroke="white" stroke-width="1"/>
  <polygon points="274.42,174.36 229.63,207.13 250.61,152.00" fill="hsla(215, 60%, 70%, 0.8)" stroke="white" stroke-width="1"/>
  <polygon points="291.48,148.05 274.42,174.36 250.61,152.00" fill="hsla(218, 60%, 70%, 0.8)" stroke="white" stroke-width="1"/>
  <polygon points="257.90,121.26 291.48,148.05 250.61,152.00" fill="hsla(221, 60%, 70%, 0.8)" stroke="white" stroke-width="1"/>
  <polygon points="229.63,207.13 235.36,245.33 183.37,235.46" fill="hsla(224, 60%, 70%, 0.8)" stroke="white" stroke-width="1"/>
  <polygon points="235.36,245.33 210.99,274.08 183.37,235.46" fill="hsla(227, 60%, 70%, 0.8)" stroke="white" stroke-width="1"/>
  <polygon points="210.99,274.08 181.07,270.95 183.37,235.46" fill="hsla(230, 60%, 70%, 0.8)" stroke="white" stroke-width="1"/>
  <polygon points="272.28,274.90 265.37,220.25 313.10,254.25" fill="hsla(233, 60%, 70%, 0.8)" stroke="white" stroke-width="1"/>
  <polygon points="274.42,174.36 327.12,161.95 309.76,201.22" fill="hsla(236, 60%, 70%, 0.8)" stroke="white" stroke-width="1"/>
  <polygon points="265.37,220.25 274.42,174.36 309.76,201.22" fill="hsla(239, 60%, 70%, 0.8)" stroke="white" stroke-width="1"/>
  <polygon points="313.10,254.25 265.37,220.25 309.76,201.22" fill="hsla(242, 60%, 70%, 0.8)" stroke="white" stroke-width="1"/>
  <polygon points="181.07,270.95 210.99,274.08 207.32,321.19" fill="hsla(245, 60%, 70%, 0.8)" stroke="white" stroke-width="1"/>
  <polygon points="183.37,235.46 181.07,270.95 149.74,229.50" fill="hsla(248, 60%, 70%, 0.8)" stroke="white" stroke-width="1"/>
  <polygon points="181.07,270.95 137.73,264.46 149.74,229.50" fill="hsla(251, 60%, 70%, 0.8)" stroke="white" stroke-width="1"/>
  <polygon points="165.99,191.04 183.37,235.46 149.74,229.50" fill="hsla(254, 60%, 70%, 0.8)" stroke="white" stroke-width="1"/>
  <polygon points="257.90,121.26 241.47,64.81 294.54,82.14" fill="hsla(257, 60%, 70%, 0.8)" stroke="white" stroke-width="1"/>
  <polygon points="257.90,121.26 250.61,152.00 212.37,105.49" fill="hsla(260, 60%, 70%, 0.8)" stroke="white" stroke-width="1"/>
  <polygon points="250.61,152.00 212.98,157.25 212.37,105.49" fill="hsla(263, 60%, 70%, 0.8)" stroke="white" stroke-width="1"/>
  <polygon points="212.98,157.25 178.72,152.68 212.37,105.49" fill="hsla(266, 60%, 70%, 0.8)" stroke="white" stroke-width="1"/>
  <polygon points="241.47,64.81 257.90,121.26 212.37,105.49" fill="hsla(269, 60%, 70%, 0.8)" stroke="white" stroke-width="1"/>
  <polygon points="241.47,64.81 212.37,105.49 205.76,52.94" fill="hsla(272, 60%, 70%, 0.8)" stroke="white" stroke-width="1"/>
  <polygon points="205.76,52.94 212.37,105.49 180.02,81.53" fill="hsla(275, 60%, 70%, 0.8)" stroke="white" stroke-width="1"/>
  <polygon points="210.99,274.08 235.36,245.33 239.91,284.77" fill="hsla(278, 60%, 70%, 0.8)" stroke="white" stroke-width="1"/>
  <polygon points="235.36,245.33 272.28,274.90 239.91,284.77" fill="hsla(281, 60%, 70%, 0.8)" stroke="white" stroke-width="1"/>
  <polygon points="207.32,321.19 210.99,274.08 239.91,284.77" fill="hsla(284, 60%, 70%, 0.8)" stroke="white" stroke-width="1"/>
  <polygon points="241.47,64.81 205.76,52.94 217.04,23.81" fill="hsla(287, 60%, 70%, 0.8)" stroke="white" stroke-width="1"/>
  <polygon points="349.27,29.90 316.28,38.76 217.04,23.81" fill="hsla(290, 60%, 70%, 0.8)" stroke="white" stroke-width="1"/>
  <polygon points="178.72,152.68 165.99,191.04 129.95,152.84" fill="hsla(293, 60%, 70%, 0.8)" stroke="white" stroke-width="1"/>
  <polygon points="205.76,52.94 180.02,81.53 150.89,63.08" fill="hsla(296, 60%, 70%, 0.8)" stroke="white" stroke-width="1"/>
  <polygon points="180.02,81.53 141.01,107.23 150.89,63.08" fill="hsla(299, 60%, 70%, 0.8)" stroke="white" stroke-width="1"/>
  <polygon points="217.04,23.81 205.76,52.94 185.09,25.78" fill="hsla(302, 60%, 70%, 0.8)" stroke="white" stroke-width="1"/>
  <polygon points="205.76,52.94 150.89,63.08 185.09,25.78" fill="hsla(305, 60%, 70%, 0.8)" stroke="white" stroke-width="1"/>
  <polygon points="207.32,321.19 239.91,284.77 240.27,324.94" fill="hsla(308, 60%, 70%, 0.8)" stroke="white" stroke-width="1"/>
  <polygon points="239.91,284.77 272.28,274.90 284.69,316.82" fill="hsla(311, 60%, 70%, 0.8)" stroke="white" stroke-width="1"/>
  <polygon points="240.27,324.94 239.91,284.77 284.69,316.82" fill="hsla(314, 60%, 70%, 0.8)" stroke="white" stroke-width="1"/>
  <polygon points="149.74,229.50 137.73,264.46 102.17,235.16" fill="hsla(317, 60%, 70%, 0.8)" stroke="white" stroke-width="1"/>
  <polygon points="294.54,82.14 316.28,38.76 326.52,73.65" fill="hsla(320, 60%, 70%, 0.8)" stroke="white" stroke-width="1"/>
  <polygon points="316.28,38.76 349.27,29.90 326.52,73.65" fill="hsla(323, 60%, 70%, 0.8)" stroke="white" stroke-width="1"/>
  <polygon points="141.01,107.23 180.02,81.53 169.43,121.23" fill="hsla(326, 60%, 70%, 0.8)" stroke="white" stroke-width="1"/>
  <polygon points="212.37,105.49 178.72,152.68 169.43,121.23" fill="hsla(329, 60%, 70%, 0.8)" stroke="white" stroke-width="1"/>
  <polygon points="180.02,81.53 212.37,105.49 169.43,121.23" fill="hsla(332, 60%, 70%, 0.8)" stroke="white" stroke-width="1"/>
  <polygon points="178.72,152.68 129.95,152.84 169.43,121.23" fill="hsla(335, 60%, 70%, 0.8)" stroke="white" stroke-width="1"/>
  <polygon points="129.95,152.84 141.01,107.23 169.43,121.23" fill="hsla(338, 60%, 70%, 0.8)" stroke="white" stroke-width="1"/>
  <polygon points="150.89,63.08 141.01,107.23 94.91,79.14" fill="hsla(341, 60%, 70%, 0.8)" stroke="white" stroke-width="1"/>
  <polygon points="102.17,235.16 137.73,264.46 100.05,280.66" fill="hsla(344, 60%, 70%, 0.8)" stroke="white" stroke-width="1"/>
  <polygon points="272.28,274.90 313.10,254.25 307.15,290.07" fill="hsla(347, 60%, 70%, 0.8)" stroke="white" stroke-width="1"/>
  <polygon points="284.69,316.82 272.28,274.90 307.15,290.07" fill="hsla(350, 60%, 70%, 0.8)" stroke="white" stroke-width="1"/>
  <polygon points="294.54,82.14 326.52,73.65 332.60,103.57" fill="hsla(353, 60%, 70%, 0.8)" stroke="white" stroke-width="1"/>
  <polygon points="181.45,341.62 207.32,321.19 204.12,364.82" fill="hsla(356, 60%, 70%, 0.8)" stroke="white" stroke-width="1"/>
  <polygon points="207.32,321.19 240.27,324.94 204.12,364.82" fill="hsla(359, 60%, 70%, 0.8)" stroke="white" stroke-width="1"/>
  <polygon points="294.54,82.14 241.47,64.81 267.42,46.25" fill="hsla(362, 60%, 70%, 0.8)" stroke="white" stroke-width="1"/>
  <polygon points="316.28,38.76 294.54,82.14 267.42,46.25" fill="hsla(365, 60%, 70%, 0.8)" stroke="white" stroke-width="1"/>
  <polygon points="241.47,64.81 217.04,23.81 267.42,46.25" fill="hsla(368, 60%, 70%, 0.8)" stroke="white" stroke-width="1"/>
  <polygon points="217.04,23.81 316.28,38.76 267.42,46.25" fill="hsla(371, 60%, 70%, 0.8)" stroke="white" stroke-width="1"/>
  <polygon points="240.27,324.94 284.69,316.82 247.85,356.11" fill="hsla(374, 60%, 70%, 0.8)" stroke="white" stroke-width="1"/>
  <polygon points="204.12,364.82 240.27,324.94 247.85,356.11" fill="hsla(377, 60%, 70%, 0.8)" stroke="white" stroke-width="1"/>
  <polygon points="181.07,270.95 207.32,321.19 155.53,297.19" fill="hsla(380, 60%, 70%, 0.8)" stroke="white" stroke-width="1"/>
  <polygon points="207.32,321.19 181.45,341.62 155.53,297.19" fill="hsla(383, 60%, 70%, 0.8)" stroke="white" stroke-width="1"/>
  <polygon points="137.73,264.46 181.07,270.95 155.53,297.19" fill="hsla(386, 60%, 70%, 0.8)" stroke="white" stroke-width="1"/>
  <polygon points="181.45,341.62 138.89,326.18 155.53,297.19" fill="hsla(389, 60%, 70%, 0.8)" stroke="white" stroke-width="1"/>
  <polygon points="309.76,201.22 327.12,161.95 361.65,189.83" fill="hsla(392, 60%, 70%, 0.8)" stroke="white" stroke-width="1"/>
  <polygon points="291.48,148.05 257.90,121.26 306.87,120.77" fill="hsla(395, 60%, 70%, 0.8)" stroke="white" stroke-width="1"/>
  <polygon points="257.90,121.26 294.54,82.14 306.87,120.77" fill="hsla(398, 60%, 70%, 0.8)" stroke="white" stroke-width="1"/>
  <polygon points="327.12,161.95 291.48,148.05 306.87,120.77" fill="hsla(401, 60%, 70%, 0.8)" stroke="white" stroke-width="1"/>
  <polygon points="294.54,82.14 332.60,103.57 306.87,120.77" fill="hsla(404, 60%, 70%, 0.8)" stroke="white" stroke-width="1"/>
  <polygon points="150.89,63.08 94.91,79.14 118.30,48.85" fill="hsla(407, 60%, 70%, 0.8)" stroke="white" stroke-width="1"/>
  <polygon points="284.69,316.82 331.90,341.42 306.17,358.23" fill="hsla(410, 60%, 70%, 0.8)" stroke="white" stroke-width="1"/>
  <polygon points="155.53,297.19 138.89,326.18 108.47,312.22" fill="hsla(413, 60%, 70%, 0.8)" stroke="white" stroke-width="1"/>
  <polygon points="100.05,280.66 137.73,264.46 108.47,312.22" fill="hsla(416, 60%, 70%, 0.8)" stroke="white" stroke-width="1"/>
  <polygon points="137.73,264.46 155.53,297.19 108.47,312.22" fill="hsla(419, 60%, 70%, 0.8)" stroke="white" stroke-width="1"/>
  <polygon points="284.69,316.82 307.15,290.07 335.35,302.57" fill="hsla(422, 60%, 70%, 0.8)" stroke="white" stroke-width="1"/>
  <polygon points="331.90,341.42 284.69,316.82 335.35,302.57" fill="hsla(425, 60%, 70%, 0.8)" stroke="white" stroke-width="1"/>
  <polygon points="307.15,290.07 313.10,254.25 335.35,302.57" fill="hsla(428, 60%, 70%, 0.8)" stroke="white" stroke-width="1"/>
  <polygon points="366.59,322.09 331.90,341.42 335.35,302.57" fill="hsla(431, 60%, 70%, 0.8)" stroke="white" stroke-width="1"/>
  <polygon points="326.52,73.65 349.27,29.90 369.49,69.96" fill="hsla(434, 60%, 70%, 0.8)" stroke="white" stroke-width="1"/>
  <polygon points="332.60,103.57 326.52,73.65 369.49,69.96" fill="hsla(437, 60%, 70%, 0.8)" stroke="white" stroke-width="1"/>
  <polygon points="138.89,326.18 181.45,341.62 164.27,378.08" fill="hsla(440, 60%, 70%, 0.8)" stroke="white" stroke-width="1"/>
  <polygon points="181.45,341.62 204.12,364.82 164.27,378.08" fill="hsla(443, 60%, 70%, 0.8)" stroke="white" stroke-width="1"/>
  <polygon points="165.99,191.04 149.74,229.50 130.73,205.32" fill="hsla(446, 60%, 70%, 0.8)" stroke="white" stroke-width="1"/>
  <polygon points="129.95,152.84 165.99,191.04 130.73,205.32" fill="hsla(449, 60%, 70%, 0.8)" stroke="white" stroke-width="1"/>
  <polygon points="149.74,229.50 102.17,235.16 130.73,205.32" fill="hsla(452, 60%, 70%, 0.8)" stroke="white" stroke-width="1"/>
  <polygon points="361.65,189.83 327.12,161.95 355.57,144.11" fill="hsla(455, 60%, 70%, 0.8)" stroke="white" stroke-width="1"/>
  <polygon points="327.12,161.95 306.87,120.77 355.57,144.11" fill="hsla(458, 60%, 70%, 0.8)" stroke="white" stroke-width="1"/>
  <polygon points="306.87,120.77 332.60,103.57 355.57,144.11" fill="hsla(461, 60%, 70%, 0.8)" stroke="white" stroke-width="1"/>
  <polygon points="313.10,254.25 309.76,201.22 357.28,227.42" fill="hsla(464, 60%, 70%, 0.8)" stroke="white" stroke-width="1"/>
  <polygon points="309.76,201.22 361.65,189.83 357.28,227.42" fill="hsla(467, 60%, 70%, 0.8)" stroke="white" stroke-width="1"/>
  <polygon points="108.47,312.22 138.89,326.18 117.15,357.63" fill="hsla(470, 60%, 70%, 0.8)" stroke="white" stroke-width="1"/>
  <polygon points="138.89,326.18 164.27,378.08 117.15,357.63" fill="hsla(473, 60%, 70%, 0.8)" stroke="white" stroke-width="1"/>
  <polygon points="141.01,107.23 129.95,152.84 108.76,110.91" fill="hsla(476, 60%, 70%, 0.8)" stroke="white" stroke-width="1"/>
  <polygon points="129.95,152.84 85.67,155.93 108.76,110.91" fill="hsla(479, 60%, 70%, 0.8)" stroke="white" stroke-width="1"/>
  <polygon points="94.91,79.14 141.01,107.23 108.76,110.91" fill="hsla(482, 60%, 70%, 0.8)" stroke="white" stroke-width="1"/>
  <polygon points="85.67,155.93 66.20,204.34 54.84,169.52" fill="hsla(485, 60%, 70%, 0.8)" stroke="white" stroke-width="1"/>
  <polygon points="102.17,235.16 100.05,280.66 69.15,269.97" fill="hsla(488, 60%, 70%, 0.8)" stroke="white" stroke-width="1"/>
  <polygon points="129.95,152.84 130.73,205.32 107.67,180.40" fill="hsla(491, 60%, 70%, 0.8)" stroke="white" stroke-width="1"/>
  <polygon points="85.67,155.93 129.95,152.84 107.67,180.40" fill="hsla(494, 60%, 70%, 0.8)" stroke="white" stroke-width="1"/>
  <polygon points="130.73,205.32 102.17,235.16 107.67,180.40" fill="hsla(497, 60%, 70%, 0.8)" stroke="white" stroke-width="1"/>
  <polygon points="102.17,235.16 66.20,204.34 107.67,180.40" fill="hsla(500, 60%, 70%, 0.8)" stroke="white" stroke-width="1"/>
  <polygon points="66.20,204.34 85.67,155.93 107.67,180.40" fill="hsla(503, 60%, 70%, 0.8)" stroke="white" stroke-width="1"/>
  <polygon points="108.47,312.22 117.15,357.63 77.09,341.70" fill="hsla(506, 60%, 70%, 0.8)" stroke="white" stroke-width="1"/>
  <polygon points="212.98,157.25 229.63,207.13 195.35,203.15" fill="hsla(509, 60%, 70%, 0.8)" stroke="white" stroke-width="1"/>
  <polygon points="178.72,152.68 212.98,157.25 195.35,203.15" fill="hsla(512, 60%, 70%, 0.8)" stroke="white" stroke-width="1"/>
  <polygon points="165.99,191.04 178.72,152.68 195.35,203.15" fill="hsla(515, 60%, 70%, 0.8)" stroke="white" stroke-width="1"/>
  <polygon points="229.63,207.13 183.37,235.46 195.35,203.15" fill="hsla(518, 60%, 70%, 0.8)" stroke="white" stroke-width="1"/>
  <polygon points="183.37,235.46 165.99,191.04 195.35,203.15" fill="hsla(521, 60%, 70%, 0.8)" stroke="white" stroke-width="1"/>
  <polygon points="335.35,302.57 313.10,254.25 359.38,268.99" fill="hsla(524, 60%, 70%, 0.8)" stroke="white" stroke-width="1"/>
  <polygon points="313.10,254.25 357.28,227.42 359.38,268.99" fill="hsla(527, 60%, 70%, 0.8)" stroke="white" stroke-width="1"/>
  <polygon points="361.65,189.83 366.59,322.09 359.38,268.99" fill="hsla(530, 60%, 70%, 0.8)" stroke="white" stroke-width="1"/>
  <polygon points="357.28,227.42 361.65,189.83 359.38,268.99" fill="hsla(533, 60%, 70%, 0.8)" stroke="white" stroke-width="1"/>
  <polygon points="366.59,322.09 335.35,302.57 359.38,268.99" fill="hsla(536, 60%, 70%, 0.8)" stroke="white" stroke-width="1"/>
  <polygon points="31.39,231.30 32.14,293.25 20.60,173.45" fill="hsla(539, 60%, 70%, 0.8)" stroke="white" stroke-width="1"/>
  <polygon points="54.84,169.52 66.20,204.34 20.60,173.45" fill="hsla(542, 60%, 70%, 0.8)" stroke="white" stroke-width="1"/>
  <polygon points="66.20,204.34 31.39,231.30 20.60,173.45" fill="hsla(545, 60%, 70%, 0.8)" stroke="white" stroke-width="1"/>
  <polygon points="332.60,103.57 369.49,69.96 365.64,112.30" fill="hsla(548, 60%, 70%, 0.8)" stroke="white" stroke-width="1"/>
  <polygon points="355.57,144.11 332.60,103.57 365.64,112.30" fill="hsla(551, 60%, 70%, 0.8)" stroke="white" stroke-width="1"/>
  <polygon points="361.65,189.83 355.57,144.11 365.64,112.30" fill="hsla(554, 60%, 70%, 0.8)" stroke="white" stroke-width="1"/>
  <polygon points="100.05,280.66 108.47,312.22 66.60,309.58" fill="hsla(557, 60%, 70%, 0.8)" stroke="white" stroke-width="1"/>
  <polygon points="69.15,269.97 100.05,280.66 66.60,309.58" fill="hsla(560, 60%, 70%, 0.8)" stroke="white" stroke-width="1"/>
  <polygon points="108.47,312.22 77.09,341.70 66.60,309.58" fill="hsla(563, 60%, 70%, 0.8)" stroke="white" stroke-width="1"/>
  <polygon points="32.14,293.25 69.15,269.97 66.60,309.58" fill="hsla(566, 60%, 70%, 0.8)" stroke="white" stroke-width="1"/>
  <polygon points="77.09,341.70 36.54,332.14 66.60,309.58" fill="hsla(569, 60%, 70%, 0.8)" stroke="white" stroke-width="1"/>
  <polygon points="36.54,332.14 32.14,293.25 66.60,309.58" fill="hsla(572, 60%, 70%, 0.8)" stroke="white" stroke-width="1"/>
  <polygon points="108.76,110.91 85.67,155.93 52.42,125.33" fill="hsla(575, 60%, 70%, 0.8)" stroke="white" stroke-width="1"/>
  <polygon points="85.67,155.93 54.84,169.52 52.42,125.33" fill="hsla(578, 60%, 70%, 0.8)" stroke="white" stroke-width="1"/>
  <polygon points="217.04,23.81 185.09,25.78 139.01,26.35" fill="hsla(581, 60%, 70%, 0.8)" stroke="white" stroke-width="1"/>
  <polygon points="185.09,25.78 150.89,63.08 139.01,26.35" fill="hsla(584, 60%, 70%, 0.8)" stroke="white" stroke-width="1"/>
  <polygon points="150.89,63.08 118.30,48.85 139.01,26.35" fill="hsla(587, 60%, 70%, 0.8)" stroke="white" stroke-width="1"/>
  <polygon points="331.90,341.42 366.59,322.09 360.12,356.78" fill="hsla(590, 60%, 70%, 0.8)" stroke="white" stroke-width="1"/>
  <polygon points="36.54,332.14 77.09,341.70 42.92,377.55" fill="hsla(593, 60%, 70%, 0.8)" stroke="white" stroke-width="1"/>
  <polygon points="94.91,79.14 108.76,110.91 63.15,83.00" fill="hsla(596, 60%, 70%, 0.8)" stroke="white" stroke-width="1"/>
  <polygon points="108.76,110.91 52.42,125.33 63.15,83.00" fill="hsla(599, 60%, 70%, 0.8)" stroke="white" stroke-width="1"/>
  <polygon points="52.42,125.33 30.91,78.66 63.15,83.00" fill="hsla(602, 60%, 70%, 0.8)" stroke="white" stroke-width="1"/>
  <polygon points="63.15,83.00 30.91,78.66 24.85,47.37" fill="hsla(605, 60%, 70%, 0.8)" stroke="white" stroke-width="1"/>
  <polygon points="54.84,169.52 20.60,173.45 21.42,133.75" fill="hsla(608, 60%, 70%, 0.8)" stroke="white" stroke-width="1"/>
  <polygon points="52.42,125.33 54.84,169.52 21.42,133.75" fill="hsla(611, 60%, 70%, 0.8)" stroke="white" stroke-width="1"/>
  <polygon points="30.91,78.66 52.42,125.33 21.42,133.75" fill="hsla(614, 60%, 70%, 0.8)" stroke="white" stroke-width="1"/>
  <polygon points="24.85,47.37 30.91,78.66 21.42,133.75" fill="hsla(617, 60%, 70%, 0.8)" stroke="white" stroke-width="1"/>
  <polygon points="118.30,48.85 94.91,79.14 81.12,29.02" fill="hsla(620, 60%, 70%, 0.8)" stroke="white" stroke-width="1"/>
  <polygon points="94.91,79.14 63.15,83.00 81.12,29.02" fill="hsla(623, 60%, 70%, 0.8)" stroke="white" stroke-width="1"/>
  <polygon points="139.01,26.35 118.30,48.85 81.12,29.02" fill="hsla(626, 60%, 70%, 0.8)" stroke="white" stroke-width="1"/>
  <polygon points="247.85,356.11 284.69,316.82 278.12,371.14" fill="hsla(629, 60%, 70%, 0.8)" stroke="white" stroke-width="1"/>
  <polygon points="284.69,316.82 306.17,358.23 278.12,371.14" fill="hsla(632, 60%, 70%, 0.8)" stroke="white" stroke-width="1"/>
  <polygon points="204.12,364.82 247.85,356.11 278.12,371.14" fill="hsla(635, 60%, 70%, 0.8)" stroke="white" stroke-width="1"/>
  <polygon points="164.27,378.08 204.12,364.82 278.12,371.14" fill="hsla(638, 60%, 70%, 0.8)" stroke="white" stroke-width="1"/>
  <polygon points="66.20,204.34 102.17,235.16 67.85,235.66" fill="hsla(641, 60%, 70%, 0.8)" stroke="white" stroke-width="1"/>
  <polygon points="102.17,235.16 69.15,269.97 67.85,235.66" fill="hsla(644, 60%, 70%, 0.8)" stroke="white" stroke-width="1"/>
  <polygon points="31.39,231.30 66.20,204.34 67.85,235.66" fill="hsla(647, 60%, 70%, 0.8)" stroke="white" stroke-width="1"/>
  <polygon points="69.15,269.97 32.14,293.25 39.21,262.70" fill="hsla(650, 60%, 70%, 0.8)" stroke="white" stroke-width="1"/>
  <polygon points="32.14,293.25 31.39,231.30 39.21,262.70" fill="hsla(653, 60%, 70%, 0.8)" stroke="white" stroke-width="1"/>
  <polygon points="31.39,231.30 67.85,235.66 39.21,262.70" fill="hsla(656, 60%, 70%, 0.8)" stroke="white" stroke-width="1"/>
  <polygon points="67.85,235.66 69.15,269.97 39.21,262.70" fill="hsla(659, 60%, 70%, 0.8)" stroke="white" stroke-width="1"/>
  <polygon points="117.15,357.63 164.27,378.08 85.89,371.19" fill="hsla(662, 60%, 70%, 0.8)" stroke="white" stroke-width="1"/>
  <polygon points="164.27,378.08 42.92,377.55 85.89,371.19" fill="hsla(665, 60%, 70%, 0.8)" stroke="white" stroke-width="1"/>
  <polygon points="77.09,341.70 117.15,357.63 85.89,371.19" fill="hsla(668, 60%, 70%, 0.8)" stroke="white" stroke-width="1"/>
  <polygon points="42.92,377.55 77.09,341.70 85.89,371.19" fill="hsla(671, 60%, 70%, 0.8)" stroke="white" stroke-width="1"/>
  <polygon points="63.15,83.00 24.85,47.37 50.16,30.46" fill="hsla(674, 60%, 70%, 0.8)" stroke="white" stroke-width="1"/>
  <polygon points="81.12,29.02 63.15,83.00 50.16,30.46" fill="hsla(677, 60%, 70%, 0.8)" stroke="white" stroke-width="1"/>
  <polygon points="306.17,358.23 331.90,341.42 330.58,377.26" fill="hsla(680, 60%, 70%, 0.8)" stroke="white" stroke-width="1"/>
  <polygon points="331.90,341.42 360.12,356.78 330.58,377.26" fill="hsla(683, 60%, 70%, 0.8)" stroke="white" stroke-width="1"/>
  <polygon points="278.12,371.14 306.17,358.23 330.58,377.26" fill="hsla(686, 60%, 70%, 0.8)" stroke="white" stroke-width="1"/>
</svg>