<svg xmlns="http://www.w3.org/2000/svg" width="400" height="400" viewBox="0 0 400 400">
  <circle cx="255.85545755729797" cy="129.733161977368" r="3" fill="hsl(0, 70%, 40%)" stroke="none" stroke-width="2"/>
  <polygon points="250.00,110.00 254.00,112.00 270.00,126.00 272.00,128.00 272.00,132.00 270.00,138.00 268.00,142.00 264.00,146.00 222.00,162.00 220.00,162.00 218.00,160.00 214.00,152.00 214.00,148.00 230.00,130.00" fill="hsl(0, 50%, 80%)" stroke="white" stroke-width="2"/>
  <circle cx="247.69405375593064" cy="378.5171891928265" r="3" fill="hsl(12, 70%, 40%)" stroke="none" stroke-width="2"/>
  <polygon points="246.00,342.00 256.00,346.00 292.00,362.00 300.00,366.00 310.00,382.00 314.00,390.00 318.00,400.00 202.00,400.00 208.00,374.00 210.00,366.00 212.00,364.00 236.00,348.00" fill="hsl(12, 50%, 80%)" stroke="white" stroke-width="2"/>
  <circle cx="264.60613262122786" cy="262.3244095977044" r="3" fill="hsl(24, 70%, 40%)" stroke="none" stroke-width="2"/>
  <polygon points="224.00,212.00 240.00,212.00 288.00,214.00 310.00,216.00 312.00,218.00 322.00,232.00 334.00,250.00 334.00,252.00 332.00,256.00 316.00,274.00 308.00,282.00 302.00,284.00 292.00,286.00 248.00,294.00 240.00,294.00 220.00,278.00 196.00,258.00 198.00,254.00 208.00,236.00 216.00,222.00 220.00,216.00" fill="hsl(24, 50%, 80%)" stroke="white" stroke-width="2"/>
  <circle cx="82.17128756557186" cy="337.94194355511195" r="3" fill="hsl(36, 70%, 40%)" stroke="none" stroke-width="2"/>
  <polygon points="0.00,288.00 2.00,288.00 34.00,300.00 92.00,322.00 118.00,332.00 128.00,336.00 128.00,342.00 114.00,398.00 112.00,400.00 0.00,400.00" fill="hsl(36, 50%, 80%)" stroke="white" stroke-width="2"/>
  <circle cx="274.61858284409095" cy="317.9124404387141" r="3" fill="hsl(48, 70%, 40%)" stroke="none" stroke-width="2"/>
  <polygon points="304.00,284.00 306.00,284.00 306.00,302.00 300.00,362.00 298.00,364.00 288.00,360.00 252.00,344.00 248.00,342.00 246.00,340.00 242.00,304.00 242.00,296.00 250.00,294.00 260.00,292.00" fill="hsl(48, 50%, 80%)" stroke="white" stroke-width="2"/>
  <circle cx="286.19096291539773" cy="141.58702379166476" r="3" fill="hsl(60, 70%, 40%)" stroke="none" stroke-width="2"/>
  <polygon points="290.00,122.00 292.00,122.00 296.00,126.00 298.00,130.00 304.00,146.00 306.00,152.00 304.00,152.00 276.00,144.00 270.00,142.00 270.00,140.00 272.00,134.00 274.00,130.00 276.00,128.00" fill="hsl(60, 50%, 80%)" stroke="white" stroke-width="2"/>
  <circle cx="305.8025885959168" cy="89.19562819842045" r="3" fill="hsl(72, 70%, 40%)" stroke="none" stroke-width="2"/>
  <polygon points="296.00,68.00 300.00,72.00 324.00,104.00 324.00,106.00 318.00,108.00 310.00,108.00 306.00,104.00 296.00,92.00 288.00,82.00 286.00,78.00" fill="hsl(72, 50%, 80%)" stroke="white" stroke-width="2"/>
  <circle cx="228.75376353447967" cy="104.15432933911417" r="3" fill="hsl(84, 70%, 40%)" stroke="none" stroke-width="2"/>
  <polygon points="190.00,76.00 220.00,78.00 248.00,80.00 254.00,86.00 250.00,108.00 228.00,132.00 212.00,148.00 206.00,144.00 196.00,136.00 190.00,130.00 178.00,116.00 168.00,104.00 162.00,96.00 166.00,92.00 174.00,86.00 186.00,78.00" fill="hsl(84, 50%, 80%)" stroke="white" stroke-width="2"/>
  <circle cx="95.22142532990381" cy="303.52646602481906" r="3" fill="hsl(96, 70%, 40%)" stroke="none" stroke-width="2"/>
  <polygon points="100.00,240.00 104.00,240.00 148.00,266.00 154.00,270.00 150.00,282.00 144.00,298.00 134.00,324.00 130.00,334.00 124.00,334.00 108.00,328.00 50.00,306.00 8.00,290.00 0.00,286.00 0.00,272.00 2.00,270.00 8.00,268.00 86.00,244.00" fill="hsl(96, 50%, 80%)" stroke="white" stroke-width="2"/>
  <circle cx="333.6703111201852" cy="323.83548750720706" r="3" fill="hsl(108, 70%, 40%)" stroke="none" stroke-width="2"/>
  <polygon points="336.00,252.00 344.00,254.00 366.00,260.00 378.00,264.00 374.00,272.00 364.00,290.00 312.00,382.00 308.00,378.00 304.00,372.00 300.00,364.00 308.00,284.00 318.00,272.00 334.00,254.00" fill="hsl(108, 50%, 80%)" stroke="white" stroke-width="2"/>
  <circle cx="60.08190156895756" cy="189.33949597614793" r="3" fill="hsl(120, 70%, 40%)" stroke="none" stroke-width="2"/>
  <polygon points="0.00,142.00 2.00,142.00 10.00,144.00 88.00,168.00 92.00,174.00 104.00,194.00 106.00,198.00 106.00,210.00 102.00,238.00 98.00,240.00 92.00,242.00 14.00,266.00 0.00,270.00" fill="hsl(120, 50%, 80%)" stroke="white" stroke-width="2"/>
  <circle cx="283.2799292836711" cy="151.76482683595495" r="3" fill="hsl(132, 70%, 40%)" stroke="none" stroke-width="2"/>
  <polygon points="268.00,144.00 274.00,144.00 282.00,146.00 296.00,150.00 302.00,152.00 306.00,154.00 310.00,158.00 322.00,176.00 322.00,180.00 320.00,186.00 314.00,200.00 312.00,200.00 308.00,196.00 268.00,148.00" fill="hsl(132, 50%, 80%)" stroke="white" stroke-width="2"/>
  <circle cx="120.55421357068894" cy="152.5719786307644" r="3" fill="hsl(144, 70%, 40%)" stroke="none" stroke-width="2"/>
  <polygon points="126.00,82.00 128.00,82.00 156.00,94.00 158.00,96.00 156.00,104.00 136.00,168.00 132.00,180.00 128.00,184.00 120.00,190.00 108.00,198.00 106.00,196.00 102.00,190.00 90.00,170.00 90.00,166.00 92.00,160.00 122.00,88.00 124.00,84.00" fill="hsl(144, 50%, 80%)" stroke="white" stroke-width="2"/>
  <circle cx="350.7407905211397" cy="333.47526088053144" r="3" fill="hsl(156, 70%, 40%)" stroke="none" stroke-width="2"/>
  <polygon points="380.00,264.00 382.00,264.00 398.00,266.00 400.00,268.00 400.00,400.00 320.00,400.00 318.00,398.00 316.00,394.00 312.00,384.00 320.00,368.00 372.00,276.00 378.00,266.00" fill="hsl(156, 50%, 80%)" stroke="white" stroke-width="2"/>
  <circle cx="170.93682772989237" cy="174.31598193678818" r="3" fill="hsl(168, 70%, 40%)" stroke="none" stroke-width="2"/>
  <polygon points="192.00,134.00 198.00,138.00 208.00,146.00 212.00,150.00 218.00,162.00 220.00,172.00 224.00,208.00 224.00,210.00 218.00,218.00 214.00,216.00 160.00,186.00 156.00,182.00 158.00,178.00 176.00,154.00 190.00,136.00" fill="hsl(168, 50%, 80%)" stroke="white" stroke-width="2"/>
  <circle cx="315.09496225747046" cy="82.18154433284958" r="3" fill="hsl(180, 70%, 40%)" stroke="none" stroke-width="2"/>
  <polygon points="332.00,0.00 400.00,0.00 400.00,104.00 398.00,106.00 326.00,106.00 302.00,74.00 298.00,68.00 298.00,64.00 320.00,20.00 330.00,2.00" fill="hsl(180, 50%, 80%)" stroke="white" stroke-width="2"/>
  <circle cx="76.99205997259918" cy="134.43335776889387" r="3" fill="hsl(192, 70%, 40%)" stroke="none" stroke-width="2"/>
  <polygon points="0.00,0.00 36.00,0.00 40.00,2.00 118.00,74.00 124.00,80.00 124.00,82.00 116.00,102.00 96.00,150.00 90.00,164.00 88.00,166.00 82.00,166.00 4.00,142.00 0.00,140.00" fill="hsl(192, 50%, 80%)" stroke="white" stroke-width="2"/>
  <circle cx="155.71241623522363" cy="201.61904581897846" r="3" fill="hsl(204, 70%, 40%)" stroke="none" stroke-width="2"/>
  <polygon points="132.00,182.00 138.00,182.00 156.00,184.00 210.00,214.00 216.00,218.00 216.00,220.00 210.00,232.00 200.00,250.00 196.00,256.00 194.00,258.00 178.00,266.00 166.00,268.00 152.00,268.00 138.00,260.00 108.00,242.00 104.00,238.00 104.00,226.00 106.00,212.00 108.00,200.00 112.00,196.00 126.00,186.00" fill="hsl(204, 50%, 80%)" stroke="white" stroke-width="2"/>
  <circle cx="370.27074830153526" cy="188.31243522852307" r="3" fill="hsl(216, 70%, 40%)" stroke="none" stroke-width="2"/>
  <polygon points="400.00,106.00 400.00,266.00 384.00,264.00 374.00,262.00 352.00,256.00 338.00,252.00 332.00,246.00 318.00,226.00 314.00,220.00 312.00,216.00 312.00,208.00 316.00,196.00 322.00,182.00 324.00,178.00 338.00,164.00 394.00,110.00" fill="hsl(216, 50%, 80%)" stroke="white" stroke-width="2"/>
  <circle cx="291.2625695538067" cy="101.10845569572805" r="3" fill="hsl(228, 70%, 40%)" stroke="none" stroke-width="2"/>
  <polygon points="284.00,80.00 286.00,80.00 304.00,102.00 310.00,110.00 308.00,112.00 300.00,118.00 294.00,122.00 290.00,120.00 288.00,118.00 274.00,92.00 272.00,88.00 272.00,86.00" fill="hsl(228, 50%, 80%)" stroke="white" stroke-width="2"/>
  <circle cx="176.96631558098193" cy="334.4372512374247" r="3" fill="hsl(240, 70%, 40%)" stroke="none" stroke-width="2"/>
  <polygon points="168.00,268.00 178.00,268.00 182.00,282.00 188.00,304.00 196.00,334.00 200.00,350.00 200.00,352.00 194.00,352.00 130.00,336.00 132.00,330.00 138.00,314.00 154.00,272.00 156.00,270.00" fill="hsl(240, 50%, 80%)" stroke="white" stroke-width="2"/>
  <circle cx="314.817214149431" cy="130.83278184329754" r="3" fill="hsl(252, 70%, 40%)" stroke="none" stroke-width="2"/>
  <polygon points="320.00,108.00 396.00,108.00 340.00,162.00 324.00,176.00 320.00,172.00 308.00,154.00 306.00,150.00 302.00,140.00 296.00,124.00 296.00,122.00 298.00,120.00 306.00,114.00 312.00,110.00" fill="hsl(252, 50%, 80%)" stroke="white" stroke-width="2"/>
  <circle cx="212.8870917264778" cy="324.765849255382" r="3" fill="hsl(264, 70%, 40%)" stroke="none" stroke-width="2"/>
  <polygon points="192.00,260.00 198.00,260.00 232.00,288.00 240.00,296.00 242.00,306.00 244.00,324.00 244.00,342.00 242.00,344.00 214.00,362.00 210.00,364.00 202.00,354.00 200.00,348.00 194.00,326.00 180.00,274.00 180.00,266.00" fill="hsl(264, 50%, 80%)" stroke="white" stroke-width="2"/>
  <circle cx="272.079711077772" cy="59.984011668704454" r="3" fill="hsl(276, 70%, 40%)" stroke="none" stroke-width="2"/>
  <polygon points="262.00,0.00 330.00,0.00 322.00,16.00 296.00,66.00 282.00,80.00 274.00,84.00 254.00,84.00 250.00,80.00 250.00,70.00 256.00,34.00" fill="hsl(276, 50%, 80%)" stroke="white" stroke-width="2"/>
  <circle cx="232.12896952970374" cy="53.165063873475916" r="3" fill="hsl(288, 70%, 40%)" stroke="none" stroke-width="2"/>
  <polygon points="222.00,0.00 260.00,0.00 260.00,10.00 258.00,22.00 250.00,68.00 248.00,78.00 222.00,78.00 192.00,76.00 190.00,74.00 190.00,72.00 196.00,58.00 210.00,26.00 218.00,8.00" fill="hsl(288, 50%, 80%)" stroke="white" stroke-width="2"/>
  <circle cx="268.7391484942004" cy="163.85279185318052" r="3" fill="hsl(300, 70%, 40%)" stroke="none" stroke-width="2"/>
  <polygon points="266.00,146.00 306.00,194.00 312.00,202.00 312.00,206.00 310.00,214.00 290.00,214.00 242.00,212.00 226.00,210.00 224.00,206.00 220.00,170.00 220.00,164.00 228.00,160.00 238.00,156.00 254.00,150.00" fill="hsl(300, 50%, 80%)" stroke="white" stroke-width="2"/>
  <circle cx="271.8777514676926" cy="111.49092201678592" r="3" fill="hsl(312, 70%, 40%)" stroke="none" stroke-width="2"/>
  <polygon points="256.00,86.00 270.00,86.00 276.00,96.00 288.00,120.00 288.00,122.00 280.00,126.00 274.00,128.00 268.00,124.00 252.00,110.00 252.00,98.00 254.00,88.00" fill="hsl(312, 50%, 80%)" stroke="white" stroke-width="2"/>
  <circle cx="157.61753565520866" cy="164.13912303007166" r="3" fill="hsl(324, 70%, 40%)" stroke="none" stroke-width="2"/>
  <polygon points="160.00,96.00 166.00,102.00 188.00,128.00 190.00,132.00 190.00,134.00 188.00,138.00 182.00,146.00 156.00,180.00 154.00,182.00 140.00,182.00 134.00,180.00 134.00,176.00 138.00,162.00 158.00,98.00" fill="hsl(324, 50%, 80%)" stroke="white" stroke-width="2"/>
  <circle cx="170.54878718710913" cy="359.8760081920196" r="3" fill="hsl(336, 70%, 40%)" stroke="none" stroke-width="2"/>
  <polygon points="130.00,338.00 136.00,338.00 200.00,354.00 208.00,362.00 208.00,372.00 206.00,382.00 202.00,398.00 200.00,400.00 114.00,400.00 128.00,344.00" fill="hsl(336, 50%, 80%)" stroke="white" stroke-width="2"/>
  <circle cx="174.99035365646256" cy="28.205971721655676" r="3" fill="hsl(348, 70%, 40%)" stroke="none" stroke-width="2"/>
  <polygon points="38.00,0.00 220.00,0.00 220.00,2.00 216.00,12.00 188.00,76.00 168.00,90.00 162.00,94.00 158.00,94.00 152.00,92.00 138.00,86.00 126.00,80.00 116.00,72.00" fill="hsl(348, 50%, 80%)" stroke="white" stroke-width="2"/>
</svg>