<svg xmlns="http://www.w3.org/2000/svg" width="600" height="300" viewBox="0 0 600 300">
  <g>
    <path d="M200.00,150.00 L200.20,148.75 L200.78,147.56 L201.75,146.48 L203.08,145.57 L204.74,144.88 L206.71,144.45 L208.95,144.34 L211.41,144.57 L214.05,145.17 L216.81,146.19 L219.65,147.63 L222.50,149.51 L225.30,151.83 L228.01,154.59 L230.55,157.79 L232.88,161.40 L234.93,165.39 L236.67,169.75 L238.04,174.43 L238.99,179.39 L239.50,184.58 L239.53,189.95 L239.07,195.44 L238.08,201.00 L236.57,206.57 L234.53,212.08 L231.96,217.47 L228.89,222.68 L225.32,227.67 L221.29,232.35 L216.84,236.70 L211.99,240.66 L206.80,244.19 L201.31,247.25 L195.59,249.81 L189.68,251.85 L183.66,253.36 L177.57,254.32 L171.48,254.74 L165.45,254.62 L159.55,253.97 L153.82,252.82 L148.33,251.19 L143.12,249.12 L138.24,246.65 L133.74,243.82 L129.64,240.69 L125.97,237.30 L122.75,233.72 L120.00,230.00 L117.72,226.20 L115.92,222.38 L114.58,218.60 L113.68,214.92 L113.21,211.38 L113.14,208.05 L113.43,204.96 L114.03,202.16 L114.91,199.68 L116.01,197.55 L117.28,195.80 L118.67,194.44 L120.11,193.48 L121.56,192.92 L122.95,192.75 L124.23,192.96 L125.35,193.53 L126.26,194.43 L126.90,195.63 L127.25,197.09 L127.26,198.76 L126.90,200.60 L126.15,202.55 L125.00,204.56 L123.43,206.57 L121.45,208.52 L119.05,210.37 L116.25,212.04 L113.08,213.49 L109.55,214.66 L105.70,215.50 L101.58,215.98 L97.22,216.05 L92.67,215.69 L87.99,214.85 L83.24,213.53 L78.46,211.71 L73.73,209.39 L69.11,206.57 L64.64,203.25 L60.40,199.46 L56.44,195.23 L52.80,190.57 L49.55,185.53 L46.71,180.15 L44.34,174.48 L42.46,168.57 L41.10,162.48 L40.28,156.27 L40.00,150.00 L40.28,143.73 L41.10,137.52 L42.46,131.43 L44.34,125.52 L46.71,119.85 L49.55,114.47 L52.80,109.43 L56.44,104.77 L60.40,100.54 L64.64,96.75 L69.11,93.43 L73.73,90.61 L78.46,88.29 L83.24,86.47 L87.99,85.15 L92.67,84.31 L97.22,83.95 L101.58,84.02 L105.70,84.50 L109.55,85.34 L113.08,86.51 L116.25,87.96 L119.05,89.63 L121.45,91.48 L123.43,93.43 L125.00,95.44 L126.15,97.45 L126.90,99.40 L127.26,101.24 L127.25,102.91 L126.90,104.37 L126.26,105.57 L125.35,106.47 L124.23,107.04 L122.95,107.25 L121.56,107.08 L120.11,106.52 L118.67,105.56 L117.28,104.20 L116.01,102.45 L114.91,100.32 L114.03,97.84 L113.43,95.04 L113.14,91.95 L113.21,88.62 L113.68,85.08 L114.58,81.40 L115.92,77.62 L117.72,73.80 L120.00,70.00 L122.75,66.28 L125.97,62.70 L129.64,59.31 L133.74,56.18 L138.24,53.35 L143.12,50.88 L148.33,48.81 L153.82,47.18 L159.55,46.03 L165.45,45.38 L171.48,45.26 L177.57,45.68 L183.66,46.64 L189.68,48.15 L195.59,50.19 L201.31,52.75 L206.80,55.81 L211.99,59.34 L216.84,63.30 L221.29,67.65 L225.32,72.33 L228.89,77.32 L231.96,82.53 L234.53,87.92 L236.57,93.43 L238.08,99.00 L239.07,104.56 L239.53,110.05 L239.50,115.42 L238.99,120.61 L238.04,125.57 L236.67,130.25 L234.93,134.61 L232.88,138.60 L230.55,142.21 L228.01,145.41 L225.30,148.17 L222.50,150.49 L219.65,152.37 L216.81,153.81 L214.05,154.83 L211.41,155.43 L208.95,155.66 L206.71,155.55 L204.74,155.12 L203.08,154.43 L201.75,153.52 L200.78,152.44 L200.20,151.25 L200.00,150.00 Z" fill="none" stroke="crimson" stroke-width="1.5"/>
    <path d="M540.00,150.00 L539.75,150.94 L539.00,151.90 L537.75,152.87 L536.01,153.88 L533.79,154.92 L531.12,156.01 L527.99,157.16 L524.45,158.37 L520.50,159.65 L516.17,161.00 L511.50,162.42 L506.51,163.93 L501.23,165.51 L495.71,167.17 L489.96,168.91 L484.03,170.72 L477.96,172.59 L471.79,174.53 L465.54,176.51 L459.27,178.53 L453.01,180.58 L446.79,182.65 L440.66,184.71 L434.64,186.77 L428.79,188.79 L423.12,190.76 L417.67,192.66 L412.47,194.48 L407.55,196.20 L402.93,197.79 L398.64,199.24 L394.69,200.53 L391.11,201.64 L387.91,202.54 L385.10,203.23 L382.70,203.69 L380.70,203.90 L379.12,203.85 L377.95,203.52 L377.19,202.90 L376.84,201.99 L376.89,200.77 L377.32,199.25 L378.14,197.42 L379.32,195.27 L380.84,192.81 L382.69,190.05 L384.85,186.99 L387.30,183.63 L390.00,180.00 L392.94,176.10 L396.09,171.95 L399.43,167.57 L402.93,162.97 L406.56,158.19 L410.29,153.24 L414.10,148.16 L417.96,142.96 L421.84,137.69 L425.73,132.37 L429.59,127.03 L433.41,121.70 L437.15,116.42 L440.81,111.23 L444.36,106.15 L447.79,101.22 L451.08,96.48 L454.22,91.95 L457.19,87.67 L459.99,83.67 L462.61,79.97 L465.05,76.61 L467.29,73.61 L469.35,71.00 L471.21,68.79 L472.89,67.00 L474.38,65.66 L475.70,64.77 L476.84,64.35 L477.81,64.40 L478.63,64.94 L479.31,65.95 L479.85,67.44 L480.27,69.40 L480.57,71.83 L480.78,74.71 L480.91,78.04 L480.96,81.78 L480.96,85.93 L480.91,90.46 L480.82,95.35 L480.71,100.56 L480.58,106.07 L480.46,111.84 L480.33,117.84 L480.22,124.03 L480.13,130.39 L480.06,136.86 L480.01,143.41 L480.00,150.00 L480.01,156.59 L480.06,163.14 L480.13,169.61 L480.22,175.97 L480.33,182.16 L480.46,188.16 L480.58,193.93 L480.71,199.44 L480.82,204.65 L480.91,209.54 L480.96,214.07 L480.96,218.22 L480.91,221.96 L480.78,225.29 L480.57,228.17 L480.27,230.60 L479.85,232.56 L479.31,234.05 L478.63,235.06 L477.81,235.60 L476.84,235.65 L475.70,235.23 L474.38,234.34 L472.89,233.00 L471.21,231.21 L469.35,229.00 L467.29,226.39 L465.05,223.39 L462.61,220.03 L459.99,216.33 L457.19,212.33 L454.22,208.05 L451.08,203.52 L447.79,198.78 L444.36,193.85 L440.81,188.77 L437.15,183.58 L433.41,178.30 L429.59,172.97 L425.73,167.63 L421.84,162.31 L417.96,157.04 L414.10,151.84 L410.29,146.76 L406.56,141.81 L402.93,137.03 L399.43,132.43 L396.09,128.05 L392.94,123.90 L390.00,120.00 L387.30,116.37 L384.85,113.01 L382.69,109.95 L380.84,107.19 L379.32,104.73 L378.14,102.58 L377.32,100.75 L376.89,99.23 L376.84,98.01 L377.19,97.10 L377.95,96.48 L379.12,96.15 L380.70,96.10 L382.70,96.31 L385.10,96.77 L387.91,97.46 L391.11,98.36 L394.69,99.47 L398.64,100.76 L402.93,102.21 L407.55,103.80 L412.47,105.52 L417.67,107.34 L423.12,109.24 L428.79,111.21 L434.64,113.23 L440.66,115.29 L446.79,117.35 L453.01,119.42 L459.27,121.47 L465.54,123.49 L471.79,125.47 L477.96,127.41 L484.03,129.28 L489.96,131.09 L495.71,132.83 L501.23,134.49 L506.51,136.07 L511.50,137.58 L516.17,139.00 L520.50,140.35 L524.45,141.63 L527.99,142.84 L531.12,143.99 L533.79,145.08 L536.01,146.12 L537.75,147.13 L539.00,148.10 L539.75,149.06 L540.00,150.00 Z" fill="none" stroke="navy" stroke-width="1.5"/>
  </g>
</svg>