<svg xmlns="http://www.w3.org/2000/svg" width="400" height="350" viewBox="0 0 400 350">
  <polygon points="25.00,-7.22 0.00,36.08 50.00,36.08" fill="hsl(0, 50%, 60%)" stroke="white" stroke-width="1"/>
  <polygon points="50.00,50.52 25.00,7.22 75.00,7.22" fill="hsl(3, 50%, 60%)" stroke="white" stroke-width="1"/>
  <polygon points="75.00,-7.22 50.00,36.08 100.00,36.08" fill="hsl(6, 50%, 60%)" stroke="white" stroke-width="1"/>
  <polygon points="100.00,50.52 75.00,7.22 125.00,7.22" fill="hsl(9, 50%, 60%)" stroke="white" stroke-width="1"/>
  <polygon points="125.00,-7.22 100.00,36.08 150.00,36.08" fill="hsl(12, 50%, 60%)" stroke="white" stroke-width="1"/>
  <polygon points="150.00,50.52 125.00,7.22 175.00,7.22" fill="hsl(15, 50%, 60%)" stroke="white" stroke-width="1"/>
  <polygon points="175.00,-7.22 150.00,36.08 200.00,36.08" fill="hsl(18, 50%, 60%)" stroke="white" stroke-width="1"/>
  <polygon points="200.00,50.52 175.00,7.22 225.00,7.22" fill="hsl(21, 50%, 60%)" stroke="white" stroke-width="1"/>
  <polygon points="225.00,-7.22 200.00,36.08 250.00,36.08" fill="hsl(24, 50%, 60%)" stroke="white" stroke-width="1"/>
  <polygon points="250.00,50.52 225.00,7.22 275.00,7.22" fill="hsl(27, 50%, 60%)" stroke="white" stroke-width="1"/>
  <polygon points="275.00,-7.22 250.00,36.08 300.00,36.08" fill="hsl(30, 50%, 60%)" stroke="white" stroke-width="1"/>
  <polygon points="300.00,50.52 275.00,7.22 325.00,7.22" fill="hsl(33, 50%, 60%)" stroke="white" stroke-width="1"/>
  <polygon points="325.00,-7.22 300.00,36.08 350.00,36.08" fill="hsl(36, 50%, 60%)" stroke="white" stroke-width="1"/>
  <polygon points="350.00,50.52 325.00,7.22 375.00,7.22" fill="hsl(39, 50%, 60%)" stroke="white" stroke-width="1"/>
  <polygon points="375.00,-7.22 350.00,36.08 400.00,36.08" fill="hsl(42, 50%, 60%)" stroke="white" stroke-width="1"/>
  <polygon points="400.00,50.52 375.00,7.22 425.00,7.22" fill="hsl(45, 50%, 60%)" stroke="white" stroke-width="1"/>
  <polygon points="25.00,93.82 0.00,50.52 50.00,50.52" fill="hsl(48, 50%, 80%)" stroke="white" stroke-width="1"/>
  <polygon points="50.00,36.08 25.00,79.39 75.00,79.39" fill="hsl(51, 50%, 80%)" stroke="white" stroke-width="1"/>
  <polygon points="75.00,93.82 50.00,50.52 100.00,50.52" fill="hsl(54, 50%, 80%)" stroke="white" stroke-width="1"/>
  <polygon points="100.00,36.08 75.00,79.39 125.00,79.39" fill="hsl(57, 50%, 80%)" stroke="white" stroke-width="1"/>
  <polygon points="125.00,93.82 100.00,50.52 150.00,50.52" fill="hsl(60, 50%, 80%)" stroke="white" stroke-width="1"/>
  <polygon points="150.00,36.08 125.00,79.39 175.00,79.39" fill="hsl(63, 50%, 80%)" stroke="white" stroke-width="1"/>
  <polygon points="175.00,93.82 150.00,50.52 200.00,50.52" fill="hsl(66, 50%, 80%)" stroke="white" stroke-width="1"/>
  <polygon points="200.00,36.08 175.00,79.39 225.00,79.39" fill="hsl(69, 50%, 80%)" stroke="white" stroke-width="1"/>
  <polygon points="225.00,93.82 200.00,50.52 250.00,50.52" fill="hsl(72, 50%, 80%)" stroke="white" stroke-width="1"/>
  <polygon points="250.00,36.08 225.00,79.39 275.00,79.39" fill="hsl(75, 50%, 80%)" stroke="white" stroke-width="1"/>
  <polygon points="275.00,93.82 250.00,50.52 300.00,50.52" fill="hsl(78, 50%, 80%)" stroke="white" stroke-width="1"/>
  <polygon points="300.00,36.08 275.00,79.39 325.00,79.39" fill="hsl(81, 50%, 80%)" stroke="white" stroke-width="1"/>
  <polygon points="325.00,93.82 300.00,50.52 350.00,50.52" fill="hsl(84, 50%, 80%)" stroke="white" stroke-width="1"/>
  <polygon points="350.00,36.08 325.00,79.39 375.00,79.39" fill="hsl(87, 50%, 80%)" stroke="white" stroke-width="1"/>
  <polygon points="375.00,93.82 350.00,50.52 400.00,50.52" fill="hsl(90, 50%, 80%)" stroke="white" stroke-width="1"/>
  <polygon points="400.00,36.08 375.00,79.39 425.00,79.39" fill="hsl(93, 50%, 80%)" stroke="white" stroke-width="1"/>
  <polygon points="25.00,79.39 0.00,122.69 50.00,122.69" fill="hsl(96, 50%, 60%)" stroke="white" stroke-width="1"/>
  <polygon points="50.00,137.12 25.00,93.82 75.00,93.82" fill="hsl(99, 50%, 60%)" stroke="white" stroke-width="1"/>
  <polygon points="75.00,79.39 50.00,122.69 100.00,122.69" fill="hsl(102, 50%, 60%)" stroke="white" stroke-width="1"/>
  <polygon points="100.00,137.12 75.00,93.82 125.00,93.82" fill="hsl(105, 50%, 60%)" stroke="white" stroke-width="1"/>
  <polygon points="125.00,79.39 100.00,122.69 150.00,122.69" fill="hsl(108, 50%, 60%)" stroke="white" stroke-width="1"/>
  <polygon points="150.00,137.12 125.00,93.82 175.00,93.82" fill="hsl(111, 50%, 60%)" stroke="white" stroke-width="1"/>
  <polygon points="175.00,79.39 150.00,122.69 200.00,122.69" fill="hsl(114, 50%, 60%)" stroke="white" stroke-width="1"/>
  <polygon points="200.00,137.12 175.00,93.82 225.00,93.82" fill="hsl(117, 50%, 60%)" stroke="white" stroke-width="1"/>
  <polygon points="225.00,79.39 200.00,122.69 250.00,122.69" fill="hsl(120, 50%, 60%)" stroke="white" stroke-width="1"/>
  <polygon points="250.00,137.12 225.00,93.82 275.00,93.82" fill="hsl(123, 50%, 60%)" stroke="white" stroke-width="1"/>
  <polygon points="275.00,79.39 250.00,122.69 300.00,122.69" fill="hsl(126, 50%, 60%)" stroke="white" stroke-width="1"/>
  <polygon points="300.00,137.12 275.00,93.82 325.00,93.82" fill="hsl(129, 50%, 60%)" stroke="white" stroke-width="1"/>
  <polygon points="325.00,79.39 300.00,122.69 350.00,122.69" fill="hsl(132, 50%, 60%)" stroke="white" stroke-width="1"/>
  <polygon points="350.00,137.12 325.00,93.82 375.00,93.82" fill="hsl(135, 50%, 60%)" stroke="white" stroke-width="1"/>
  <polygon points="375.00,79.39 350.00,122.69 400.00,122.69" fill="hsl(138, 50%, 60%)" stroke="white" stroke-width="1"/>
  <polygon points="400.00,137.12 375.00,93.82 425.00,93.82" fill="hsl(141, 50%, 60%)" stroke="white" stroke-width="1"/>
  <polygon points="25.00,180.42 0.00,137.12 50.00,137.12" fill="hsl(144, 50%, 80%)" stroke="white" stroke-width="1"/>
  <polygon points="50.00,122.69 25.00,165.99 75.00,165.99" fill="hsl(147, 50%, 80%)" stroke="white" stroke-width="1"/>
  <polygon points="75.00,180.42 50.00,137.12 100.00,137.12" fill="hsl(150, 50%, 80%)" stroke="white" stroke-width="1"/>
  <polygon points="100.00,122.69 75.00,165.99 125.00,165.99" fill="hsl(153, 50%, 80%)" stroke="white" stroke-width="1"/>
  <polygon points="125.00,180.42 100.00,137.12 150.00,137.12" fill="hsl(156, 50%, 80%)" stroke="white" stroke-width="1"/>
  <polygon points="150.00,122.69 125.00,165.99 175.00,165.99" fill="hsl(159, 50%, 80%)" stroke="white" stroke-width="1"/>
  <polygon points="175.00,180.42 150.00,137.12 200.00,137.12" fill="hsl(162, 50%, 80%)" stroke="white" stroke-width="1"/>
  <polygon points="200.00,122.69 175.00,165.99 225.00,165.99" fill="hsl(165, 50%, 80%)" stroke="white" stroke-width="1"/>
  <polygon points="225.00,180.42 200.00,137.12 250.00,137.12" fill="hsl(168, 50%, 80%)" stroke="white" stroke-width="1"/>
  <polygon points="250.00,122.69 225.00,165.99 275.00,165.99" fill="hsl(171, 50%, 80%)" stroke="white" stroke-width="1"/>
  <polygon points="275.00,180.42 250.00,137.12 300.00,137.12" fill="hsl(174, 50%, 80%)" stroke="white" stroke-width="1"/>
  <polygon points="300.00,122.69 275.00,165.99 325.00,165.99" fill="hsl(177, 50%, 80%)" stroke="white" stroke-width="1"/>
  <polygon points="325.00,180.42 300.00,137.12 350.00,137.12" fill="hsl(180, 50%, 80%)" stroke="white" stroke-width="1"/>
  <polygon points="350.00,122.69 325.00,165.99 375.00,165.99" fill="hsl(183, 50%, 80%)" stroke="white" stroke-width="1"/>
  <polygon points="375.00,180.42 350.00,137.12 400.00,137.12" fill="hsl(186, 50%, 80%)" stroke="white" stroke-width="1"/>
  <polygon points="400.00,122.69 375.00,165.99 425.00,165.99" fill="hsl(189, 50%, 80%)" stroke="white" stroke-width="1"/>
  <polygon points="25.00,165.99 0.00,209.29 50.00,209.29" fill="hsl(192, 50%, 60%)" stroke="white" stroke-width="1"/>
  <polygon points="50.00,223.72 25.00,180.42 75.00,180.42" fill="hsl(195, 50%, 60%)" stroke="white" stroke-width="1"/>
  <polygon points="75.00,165.99 50.00,209.29 100.00,209.29" fill="hsl(198, 50%, 60%)" stroke="white" stroke-width="1"/>
  <polygon points="100.00,223.72 75.00,180.42 125.00,180.42" fill="hsl(201, 50%, 60%)" stroke="white" stroke-width="1"/>
  <polygon points="125.00,165.99 100.00,209.29 150.00,209.29" fill="hsl(204, 50%, 60%)" stroke="white" stroke-width="1"/>
  <polygon points="150.00,223.72 125.00,180.42 175.00,180.42" fill="hsl(207, 50%, 60%)" stroke="white" stroke-width="1"/>
  <polygon points="175.00,165.99 150.00,209.29 200.00,209.29" fill="hsl(210, 50%, 60%)" stroke="white" stroke-width="1"/>
  <polygon points="200.00,223.72 175.00,180.42 225.00,180.42" fill="hsl(213, 50%, 60%)" stroke="white" stroke-width="1"/>
  <polygon points="225.00,165.99 200.00,209.29 250.00,209.29" fill="hsl(216, 50%, 60%)" stroke="white" stroke-width="1"/>
  <polygon points="250.00,223.72 225.00,180.42 275.00,180.42" fill="hsl(219, 50%, 60%)" stroke="white" stroke-width="1"/>
  <polygon points="275.00,165.99 250.00,209.29 300.00,209.29" fill="hsl(222, 50%, 60%)" stroke="white" stroke-width="1"/>
  <polygon points="300.00,223.72 275.00,180.42 325.00,180.42" fill="hsl(225, 50%, 60%)" stroke="white" stroke-width="1"/>
  <polygon points="325.00,165.99 300.00,209.29 350.00,209.29" fill="hsl(228, 50%, 60%)" stroke="white" stroke-width="1"/>
  <polygon points="350.00,223.72 325.00,180.42 375.00,180.42" fill="hsl(231, 50%, 60%)" stroke="white" stroke-width="1"/>
  <polygon points="375.00,165.99 350.00,209.29 400.00,209.29" fill="hsl(234, 50%, 60%)" stroke="white" stroke-width="1"/>
  <polygon points="400.00,223.72 375.00,180.42 425.00,180.42" fill="hsl(237, 50%, 60%)" stroke="white" stroke-width="1"/>
  <polygon points="25.00,267.02 0.00,223.72 50.00,223.72" fill="hsl(240, 50%, 80%)" stroke="white" stroke-width="1"/>
  <polygon points="50.00,209.29 25.00,252.59 75.00,252.59" fill="hsl(243, 50%, 80%)" stroke="white" stroke-width="1"/>
  <polygon points="75.00,267.02 50.00,223.72 100.00,223.72" fill="hsl(246, 50%, 80%)" stroke="white" stroke-width="1"/>
  <polygon points="100.00,209.29 75.00,252.59 125.00,252.59" fill="hsl(249, 50%, 80%)" stroke="white" stroke-width="1"/>
  <polygon points="125.00,267.02 100.00,223.72 150.00,223.72" fill="hsl(252, 50%, 80%)" stroke="white" stroke-width="1"/>
  <polygon points="150.00,209.29 125.00,252.59 175.00,252.59" fill="hsl(255, 50%, 80%)" stroke="white" stroke-width="1"/>
  <polygon points="175.00,267.02 150.00,223.72 200.00,223.72" fill="hsl(258, 50%, 80%)" stroke="white" stroke-width="1"/>
  <polygon points="200.00,209.29 175.00,252.59 225.00,252.59" fill="hsl(261, 50%, 80%)" stroke="white" stroke-width="1"/>
  <polygon points="225.00,267.02 200.00,223.72 250.00,223.72" fill="hsl(264, 50%, 80%)" stroke="white" stroke-width="1"/>
  <polygon points="250.00,209.29 225.00,252.59 275.00,252.59" fill="hsl(267, 50%, 80%)" stroke="white" stroke-width="1"/>
  <polygon points="275.00,267.02 250.00,223.72 300.00,223.72" fill="hsl(270, 50%, 80%)" stroke="white" stroke-width="1"/>
  <polygon points="300.00,209.29 275.00,252.59 325.00,252.59" fill="hsl(273, 50%, 80%)" stroke="white" stroke-width="1"/>
  <polygon points="325.00,267.02 300.00,223.72 350.00,223.72" fill="hsl(276, 50%, 80%)" stroke="white" stroke-width="1"/>
  <polygon points="350.00,209.29 325.00,252.59 375.00,252.59" fill="hsl(279, 50%, 80%)" stroke="white" stroke-width="1"/>
  <polygon points="375.00,267.02 350.00,223.72 400.00,223.72" fill="hsl(282, 50%, 80%)" stroke="white" stroke-width="1"/>
  <polygon points="400.00,209.29 375.00,252.59 425.00,252.59" fill="hsl(285, 50%, 80%)" stroke="white" stroke-width="1"/>
  <polygon points="25.00,252.59 0.00,295.89 50.00,295.89" fill="hsl(288, 50%, 60%)" stroke="white" stroke-width="1"/>
  <polygon points="50.00,310.33 25.00,267.02 75.00,267.02" fill="hsl(291, 50%, 60%)" stroke="white" stroke-width="1"/>
  <polygon points="75.00,252.59 50.00,295.89 100.00,295.89" fill="hsl(294, 50%, 60%)" stroke="white" stroke-width="1"/>
  <polygon points="100.00,310.33 75.00,267.02 125.00,267.02" fill="hsl(297, 50%, 60%)" stroke="white" stroke-width="1"/>
  <polygon points="125.00,252.59 100.00,295.89 150.00,295.89" fill="hsl(300, 50%, 60%)" stroke="white" stroke-width="1"/>
  <polygon points="150.00,310.33 125.00,267.02 175.00,267.02" fill="hsl(303, 50%, 60%)" stroke="white" stroke-width="1"/>
  <polygon points="175.00,252.59 150.00,295.89 200.00,295.89" fill="hsl(306, 50%, 60%)" stroke="white" stroke-width="1"/>
  <polygon points="200.00,310.33 175.00,267.02 225.00,267.02" fill="hsl(309, 50%, 60%)" stroke="white" stroke-width="1"/>
  <polygon points="225.00,252.59 200.00,295.89 250.00,295.89" fill="hsl(312, 50%, 60%)" stroke="white" stroke-width="1"/>
  <polygon points="250.00,310.33 225.00,267.02 275.00,267.02" fill="hsl(315, 50%, 60%)" stroke="white" stroke-width="1"/>
  <polygon points="275.00,252.59 250.00,295.89 300.00,295.89" fill="hsl(318, 50%, 60%)" stroke="white" stroke-width="1"/>
  <polygon points="300.00,310.33 275.00,267.02 325.00,267.02" fill="hsl(321, 50%, 60%)" stroke="white" stroke-width="1"/>
  <polygon points="325.00,252.59 300.00,295.89 350.00,295.89" fill="hsl(324, 50%, 60%)" stroke="white" stroke-width="1"/>
  <polygon points="350.00,310.33 325.00,267.02 375.00,267.02" fill="hsl(327, 50%, 60%)" stroke="white" stroke-width="1"/>
  <polygon points="375.00,252.59 350.00,295.89 400.00,295.89" fill="hsl(330, 50%, 60%)" stroke="white" stroke-width="1"/>
  <polygon points="400.00,310.33 375.00,267.02 425.00,267.02" fill="hsl(333, 50%, 60%)" stroke="white" stroke-width="1"/>
  <polygon points="25.00,353.63 0.00,310.33 50.00,310.33" fill="hsl(336, 50%, 80%)" stroke="white" stroke-width="1"/>
  <polygon points="50.00,295.89 25.00,339.19 75.00,339.19" fill="hsl(339, 50%, 80%)" stroke="white" stroke-width="1"/>
  <polygon points="75.00,353.63 50.00,310.33 100.00,310.33" fill="hsl(342, 50%, 80%)" stroke="white" stroke-width="1"/>
  <polygon points="100.00,295.89 75.00,339.19 125.00,339.19" fill="hsl(345, 50%, 80%)" stroke="white" stroke-width="1"/>
  <polygon points="125.00,353.63 100.00,310.33 150.00,310.33" fill="hsl(348, 50%, 80%)" stroke="white" stroke-width="1"/>
  <polygon points="150.00,295.89 125.00,339.19 175.00,339.19" fill="hsl(351, 50%, 80%)" stroke="white" stroke-width="1"/>
  <polygon points="175.00,353.63 150.00,310.33 200.00,310.33" fill="hsl(354, 50%, 80%)" stroke="white" stroke-width="1"/>
  <polygon points="200.00,295.89 175.00,339.19 225.00,339.19" fill="hsl(357, 50%, 80%)" stroke="white" stroke-width="1"/>
  <polygon points="225.00,353.63 200.00,310.33 250.00,310.33" fill="hsl(360, 50%, 80%)" stroke="white" stroke-width="1"/>
  <polygon points="250.00,295.89 225.00,339.19 275.00,339.19" fill="hsl(363, 50%, 80%)" stroke="white" stroke-width="1"/>
  <polygon points="275.00,353.63 250.00,310.33 300.00,310.33" fill="hsl(366, 50%, 80%)" stroke="white" stroke-width="1"/>
  <polygon points="300.00,295.89 275.00,339.19 325.00,339.19" fill="hsl(369, 50%, 80%)" stroke="white" stroke-width="1"/>
  <polygon points="325.00,353.63 300.00,310.33 350.00,310.33" fill="hsl(372, 50%, 80%)" stroke="white" stroke-width="1"/>
  <polygon points="350.00,295.89 325.00,339.19 375.00,339.19" fill="hsl(375, 50%, 80%)" stroke="white" stroke-width="1"/>
  <polygon points="375.00,353.63 350.00,310.33 400.00,310.33" fill="hsl(378, 50%, 80%)" stroke="white" stroke-width="1"/>
  <polygon points="400.00,295.89 375.00,339.19 425.00,339.19" fill="hsl(381, 50%, 80%)" stroke="white" stroke-width="1"/>
</svg>