<svg xmlns="http://www.w3.org/2000/svg" width="400" height="400" viewBox="0 0 400 400">
  <polygon points="0.00,0.00 50.00,0.00 50.00,50.00 0.00,50.00" fill="#4a90d9" stroke="#333" stroke-width="1"/>
  <polygon points="50.00,0.00 100.00,0.00 100.00,50.00 50.00,50.00" fill="#f5f5f5" stroke="#333" stroke-width="1"/>
  <polygon points="100.00,0.00 150.00,0.00 150.00,50.00 100.00,50.00" fill="#4a90d9" stroke="#333" stroke-width="1"/>
  <polygon points="150.00,0.00 200.00,0.00 200.00,50.00 150.00,50.00" fill="#f5f5f5" stroke="#333" stroke-width="1"/>
  <polygon points="200.00,0.00 250.00,0.00 250.00,50.00 200.00,50.00" fill="#4a90d9" stroke="#333" stroke-width="1"/>
  <polygon points="250.00,0.00 300.00,0.00 300.00,50.00 250.00,50.00" fill="#f5f5f5" stroke="#333" stroke-width="1"/>
  <polygon points="300.00,0.00 350.00,0.00 350.00,50.00 300.00,50.00" fill="#4a90d9" stroke="#333" stroke-width="1"/>
  <polygon points="350.00,0.00 400.00,0.00 400.00,50.00 350.00,50.00" fill="#f5f5f5" stroke="#333" stroke-width="1"/>
  <polygon points="0.00,50.00 50.00,50.00 50.00,100.00 0.00,100.00" fill="#f5f5f5" stroke="#333" stroke-width="1"/>
  <polygon points="50.00,50.00 100.00,50.00 100.00,100.00 50.00,100.00" fill="#4a90d9" stroke="#333" stroke-width="1"/>
  <polygon points="100.00,50.00 150.00,50.00 150.00,100.00 100.00,100.00" fill="#f5f5f5" stroke="#333" stroke-width="1"/>
  <polygon points="150.00,50.00 200.00,50.00 200.00,100.00 150.00,100.00" fill="#4a90d9" stroke="#333" stroke-width="1"/>
  <polygon points="200.00,50.00 250.00,50.00 250.00,100.00 200.00,100.00" fill="#f5f5f5" stroke="#333" stroke-width="1"/>
  <polygon points="250.00,50.00 300.00,50.00 300.00,100.00 250.00,100.00" fill="#4a90d9" stroke="#333" stroke-width="1"/>
  <polygon points="300.00,50.00 350.00,50.00 350.00,100.00 300.00,100.00" fill="#f5f5f5" stroke="#333" stroke-width="1"/>
  <polygon points="350.00,50.00 400.00,50.00 400.00,100.00 350.00,100.00" fill="#4a90d9" stroke="#333" stroke-width="1"/>
  <polygon points="0.00,100.00 50.00,100.00 50.00,150.00 0.00,150.00" fill="#4a90d9" stroke="#333" stroke-width="1"/>
  <polygon points="50.00,100.00 100.00,100.00 100.00,150.00 50.00,150.00" fill="#f5f5f5" stroke="#333" stroke-width="1"/>
  <polygon points="100.00,100.00 150.00,100.00 150.00,150.00 100.00,150.00" fill="#4a90d9" stroke="#333" stroke-width="1"/>
  <polygon points="150.00,100.00 200.00,100.00 200.00,150.00 150.00,150.00" fill="#f5f5f5" stroke="#333" stroke-width="1"/>
  <polygon points="200.00,100.00 250.00,100.00 250.00,150.00 200.00,150.00" fill="#4a90d9" stroke="#333" stroke-width="1"/>
  <polygon points="250.00,100.00 300.00,100.00 300.00,150.00 250.00,150.00" fill="#f5f5f5" stroke="#333" stroke-width="1"/>
  <polygon points="300.00,100.00 350.00,100.00 350.00,150.00 300.00,150.00" fill="#4a90d9" stroke="#333" stroke-width="1"/>
  <polygon points="350.00,100.00 400.00,100.00 400.00,150.00 350.00,150.00" fill="#f5f5f5" stroke="#333" stroke-width="1"/>
  <polygon points="0.00,150.00 50.00,150.00 50.00,200.00 0.00,200.00" fill="#f5f5f5" stroke="#333" stroke-width="1"/>
  <polygon points="50.00,150.00 100.00,150.00 100.00,200.00 50.00,200.00" fill="#4a90d9" stroke="#333" stroke-width="1"/>
  <polygon points="100.00,150.00 150.00,150.00 150.00,200.00 100.00,200.00" fill="#f5f5f5" stroke="#333" stroke-width="1"/>
  <polygon points="150.00,150.00 200.00,150.00 200.00,200.00 150.00,200.00" fill="#4a90d9" stroke="#333" stroke-width="1"/>
  <polygon points="200.00,150.00 250.00,150.00 250.00,200.00 200.00,200.00" fill="#f5f5f5" stroke="#333" stroke-width="1"/>
  <polygon points="250.00,150.00 300.00,150.00 300.00,200.00 250.00,200.00" fill="#4a90d9" stroke="#333" stroke-width="1"/>
  <polygon points="300.00,150.00 350.00,150.00 350.00,200.00 300.00,200.00" fill="#f5f5f5" stroke="#333" stroke-width="1"/>
  <polygon points="350.00,150.00 400.00,150.00 400.00,200.00 350.00,200.00" fill="#4a90d9" stroke="#333" stroke-width="1"/>
  <polygon points="0.00,200.00 50.00,200.00 50.00,250.00 0.00,250.00" fill="#4a90d9" stroke="#333" stroke-width="1"/>
  <polygon points="50.00,200.00 100.00,200.00 100.00,250.00 50.00,250.00" fill="#f5f5f5" stroke="#333" stroke-width="1"/>
  <polygon points="100.00,200.00 150.00,200.00 150.00,250.00 100.00,250.00" fill="#4a90d9" stroke="#333" stroke-width="1"/>
  <polygon points="150.00,200.00 200.00,200.00 200.00,250.00 150.00,250.00" fill="#f5f5f5" stroke="#333" stroke-width="1"/>
  <polygon points="200.00,200.00 250.00,200.00 250.00,250.00 200.00,250.00" fill="#4a90d9" stroke="#333" stroke-width="1"/>
  <polygon points="250.00,200.00 300.00,200.00 300.00,250.00 250.00,250.00" fill="#f5f5f5" stroke="#333" stroke-width="1"/>
  <polygon points="300.00,200.00 350.00,200.00 350.00,250.00 300.00,250.00" fill="#4a90d9" stroke="#333" stroke-width="1"/>
  <polygon points="350.00,200.00 400.00,200.00 400.00,250.00 350.00,250.00" fill="#f5f5f5" stroke="#333" stroke-width="1"/>
  <polygon points="0.00,250.00 50.00,250.00 50.00,300.00 0.00,300.00" fill="#f5f5f5" stroke="#333" stroke-width="1"/>
  <polygon points="50.00,250.00 100.00,250.00 100.00,300.00 50.00,300.00" fill="#4a90d9" stroke="#333" stroke-width="1"/>
  <polygon points="100.00,250.00 150.00,250.00 150.00,300.00 100.00,300.00" fill="#f5f5f5" stroke="#333" stroke-width="1"/>
  <polygon points="150.00,250.00 200.00,250.00 200.00,300.00 150.00,300.00" fill="#4a90d9" stroke="#333" stroke-width="1"/>
  <polygon points="200.00,250.00 250.00,250.00 250.00,300.00 200.00,300.00" fill="#f5f5f5" stroke="#333" stroke-width="1"/>
  <polygon points="250.00,250.00 300.00,250.00 300.00,300.00 250.00,300.00" fill="#4a90d9" stroke="#333" stroke-width="1"/>
  <polygon points="300.00,250.00 350.00,250.00 350.00,300.00 300.00,300.00" fill="#f5f5f5" stroke="#333" stroke-width="1"/>
  <polygon points="350.00,250.00 400.00,250.00 400.00,300.00 350.00,300.00" fill="#4a90d9" stroke="#333" stroke-width="1"/>
  <polygon points="0.00,300.00 50.00,300.00 50.00,350.00 0.00,350.00" fill="#4a90d9" stroke="#333" stroke-width="1"/>
  <polygon points="50.00,300.00 100.00,300.00 100.00,350.00 50.00,350.00" fill="#f5f5f5" stroke="#333" stroke-width="1"/>
  <polygon points="100.00,300.00 150.00,300.00 150.00,350.00 100.00,350.00" fill="#4a90d9" stroke="#333" stroke-width="1"/>
  <polygon points="150.00,300.00 200.00,300.00 200.00,350.00 150.00,350.00" fill="#f5f5f5" stroke="#333" stroke-width="1"/>
  <polygon points="200.00,300.00 250.00,300.00 250.00,350.00 200.00,350.00" fill="#4a90d9" stroke="#333" stroke-width="1"/>
  <polygon points="250.00,300.00 300.00,300.00 300.00,350.00 250.00,350.00" fill="#f5f5f5" stroke="#333" stroke-width="1"/>
  <polygon points="300.00,300.00 350.00,300.00 350.00,350.00 300.00,350.00" fill="#4a90d9" stroke="#333" stroke-width="1"/>
  <polygon points="350.00,300.00 400.00,300.00 400.00,350.00 350.00,350.00" fill="#f5f5f5" stroke="#333" stroke-width="1"/>
  <polygon points="0.00,350.00 50.00,350.00 50.00,400.00 0.00,400.00" fill="#f5f5f5" stroke="#333" stroke-width="1"/>
  <polygon points="50.00,350.00 100.00,350.00 100.00,400.00 50.00,400.00" fill="#4a90d9" stroke="#333" stroke-width="1"/>
  <polygon points="100.00,350.00 150.00,350.00 150.00,400.00 100.00,400.00" fill="#f5f5f5" stroke="#333" stroke-width="1"/>
  <polygon points="150.00,350.00 200.00,350.00 200.00,400.00 150.00,400.00" fill="#4a90d9" stroke="#333" stroke-width="1"/>
  <polygon points="200.00,350.00 250.00,350.00 250.00,400.00 200.00,400.00" fill="#f5f5f5" stroke="#333" stroke-width="1"/>
  <polygon points="250.00,350.00 300.00,350.00 300.00,400.00 250.00,400.00" fill="#4a90d9" stroke="#333" stroke-width="1"/>
  <polygon points="300.00,350.00 350.00,350.00 350.00,400.00 300.00,400.00" fill="#f5f5f5" stroke="#333" stroke-width="1"/>
  <polygon points="350.00,350.00 400.00,350.00 400.00,400.00 350.00,400.00" fill="#4a90d9" stroke="#333" stroke-width="1"/>
</svg>